<svg width="88" height="102" viewBox="0 0 88 102" fill="none" xmlns="http://www.w3.org/2000/svg">
<path d="M88 39.4701C88 18.04 68.3016 0.667679 44.0009 0.667679C19.7002 0.667679 0 18.04 0 39.4701C0 45.6718 1.64918 51.5332 4.58425 56.7331L17.3461 81.8347C17.3461 83.9361 30.6708 101.964 33.7407 101.964H55.779C58.8507 101.964 70.6539 83.9361 70.6539 81.8347L81.9015 59.1896C85.7753 53.4112 88 46.669 88 39.4701Z" fill="#2F91C9"/>
<path d="M78.8801 39.4343C78.8801 18.0042 63.2642 0.631905 43.9992 0.631905C24.7341 0.631905 9.12 18.0042 9.12 39.4343C9.12 45.636 10.4275 51.4981 12.7547 56.6973L22.8709 81.7989C22.8709 83.9003 33.4333 101.929 35.8684 101.929H53.3385C55.7736 101.929 65.1309 83.9003 65.1309 81.7989L74.0477 59.1538C77.1176 53.3754 78.8801 46.6332 78.8801 39.4343Z" fill="#FDF7DF"/>
<path d="M65.2013 39.5049C65.2013 18.0749 55.709 0.70256 43.9993 0.70256C32.2896 0.70256 22.7974 18.0757 22.7974 39.5049C22.7974 45.7067 23.5923 51.5688 25.0059 56.7679L31.1548 81.8695C31.1548 83.9709 37.5752 101.999 39.0554 101.999H49.6752C51.1553 101.999 56.8439 83.9709 56.8439 81.8695L62.2644 59.2244C64.1312 53.4468 65.2013 46.7046 65.2013 39.5049Z" fill="#2F91C9"/>
<path d="M50.7006 39.4149C50.7006 17.9849 47.8897 0.612556 44.4204 0.612556C40.9512 0.612556 38.1403 17.9849 38.1403 39.4149C38.1403 45.6167 38.3759 51.4788 38.7949 56.6779L40.6167 81.7796C40.6167 83.8809 42.5195 101.909 42.9565 101.909H46.102C46.5408 101.909 48.226 83.8809 48.226 81.7796L49.832 59.1344C50.3841 53.3561 50.7006 46.6146 50.7006 39.4149Z" fill="#FDF7DF"/>
<path d="M43.9991 3.79177C47.2749 3.79177 49.9304 2.94295 49.9304 1.89588C49.9304 0.848816 47.2749 0 43.9991 0C40.7234 0 38.0679 0.848816 38.0679 1.89588C38.0679 2.94295 40.7234 3.79177 43.9991 3.79177Z" fill="#FFC59C"/>
<path d="M27.7517 96.7861C27.7517 96.7861 38.7187 98.5161 61.3378 96.7861C61.3378 96.7861 58.1743 101.311 55.7788 101.964H33.7405C33.7405 101.964 32.1903 102.567 27.7517 96.7861Z" fill="#FFC59C"/>
</svg>
