<svg width="181" height="68" viewBox="0 0 181 68" fill="none" xmlns="http://www.w3.org/2000/svg">
<g clip-path="url(#clip0)">
<path d="M135.095 59.8702H139.489V51.7388H135.095V59.8702Z" fill="#8E8E8E"/>
<path d="M137.244 68C134.767 68 132.751 65.5869 132.751 62.619C132.751 59.651 134.767 57.2379 137.244 57.2379C139.721 57.2379 141.736 59.651 141.736 62.619C141.736 65.5869 139.721 68 137.244 68ZM137.244 60.1078C136.476 60.1078 135.62 61.1386 135.62 62.619C135.62 64.0993 136.476 65.1301 137.244 65.1301C138.011 65.1301 138.867 64.0993 138.867 62.619C138.867 61.141 138.011 60.1078 137.244 60.1078Z" fill="#999999"/>
<path d="M42.3267 59.8702H46.7212V51.7388H42.3267V59.8702Z" fill="#8E8E8E"/>
<path d="M44.4758 68C41.9988 68 39.9808 65.5869 39.9808 62.619C39.9808 59.651 41.9964 57.2379 44.4758 57.2379C46.9551 57.2379 48.9683 59.651 48.9683 62.619C48.9683 65.5869 46.9528 68 44.4758 68ZM44.4758 60.1078C43.7083 60.1078 42.8499 61.1386 42.8499 62.619C42.8499 64.0993 43.7059 65.1301 44.4758 65.1301C45.2432 65.1301 46.0992 64.0993 46.0992 62.619C46.0992 61.141 45.2432 60.1078 44.4758 60.1078Z" fill="#999999"/>
<path d="M5.38934 18.6786L8.4967 21.7868L14.2448 16.0371L11.1375 12.9289L5.38934 18.6786Z" fill="#8E8E8E"/>
<path d="M4.09085 27.1087C2.95755 27.1087 1.91272 26.6997 1.15958 25.9487C0.274939 25.0639 -0.133909 23.7724 0.0382377 22.4068C0.196039 21.156 0.817678 19.9339 1.786 18.9653C2.75433 17.9967 3.97609 17.3749 5.22654 17.2171C6.59176 17.0449 7.88285 17.4538 8.76749 18.3387C10.52 20.0893 10.2379 23.2223 8.14107 25.3221C7.17275 26.2907 5.95099 26.9126 4.70054 27.0704C4.49492 27.0967 4.29169 27.1087 4.09085 27.1087ZM3.81589 20.9934C3.30185 21.5076 2.96234 22.1533 2.88583 22.7655C2.84996 23.0477 2.84279 23.5715 3.18947 23.9183C3.53616 24.2651 4.05977 24.2579 4.3419 24.222C4.95397 24.1455 5.59952 23.8059 6.11357 23.2917C7.16079 22.2442 7.28273 20.9097 6.73999 20.3668C6.39331 20.02 5.8697 20.0272 5.58757 20.063C4.97549 20.142 4.32994 20.4792 3.81589 20.9934Z" fill="#999999"/>
<path d="M172.574 20.7594L175.681 17.6512L169.933 11.9015L166.826 15.0097L172.574 20.7594Z" fill="#8E8E8E"/>
<path d="M176.909 26.1519C176.708 26.1519 176.505 26.14 176.299 26.1137C175.049 25.9558 173.827 25.334 172.859 24.3654C170.762 22.268 170.48 19.135 172.232 17.382C173.117 16.4971 174.408 16.0881 175.773 16.2603C177.024 16.4182 178.245 17.04 179.214 18.0086C180.182 18.9772 180.804 20.2017 180.961 21.4501C181.134 22.8157 180.725 24.1071 179.84 24.992C179.087 25.743 178.042 26.1519 176.909 26.1519ZM174.886 22.335C175.4 22.8491 176.046 23.1888 176.658 23.2653C176.937 23.3012 177.463 23.3083 177.81 22.9616C178.157 22.6148 178.15 22.091 178.114 21.8088C178.037 21.1966 177.698 20.5508 177.184 20.0366C176.67 19.5224 176.024 19.1828 175.412 19.1063C175.13 19.0704 174.606 19.0633 174.26 19.41C173.717 19.9529 173.841 21.2898 174.886 22.335Z" fill="#999999"/>
<path d="M4.30103 9.8844C4.30103 9.8844 83.3975 -12.3574 175.209 9.8844C175.209 9.8844 139.627 34.3264 89.755 34.1829C39.8827 34.0394 4.30103 9.8844 4.30103 9.8844Z" fill="#8E7C6F"/>
<path d="M4.30103 9.88437C4.30103 9.88437 80.067 28.137 175.209 9.88437C175.209 9.88437 152.765 51.0747 139.223 55.0854H43.438C43.438 55.0854 29.5731 51.84 4.30103 9.88437Z" fill="#FFC59C"/>
</g>
<defs>
<clipPath id="clip0">
<rect width="181" height="68" fill="white"/>
</clipPath>
</defs>
</svg>
