<svg width="76" height="93" viewBox="0 0 76 93" fill="none" xmlns="http://www.w3.org/2000/svg">
<g clip-path="url(#clip0)">
<path d="M23.0449 71.0713C23.0449 71.0713 24.1868 72.824 21.5606 80.8443C18.9344 88.8646 5.92369 86.6874 5.92369 86.6874C5.92369 86.6874 -1.27799 87.4288 1.34826 92.6684" stroke="#464656" stroke-width="4" stroke-miterlimit="10"/>
<path d="M5.69036 27.4294C8.83305 27.4294 11.3807 21.8899 11.3807 15.0566C11.3807 8.22336 8.83305 2.6839 5.69036 2.6839C2.54766 2.6839 0 8.22336 0 15.0566C0 21.8899 2.54766 27.4294 5.69036 27.4294Z" fill="#535363"/>
<path d="M17.2812 34.7513C17.2812 34.7513 19.3134 37.843 17.8281 42.5192H27.4988C27.4988 42.5192 25.7194 37.6835 28.144 34.7513H17.2812Z" fill="#464656"/>
<path d="M27.8394 35.8604L17.4087 35.7019L14.467 29.2818H30.9594L27.8394 35.8604Z" fill="#535363"/>
<path d="M18.3268 31.4395H34.3331C34.3331 31.4395 66.7546 26.3535 68.726 26.3535V5.3687C68.726 5.3687 46.2009 0.140851 30.5273 0.0430431C14.8538 -0.0547652 8.48057 0.0430431 8.48057 0.0430431C8.48057 0.0430431 4.71721 -0.0547653 4.52914 4.34661C4.34107 8.74798 4.52914 25.6072 4.52914 25.6072C4.52914 25.6072 3.6563 31.4395 10.9911 31.4395C18.3258 31.4395 18.3268 31.4395 18.3268 31.4395Z" fill="#7494CE"/>
<path d="M26.3416 74.3841H19.084C17.0953 74.3841 15.4827 72.7488 15.4827 70.732V45.6168C15.4827 43.6 17.0953 41.9646 19.084 41.9646H26.3416C28.3303 41.9646 29.9429 43.6 29.9429 45.6168V70.732C29.9429 72.7488 28.3313 74.3841 26.3416 74.3841Z" fill="#535363"/>
<path d="M21.2183 26.6469C27.1841 26.6469 32.0203 21.7424 32.0203 15.6924C32.0203 9.64239 27.1841 4.73788 21.2183 4.73788C15.2525 4.73788 10.4163 9.64239 10.4163 15.6924C10.4163 21.7424 15.2525 26.6469 21.2183 26.6469Z" fill="#464656"/>
<path d="M74.4289 5.12909C74.4289 5.12909 70.3984 5.60737 68.727 5.36872C67.0546 5.12909 67.5561 24.4951 67.5561 24.4951L68.727 26.3535C68.727 26.3535 73.611 25.4732 74.4289 26.2557V5.12909Z" fill="#7494CE"/>
<path d="M74.4288 26.2557C75.2965 26.2557 75.9999 21.5263 75.9999 15.6924C75.9999 9.85844 75.2965 5.12909 74.4288 5.12909C73.5611 5.12909 72.8577 9.85844 72.8577 15.6924C72.8577 21.5263 73.5611 26.2557 74.4288 26.2557Z" fill="#464656"/>
<path d="M21.2666 24.9842C26.3002 24.9842 30.3808 20.846 30.3808 15.7413C30.3808 10.6366 26.3002 6.49841 21.2666 6.49841C16.2329 6.49841 12.1523 10.6366 12.1523 15.7413C12.1523 20.846 16.2329 24.9842 21.2666 24.9842Z" fill="#7494CE"/>
<path d="M22.7133 53.4464C21.5472 53.4464 20.6021 52.4879 20.6021 51.3054V49.1321C20.6021 47.9496 21.5472 46.9911 22.7133 46.9911C23.8793 46.9911 24.8245 47.9496 24.8245 49.1321V51.3054C24.8245 52.4879 23.8793 53.4464 22.7133 53.4464Z" fill="#7494CE"/>
<path d="M22.6929 53.0688C21.8133 53.0688 21.1006 52.346 21.1006 51.454C21.1006 50.562 21.8133 49.8392 22.6929 49.8392C23.5725 49.8392 24.2853 50.562 24.2853 51.454C24.2853 52.346 23.5725 53.0688 22.6929 53.0688Z" fill="#464656"/>
</g>
<defs>
<clipPath id="clip0">
<rect width="76" height="93" fill="white"/>
</clipPath>
</defs>
</svg>
