<svg width="156" height="92" viewBox="0 0 156 92" fill="none" xmlns="http://www.w3.org/2000/svg">
<g clip-path="url(#clip0)">
<path d="M18.4681 9.19998H13.4902V18.4H18.4681V9.19998Z" fill="#8E8E8E"/>
<path d="M16.036 12.1765C13.2302 12.1765 10.9443 9.44623 10.9443 6.08823C10.9443 2.73023 13.2275 0 16.036 0C18.8445 0 21.125 2.73023 21.125 6.08823C21.125 9.44623 18.8418 12.1765 16.036 12.1765ZM16.036 3.24706C15.1666 3.24706 14.1943 4.41329 14.1943 6.08823C14.1943 7.76318 15.1639 8.92941 16.036 8.92941C16.9054 8.92941 17.875 7.76318 17.875 6.08823C17.875 4.41329 16.9054 3.24706 16.036 3.24706Z" fill="#999999"/>
<path d="M26.3439 10.7261H24.0906V14.8932H26.3439V10.7261Z" fill="#8E8E8E"/>
<path d="M25.2443 11.3404C24.0798 11.3404 23.1318 10.1904 23.1318 8.77791C23.1318 7.36544 24.0798 6.21544 25.2443 6.21544C26.4089 6.21544 27.3541 7.36544 27.3541 8.77791C27.3541 10.1904 26.4062 11.3404 25.2443 11.3404ZM25.2443 7.29509C24.6864 7.29509 24.2152 7.97426 24.2152 8.7752C24.2152 9.57615 24.6864 10.2553 25.2443 10.2553C25.8023 10.2553 26.2708 9.57885 26.2708 8.7752C26.2708 7.97156 25.7995 7.29509 25.2443 7.29509Z" fill="#999999"/>
<path d="M136.018 18.3999L140.996 18.3999L140.996 9.1999L136.018 9.1999L136.018 18.3999Z" fill="#8E8E8E"/>
<path d="M138.453 12.1765C135.647 12.1765 133.364 9.44623 133.364 6.08823C133.364 2.73023 135.644 0 138.453 0C141.259 0 143.542 2.73023 143.542 6.08823C143.542 9.44623 141.259 12.1765 138.453 12.1765ZM138.453 3.24706C137.583 3.24706 136.614 4.41329 136.614 6.08823C136.614 7.76318 137.583 8.92941 138.453 8.92941C139.322 8.92941 140.292 7.76318 140.292 6.08823C140.292 4.41329 139.322 3.24706 138.453 3.24706Z" fill="#999999"/>
<path d="M128.141 14.8936L130.394 14.8936L130.394 10.7265L128.141 10.7265L128.141 14.8936Z" fill="#8E8E8E"/>
<path d="M129.244 11.3404C128.08 11.3404 127.135 10.1904 127.135 8.77791C127.135 7.36544 128.082 6.21544 129.244 6.21544C130.406 6.21544 131.354 7.36544 131.354 8.77791C131.354 10.1904 130.406 11.3404 129.244 11.3404ZM129.244 7.29509C128.686 7.29509 128.218 7.97426 128.218 8.7752C128.218 9.57615 128.689 10.2553 129.244 10.2553C129.8 10.2553 130.271 9.57885 130.271 8.7752C130.271 7.97156 129.8 7.29509 129.244 7.29509Z" fill="#999999"/>
<path d="M122.739 92H34.6044C20.429 92 8.9375 80.519 8.9375 66.3564V18.4H147.062V67.6985C147.062 81.1197 136.172 92 122.739 92Z" fill="#D1A474"/>
<path d="M150.768 27.0588H5.2325C2.34271 27.0588 0 24.7182 0 21.8311V19.2957C0 16.4112 2.34271 14.0706 5.2325 14.0706H150.77C153.657 14.0706 156 16.4112 156 19.2984V21.8338C156 24.7182 153.657 27.0588 150.768 27.0588Z" fill="#8C6D5D"/>
<path d="M22.344 33.5529H15.0315C13.9102 33.5529 13.0002 32.6438 13.0002 31.5235C13.0002 30.4033 13.9102 29.4941 15.0315 29.4941H22.344C23.4652 29.4941 24.3752 30.4033 24.3752 31.5235C24.3752 32.6438 23.4652 33.5529 22.344 33.5529Z" fill="#8C6D5D"/>
<path d="M36.698 33.5529H29.3855C28.2642 33.5529 27.3542 32.6438 27.3542 31.5235C27.3542 30.4033 28.2642 29.4941 29.3855 29.4941H36.698C37.8192 29.4941 38.7292 30.4033 38.7292 31.5235C38.7292 32.6438 37.8192 33.5529 36.698 33.5529Z" fill="#8C6D5D"/>
<path d="M51.323 33.5529H44.0105C42.8892 33.5529 41.9792 32.6438 41.9792 31.5235C41.9792 30.4033 42.8892 29.4941 44.0105 29.4941H51.323C52.4443 29.4941 53.3543 30.4033 53.3543 31.5235C53.3543 32.6438 52.4443 33.5529 51.323 33.5529Z" fill="#8C6D5D"/>
<path d="M66.219 33.5529H58.9065C57.7852 33.5529 56.8752 32.6438 56.8752 31.5235C56.8752 30.4033 57.7852 29.4941 58.9065 29.4941H66.219C67.3402 29.4941 68.2502 30.4033 68.2502 31.5235C68.2502 32.6438 67.3402 33.5529 66.219 33.5529Z" fill="#8C6D5D"/>
<path d="M80.844 33.5529H73.5315C72.4102 33.5529 71.5002 32.6438 71.5002 31.5235C71.5002 30.4033 72.4102 29.4941 73.5315 29.4941H80.844C81.9652 29.4941 82.8752 30.4033 82.8752 31.5235C82.8752 32.6438 81.9652 33.5529 80.844 33.5529Z" fill="#8C6D5D"/>
<path d="M94.9272 33.5529H87.6147C86.4935 33.5529 85.5835 32.6438 85.5835 31.5235C85.5835 30.4033 86.4935 29.4941 87.6147 29.4941H94.9272C96.0485 29.4941 96.9585 30.4033 96.9585 31.5235C96.9585 32.6438 96.0485 33.5529 94.9272 33.5529Z" fill="#8C6D5D"/>
<path d="M109.281 33.5529H101.969C100.848 33.5529 99.9375 32.6438 99.9375 31.5235C99.9375 30.4033 100.848 29.4941 101.969 29.4941H109.281C110.403 29.4941 111.313 30.4033 111.313 31.5235C111.313 32.6438 110.403 33.5529 109.281 33.5529Z" fill="#8C6D5D"/>
<path d="M123.906 33.5529H116.594C115.473 33.5529 114.562 32.6438 114.562 31.5235C114.562 30.4033 115.473 29.4941 116.594 29.4941H123.906C125.028 29.4941 125.938 30.4033 125.938 31.5235C125.938 32.6438 125.028 33.5529 123.906 33.5529Z" fill="#8C6D5D"/>
<path d="M138.531 33.5529H131.219C130.098 33.5529 129.188 32.6438 129.188 31.5235C129.188 30.4033 130.098 29.4941 131.219 29.4941H138.531C139.653 29.4941 140.563 30.4033 140.563 31.5235C140.563 32.6438 139.653 33.5529 138.531 33.5529Z" fill="#8C6D5D"/>
<path d="M30.469 40.5882H23.1565C22.0352 40.5882 21.1252 39.6791 21.1252 38.5588C21.1252 37.4386 22.0352 36.5294 23.1565 36.5294H30.469C31.5902 36.5294 32.5002 37.4386 32.5002 38.5588C32.5002 39.6791 31.5902 40.5882 30.469 40.5882Z" fill="#8C6D5D"/>
<path d="M44.823 40.5882H37.5105C36.3892 40.5882 35.4792 39.6791 35.4792 38.5588C35.4792 37.4386 36.3892 36.5294 37.5105 36.5294H44.823C45.9442 36.5294 46.8542 37.4386 46.8542 38.5588C46.8542 39.6791 45.9442 40.5882 44.823 40.5882Z" fill="#8C6D5D"/>
<path d="M59.448 40.5882H52.1355C51.0142 40.5882 50.1042 39.6791 50.1042 38.5588C50.1042 37.4386 51.0142 36.5294 52.1355 36.5294H59.448C60.5692 36.5294 61.4792 37.4386 61.4792 38.5588C61.4792 39.6791 60.5692 40.5882 59.448 40.5882Z" fill="#8C6D5D"/>
<path d="M74.344 40.5882H67.0315C65.9102 40.5882 65.0002 39.6791 65.0002 38.5588C65.0002 37.4386 65.9102 36.5294 67.0315 36.5294H74.344C75.4652 36.5294 76.3752 37.4386 76.3752 38.5588C76.3752 39.6791 75.4652 40.5882 74.344 40.5882Z" fill="#8C6D5D"/>
<path d="M88.969 40.5882H81.6565C80.5352 40.5882 79.6252 39.6791 79.6252 38.5588C79.6252 37.4386 80.5352 36.5294 81.6565 36.5294H88.969C90.0902 36.5294 91.0002 37.4386 91.0002 38.5588C91.0002 39.6791 90.0902 40.5882 88.969 40.5882Z" fill="#8C6D5D"/>
<path d="M103.052 40.5882H95.7397C94.6185 40.5882 93.7085 39.6791 93.7085 38.5588C93.7085 37.4386 94.6185 36.5294 95.7397 36.5294H103.052C104.173 36.5294 105.083 37.4386 105.083 38.5588C105.083 39.6791 104.173 40.5882 103.052 40.5882Z" fill="#8C6D5D"/>
<path d="M117.406 40.5882H110.094C108.973 40.5882 108.063 39.6791 108.063 38.5588C108.063 37.4386 108.973 36.5294 110.094 36.5294H117.406C118.528 36.5294 119.438 37.4386 119.438 38.5588C119.438 39.6791 118.528 40.5882 117.406 40.5882Z" fill="#8C6D5D"/>
<path d="M132.031 40.5882H124.719C123.598 40.5882 122.688 39.6791 122.688 38.5588C122.688 37.4386 123.598 36.5294 124.719 36.5294H132.031C133.153 36.5294 134.063 37.4386 134.063 38.5588C134.063 39.6791 133.153 40.5882 132.031 40.5882Z" fill="#8C6D5D"/>
<path d="M143.136 40.5882H139.344C138.223 40.5882 137.313 39.6791 137.313 38.5588C137.313 37.4386 138.223 36.5294 139.344 36.5294H143.136C144.257 36.5294 145.167 37.4386 145.167 38.5588C145.167 39.6791 144.257 40.5882 143.136 40.5882Z" fill="#8C6D5D"/>
<path d="M22.6147 47.0824H15.3022C14.181 47.0824 13.271 46.1732 13.271 45.0529C13.271 43.9327 14.181 43.0235 15.3022 43.0235H22.6147C23.736 43.0235 24.646 43.9327 24.646 45.0529C24.646 46.1732 23.736 47.0824 22.6147 47.0824Z" fill="#8C6D5D"/>
<path d="M36.969 47.0824H29.6565C28.5352 47.0824 27.6252 46.1732 27.6252 45.0529C27.6252 43.9327 28.5352 43.0235 29.6565 43.0235H36.969C38.0902 43.0235 39.0002 43.9327 39.0002 45.0529C39.0002 46.1732 38.0902 47.0824 36.969 47.0824Z" fill="#8C6D5D"/>
<path d="M51.594 47.0824H44.2815C43.1602 47.0824 42.2502 46.1732 42.2502 45.0529C42.2502 43.9327 43.1602 43.0235 44.2815 43.0235H51.594C52.7152 43.0235 53.6252 43.9327 53.6252 45.0529C53.6252 46.1732 52.7152 47.0824 51.594 47.0824Z" fill="#8C6D5D"/>
<path d="M66.4897 47.0824H59.1772C58.056 47.0824 57.146 46.1732 57.146 45.0529C57.146 43.9327 58.056 43.0235 59.1772 43.0235H66.4897C67.611 43.0235 68.521 43.9327 68.521 45.0529C68.521 46.1732 67.611 47.0824 66.4897 47.0824Z" fill="#8C6D5D"/>
<path d="M81.1147 47.0824H73.8022C72.681 47.0824 71.771 46.1732 71.771 45.0529C71.771 43.9327 72.681 43.0235 73.8022 43.0235H81.1147C82.236 43.0235 83.146 43.9327 83.146 45.0529C83.146 46.1732 82.236 47.0824 81.1147 47.0824Z" fill="#8C6D5D"/>
<path d="M95.198 47.0824H87.8855C86.7642 47.0824 85.8542 46.1732 85.8542 45.0529C85.8542 43.9327 86.7642 43.0235 87.8855 43.0235H95.198C96.3192 43.0235 97.2292 43.9327 97.2292 45.0529C97.2292 46.1732 96.3192 47.0824 95.198 47.0824Z" fill="#8C6D5D"/>
<path d="M109.552 47.0824H102.24C101.118 47.0824 100.208 46.1732 100.208 45.0529C100.208 43.9327 101.118 43.0235 102.24 43.0235H109.552C110.673 43.0235 111.583 43.9327 111.583 45.0529C111.583 46.1732 110.673 47.0824 109.552 47.0824Z" fill="#8C6D5D"/>
<path d="M124.177 47.0824H116.865C115.743 47.0824 114.833 46.1732 114.833 45.0529C114.833 43.9327 115.743 43.0235 116.865 43.0235H124.177C125.298 43.0235 126.208 43.9327 126.208 45.0529C126.208 46.1732 125.298 47.0824 124.177 47.0824Z" fill="#8C6D5D"/>
<path d="M138.802 47.0824H131.49C130.368 47.0824 129.458 46.1732 129.458 45.0529C129.458 43.9327 130.368 43.0235 131.49 43.0235H138.802C139.923 43.0235 140.833 43.9327 140.833 45.0529C140.833 46.1732 139.923 47.0824 138.802 47.0824Z" fill="#8C6D5D"/>
<path d="M30.469 54.3882H23.1565C22.0352 54.3882 21.1252 53.4791 21.1252 52.3588C21.1252 51.2386 22.0352 50.3294 23.1565 50.3294H30.469C31.5902 50.3294 32.5002 51.2386 32.5002 52.3588C32.5002 53.4791 31.5902 54.3882 30.469 54.3882Z" fill="#8C6D5D"/>
<path d="M44.823 54.3882H37.5105C36.3892 54.3882 35.4792 53.4791 35.4792 52.3588C35.4792 51.2386 36.3892 50.3294 37.5105 50.3294H44.823C45.9442 50.3294 46.8542 51.2386 46.8542 52.3588C46.8542 53.4791 45.9442 54.3882 44.823 54.3882Z" fill="#8C6D5D"/>
<path d="M59.448 54.3882H52.1355C51.0142 54.3882 50.1042 53.4791 50.1042 52.3588C50.1042 51.2386 51.0142 50.3294 52.1355 50.3294H59.448C60.5692 50.3294 61.4792 51.2386 61.4792 52.3588C61.4792 53.4791 60.5692 54.3882 59.448 54.3882Z" fill="#8C6D5D"/>
<path d="M74.344 54.3882H67.0315C65.9102 54.3882 65.0002 53.4791 65.0002 52.3588C65.0002 51.2386 65.9102 50.3294 67.0315 50.3294H74.344C75.4652 50.3294 76.3752 51.2386 76.3752 52.3588C76.3752 53.4791 75.4652 54.3882 74.344 54.3882Z" fill="#8C6D5D"/>
<path d="M88.969 54.3882H81.6565C80.5352 54.3882 79.6252 53.4791 79.6252 52.3588C79.6252 51.2386 80.5352 50.3294 81.6565 50.3294H88.969C90.0902 50.3294 91.0002 51.2386 91.0002 52.3588C91.0002 53.4791 90.0902 54.3882 88.969 54.3882Z" fill="#8C6D5D"/>
<path d="M103.052 54.3882H95.7397C94.6185 54.3882 93.7085 53.4791 93.7085 52.3588C93.7085 51.2386 94.6185 50.3294 95.7397 50.3294H103.052C104.173 50.3294 105.083 51.2386 105.083 52.3588C105.083 53.4791 104.173 54.3882 103.052 54.3882Z" fill="#8C6D5D"/>
<path d="M117.406 54.3882H110.094C108.973 54.3882 108.063 53.4791 108.063 52.3588C108.063 51.2386 108.973 50.3294 110.094 50.3294H117.406C118.528 50.3294 119.438 51.2386 119.438 52.3588C119.438 53.4791 118.528 54.3882 117.406 54.3882Z" fill="#8C6D5D"/>
<path d="M132.031 54.3882H124.719C123.598 54.3882 122.688 53.4791 122.688 52.3588C122.688 51.2386 123.598 50.3294 124.719 50.3294H132.031C133.153 50.3294 134.063 51.2386 134.063 52.3588C134.063 53.4791 133.153 54.3882 132.031 54.3882Z" fill="#8C6D5D"/>
<path d="M143.136 54.3882H139.344C138.223 54.3882 137.313 53.4791 137.313 52.3588C137.313 51.2386 138.223 50.3294 139.344 50.3294H143.136C144.257 50.3294 145.167 51.2386 145.167 52.3588C145.167 53.4791 144.257 54.3882 143.136 54.3882Z" fill="#8C6D5D"/>
<path d="M16.6564 54.3882H12.8647C11.7435 54.3882 10.8335 53.4791 10.8335 52.3588C10.8335 51.2386 11.7435 50.3294 12.8647 50.3294H16.6564C17.7777 50.3294 18.6877 51.2386 18.6877 52.3588C18.6877 53.4791 17.7777 54.3882 16.6564 54.3882Z" fill="#8C6D5D"/>
<path d="M16.6564 68.7294H12.8647C11.7435 68.7294 10.8335 67.8202 10.8335 66.7C10.8335 65.5798 11.7435 64.6706 12.8647 64.6706H16.6564C17.7777 64.6706 18.6877 65.5798 18.6877 66.7C18.6877 67.8202 17.7777 68.7294 16.6564 68.7294Z" fill="#8C6D5D"/>
<path d="M16.6564 40.5882H12.8647C11.7435 40.5882 10.8335 39.6791 10.8335 38.5588C10.8335 37.4386 11.7435 36.5294 12.8647 36.5294H16.6564C17.7777 36.5294 18.6877 37.4386 18.6877 38.5588C18.6877 39.6791 17.7777 40.5882 16.6564 40.5882Z" fill="#8C6D5D"/>
<path d="M143.136 68.7294H139.344C138.223 68.7294 137.313 67.8202 137.313 66.7C137.313 65.5798 138.223 64.6706 139.344 64.6706H143.136C144.257 64.6706 145.167 65.5798 145.167 66.7C145.167 67.8202 144.257 68.7294 143.136 68.7294Z" fill="#8C6D5D"/>
<path d="M22.6147 61.1529H15.3022C14.181 61.1529 13.271 60.2437 13.271 59.1235C13.271 58.0033 14.181 57.0941 15.3022 57.0941H22.6147C23.736 57.0941 24.646 58.0033 24.646 59.1235C24.646 60.2437 23.736 61.1529 22.6147 61.1529Z" fill="#8C6D5D"/>
<path d="M36.969 61.1529H29.6565C28.5352 61.1529 27.6252 60.2437 27.6252 59.1235C27.6252 58.0033 28.5352 57.0941 29.6565 57.0941H36.969C38.0902 57.0941 39.0002 58.0033 39.0002 59.1235C39.0002 60.2437 38.0902 61.1529 36.969 61.1529Z" fill="#8C6D5D"/>
<path d="M51.594 61.1529H44.2815C43.1602 61.1529 42.2502 60.2437 42.2502 59.1235C42.2502 58.0033 43.1602 57.0941 44.2815 57.0941H51.594C52.7152 57.0941 53.6252 58.0033 53.6252 59.1235C53.6252 60.2437 52.7152 61.1529 51.594 61.1529Z" fill="#8C6D5D"/>
<path d="M66.4897 61.1529H59.1772C58.056 61.1529 57.146 60.2437 57.146 59.1235C57.146 58.0033 58.056 57.0941 59.1772 57.0941H66.4897C67.611 57.0941 68.521 58.0033 68.521 59.1235C68.521 60.2437 67.611 61.1529 66.4897 61.1529Z" fill="#8C6D5D"/>
<path d="M81.1147 61.1529H73.8022C72.681 61.1529 71.771 60.2437 71.771 59.1235C71.771 58.0033 72.681 57.0941 73.8022 57.0941H81.1147C82.236 57.0941 83.146 58.0033 83.146 59.1235C83.146 60.2437 82.236 61.1529 81.1147 61.1529Z" fill="#8C6D5D"/>
<path d="M95.198 61.1529H87.8855C86.7642 61.1529 85.8542 60.2437 85.8542 59.1235C85.8542 58.0033 86.7642 57.0941 87.8855 57.0941H95.198C96.3192 57.0941 97.2292 58.0033 97.2292 59.1235C97.2292 60.2437 96.3192 61.1529 95.198 61.1529Z" fill="#8C6D5D"/>
<path d="M109.552 61.1529H102.24C101.118 61.1529 100.208 60.2437 100.208 59.1235C100.208 58.0033 101.118 57.0941 102.24 57.0941H109.552C110.673 57.0941 111.583 58.0033 111.583 59.1235C111.583 60.2437 110.673 61.1529 109.552 61.1529Z" fill="#8C6D5D"/>
<path d="M124.177 61.1529H116.865C115.743 61.1529 114.833 60.2437 114.833 59.1235C114.833 58.0033 115.743 57.0941 116.865 57.0941H124.177C125.298 57.0941 126.208 58.0033 126.208 59.1235C126.208 60.2437 125.298 61.1529 124.177 61.1529Z" fill="#8C6D5D"/>
<path d="M138.802 61.1529H131.49C130.368 61.1529 129.458 60.2437 129.458 59.1235C129.458 58.0033 130.368 57.0941 131.49 57.0941H138.802C139.923 57.0941 140.833 58.0033 140.833 59.1235C140.833 60.2437 139.923 61.1529 138.802 61.1529Z" fill="#8C6D5D"/>
<path d="M30.469 68.7294H23.1565C22.0352 68.7294 21.1252 67.8202 21.1252 66.7C21.1252 65.5798 22.0352 64.6706 23.1565 64.6706H30.469C31.5902 64.6706 32.5002 65.5798 32.5002 66.7C32.5002 67.8202 31.5902 68.7294 30.469 68.7294Z" fill="#8C6D5D"/>
<path d="M44.823 68.7294H37.5105C36.3892 68.7294 35.4792 67.8202 35.4792 66.7C35.4792 65.5798 36.3892 64.6706 37.5105 64.6706H44.823C45.9442 64.6706 46.8542 65.5798 46.8542 66.7C46.8542 67.8202 45.9442 68.7294 44.823 68.7294Z" fill="#8C6D5D"/>
<path d="M59.448 68.7294H52.1355C51.0142 68.7294 50.1042 67.8202 50.1042 66.7C50.1042 65.5798 51.0142 64.6706 52.1355 64.6706H59.448C60.5692 64.6706 61.4792 65.5798 61.4792 66.7C61.4792 67.8202 60.5692 68.7294 59.448 68.7294Z" fill="#8C6D5D"/>
<path d="M74.344 68.7294H67.0315C65.9102 68.7294 65.0002 67.8202 65.0002 66.7C65.0002 65.5798 65.9102 64.6706 67.0315 64.6706H74.344C75.4652 64.6706 76.3752 65.5798 76.3752 66.7C76.3752 67.8202 75.4652 68.7294 74.344 68.7294Z" fill="#8C6D5D"/>
<path d="M88.969 68.7294H81.6565C80.5352 68.7294 79.6252 67.8202 79.6252 66.7C79.6252 65.5798 80.5352 64.6706 81.6565 64.6706H88.969C90.0902 64.6706 91.0002 65.5798 91.0002 66.7C91.0002 67.8202 90.0902 68.7294 88.969 68.7294Z" fill="#8C6D5D"/>
<path d="M103.052 68.7294H95.7397C94.6185 68.7294 93.7085 67.8202 93.7085 66.7C93.7085 65.5798 94.6185 64.6706 95.7397 64.6706H103.052C104.173 64.6706 105.083 65.5798 105.083 66.7C105.083 67.8202 104.173 68.7294 103.052 68.7294Z" fill="#8C6D5D"/>
<path d="M117.406 68.7294H110.094C108.973 68.7294 108.063 67.8202 108.063 66.7C108.063 65.5798 108.973 64.6706 110.094 64.6706H117.406C118.528 64.6706 119.438 65.5798 119.438 66.7C119.438 67.8202 118.528 68.7294 117.406 68.7294Z" fill="#8C6D5D"/>
<path d="M132.031 68.7294H124.719C123.598 68.7294 122.688 67.8202 122.688 66.7C122.688 65.5798 123.598 64.6706 124.719 64.6706H132.031C133.153 64.6706 134.063 65.5798 134.063 66.7C134.063 67.8202 133.153 68.7294 132.031 68.7294Z" fill="#8C6D5D"/>
<path d="M22.8855 75.4941H15.573C14.4517 75.4941 13.5417 74.5849 13.5417 73.4647C13.5417 72.3445 14.4517 71.4353 15.573 71.4353H22.8855C24.0067 71.4353 24.9167 72.3445 24.9167 73.4647C24.9167 74.5849 24.0067 75.4941 22.8855 75.4941Z" fill="#8C6D5D"/>
<path d="M37.2397 75.4941H29.9272C28.806 75.4941 27.896 74.5849 27.896 73.4647C27.896 72.3445 28.806 71.4353 29.9272 71.4353H37.2397C38.361 71.4353 39.271 72.3445 39.271 73.4647C39.271 74.5849 38.361 75.4941 37.2397 75.4941Z" fill="#8C6D5D"/>
<path d="M51.8647 75.4941H44.5522C43.431 75.4941 42.521 74.5849 42.521 73.4647C42.521 72.3445 43.431 71.4353 44.5522 71.4353H51.8647C52.986 71.4353 53.896 72.3445 53.896 73.4647C53.896 74.5849 52.986 75.4941 51.8647 75.4941Z" fill="#8C6D5D"/>
<path d="M66.7605 75.4941H59.448C58.3267 75.4941 57.4167 74.5849 57.4167 73.4647C57.4167 72.3445 58.3267 71.4353 59.448 71.4353H66.7605C67.8817 71.4353 68.7917 72.3445 68.7917 73.4647C68.7917 74.5849 67.8817 75.4941 66.7605 75.4941Z" fill="#8C6D5D"/>
<path d="M81.3855 75.4941H74.073C72.9517 75.4941 72.0417 74.5849 72.0417 73.4647C72.0417 72.3445 72.9517 71.4353 74.073 71.4353H81.3855C82.5067 71.4353 83.4167 72.3445 83.4167 73.4647C83.4167 74.5849 82.5067 75.4941 81.3855 75.4941Z" fill="#8C6D5D"/>
<path d="M95.469 75.4941H88.1565C87.0352 75.4941 86.1252 74.5849 86.1252 73.4647C86.1252 72.3445 87.0352 71.4353 88.1565 71.4353H95.469C96.5902 71.4353 97.5002 72.3445 97.5002 73.4647C97.5002 74.5849 96.5902 75.4941 95.469 75.4941Z" fill="#8C6D5D"/>
<path d="M109.823 75.4941H102.511C101.389 75.4941 100.479 74.5849 100.479 73.4647C100.479 72.3445 101.389 71.4353 102.511 71.4353H109.823C110.944 71.4353 111.854 72.3445 111.854 73.4647C111.854 74.5849 110.944 75.4941 109.823 75.4941Z" fill="#8C6D5D"/>
<path d="M124.448 75.4941H117.136C116.014 75.4941 115.104 74.5849 115.104 73.4647C115.104 72.3445 116.014 71.4353 117.136 71.4353H124.448C125.569 71.4353 126.479 72.3445 126.479 73.4647C126.479 74.5849 125.569 75.4941 124.448 75.4941Z" fill="#8C6D5D"/>
<path d="M139.073 75.4941H131.761C130.639 75.4941 129.729 74.5849 129.729 73.4647C129.729 72.3445 130.639 71.4353 131.761 71.4353H139.073C140.194 71.4353 141.104 72.3445 141.104 73.4647C141.104 74.5849 140.194 75.4941 139.073 75.4941Z" fill="#8C6D5D"/>
<path d="M30.469 82.2588H23.1565C22.0352 82.2588 21.1252 81.3496 21.1252 80.2294C21.1252 79.1092 22.0352 78.2 23.1565 78.2H30.469C31.5902 78.2 32.5002 79.1092 32.5002 80.2294C32.5002 81.3496 31.5902 82.2588 30.469 82.2588Z" fill="#8C6D5D"/>
<path d="M44.823 82.2588H37.5105C36.3892 82.2588 35.4792 81.3496 35.4792 80.2294C35.4792 79.1092 36.3892 78.2 37.5105 78.2H44.823C45.9442 78.2 46.8542 79.1092 46.8542 80.2294C46.8542 81.3496 45.9442 82.2588 44.823 82.2588Z" fill="#8C6D5D"/>
<path d="M59.448 82.2588H52.1355C51.0142 82.2588 50.1042 81.3496 50.1042 80.2294C50.1042 79.1092 51.0142 78.2 52.1355 78.2H59.448C60.5692 78.2 61.4792 79.1092 61.4792 80.2294C61.4792 81.3496 60.5692 82.2588 59.448 82.2588Z" fill="#8C6D5D"/>
<path d="M74.344 82.2588H67.0315C65.9102 82.2588 65.0002 81.3496 65.0002 80.2294C65.0002 79.1092 65.9102 78.2 67.0315 78.2H74.344C75.4652 78.2 76.3752 79.1092 76.3752 80.2294C76.3752 81.3496 75.4652 82.2588 74.344 82.2588Z" fill="#8C6D5D"/>
<path d="M88.969 82.2588H81.6565C80.5352 82.2588 79.6252 81.3496 79.6252 80.2294C79.6252 79.1092 80.5352 78.2 81.6565 78.2H88.969C90.0902 78.2 91.0002 79.1092 91.0002 80.2294C91.0002 81.3496 90.0902 82.2588 88.969 82.2588Z" fill="#8C6D5D"/>
<path d="M103.052 82.2588H95.7397C94.6185 82.2588 93.7085 81.3496 93.7085 80.2294C93.7085 79.1092 94.6185 78.2 95.7397 78.2H103.052C104.173 78.2 105.083 79.1092 105.083 80.2294C105.083 81.3496 104.173 82.2588 103.052 82.2588Z" fill="#8C6D5D"/>
<path d="M117.406 82.2588H110.094C108.973 82.2588 108.063 81.3496 108.063 80.2294C108.063 79.1092 108.973 78.2 110.094 78.2H117.406C118.528 78.2 119.438 79.1092 119.438 80.2294C119.438 81.3496 118.528 82.2588 117.406 82.2588Z" fill="#8C6D5D"/>
<path d="M132.031 82.2588H124.719C123.598 82.2588 122.688 81.3496 122.688 80.2294C122.688 79.1092 123.598 78.2 124.719 78.2H132.031C133.153 78.2 134.063 79.1092 134.063 80.2294C134.063 81.3496 133.153 82.2588 132.031 82.2588Z" fill="#8C6D5D"/>
<path d="M37.5105 89.0235H30.198C29.0767 89.0235 28.1667 88.1143 28.1667 86.9941C28.1667 85.8739 29.0767 84.9647 30.198 84.9647H37.5105C38.6317 84.9647 39.5417 85.8739 39.5417 86.9941C39.5417 88.1143 38.6317 89.0235 37.5105 89.0235Z" fill="#8C6D5D"/>
<path d="M51.8647 89.0235H44.5522C43.431 89.0235 42.521 88.1143 42.521 86.9941C42.521 85.8739 43.431 84.9647 44.5522 84.9647H51.8647C52.986 84.9647 53.896 85.8739 53.896 86.9941C53.896 88.1143 52.986 89.0235 51.8647 89.0235Z" fill="#8C6D5D"/>
<path d="M66.4897 89.0235H59.1772C58.056 89.0235 57.146 88.1143 57.146 86.9941C57.146 85.8739 58.056 84.9647 59.1772 84.9647H66.4897C67.611 84.9647 68.521 85.8739 68.521 86.9941C68.521 88.1143 67.611 89.0235 66.4897 89.0235Z" fill="#8C6D5D"/>
<path d="M81.3855 89.0235H74.073C72.9517 89.0235 72.0417 88.1143 72.0417 86.9941C72.0417 85.8739 72.9517 84.9647 74.073 84.9647H81.3855C82.5067 84.9647 83.4167 85.8739 83.4167 86.9941C83.4167 88.1143 82.5067 89.0235 81.3855 89.0235Z" fill="#8C6D5D"/>
<path d="M96.0105 89.0235H88.698C87.5767 89.0235 86.6667 88.1143 86.6667 86.9941C86.6667 85.8739 87.5767 84.9647 88.698 84.9647H96.0105C97.1317 84.9647 98.0417 85.8739 98.0417 86.9941C98.0417 88.1143 97.1317 89.0235 96.0105 89.0235Z" fill="#8C6D5D"/>
<path d="M110.094 89.0235H102.781C101.66 89.0235 100.75 88.1143 100.75 86.9941C100.75 85.8739 101.66 84.9647 102.781 84.9647H110.094C111.215 84.9647 112.125 85.8739 112.125 86.9941C112.125 88.1143 111.215 89.0235 110.094 89.0235Z" fill="#8C6D5D"/>
<path d="M124.448 89.0235H117.136C116.014 89.0235 115.104 88.1143 115.104 86.9941C115.104 85.8739 116.014 84.9647 117.136 84.9647H124.448C125.569 84.9647 126.479 85.8739 126.479 86.9941C126.479 88.1143 125.569 89.0235 124.448 89.0235Z" fill="#8C6D5D"/>
</g>
<defs>
<clipPath id="clip0">
<rect width="156" height="92" fill="white"/>
</clipPath>
</defs>
</svg>
