<svg width="83" height="56" viewBox="0 0 83 56" fill="none" xmlns="http://www.w3.org/2000/svg">
<g clip-path="url(#clip0)">
<path d="M14.1598 -1.48778e-06L14.1598 5.75359L48.1963 5.75359L48.1963 2.87798L44.7218 -1.51874e-07L14.1598 -1.48778e-06Z" fill="#535363"/>
<path d="M8.97366 43.2273L5.88867 43.2273L5.88867 49.5432L8.97366 49.5432L8.97366 43.2273Z" fill="#464656"/>
<path d="M14.1622 43.2291L11.0771 43.2291L11.0771 49.5451L14.1622 49.5451L14.1622 43.2291Z" fill="#464656"/>
<path d="M51.3155 43.2281L48.2305 43.2281L48.2305 49.5441L51.3155 49.5441L51.3155 43.2281Z" fill="#464656"/>
<path d="M56.503 43.2275L53.418 43.2275L53.418 49.5435L56.503 49.5435L56.503 43.2275Z" fill="#464656"/>
<path d="M74.4484 24.562C74.4484 22.934 75.7655 21.6155 77.3918 21.6155L80.0566 21.6155C81.6829 21.6131 83 22.934 83 24.562C83 26.19 81.6829 27.5085 80.0566 27.5085L77.3918 27.5085C75.7655 27.5085 74.4484 26.19 74.4484 24.562Z" fill="#535363"/>
<path d="M75.4277 28.7726C73.8014 28.7726 72.4843 27.4542 72.4843 25.8262L72.4843 23.1585C72.4843 21.5305 73.8014 20.212 75.4277 20.212C77.054 20.212 78.3711 21.5305 78.3711 23.1585L78.3711 25.8262C78.3735 27.4518 77.054 28.7726 75.4277 28.7726Z" fill="#464656"/>
<path d="M68.6793 33.6851L68.1576 33.6851C64.7398 33.6851 61.9687 30.9111 61.9687 27.4896L61.9687 21.4927C61.9687 18.0713 64.7398 15.2972 68.1576 15.2972L68.6793 15.2972C72.0971 15.2972 74.8682 18.0713 74.8682 21.4927L74.8682 27.4873C74.8682 30.9111 72.0971 33.6851 68.6793 33.6851Z" fill="#535363"/>
<path d="M59.8043 56L3.84702 56C2.57478 56 1.54095 54.9674 1.54095 53.6914L1.54095 51.8508C1.54095 50.5772 2.57242 49.5422 3.84702 49.5422L59.8043 49.5422C61.0765 49.5422 62.1104 50.5748 62.1104 51.8508L62.1104 53.6914C62.1104 54.9674 61.0765 56 59.8043 56Z" fill="#535363"/>
<path d="M60.968 44.0699L5.91002 44.0699C2.64563 44.0699 0.00202081 41.4211 0.00202095 38.1556L0.00202211 11.6702C0.00202225 8.40239 2.64799 5.75598 5.91002 5.75598L13.8833 5.75598L60.968 5.75598C64.2324 5.75598 66.876 8.40476 66.876 11.6702L66.876 38.1556C66.876 41.4211 64.23 44.0699 60.968 44.0699Z" fill="#7494CE"/>
<path d="M54.3992 18.5272L10.0951 18.5272C9.78586 18.5272 9.5333 18.2768 9.5333 17.9649C9.5333 17.6553 9.7835 17.4025 10.0951 17.4025L54.3992 17.4025C54.7084 17.4025 54.9609 17.653 54.9609 17.9649C54.9586 18.2744 54.7084 18.5272 54.3992 18.5272Z" fill="#535363"/>
<path d="M54.3992 22.8773L10.0951 22.8773C9.78586 22.8773 9.5333 22.6268 9.5333 22.3149C9.5333 22.0054 9.7835 21.7526 10.0951 21.7526L54.3992 21.7526C54.7084 21.7526 54.9609 22.003 54.9609 22.3149C54.9586 22.6268 54.7084 22.8773 54.3992 22.8773Z" fill="#535363"/>
<path d="M54.3992 14.1748L10.0951 14.1748C9.78586 14.1748 9.5333 13.9244 9.5333 13.6125C9.5333 13.3029 9.7835 13.0501 10.0951 13.0501L54.3992 13.0501C54.7084 13.0501 54.9609 13.3006 54.9609 13.6125C54.9586 13.9244 54.7084 14.1748 54.3992 14.1748Z" fill="#535363"/>
<path d="M54.3992 31.5798L10.095 31.5798C9.78584 31.5798 9.53328 31.3293 9.53328 31.0174C9.53328 30.7078 9.78348 30.455 10.095 30.455L54.3992 30.455C54.7084 30.455 54.9609 30.7055 54.9609 31.0174C54.9586 31.3269 54.7084 31.5798 54.3992 31.5798Z" fill="#535363"/>
<path d="M54.3992 35.9298L10.095 35.9298C9.78584 35.9298 9.53328 35.6793 9.53328 35.3674C9.53328 35.0579 9.78348 34.8051 10.095 34.8051L54.3992 34.8051C54.7084 34.8051 54.9609 35.0555 54.9609 35.3674C54.9586 35.6793 54.7084 35.9298 54.3992 35.9298Z" fill="#535363"/>
<path d="M54.3992 27.2273L10.0951 27.2273C9.78586 27.2273 9.5333 26.9769 9.5333 26.665C9.5333 26.3554 9.7835 26.1026 10.0951 26.1026L54.3992 26.1026C54.7084 26.1026 54.9609 26.3531 54.9609 26.665C54.9586 26.9769 54.7084 27.2273 54.3992 27.2273Z" fill="#535363"/>
</g>
<defs>
<clipPath id="clip0">
<rect width="56" height="83" fill="white" transform="translate(83) rotate(90)"/>
</clipPath>
</defs>
</svg>
