<svg width="86" height="100" viewBox="0 0 86 100" fill="none" xmlns="http://www.w3.org/2000/svg">
<g clip-path="url(#clip0)">
<path d="M-0.000162283 43.7488C0.2318 42.9236 0.45603 42.0983 0.695724 41.277C3.08107 33.0363 9.29379 28.4181 16.9717 29.2434C17.3274 29.2821 17.9189 29.8865 17.9228 30.2313C17.9808 36.8564 17.9653 43.4815 17.9653 50.3313C16.647 50.3313 15.4563 50.3313 14.1534 50.3313C14.1534 52.1677 14.1534 53.7794 14.1534 55.395C14.2423 55.3253 14.3351 55.2594 14.424 55.1896C14.83 55.8173 15.5181 56.4062 15.5993 57.0842C16.2604 62.7291 16.8094 68.3895 17.4086 74.1777C12.0889 74.1777 6.86205 74.1777 1.42641 74.1777C2.06044 68.0679 2.6906 62.0084 3.32076 55.9064C3.78855 55.7785 4.20222 55.6662 4.67388 55.5383C4.67388 53.8918 4.67388 52.2645 4.67388 50.3313C3.08107 50.3313 1.53852 50.3313 -0.00402832 50.3313C-0.000162283 48.1345 -0.000162283 45.9417 -0.000162283 43.7488Z" fill="#FF546B"/>
<path d="M85.9997 50.3274C84.4959 50.3274 82.9958 50.3274 81.376 50.3274C81.376 52.1406 81.376 53.7523 81.376 55.5151C81.7355 55.6236 82.1762 55.7631 82.6711 55.9142C83.3051 61.9697 83.9353 67.9982 84.577 74.1661C79.2303 74.1661 74.0034 74.1661 68.6064 74.1661C68.9892 70.3576 69.368 66.5724 69.7508 62.7833C69.9325 60.9895 70.1258 59.1918 70.3036 57.398C70.4042 56.3636 70.5472 55.3911 71.881 55.6352C71.881 53.915 71.881 52.2917 71.881 50.4901C70.6554 50.4243 69.4647 50.3584 68.1618 50.2887C68.1116 49.7579 68.0265 49.2852 68.0265 48.8164C68.0188 42.8422 68.042 36.8641 68.0033 30.8899C67.9956 29.6618 68.2624 29.1852 69.4608 29.1697C78.1594 29.0458 83.6569 33.7453 85.733 43.187C85.7755 43.3885 85.907 43.5628 85.9959 43.7488C85.9998 45.9417 85.9997 48.1345 85.9997 50.3274Z" fill="#FF546B"/>
<path d="M45.0469 0C46.2685 0.337066 47.5057 0.616017 48.7119 1.02282C56.645 3.6961 62.4324 12.3203 62.2005 21.2196C49.4271 21.2196 36.646 21.2196 23.7566 21.2196C23.7334 17.9575 24.379 14.9045 25.6857 12.0569C28.7051 5.47829 33.4951 1.58072 39.9862 0.325443C40.3148 0.263454 40.6318 0.112355 40.9527 0C42.3174 0 43.6821 0 45.0469 0ZM36.6382 14.0173C36.6498 11.3634 34.7091 9.17826 32.374 9.21313C30.1046 9.248 28.1793 11.4137 28.1561 13.9514C28.1329 16.5395 30.1433 18.7749 32.4629 18.7478C34.7593 18.7246 36.6266 16.6092 36.6382 14.0173ZM49.3382 14.0212C49.3536 16.6092 51.2248 18.7285 53.5173 18.7517C55.8524 18.7749 57.8241 16.5705 57.8048 13.9514C57.7854 11.3982 55.8795 9.25187 53.5985 9.217C51.2596 9.18213 49.3227 11.3672 49.3382 14.0212Z" fill="#FF546B"/>
<path d="M14.9188 100C14.9652 99.8451 15.0812 99.6746 15.0541 99.539C14.4549 96.3969 16.6431 95.3121 18.3596 93.9058C18.6495 93.6694 19.0787 93.5493 19.4421 93.5493C26.1535 93.5377 32.8688 93.5532 39.5803 93.5687C39.6692 93.5687 39.7581 93.6384 40.0713 93.7663C40.0713 95.7809 40.0713 97.8885 40.0713 100C31.6897 100 23.3043 100 14.9188 100Z" fill="#FF546B"/>
<path d="M45.6306 100C45.7273 98.6091 45.8432 97.2182 45.9206 95.8274C45.9592 95.1339 45.9283 94.4326 45.9283 93.5299C46.5971 93.5299 47.1152 93.5299 47.6332 93.5299C53.7029 93.5299 59.7726 93.5958 65.8384 93.4834C67.3577 93.4563 68.1812 94.5527 69.2908 95.2578C70.6129 96.0947 71.0575 97.2725 70.8758 98.8958C70.8372 99.2484 71.0073 99.6281 71.0807 99.9961C62.5987 100 54.1166 100 45.6306 100Z" fill="#FF546B"/>
<path d="M30.2941 42.3075C26.7064 42.3075 23.2192 42.3075 19.6547 42.3075C19.6547 37.7436 19.4576 33.2532 19.7204 28.7978C19.9215 25.4116 22.7862 23.1839 26.2772 23.1684C33.2902 23.1452 40.3032 23.1607 47.3162 23.1607C51.4065 23.1607 55.4967 23.1452 59.5909 23.1645C63.9286 23.1878 66.399 25.9579 66.4106 30.7931C66.4222 34.5705 66.4144 38.348 66.4144 42.2572C62.819 42.2572 59.3009 42.2572 55.6862 42.2572C55.4078 37.9295 53.9155 34.2528 50.8304 31.5253C48.36 29.3441 45.5417 28.36 42.3986 28.5188C35.8341 28.852 31.191 34.0901 30.2941 42.3075Z" fill="#FF546B"/>
<path d="M19.6934 44.144C23.2734 44.144 26.7644 44.144 30.3676 44.144C31.0132 48.3709 32.722 51.8849 35.9463 54.3025C38.1963 55.9917 40.686 56.7782 43.4038 56.6813C49.5392 56.4643 53.3434 52.6133 55.6979 44.144C59.1734 44.144 62.6683 44.144 66.4145 44.144C66.4145 45.2869 66.4145 46.4105 66.4145 47.534C66.4145 49.8354 66.4222 52.1367 66.4145 54.4381C66.3952 59.1841 63.9325 62.0046 59.6953 62.024C52.5316 62.055 45.3678 62.0317 38.2002 62.0317C34.2529 62.0317 30.3057 62.0511 26.3585 62.024C22.044 61.9969 19.5891 59.2074 19.5775 54.3451C19.5697 51.1681 19.5813 47.9873 19.5929 44.8104C19.5891 44.6515 19.6354 44.4927 19.6934 44.144Z" fill="#FF546B"/>
<path d="M19.4923 91.9724C20.3467 86.6142 21.1856 81.3607 22.0323 76.0296C27.2746 76.0296 32.4165 76.0296 37.8057 76.0296C38.1537 81.2987 38.4978 86.56 38.8534 91.9724C32.4629 91.9724 26.1226 91.9724 19.4923 91.9724Z" fill="#FF546B"/>
<path d="M66.4955 92.0189C59.958 92.0189 53.6061 92.0189 47.1344 92.0189C47.4823 86.6414 47.8187 81.3723 48.1628 76.0258C53.4554 76.0258 58.6049 76.0258 63.9401 76.0258C64.7829 81.2987 65.6295 86.591 66.4955 92.0189Z" fill="#FF546B"/>
<path d="M51.2595 51.5982C50.1538 51.5982 49.1873 51.5982 48.0623 51.5982C48.0623 47.8323 48.0623 44.0859 48.0623 40.3355C47.9463 40.3123 47.8342 40.289 47.7182 40.2658C47.4669 41.2189 47.2311 42.1797 46.9605 43.125C46.3071 45.4148 45.5494 47.6696 45.0004 49.9903C44.6718 51.3812 44.0455 51.7066 42.8432 51.7221C41.6563 51.7376 41.1498 51.3308 40.8212 50.0523C39.9591 46.701 38.9539 43.3962 37.7941 40.0682C37.7941 43.8689 37.7941 47.6735 37.7941 51.5672C36.6962 51.5672 35.7915 51.5672 34.7709 51.5672C34.7709 45.6007 34.7709 39.6691 34.7709 33.54C36.124 33.54 37.4346 33.4431 38.7181 33.5981C39.0931 33.6446 39.5648 34.3458 39.7078 34.8534C40.7246 38.3867 41.664 41.9511 42.6383 45.5C42.731 45.8448 42.878 46.1741 43.1292 46.8676C44.1924 42.6989 45.2246 38.9136 46.1022 35.0858C46.396 33.8112 46.8832 33.3966 48.0005 33.509C49.0481 33.6136 50.1113 33.5322 51.2557 33.5322C51.2595 39.6227 51.2595 45.5155 51.2595 51.5982Z" fill="#FF546B"/>
<path d="M37.3301 63.6976C37.3301 67.2116 37.3301 70.6792 37.3301 74.2358C33.0001 74.2358 28.7359 74.2358 24.3402 74.2358C24.3402 70.7489 24.3402 67.2853 24.3402 63.6976C28.6431 63.6976 32.946 63.6976 37.3301 63.6976Z" fill="#FF546B"/>
<path d="M48.6539 63.6705C52.9839 63.6705 57.2443 63.6705 61.6361 63.6705C61.6361 67.1574 61.6361 70.6211 61.6361 74.2048C57.3448 74.2048 53.0457 74.2048 48.6539 74.2048C48.6539 70.7024 48.6539 67.2349 48.6539 63.6705Z" fill="#FF546B"/>
<path d="M17.3623 86.7808C10.4769 87.5479 3.01934 83.0382 1.56958 76.0451C6.81193 76.0451 12.0311 76.0451 17.3623 76.0451C17.3623 79.6443 17.3623 83.2126 17.3623 86.7808Z" fill="#FF546B"/>
<path d="M84.4533 76.0528C82.8682 82.9956 75.9635 87.331 68.6412 86.8622C68.6412 83.3055 68.6412 79.7373 68.6412 76.0528C73.9068 76.0528 79.1337 76.0528 84.4533 76.0528Z" fill="#FF546B"/>
</g>
<defs>
<clipPath id="clip0">
<rect width="86" height="100" fill="white"/>
</clipPath>
</defs>
</svg>
