<svg width="183" height="65" viewBox="0 0 183 65" fill="none" xmlns="http://www.w3.org/2000/svg">
<g clip-path="url(#clip0)">
<path d="M19.8377 8.03085L19.8506 5.14349L167.227 5.81297L167.215 8.70033L19.8377 8.03085Z" fill="#8C6D5D"/>
<path d="M140.564 5.49154C138.736 5.08988 137.291 5.31376 136.287 6.17963C135.326 7.006 134.371 7.83237 133.394 8.67521C134.342 9.06699 135.718 9.04394 136.784 8.45791C137.566 8.02991 138.18 7.5196 138.808 7.02246C139.429 6.53191 139.969 6.01502 140.564 5.49154Z" fill="#D1A474"/>
<path d="M91.6669 8.48427C92.7098 8.86288 93.9849 8.85301 94.9886 8.31307C95.7765 7.89166 96.4173 7.39122 97.0417 6.89738C97.6891 6.38707 98.2416 5.84384 98.8399 5.31378C97.6139 4.93846 96.0805 5.04381 95.103 5.62984C94.7826 5.82079 94.5505 6.05125 94.2922 6.26855C93.4258 6.99944 92.5627 7.72704 91.6669 8.48427Z" fill="#D1A474"/>
<path d="M140.914 8.695C141.904 9.09666 143.261 9.09008 144.288 8.51721C145.147 8.03983 145.818 7.47026 146.521 6.92044C147.089 6.47598 147.583 6.00848 148.116 5.54426C146.936 5.12943 145.265 5.26441 144.248 5.92946C143.895 6.15992 143.67 6.43648 143.366 6.68669C142.571 7.34845 141.764 8.00361 140.914 8.695Z" fill="#D1A474"/>
<path d="M49.7796 5.12612C48.3966 4.71788 46.9091 4.82323 45.9185 5.41585C45.6634 5.56729 45.4542 5.74178 45.2515 5.91298C44.3328 6.68997 43.4272 7.47024 42.502 8.2604C43.4893 8.65218 44.8461 8.62913 45.9152 8.0431C46.6966 7.6151 47.2981 7.09821 47.9357 6.60766C48.2528 6.36403 48.4359 6.07431 48.7432 5.82409C49.0505 5.57717 49.433 5.35659 49.7796 5.12612Z" fill="#D1A474"/>
<path d="M114.101 5.37966C112.408 4.97471 111.015 5.14261 109.975 5.94264C109.528 6.28833 109.233 6.68341 108.799 7.03239C108.184 7.52624 107.501 8.00033 106.804 8.51722C107.386 8.80695 108.177 8.89255 108.969 8.73781C109.564 8.62258 110.185 8.43491 110.577 8.19128C111.306 7.74024 111.891 7.22664 112.509 6.7295C113.055 6.29162 113.559 5.84387 114.101 5.37966Z" fill="#D1A474"/>
<path d="M42.1423 5.0471C40.1578 4.61581 38.6899 4.89236 37.6208 5.92944C37.2154 6.32122 36.8557 6.72947 36.3849 7.09821C35.9174 7.46695 35.342 7.80276 34.8124 8.15503C35.754 8.61266 37.2088 8.62583 38.2321 8.05956C39.1312 7.56242 39.8211 6.96322 40.5567 6.39695C41.1157 5.96236 41.6029 5.50802 42.1423 5.0471Z" fill="#D1A474"/>
<path d="M159.869 8.79047C160.818 9.202 162.292 9.16579 163.358 8.53367C164.221 8.02006 164.878 7.41428 165.604 6.84471C166.098 6.45622 166.559 6.05455 167.042 5.6496C166.166 5.29403 164.59 5.32037 163.616 5.78129C163.237 5.95908 162.926 6.18625 162.655 6.41342C161.717 7.19369 160.808 7.98714 159.869 8.79047Z" fill="#D1A474"/>
<path d="M84.082 8.43489C85.0923 8.83655 86.4523 8.82667 87.4756 8.2571C88.3355 7.77972 88.9959 7.20357 89.6988 6.65704C90.2677 6.21258 90.7679 5.74837 91.3041 5.29074C90.065 4.89237 88.463 5.01089 87.4658 5.6496C87.0931 5.88665 86.8545 6.17966 86.5373 6.43976C85.7331 7.09492 84.9255 7.7468 84.082 8.43489Z" fill="#D1A474"/>
<path d="M57.2436 5.11623C55.38 4.6981 53.935 4.94173 52.892 5.87675C52.3984 6.32121 51.9799 6.78543 51.447 7.21673C50.9991 7.57559 50.4335 7.89824 49.9202 8.23405C50.9794 8.67193 52.3297 8.69827 53.3203 8.13857C54.3109 7.57888 55.0564 6.90396 55.8802 6.26854C56.3576 5.90309 56.776 5.51789 57.2436 5.11623Z" fill="#D1A474"/>
<path d="M148.528 8.74111C149.456 9.13619 150.869 9.12631 151.899 8.5304C152.794 8.01351 153.474 7.40114 154.223 6.8217C154.736 6.42333 155.204 6.0085 155.701 5.59367C154.834 5.26115 153.334 5.26444 152.389 5.67927C151.997 5.85047 151.657 6.06776 151.385 6.29164C150.418 7.09496 149.489 7.91145 148.528 8.74111Z" fill="#D1A474"/>
<path d="M99.1995 8.50077C100.295 8.90243 101.602 8.88268 102.626 8.3164C103.404 7.88841 104.028 7.38468 104.653 6.89084C105.284 6.39041 105.83 5.86364 106.415 5.35004C105.048 4.95496 103.515 5.08665 102.531 5.75828C102.155 6.01179 101.916 6.31797 101.583 6.59124C100.808 7.22336 100.014 7.8489 99.1995 8.50077Z" fill="#D1A474"/>
<path d="M83.7483 5.23805C81.8717 4.81335 80.4005 5.07344 79.3445 6.01833C78.4519 6.81507 77.5071 7.59864 76.559 8.41184C77.3632 8.80033 78.8148 8.81021 79.8447 8.25381C80.698 7.78959 81.3617 7.23319 82.0515 6.69655C82.6498 6.22575 83.1697 5.73519 83.7483 5.23805Z" fill="#D1A474"/>
<path d="M46.2747 8.28014C47.2653 8.65217 48.5992 8.65217 49.5833 8.11552C50.417 7.66119 51.0774 7.11796 51.7509 6.59119C52.3622 6.1138 52.8886 5.61008 53.4542 5.11295C52.274 4.74092 50.7602 4.8298 49.7729 5.39279C49.459 5.57057 49.2106 5.78128 48.9686 5.98869C48.0794 6.73605 47.1966 7.49328 46.2747 8.28014Z" fill="#D1A474"/>
<path d="M95.4626 8.50074C96.4369 8.88594 97.8003 8.88264 98.8072 8.30978C99.7096 7.79618 100.403 7.1871 101.151 6.60766C101.681 6.19941 102.152 5.76812 102.652 5.34341C101.639 4.99772 100.151 5.03064 99.2061 5.49815C98.7974 5.69898 98.4705 5.95249 98.1697 6.2027C97.2641 6.95006 96.3911 7.70729 95.4626 8.50074Z" fill="#D1A474"/>
<path d="M144.634 8.69169C145.778 9.1164 147.092 9.09335 148.142 8.50402C148.949 8.05298 149.577 7.51633 150.231 7.00273C150.826 6.53523 151.346 6.04467 151.905 5.564C150.515 5.11954 148.792 5.32037 147.779 6.1204C147.367 6.44634 147.099 6.81837 146.693 7.1443C146.053 7.66449 145.347 8.16163 144.634 8.69169Z" fill="#D1A474"/>
<path d="M30.7813 4.99774C29.0159 4.5862 27.597 4.78374 26.5671 5.63645C26.0309 6.08091 25.6255 6.56817 25.0828 7.00605C24.6087 7.38796 24.0203 7.73365 23.4481 8.11885C24.1347 8.44478 24.9716 8.51392 25.8151 8.33614C26.3579 8.22091 26.9137 8.03983 27.2766 7.81266C27.9795 7.36491 28.5712 6.87106 29.1728 6.38709C29.7253 5.93934 30.2288 5.47513 30.7813 4.99774Z" fill="#D1A474"/>
<path d="M34.5377 5.02076C33.0273 4.59276 31.4024 4.79359 30.4118 5.60021C29.9541 5.97224 29.637 6.39365 29.1727 6.76568C28.5842 7.23648 27.9107 7.68094 27.2732 8.13857C28.2802 8.58303 29.6795 8.56328 30.7583 7.99042C31.4613 7.61839 32.0367 7.17722 32.5859 6.73605C33.279 6.17965 33.8904 5.59692 34.5377 5.02076Z" fill="#D1A474"/>
<path d="M79.9591 5.23149C78.5173 4.82654 76.9677 4.97469 75.9934 5.67595C75.5422 6.00189 75.2578 6.38709 74.836 6.7229C74.1494 7.27272 73.4171 7.80607 72.6946 8.35259C73.6656 8.78718 75.1172 8.77401 76.147 8.18798C77.0102 7.69413 77.6771 7.1081 78.3931 6.5517C78.9358 6.13029 79.4197 5.68912 79.9591 5.23149Z" fill="#D1A474"/>
<path d="M72.3905 5.18211C70.4354 4.7574 68.9871 5.04054 67.9016 6.0414C67.0778 6.80192 66.1754 7.5394 65.2567 8.33285C65.5411 8.57319 66.401 8.74109 67.2739 8.55014C67.9082 8.41186 68.5457 8.20115 68.9936 7.93777C69.6475 7.55586 70.1542 7.10811 70.6806 6.67682C71.2658 6.19285 71.8085 5.69242 72.3905 5.18211Z" fill="#D1A474"/>
<path d="M136.807 5.49489C135.316 5.09652 133.884 5.23809 132.854 5.90972C132.71 6.0052 132.576 6.10396 132.455 6.20932C131.527 7.00935 130.602 7.80938 129.644 8.63904C130.111 8.90572 131.014 9.044 131.854 8.80695C132.57 8.60283 133.253 8.32298 133.763 8.00033C134.401 7.59867 134.845 7.1147 135.378 6.67024C135.843 6.28504 136.31 5.90313 136.807 5.49489Z" fill="#D1A474"/>
<path d="M152.124 8.70817C153.37 9.12958 154.599 9.13946 155.567 8.59623C156.512 8.06616 157.231 7.43405 158.015 6.83156C158.535 6.43319 158.996 6.01835 159.487 5.60352C158.319 5.1854 156.58 5.32039 155.606 5.97555C155.214 6.23894 154.945 6.55171 154.619 6.84472C154.249 7.17066 153.912 7.50647 153.497 7.81595C153.085 8.12543 152.598 8.40528 152.124 8.70817Z" fill="#D1A474"/>
<path d="M95.0898 5.28086C93.138 4.8759 91.7681 5.12283 90.6892 6.07759C89.7869 6.87433 88.8453 7.6579 87.9037 8.46452C88.7635 8.84643 90.0778 8.84313 91.16 8.32624C91.7844 8.02664 92.3272 7.66778 92.7881 7.29575C93.6055 6.63729 94.328 5.9492 95.0898 5.28086Z" fill="#D1A474"/>
<path d="M110.632 8.55343C111.692 8.9485 112.983 8.94521 113.99 8.40198C114.827 7.94764 115.484 7.40441 116.158 6.88094C116.769 6.40355 117.295 5.89983 117.861 5.40599C116.507 5.00103 114.918 5.14589 113.921 5.84057C113.568 6.08749 113.343 6.38051 113.022 6.6406C112.247 7.27272 111.45 7.89826 110.632 8.55343Z" fill="#D1A474"/>
<path d="M114.369 8.53694C115.298 8.95835 116.615 8.97152 117.662 8.4678C118.361 8.13198 118.956 7.72374 119.476 7.30891C120.248 6.69325 120.911 6.04138 121.621 5.40596C119.986 4.99443 118.476 5.19855 117.469 6.02162C117.024 6.38377 116.717 6.79202 116.269 7.15417C115.68 7.62826 115.01 8.07601 114.369 8.53694Z" fill="#D1A474"/>
<path d="M76.1798 5.20844C74.6171 4.81007 73.1688 4.9681 72.1487 5.69899C71.8152 5.93604 71.6027 6.21918 71.2987 6.4661C70.5238 7.09822 69.7261 7.72375 68.9316 8.35588C69.919 8.75424 71.266 8.76741 72.2566 8.2176C73.1851 7.70071 73.8946 7.07846 74.6629 6.49243C75.1925 6.08419 75.66 5.6529 76.1798 5.20844Z" fill="#D1A474"/>
<path d="M118.113 8.53038C118.904 8.89583 119.823 8.96167 120.8 8.70487C122.19 8.33943 122.886 7.66451 123.625 7.01592C124.223 6.48915 124.792 5.95251 125.371 5.42244C123.795 5.01091 122.131 5.271 121.124 6.14346C120.552 6.6406 120.058 7.16078 119.463 7.64804C119.081 7.96411 118.567 8.23736 118.113 8.53038Z" fill="#D1A474"/>
<path d="M31.167 8.20441C32.0791 8.59949 33.5144 8.5929 34.5377 7.99699C35.4466 7.47023 36.1364 6.84139 36.8982 6.25207C37.3984 5.86358 37.8594 5.46192 38.3465 5.06026C37.5063 4.72444 35.9861 4.72773 35.0379 5.13927C34.6456 5.31047 34.3056 5.52776 34.0342 5.75164C33.0632 6.55826 32.1315 7.37804 31.167 8.20441Z" fill="#D1A474"/>
<path d="M87.5343 5.25782C85.7296 4.83311 84.2617 5.06028 83.222 5.95909C82.7807 6.34099 82.4505 6.75254 81.9895 7.12457C81.4566 7.54927 80.8321 7.94764 80.2109 8.38223C80.8419 8.695 81.6658 8.77731 82.4799 8.60611C83.0913 8.47771 83.7092 8.27029 84.1211 8.01349C84.8175 7.5822 85.3667 7.08835 85.952 6.61096C86.4849 6.17308 86.9916 5.72533 87.5343 5.25782Z" fill="#D1A474"/>
<path d="M110.227 5.36975C108.619 4.92529 106.987 5.15246 105.98 6.01504C105.428 6.48584 104.983 6.98957 104.411 7.45379C103.97 7.81265 103.404 8.132 102.894 8.47111C103.924 8.91228 105.284 8.92874 106.294 8.37892C107.213 7.8752 107.913 7.26612 108.664 6.68997C109.21 6.26855 109.688 5.82738 110.227 5.36975Z" fill="#D1A474"/>
<path d="M144.353 5.52124C142.872 5.11629 141.361 5.26773 140.354 5.99204C139.991 6.25213 139.759 6.55832 139.426 6.83158C138.674 7.44065 137.896 8.04314 137.118 8.65551C138.053 9.07363 139.449 9.07363 140.479 8.51065C141.329 8.04314 141.989 7.48674 142.682 6.95009C143.277 6.48917 143.8 5.99862 144.353 5.52124Z" fill="#D1A474"/>
<path d="M27.0148 4.99446C25.4488 4.57963 23.9579 4.74095 22.9412 5.50147C22.5423 5.79778 22.2938 6.14676 21.9146 6.45294C21.2149 7.01593 20.4695 7.56574 19.7372 8.12543C20.6624 8.53697 22.0879 8.56002 23.0621 8.00691C24.0331 7.4538 24.7688 6.79535 25.5861 6.1731C26.0765 5.79119 26.5211 5.4027 27.0148 4.99446Z" fill="#D1A474"/>
<path d="M163.299 5.61997C161.798 5.20514 160.281 5.35658 159.291 6.06114C158.924 6.32123 158.686 6.62742 158.352 6.90068C157.604 7.51305 156.829 8.11554 156.047 8.73779C156.646 9.05056 157.698 9.17238 158.597 8.86619C159.366 8.60281 160.033 8.24065 160.608 7.86533C161.141 7.51964 161.481 7.10151 161.929 6.7196C162.37 6.35086 162.841 5.98871 163.299 5.61997Z" fill="#D1A474"/>
<path d="M45.9152 5.07014C44.2053 4.6586 42.757 4.84626 41.7435 5.66934C41.2138 6.10063 40.8248 6.57472 40.2919 7.00272C39.7917 7.40767 39.1868 7.77971 38.6212 8.17149C39.2293 8.49413 40.1349 8.61266 41.0111 8.39207C41.5865 8.24721 42.162 8.04309 42.5575 7.79288C43.2245 7.36488 43.7607 6.8842 44.3295 6.41999C44.8657 5.98211 45.3725 5.53435 45.9152 5.07014Z" fill="#D1A474"/>
<path d="M125.737 8.60935C127.163 9.04393 128.333 8.98467 129.464 8.30646C130.174 7.88175 130.739 7.39449 131.324 6.9204C131.906 6.4496 132.436 5.96234 132.992 5.47837C131.612 5.03391 129.922 5.23144 128.872 6.04135C128.398 6.41009 128.084 6.82821 127.627 7.20353C127.045 7.67763 126.391 8.12538 125.737 8.60935Z" fill="#D1A474"/>
<path d="M61.3237 8.29666C62.6413 8.79709 63.8379 8.68844 65.0672 8.00035C65.9237 7.52297 66.4992 6.91389 67.189 6.36079C67.6663 5.97888 68.124 5.59039 68.5981 5.1986C67.5094 4.76731 65.6557 4.89571 64.7468 5.57064C63.9621 6.15337 63.3442 6.79537 62.6086 7.39786C62.2424 7.70733 61.7847 7.9806 61.3237 8.29666Z" fill="#D1A474"/>
<path d="M57.6327 8.33614C58.862 8.75097 60.5719 8.57648 61.4938 7.86863C62.2785 7.26614 62.9716 6.63402 63.7301 6.02494C64.0766 5.74509 64.4755 5.48171 64.8515 5.20516C63.9034 4.82654 62.321 4.84301 61.4775 5.31381C60.9348 5.6167 60.4901 5.96897 60.0586 6.31795C59.2347 6.97642 58.4533 7.65134 57.6327 8.33614Z" fill="#D1A474"/>
<path d="M122.036 8.62256C123.285 9.08678 125.093 8.84973 126.168 7.99373C126.848 7.45379 127.44 6.88422 128.101 6.33769C128.454 6.04468 128.869 5.76812 129.258 5.48498C127.989 5.09319 126.646 5.15904 125.685 5.69898C125.214 5.96237 124.854 6.28172 124.478 6.58462C123.661 7.24967 122.873 7.92459 122.036 8.62256Z" fill="#D1A474"/>
<path d="M61.0523 5.13603C59.228 4.73766 57.698 5.00763 56.6223 5.93276C55.7069 6.72292 54.7882 7.51307 53.8564 8.3131C55.0563 8.79378 56.7956 8.59624 57.9039 7.74683C58.6166 7.2003 59.2215 6.62086 59.8917 6.06116C60.2513 5.75498 60.6437 5.45867 61.0523 5.13603Z" fill="#D1A474"/>
<path d="M17.4454 4.76727C17.7462 5.49816 17.6481 6.21918 16.7098 6.63401C15.8042 7.03567 15.0588 6.71632 14.4638 6.05456C13.6268 6.68669 12.8585 7.33856 12.0019 7.89167C11.4167 8.26699 10.7399 8.60281 10.0436 8.7773C8.7064 9.11641 7.35615 8.5633 6.81016 7.5789C6.10397 6.30478 6.36225 4.99773 7.62096 4.29977C8.8339 3.62813 10.1351 3.06844 11.4331 2.51534C12.4564 2.07746 13.0808 1.41241 13.326 0.474102C13.362 0.335825 13.2737 0.158044 13.192 0.0197671C13.1724 -0.0131559 12.9272 -0.00986622 12.8454 0.0428107C11.3513 1.04367 9.52047 1.03379 7.77463 1.29718C5.2049 1.68567 3.43616 2.90712 2.75287 5.11297C1.76551 8.30321 4.11293 11.5725 7.88251 12.2046C9.80818 12.5272 11.5933 12.142 13.0089 10.937C13.8622 10.2127 14.624 9.39954 15.3628 8.58634C16.0004 7.88508 16.6771 7.68425 17.5991 8.10567C17.9424 8.26041 18.2497 8.49087 18.5341 8.72133C19.9432 9.86705 22.0683 9.8901 23.4219 8.75755C24.7983 7.60524 24.8571 5.78459 23.5592 4.57632C22.2906 3.39767 20.2048 3.31207 18.7172 4.33269C18.3903 4.55985 17.9064 4.61583 17.4454 4.76727ZM20.9731 8.61268C19.6457 8.60281 18.6388 7.73364 18.642 6.59779C18.6453 5.44878 19.6882 4.5829 21.045 4.59607C22.3626 4.61253 23.3597 5.49816 23.3499 6.64059C23.3401 7.77315 22.3168 8.62256 20.9731 8.61268Z" fill="#8E8E8E"/>
<path d="M11.4885 3.04543C11.5049 3.96069 11.786 4.59281 12.8159 4.84303C13.3161 4.96484 13.7902 5.19201 14.2479 5.4093C14.4833 5.52124 14.7089 5.69244 14.8593 5.8801C15.2875 6.42004 15.8728 6.60441 16.4907 6.34761C17.0268 6.12374 17.2819 5.60026 17.089 5.11958C16.8568 4.5533 16.3109 4.32613 15.5687 4.45453C15.3758 4.48746 15.1371 4.46441 14.9573 4.39527C14.0354 4.04299 13.1298 3.66438 12.2143 3.29893C12.0018 3.21662 11.7795 3.14749 11.4885 3.04543ZM15.9414 4.685C16.4514 4.7245 16.7653 4.95825 16.8241 5.38625C16.8765 5.78133 16.4286 6.17971 15.9643 6.14678C15.4674 6.11057 15.1273 5.86364 15.1241 5.42577C15.1208 4.99447 15.4379 4.74755 15.9414 4.685Z" fill="#8E8E8E"/>
<path d="M168.294 5.08991C166.875 4.26354 165.015 4.46108 163.979 5.59363C162.916 6.75252 163.122 8.37892 164.453 9.3271C165.761 10.2621 167.66 10.1173 168.827 9.00775C169.063 8.78387 169.321 8.56 169.615 8.39867C170.406 7.97067 171.028 8.10895 171.659 8.69827C172.388 9.38307 173.14 10.0646 173.963 10.6638C175.33 11.6581 176.961 11.9017 178.658 11.4967C181.983 10.7099 183.811 7.64144 182.66 4.84299C181.866 2.90711 180.179 1.91942 177.844 1.72188C176.259 1.5869 174.621 1.70213 173.198 0.895513C173.123 0.852713 172.901 0.862592 172.888 0.892223C172.829 1.02062 172.764 1.18524 172.806 1.30705C173.1 2.13013 173.718 2.68982 174.67 3.02234C175.876 3.44046 177.089 3.86517 178.23 4.39523C179.417 4.94834 179.757 6.10065 179.23 7.28258C178.822 8.19784 177.661 8.774 176.435 8.54683C175.798 8.4283 175.163 8.1715 174.608 7.86861C173.793 7.42744 173.051 6.88751 172.25 6.37061C171.773 6.99615 171.132 7.32867 170.285 7.02249C169.409 6.70313 169.262 6.06443 169.471 5.3928C169.043 5.29403 168.605 5.27098 168.294 5.08991ZM164.338 7.42745C164.234 6.40354 165.054 5.55083 166.231 5.46194C167.444 5.36646 168.451 6.08418 168.549 7.11138C168.647 8.12541 167.817 8.96495 166.63 9.05384C165.43 9.13944 164.443 8.44147 164.338 7.42745Z" fill="#8E8E8E"/>
<path d="M174.032 3.7796C173.244 4.1615 172.463 4.55329 171.668 4.92203C171.511 4.99446 171.302 5.03067 171.126 5.01091C170.452 4.94178 169.981 5.17553 169.821 5.69571C169.687 6.13688 169.959 6.59122 170.459 6.75913C171.037 6.95338 171.544 6.75583 171.881 6.24553C171.999 6.06774 172.188 5.89984 172.388 5.7879C172.78 5.56731 173.185 5.33685 173.623 5.19858C174.523 4.91215 174.722 4.32941 174.66 3.50962C174.408 3.61827 174.215 3.6907 174.032 3.7796ZM171.606 5.85375C171.642 6.24553 171.355 6.48587 170.913 6.54842C170.501 6.60439 170.066 6.27845 170.079 5.91959C170.096 5.5311 170.357 5.30722 170.812 5.24138C171.266 5.26772 171.57 5.46855 171.606 5.85375Z" fill="#8E8E8E"/>
<path d="M169.942 5.12942C168.86 4.92859 167.752 5.22819 167.157 5.9525C166.925 6.23563 166.8 6.54841 166.608 6.84142C166.15 7.5361 165.679 8.23078 165.208 8.93533C166.006 9.2053 167.055 9.01764 167.719 8.35918C168.193 7.88838 168.55 7.36819 168.899 6.85788C169.285 6.2916 169.599 5.70886 169.942 5.12942Z" fill="#D1A474"/>
<path d="M169.546 5.8603C168.523 5.49156 167.372 5.61338 166.63 6.23233C166.342 6.47267 166.153 6.76239 165.898 7.01919C165.299 7.63156 164.688 8.24064 164.073 8.85959C164.799 9.25138 165.872 9.23163 166.666 8.6884C167.232 8.2999 167.696 7.84556 168.147 7.39781C168.651 6.89738 169.082 6.3739 169.546 5.8603Z" fill="#D1A474"/>
<path d="M23.229 4.97799C21.7447 4.56974 20.244 4.71789 19.2436 5.41915C18.9199 5.64632 18.7042 5.90971 18.4132 6.14675C17.6155 6.80192 16.8046 7.45379 15.9873 8.11884C16.9158 8.52379 18.3216 8.53038 19.3384 7.95422C20.2767 7.42416 20.9829 6.78546 21.7643 6.18626C22.2678 5.80106 22.7222 5.3994 23.229 4.97799Z" fill="#D1A474"/>
<path d="M19.1235 24.312L19.1365 21.4246L166.513 22.0941L166.5 24.9814L19.1235 24.312Z" fill="#8C6D5D"/>
<path d="M139.851 21.772C138.023 21.3703 136.578 21.5942 135.574 22.46C134.613 23.2864 133.658 24.1128 132.681 24.9556C133.629 25.3474 135.005 25.3244 136.071 24.7383C136.853 24.3103 137.467 23.8 138.095 23.3029C138.716 22.8123 139.256 22.2954 139.851 21.772Z" fill="#D1A474"/>
<path d="M90.954 24.7614C91.9969 25.14 93.272 25.1301 94.2757 24.5902C95.0636 24.1688 95.7044 23.6683 96.3289 23.1745C96.9762 22.6642 97.5287 22.121 98.127 21.5909C96.901 21.2156 95.3676 21.3209 94.3901 21.907C94.0697 22.0979 93.8376 22.3284 93.5793 22.5457C92.7129 23.2798 91.8498 24.0074 90.954 24.7614Z" fill="#D1A474"/>
<path d="M140.201 24.9754C141.191 25.3771 142.548 25.3705 143.575 24.7976C144.435 24.3202 145.105 23.7507 145.808 23.2009C146.377 22.7564 146.87 22.2889 147.403 21.8247C146.223 21.4098 144.552 21.5448 143.535 22.2099C143.182 22.4403 142.957 22.7169 142.653 22.9671C141.855 23.6289 141.047 24.284 140.201 24.9754Z" fill="#D1A474"/>
<path d="M49.0667 21.4065C47.6837 20.9983 46.1962 21.1036 45.2056 21.6963C44.9505 21.8477 44.7413 22.0222 44.5386 22.1934C43.6199 22.9704 42.7143 23.7507 41.7891 24.5408C42.7764 24.9326 44.1332 24.9095 45.2023 24.3235C45.9837 23.8955 46.5852 23.3786 47.2228 22.8881C47.5399 22.6444 47.723 22.3547 48.0303 22.1045C48.3343 21.8576 48.7169 21.637 49.0667 21.4065Z" fill="#D1A474"/>
<path d="M113.389 21.6601C111.695 21.2551 110.302 21.423 109.263 22.2231C108.815 22.5687 108.52 22.9638 108.086 23.3128C107.471 23.8067 106.788 24.2807 106.091 24.7976C106.673 25.0874 107.464 25.173 108.256 25.0182C108.851 24.903 109.472 24.7153 109.864 24.4717C110.593 24.0207 111.178 23.5071 111.796 23.0099C112.342 22.572 112.846 22.1243 113.389 21.6601Z" fill="#D1A474"/>
<path d="M41.4294 21.3275C39.4449 20.8962 37.977 21.1728 36.9079 22.2098C36.5025 22.6016 36.1428 23.0099 35.6721 23.3786C35.2045 23.7473 34.6291 24.0832 34.0995 24.4354C35.0411 24.8931 36.4959 24.9062 37.5193 24.34C38.4183 23.8428 39.1082 23.2436 39.8438 22.6773C40.4028 22.2428 40.89 21.7884 41.4294 21.3275Z" fill="#D1A474"/>
<path d="M159.156 25.0709C160.105 25.4824 161.579 25.4462 162.645 24.8141C163.508 24.3005 164.165 23.6947 164.891 23.1251C165.385 22.7366 165.846 22.335 166.329 21.93C165.453 21.5745 163.877 21.6008 162.903 22.0617C162.524 22.2395 162.213 22.4667 161.942 22.6938C161.004 23.4741 160.095 24.2676 159.156 25.0709Z" fill="#D1A474"/>
<path d="M83.3657 24.7153C84.376 25.1169 85.736 25.1071 86.7593 24.5375C87.6192 24.0601 88.2796 23.484 88.9825 22.9374C89.5514 22.493 90.0516 22.0288 90.5878 21.5711C89.3487 21.1728 87.7467 21.2913 86.7495 21.93C86.3768 22.167 86.1381 22.46 85.821 22.7201C85.02 23.3753 84.2125 24.0272 83.3657 24.7153Z" fill="#D1A474"/>
<path d="M56.5307 21.3966C54.6671 20.9785 53.2221 21.2221 52.1791 22.1571C51.6855 22.6016 51.267 23.0658 50.7341 23.4971C50.2862 23.856 49.7206 24.1786 49.2073 24.5144C50.2666 24.9523 51.6168 24.9787 52.6074 24.419C53.5981 23.8593 54.3435 23.1844 55.1674 22.5489C55.6447 22.1835 56.0599 21.7983 56.5307 21.3966Z" fill="#D1A474"/>
<path d="M147.812 25.0215C148.74 25.4166 150.152 25.4067 151.182 24.8108C152.078 24.2939 152.758 23.6815 153.507 23.1021C154.02 22.7037 154.488 22.2889 154.985 21.8741C154.118 21.5415 152.618 21.5448 151.673 21.9564C151.28 22.1276 150.94 22.3449 150.669 22.5687C149.704 23.3754 148.776 24.1919 147.812 25.0215Z" fill="#D1A474"/>
<path d="M98.4832 24.7812C99.5784 25.1829 100.886 25.1631 101.909 24.5968C102.688 24.1688 103.312 23.6651 103.936 23.1713C104.567 22.6708 105.113 22.1441 105.699 21.6305C104.332 21.2354 102.799 21.3671 101.815 22.0387C101.439 22.2922 101.2 22.5984 100.867 22.8717C100.095 23.5038 99.3005 24.1293 98.4832 24.7812Z" fill="#D1A474"/>
<path d="M83.0354 21.5185C81.1588 21.0938 79.6876 21.3539 78.6316 22.2988C77.739 23.0955 76.7942 23.8791 75.8461 24.6922C76.6503 25.0807 78.1019 25.0906 79.1318 24.5342C79.9851 24.07 80.6488 23.5136 81.3386 22.977C81.9369 22.5062 82.4567 22.0156 83.0354 21.5185Z" fill="#D1A474"/>
<path d="M45.5618 24.5606C46.5524 24.9326 47.8863 24.9326 48.8704 24.3959C49.7041 23.9416 50.3645 23.3984 51.038 22.8716C51.6493 22.3942 52.1757 21.8905 52.7413 21.3934C51.5611 21.0213 50.0473 21.1102 49.06 21.6732C48.7461 21.851 48.4977 22.0617 48.2557 22.2691C47.3632 23.0165 46.4837 23.7737 45.5618 24.5606Z" fill="#D1A474"/>
<path d="M94.7498 24.7811C95.724 25.1663 97.0874 25.1631 98.0943 24.5902C98.9967 24.0766 99.6898 23.4675 100.438 22.8881C100.968 22.4798 101.439 22.0485 101.939 21.6238C100.926 21.2781 99.438 21.3111 98.4932 21.7786C98.0845 21.9794 97.7576 22.2329 97.4568 22.4831C96.5479 23.2305 95.6783 23.9877 94.7498 24.7811Z" fill="#D1A474"/>
<path d="M143.921 24.9721C145.065 25.3968 146.379 25.3737 147.429 24.7844C148.236 24.3334 148.864 23.7967 149.518 23.2831C150.113 22.8156 150.633 22.3251 151.192 21.8444C149.802 21.3999 148.08 21.6008 147.066 22.4008C146.654 22.7267 146.386 23.0988 145.981 23.4247C145.34 23.9449 144.634 24.442 143.921 24.9721Z" fill="#D1A474"/>
<path d="M30.065 21.2782C28.2996 20.8666 26.8806 21.0642 25.8508 21.9169C25.3146 22.3613 24.9092 22.8486 24.3665 23.2865C23.8924 23.6684 23.304 24.0141 22.7318 24.3993C23.4184 24.7252 24.2553 24.7943 25.0988 24.6165C25.6416 24.5013 26.1973 24.3202 26.5602 24.0931C27.2632 23.6453 27.8549 23.1515 28.4565 22.6675C29.009 22.2198 29.5158 21.7555 30.065 21.2782Z" fill="#D1A474"/>
<path d="M33.8249 21.3012C32.3144 20.8732 30.6895 21.0741 29.6989 21.8807C29.2412 22.2527 28.9241 22.6741 28.4598 23.0461C27.8713 23.5169 27.1978 23.9614 26.5603 24.419C27.5673 24.8635 28.9666 24.8437 30.0455 24.2709C30.7484 23.8989 31.3238 23.4577 31.873 23.0165C32.5661 22.4601 33.1775 21.8741 33.8249 21.3012Z" fill="#D1A474"/>
<path d="M79.2461 21.5119C77.8043 21.1069 76.2546 21.2551 75.2804 21.9563C74.8292 22.2823 74.5448 22.6675 74.123 23.0033C73.4364 23.5531 72.7041 24.0865 71.9816 24.633C72.9526 25.0676 74.4042 25.0544 75.434 24.4684C76.2971 23.9745 76.9641 23.3885 77.6801 22.8321C78.2228 22.4107 78.7067 21.9695 79.2461 21.5119Z" fill="#D1A474"/>
<path d="M71.6776 21.4625C69.7225 21.0378 68.2742 21.321 67.1887 22.3218C66.3649 23.0823 65.4625 23.8198 64.5438 24.6133C64.8283 24.8536 65.6881 25.0215 66.561 24.8306C67.1953 24.6923 67.8328 24.4816 68.2807 24.2182C68.9346 23.8363 69.4413 23.3885 69.9677 22.9572C70.5529 22.4733 71.0924 21.9728 71.6776 21.4625Z" fill="#D1A474"/>
<path d="M136.094 21.7753C134.603 21.3769 133.171 21.5185 132.141 22.1901C131.998 22.2856 131.864 22.3844 131.743 22.4897C130.814 23.2897 129.889 24.0898 128.931 24.9194C129.398 25.1861 130.301 25.3244 131.141 25.0873C131.857 24.8832 132.54 24.6034 133.05 24.2807C133.688 23.8791 134.133 23.3951 134.665 22.9506C135.126 22.5654 135.597 22.1835 136.094 21.7753Z" fill="#D1A474"/>
<path d="M151.411 24.9886C152.657 25.41 153.886 25.4199 154.854 24.8766C155.799 24.3466 156.518 23.7145 157.303 23.112C157.822 22.7136 158.283 22.2988 158.774 21.8839C157.607 21.4658 155.867 21.6008 154.893 22.256C154.501 22.5193 154.233 22.8321 153.906 23.1251C153.536 23.4511 153.199 23.7869 152.784 24.0964C152.372 24.4025 151.885 24.6857 151.411 24.9886Z" fill="#D1A474"/>
<path d="M94.3737 21.5613C92.4219 21.1563 91.052 21.4032 89.9731 22.358C89.0708 23.1548 88.1292 23.9383 87.1876 24.7449C88.0475 25.1269 89.3618 25.1236 90.4439 24.6067C91.0684 24.3071 91.6111 23.9482 92.0721 23.5762C92.8894 22.9177 93.6152 22.2296 94.3737 21.5613Z" fill="#D1A474"/>
<path d="M109.916 24.8306C110.976 25.2256 112.267 25.2224 113.274 24.6791C114.111 24.2248 114.768 23.6816 115.441 23.1581C116.053 22.6807 116.579 22.177 117.145 21.6831C115.791 21.2782 114.202 21.423 113.205 22.1177C112.852 22.3646 112.627 22.6576 112.306 22.9177C111.535 23.5532 110.737 24.1787 109.916 24.8306Z" fill="#D1A474"/>
<path d="M113.653 24.8174C114.582 25.2388 115.899 25.252 116.945 24.7482C117.645 24.4124 118.24 24.0042 118.76 23.5893C119.531 22.9737 120.195 22.3218 120.905 21.6864C119.27 21.2749 117.759 21.479 116.752 22.3021C116.308 22.6642 116 23.0725 115.553 23.4346C114.964 23.9087 114.294 24.3532 113.653 24.8174Z" fill="#D1A474"/>
<path d="M75.467 21.4888C73.9042 21.0905 72.4559 21.2485 71.4358 21.9794C71.1023 22.2164 70.8898 22.4996 70.5858 22.7465C69.8109 23.3786 69.0132 24.0041 68.2188 24.6363C69.2061 25.0346 70.5531 25.0478 71.5437 24.498C72.4722 23.9811 73.1817 23.3589 73.95 22.7695C74.4796 22.3646 74.9471 21.9333 75.467 21.4888Z" fill="#D1A474"/>
<path d="M117.4 24.8108C118.191 25.1762 119.11 25.2421 120.087 24.9853C121.477 24.6198 122.173 23.9449 122.912 23.2963C123.51 22.7695 124.079 22.2329 124.658 21.7028C123.082 21.2913 121.418 21.5514 120.411 22.4238C119.839 22.921 119.345 23.4412 118.75 23.9284C118.364 24.2445 117.854 24.5178 117.4 24.8108Z" fill="#D1A474"/>
<path d="M30.4541 24.4848C31.3663 24.8799 32.8015 24.8733 33.8248 24.2774C34.7337 23.7506 35.4235 23.1218 36.1853 22.5325C36.6855 22.144 37.1465 21.7423 37.6336 21.3407C36.7934 21.0049 35.2732 21.0082 34.325 21.4197C33.9327 21.5909 33.5927 21.8082 33.3213 22.0321C32.3471 22.8387 31.4186 23.6585 30.4541 24.4848Z" fill="#D1A474"/>
<path d="M86.8181 21.5383C85.0135 21.1136 83.5455 21.3407 82.5058 22.2395C82.0645 22.6214 81.7343 23.033 81.2733 23.405C80.7404 23.8297 80.1159 24.2281 79.4948 24.6627C80.1257 24.9754 80.9496 25.0577 81.7637 24.8865C82.3751 24.7581 82.993 24.5507 83.4049 24.2939C84.1013 23.8626 84.6506 23.3688 85.2358 22.8914C85.7719 22.4535 86.2754 22.0058 86.8181 21.5383Z" fill="#D1A474"/>
<path d="M109.514 21.6502C107.906 21.2057 106.274 21.4329 105.267 22.2954C104.715 22.7662 104.27 23.27 103.698 23.7342C103.257 24.093 102.691 24.4124 102.181 24.7515C103.211 25.1927 104.571 25.2091 105.581 24.6593C106.5 24.1556 107.2 23.5465 107.952 22.9704C108.498 22.549 108.975 22.1078 109.514 21.6502Z" fill="#D1A474"/>
<path d="M143.64 21.8016C142.159 21.3967 140.648 21.5481 139.641 22.2724C139.279 22.5325 139.046 22.8387 138.713 23.112C137.961 23.721 137.183 24.3235 136.405 24.9359C137.34 25.354 138.736 25.354 139.766 24.791C140.616 24.3235 141.276 23.7671 141.969 23.2305C142.564 22.7696 143.084 22.279 143.64 21.8016Z" fill="#D1A474"/>
<path d="M26.3019 21.2749C24.7359 20.86 23.2451 21.0213 22.2283 21.7819C21.8294 22.0782 21.5809 22.4272 21.2017 22.7334C20.5021 23.2963 19.7566 23.8462 19.0243 24.4058C19.9495 24.8174 21.375 24.8404 22.3492 24.2873C23.3203 23.7342 24.0559 23.0758 24.8732 22.4535C25.3636 22.0716 25.805 21.6831 26.3019 21.2749Z" fill="#D1A474"/>
<path d="M162.586 21.9004C161.085 21.4855 159.568 21.637 158.578 22.3415C158.212 22.6016 157.973 22.9078 157.639 23.1811C156.891 23.7935 156.116 24.3959 155.334 25.0182C155.933 25.331 156.986 25.4528 157.885 25.1466C158.653 24.8832 159.32 24.5211 159.895 24.1457C160.428 23.8 160.768 23.3819 161.216 23C161.657 22.6313 162.128 22.2691 162.586 21.9004Z" fill="#D1A474"/>
<path d="M45.2023 21.3506C43.4924 20.9391 42.0441 21.1267 41.0306 21.9498C40.5009 22.3811 40.1119 22.8552 39.579 23.2832C39.0788 23.6881 38.4739 24.0602 37.9083 24.452C38.5164 24.7746 39.422 24.8931 40.2982 24.6725C40.8737 24.5277 41.4491 24.3236 41.8447 24.0733C42.5116 23.6453 43.0478 23.1647 43.6167 22.7005C44.1528 22.2626 44.6596 21.8148 45.2023 21.3506Z" fill="#D1A474"/>
<path d="M125.024 24.8865C126.45 25.3211 127.62 25.2618 128.751 24.5836C129.461 24.1589 130.026 23.6716 130.612 23.1975C131.193 22.7267 131.723 22.2395 132.279 21.7555C130.899 21.311 129.209 21.5086 128.159 22.3185C127.685 22.6872 127.372 23.1054 126.914 23.4807C126.332 23.9548 125.678 24.4058 125.024 24.8865Z" fill="#D1A474"/>
<path d="M60.6108 24.577C61.9284 25.0775 63.125 24.9688 64.3543 24.2807C65.2108 23.8033 65.7863 23.1943 66.4761 22.6411C66.9534 22.2592 67.4111 21.8707 67.8852 21.479C66.7965 21.0477 64.9428 21.1761 64.0339 21.851C63.2492 22.4337 62.6313 23.0757 61.8957 23.6782C61.5295 23.9877 61.0686 24.261 60.6108 24.577Z" fill="#D1A474"/>
<path d="M56.9198 24.6166C58.1491 25.0314 59.859 24.8569 60.7809 24.149C61.5656 23.5466 62.2587 22.9144 63.0172 22.3054C63.3637 22.0255 63.7626 21.7621 64.1386 21.4856C63.1905 21.107 61.6081 21.1234 60.7646 21.5942C60.2219 21.8971 59.7772 22.2494 59.3457 22.5984C58.5218 23.2568 57.7371 23.9318 56.9198 24.6166Z" fill="#D1A474"/>
<path d="M121.32 24.903C122.569 25.3672 124.377 25.1301 125.452 24.2741C126.132 23.7342 126.724 23.1646 127.385 22.6181C127.738 22.3251 128.153 22.0485 128.542 21.7654C127.273 21.3736 125.93 21.4395 124.968 21.9794C124.498 22.2428 124.138 22.5621 123.762 22.865C122.948 23.5301 122.157 24.2017 121.32 24.903Z" fill="#D1A474"/>
<path d="M60.3363 21.4132C58.512 21.0148 56.9819 21.2848 55.9063 22.2099C54.9909 23 54.0722 23.7902 53.1404 24.5902C54.3402 25.0709 56.0796 24.8734 57.1879 24.0239C57.9006 23.4774 58.5054 22.898 59.1757 22.3383C59.5386 22.0354 59.9276 21.7391 60.3363 21.4132Z" fill="#D1A474"/>
<path d="M16.7325 21.0477C17.0333 21.7786 16.9352 22.4996 15.9969 22.9144C15.0913 23.3161 14.3459 22.9967 13.7509 22.335C12.9139 22.9671 12.1456 23.619 11.289 24.1721C10.7038 24.5474 10.0271 24.8832 9.33068 25.0577C7.99351 25.3968 6.64325 24.8437 6.09727 23.8593C5.39108 22.5852 5.64936 21.2781 6.90807 20.5802C8.12101 19.9085 9.42222 19.3488 10.7202 18.7957C11.7435 18.3579 12.3679 17.6928 12.6131 16.7545C12.6491 16.6162 12.5608 16.4384 12.4791 16.3002C12.4595 16.2672 12.2143 16.2705 12.1325 16.3232C10.6384 17.3241 8.80758 17.3142 7.06174 17.5776C4.49201 17.9661 2.72327 19.1875 2.03997 21.3934C1.05262 24.5836 3.40003 27.8529 7.16962 28.485C9.09529 28.8076 10.8804 28.4224 12.296 27.2175C13.1493 26.4932 13.9111 25.68 14.65 24.8668C15.2875 24.1655 15.9642 23.9647 16.8862 24.3861C17.2295 24.5408 17.5368 24.7713 17.8212 25.0017C19.2303 26.1475 21.3554 26.1705 22.709 25.038C24.0854 23.8856 24.1442 22.065 22.8463 20.8567C21.5778 19.6781 19.4919 19.5925 18.0043 20.6131C17.6774 20.8403 17.1935 20.8962 16.7325 21.0477ZM20.2569 24.8931C18.9296 24.8832 17.9226 24.014 17.9259 22.8782C17.9291 21.7292 18.9721 20.8633 20.3289 20.8765C21.6464 20.8929 22.6436 21.7786 22.6338 22.921C22.624 24.0536 21.6006 24.903 20.2569 24.8931Z" fill="#8E8E8E"/>
<path d="M10.7725 19.3258C10.7888 20.2411 11.07 20.8732 12.0998 21.1234C12.6 21.2452 13.0741 21.4724 13.5318 21.6897C13.7672 21.8016 13.9928 21.9728 14.1432 22.1605C14.5715 22.7004 15.1567 22.8848 15.7746 22.628C16.3108 22.4041 16.5658 21.8807 16.3729 21.4C16.1408 20.8337 15.5948 20.6065 14.8526 20.7349C14.6597 20.7679 14.4211 20.7448 14.2413 20.6757C13.3193 20.3234 12.4137 19.9448 11.4983 19.5793C11.2858 19.4937 11.0634 19.4279 10.7725 19.3258ZM15.2253 20.9654C15.7354 21.0049 16.0492 21.2387 16.1081 21.6667C16.1604 22.0617 15.7125 22.4601 15.2482 22.4272C14.7513 22.391 14.4113 22.144 14.408 21.7062C14.4047 21.2749 14.7251 21.0279 15.2253 20.9654Z" fill="#8E8E8E"/>
<path d="M167.581 21.3703C166.163 20.5439 164.302 20.7415 163.266 21.874C162.203 23.0329 162.409 24.6593 163.74 25.6075C165.048 26.5425 166.947 26.3977 168.114 25.2882C168.35 25.0643 168.608 24.8404 168.902 24.6791C169.693 24.2511 170.315 24.3894 170.946 24.9787C171.675 25.6635 172.427 26.345 173.251 26.9442C174.617 27.9385 176.249 28.1821 177.945 27.7771C181.27 26.9903 183.098 23.9219 181.947 21.1234C181.153 19.1875 179.466 18.1998 177.131 18.0023C175.546 17.8673 173.908 17.9825 172.486 17.1759C172.41 17.1331 172.188 17.143 172.175 17.1726C172.116 17.301 172.051 17.4656 172.093 17.5875C172.387 18.4105 173.005 18.9702 173.957 19.3027C175.163 19.7209 176.376 20.1456 177.517 20.6756C178.704 21.2287 179.044 22.3811 178.518 23.563C178.109 24.4783 176.948 25.0544 175.722 24.8272C175.085 24.7087 174.45 24.4519 173.895 24.149C173.081 23.7079 172.342 23.1679 171.537 22.651C171.06 23.2766 170.419 23.6091 169.572 23.3029C168.696 22.9835 168.549 22.3448 168.758 21.6732C168.33 21.5744 167.892 21.5514 167.581 21.3703ZM163.626 23.7079C163.521 22.6839 164.342 21.8312 165.518 21.7423C166.731 21.6469 167.738 22.3646 167.836 23.3918C167.935 24.4058 167.104 25.2454 165.917 25.3343C164.717 25.4199 163.73 24.7219 163.626 23.7079Z" fill="#8E8E8E"/>
<path d="M173.316 20.06C172.528 20.4419 171.747 20.8337 170.952 21.2024C170.795 21.2749 170.586 21.3111 170.41 21.2913C169.736 21.2222 169.265 21.4559 169.105 21.9761C168.971 22.4173 169.242 22.8716 169.743 23.0395C170.321 23.2338 170.828 23.0362 171.165 22.5259C171.283 22.3482 171.472 22.1802 171.672 22.0683C172.064 21.8477 172.469 21.6173 172.907 21.479C173.807 21.1926 174.006 20.6098 173.944 19.79C173.695 19.8987 173.502 19.9711 173.316 20.06ZM170.893 22.1342C170.929 22.5259 170.642 22.7663 170.2 22.8288C169.788 22.8848 169.354 22.5589 169.367 22.2C169.383 21.8115 169.645 21.5876 170.099 21.5218C170.553 21.5481 170.858 21.749 170.893 22.1342Z" fill="#8E8E8E"/>
<path d="M169.229 21.4098C168.147 21.209 167.039 21.5086 166.444 22.2329C166.212 22.516 166.087 22.8288 165.894 23.1218C165.437 23.8165 164.966 24.5112 164.495 25.2157C165.293 25.4857 166.342 25.298 167.006 24.6396C167.48 24.1688 167.836 23.6486 168.186 23.1383C168.569 22.572 168.883 21.9893 169.229 21.4098Z" fill="#D1A474"/>
<path d="M168.834 22.1374C167.81 21.7687 166.66 21.8905 165.917 22.5095C165.63 22.7498 165.44 23.0395 165.185 23.2963C164.587 23.9087 163.975 24.5178 163.361 25.1367C164.087 25.5285 165.159 25.5088 165.953 24.9655C166.519 24.577 166.983 24.1227 167.434 23.6749C167.935 23.1778 168.369 22.6543 168.834 22.1374Z" fill="#D1A474"/>
<path d="M22.5161 21.2584C21.0318 20.8501 19.5311 20.9983 18.5307 21.6996C18.207 21.9267 17.9913 22.1901 17.7003 22.4272C16.9026 23.0823 16.0918 23.7342 15.2744 24.3993C16.2029 24.8042 17.6087 24.8108 18.6255 24.2346C19.5638 23.7046 20.27 23.0659 21.0514 22.4667C21.5549 22.0815 22.0093 21.6798 22.5161 21.2584Z" fill="#D1A474"/>
<path d="M164.692 57.0688L164.654 59.9559L17.2917 57.9672L17.3301 55.0801L164.692 57.0688Z" fill="#8C6D5D"/>
<path d="M137.997 59.7949C136.163 60.1636 134.721 59.9134 133.734 59.0311C132.789 58.1882 131.847 57.3421 130.886 56.4828C131.841 56.1075 133.217 56.1536 134.273 56.7594C135.045 57.2038 135.653 57.724 136.271 58.231C136.879 58.7348 137.409 59.2615 137.997 59.7949Z" fill="#D1A474"/>
<path d="M89.1592 55.9199C90.2086 55.5577 91.4837 55.5939 92.4776 56.1503C93.259 56.5882 93.89 57.0985 94.5046 57.6022C95.1454 58.1224 95.6881 58.6755 96.2733 59.2155C95.0408 59.5677 93.5074 59.4361 92.543 58.8303C92.2291 58.6327 91.997 58.399 91.742 58.1784C90.8919 57.4376 90.0419 56.6903 89.1592 55.9199Z" fill="#D1A474"/>
<path d="M138.403 56.5981C139.4 56.2162 140.757 56.2458 141.773 56.8351C142.627 57.329 143.284 57.9117 143.977 58.4714C144.539 58.9257 145.023 59.4031 145.549 59.8739C144.359 60.2657 142.692 60.1011 141.688 59.4196C141.342 59.1825 141.119 58.8994 140.822 58.6459C140.034 57.9743 139.236 57.3059 138.403 56.5981Z" fill="#D1A474"/>
<path d="M47.2197 58.5175C45.8302 58.8994 44.3459 58.7677 43.3651 58.1586C43.1134 58.0006 42.9074 57.8228 42.7047 57.6483C41.8024 56.8549 40.9098 56.0581 39.9977 55.2515C40.9916 54.8762 42.3484 54.9256 43.4044 55.5314C44.1759 55.9725 44.771 56.4993 45.3987 57.003C45.7125 57.2532 45.8891 57.5462 46.1931 57.803C46.4972 58.0533 46.8764 58.2804 47.2197 58.5175Z" fill="#D1A474"/>
<path d="M111.535 59.4294C109.835 59.8047 108.442 59.6105 107.419 58.7907C106.977 58.4384 106.693 58.0368 106.261 57.6779C105.653 57.1709 104.983 56.6869 104.293 56.1569C104.878 55.877 105.673 55.8079 106.464 55.9758C107.056 56.1009 107.674 56.3017 108.063 56.5519C108.782 57.0162 109.361 57.5396 109.969 58.0499C110.505 58.4977 111.002 58.9553 111.535 59.4294Z" fill="#D1A474"/>
<path d="M39.5824 58.4615C37.5913 58.8566 36.1266 58.5537 35.0772 57.4968C34.6816 57.0985 34.3252 56.6836 33.8642 56.305C33.4033 55.9264 32.8344 55.5807 32.3113 55.2219C33.2627 54.7807 34.7143 54.7939 35.7278 55.3799C36.617 55.8935 37.2971 56.5026 38.0229 57.0853C38.5721 57.5265 39.0527 57.9907 39.5824 58.4615Z" fill="#D1A474"/>
<path d="M157.358 56.845C158.313 56.4499 159.788 56.5125 160.84 57.1677C161.694 57.6977 162.341 58.3134 163.057 58.8961C163.544 59.2945 163.995 59.706 164.473 60.1176C163.59 60.4567 162.014 60.4007 161.05 59.9233C160.674 59.7357 160.369 59.5052 160.101 59.2747C159.176 58.4747 158.28 57.6681 157.358 56.845Z" fill="#D1A474"/>
<path d="M81.5743 55.8309C82.5911 55.449 83.9512 55.4819 84.9647 56.0713C85.8147 56.5651 86.4653 57.1511 87.1584 57.7108C87.7207 58.1652 88.2112 58.6393 88.7375 59.1068C87.4919 59.4821 85.8899 59.3339 84.9058 58.6788C84.5397 58.4351 84.3043 58.1388 83.9904 57.8722C83.2025 57.2005 82.4048 56.5322 81.5743 55.8309Z" fill="#D1A474"/>
<path d="M54.6838 58.6623C52.8137 59.0475 51.372 58.7775 50.3454 57.8261C49.8582 57.375 49.4496 56.9009 48.9232 56.4598C48.4818 56.091 47.9228 55.7618 47.416 55.4128C48.4818 54.9914 49.8353 54.9914 50.8129 55.5708C51.7937 56.1503 52.526 56.8351 53.3401 57.487C53.8109 57.8623 54.2196 58.2541 54.6838 58.6623Z" fill="#D1A474"/>
<path d="M146.014 56.6903C146.949 56.3117 148.361 56.3479 149.381 56.9602C150.267 57.4936 150.937 58.1191 151.676 58.7118C152.183 59.12 152.644 59.5447 153.131 59.9661C152.258 60.2855 150.758 60.2526 149.822 59.8213C149.433 59.6435 149.097 59.4196 148.829 59.1891C147.874 58.3694 146.962 57.5364 146.014 56.6903Z" fill="#D1A474"/>
<path d="M96.6887 56.0384C97.7905 55.6565 99.095 55.7026 100.112 56.282C100.883 56.7232 101.498 57.2401 102.113 57.7438C102.734 58.2541 103.273 58.7907 103.849 59.3175C102.476 59.6862 100.945 59.5282 99.9712 58.8401C99.6017 58.58 99.3663 58.2706 99.0394 57.9907C98.2776 57.3454 97.4963 56.7067 96.6887 56.0384Z" fill="#D1A474"/>
<path d="M81.1853 59.0212C79.2989 59.413 77.8342 59.1232 76.7945 58.1619C75.9151 57.3487 74.9866 56.5487 74.0515 55.719C74.8623 55.3437 76.3172 55.3601 77.334 55.9363C78.1775 56.417 78.8313 56.9865 79.5114 57.5331C80.1031 58.0137 80.6164 58.5142 81.1853 59.0212Z" fill="#D1A474"/>
<path d="M43.7705 55.3042C44.7677 54.9486 46.1016 54.975 47.0758 55.5314C47.903 56.0022 48.5503 56.5553 49.2173 57.0919C49.8188 57.5792 50.3354 58.0928 50.8945 58.5998C49.7077 58.9488 48.1972 58.8336 47.2197 58.2541C46.9091 58.0697 46.6672 57.8557 46.4252 57.645C45.5458 56.8779 44.6794 56.1042 43.7705 55.3042Z" fill="#D1A474"/>
<path d="M92.9551 55.9692C93.9359 55.6005 95.2992 55.6301 96.2964 56.2194C97.1889 56.7495 97.8689 57.3717 98.6078 57.9644C99.1309 58.3825 99.5919 58.8204 100.086 59.2549C99.0655 59.5842 97.578 59.5216 96.6429 59.0377C96.2375 58.8269 95.9139 58.5701 95.6196 58.3166C94.7271 57.5561 93.8705 56.7824 92.9551 55.9692Z" fill="#D1A474"/>
<path d="M142.123 56.6705C143.274 56.2655 144.588 56.3149 145.628 56.9207C146.426 57.3849 147.043 57.9314 147.691 58.4615C148.276 58.9389 148.789 59.4393 149.339 59.9332C147.943 60.3546 146.22 60.1208 145.226 59.301C144.82 58.9685 144.559 58.5899 144.157 58.2574C143.522 57.724 142.826 57.2137 142.123 56.6705Z" fill="#D1A474"/>
<path d="M28.2182 58.3035C26.4462 58.6821 25.0305 58.4615 24.017 57.5891C23.4874 57.1347 23.0951 56.6409 22.5556 56.1898C22.0881 55.798 21.5062 55.4425 20.9406 55.0474C21.6304 54.7313 22.4706 54.6787 23.3108 54.8729C23.8503 54.998 24.4061 55.189 24.7624 55.4227C25.4588 55.8804 26.0408 56.3874 26.6325 56.8845C27.1818 57.3421 27.6787 57.8162 28.2182 58.3035Z" fill="#D1A474"/>
<path d="M31.9779 58.3463C30.4609 58.7479 28.8393 58.5175 27.8617 57.6944C27.4106 57.3125 27.1 56.8878 26.6422 56.5092C26.0636 56.0285 25.3966 55.5709 24.7656 55.1001C25.7824 54.6721 27.1784 54.7215 28.2475 55.3108C28.9439 55.696 29.5128 56.147 30.0522 56.5981C30.742 57.1676 31.3403 57.7635 31.9779 58.3463Z" fill="#D1A474"/>
<path d="M77.396 58.9586C75.9477 59.3372 74.4013 59.1627 73.4401 58.4417C72.9954 58.1092 72.7175 57.7174 72.3023 57.3717C71.6256 56.8087 70.903 56.2622 70.1903 55.7025C71.1679 55.2844 72.6195 55.3239 73.6362 55.9297C74.4928 56.44 75.1467 57.0359 75.8529 57.6088C76.389 58.0401 76.8664 58.4911 77.396 58.9586Z" fill="#D1A474"/>
<path d="M69.8276 58.873C67.8627 59.2615 66.4209 58.952 65.3551 57.9314C64.5443 57.1577 63.6583 56.4038 62.7494 55.5906C63.0371 55.3569 63.9035 55.2054 64.7699 55.4095C65.4009 55.5577 66.0351 55.7816 66.4797 56.0515C67.1238 56.4433 67.624 56.9009 68.1439 57.3454C68.7193 57.8392 69.2522 58.3496 69.8276 58.873Z" fill="#D1A474"/>
<path d="M134.237 59.7225C132.74 60.0945 131.308 59.9266 130.291 59.2352C130.147 59.1365 130.016 59.0344 129.899 58.929C128.983 58.1126 128.074 57.2928 127.13 56.4466C127.6 56.1898 128.509 56.068 129.343 56.3182C130.056 56.5322 130.732 56.8286 131.239 57.1578C131.87 57.5726 132.305 58.0599 132.831 58.5175C133.286 58.9159 133.75 59.3077 134.237 59.7225Z" fill="#D1A474"/>
<path d="M149.61 56.7857C150.866 56.384 152.092 56.4005 153.053 56.9602C153.988 57.5067 154.697 58.1553 155.472 58.7677C155.985 59.1726 156.437 59.6006 156.924 60.022C155.75 60.4171 154.011 60.2525 153.049 59.5809C152.66 59.3076 152.399 58.9916 152.075 58.6952C151.712 58.3627 151.379 58.0203 150.97 57.7043C150.561 57.3915 150.078 57.1018 149.61 56.7857Z" fill="#D1A474"/>
<path d="M92.5235 59.1858C90.5651 59.5545 89.2018 59.2846 88.1392 58.3101C87.2532 57.4969 86.3247 56.6968 85.3962 55.8737C86.2626 55.5083 87.5769 55.5346 88.6525 56.0713C89.2737 56.3808 89.8066 56.7495 90.2611 57.1281C91.0621 57.803 91.7748 58.501 92.5235 59.1858Z" fill="#D1A474"/>
<path d="M108.122 56.1931C109.187 55.8178 110.479 55.8441 111.476 56.4071C112.303 56.8746 112.95 57.431 113.617 57.9677C114.219 58.4549 114.736 58.9685 115.295 59.4722C113.931 59.8541 112.349 59.6797 111.365 58.9685C111.015 58.715 110.796 58.4187 110.479 58.152C109.714 57.5034 108.929 56.8647 108.122 56.1931Z" fill="#D1A474"/>
<path d="M111.859 56.2787C112.794 55.8771 114.111 55.8836 115.151 56.4071C115.844 56.7561 116.432 57.1742 116.946 57.5956C117.708 58.2245 118.358 58.8895 119.058 59.5348C117.417 59.9167 115.909 59.6863 114.915 58.8434C114.477 58.4714 114.18 58.0599 113.735 57.6911C113.153 57.2104 112.49 56.7495 111.859 56.2787Z" fill="#D1A474"/>
<path d="M73.6167 58.9125C72.0474 59.2846 70.6023 59.1002 69.5954 58.3495C69.2684 58.1059 69.0592 57.8195 68.7584 57.566C67.9934 56.9207 67.2087 56.282 66.4241 55.6334C67.418 55.2515 68.7649 55.2647 69.7458 55.8342C70.6645 56.3676 71.3641 57.003 72.1193 57.6055C72.6457 58.0203 73.1034 58.4615 73.6167 58.9125Z" fill="#D1A474"/>
<path d="M115.602 56.3511C116.4 56.0022 117.318 55.9495 118.293 56.226C119.676 56.6178 120.359 57.3026 121.088 57.9677C121.677 58.5043 122.236 59.0508 122.804 59.5908C121.222 59.9727 119.561 59.683 118.571 58.7907C118.008 58.2837 117.524 57.7537 116.936 57.2532C116.557 56.9372 116.05 56.6507 115.602 56.3511Z" fill="#D1A474"/>
<path d="M28.6627 55.1033C29.5814 54.7247 31.0167 54.7576 32.0302 55.37C32.9293 55.9132 33.606 56.5552 34.358 57.1577C34.8516 57.5561 35.3028 57.9644 35.7834 58.3759C34.9367 58.6952 33.4197 58.6656 32.4781 58.2343C32.089 58.0565 31.7523 57.8327 31.4842 57.6055C30.5295 56.7824 29.6141 55.9495 28.6627 55.1033Z" fill="#D1A474"/>
<path d="M84.968 59.0673C83.1568 59.4591 81.6921 59.2056 80.6688 58.287C80.2372 57.8985 79.9136 57.4771 79.4558 57.0985C78.9327 56.6639 78.3116 56.2557 77.7002 55.8079C78.3377 55.5083 79.1649 55.4392 79.9724 55.6268C80.5805 55.7651 81.1952 55.9857 81.6038 56.2491C82.2904 56.6936 82.8331 57.1973 83.4085 57.6845C83.9382 58.1356 84.4351 58.5932 84.968 59.0673Z" fill="#D1A474"/>
<path d="M107.661 59.3669C106.046 59.7817 104.417 59.5249 103.427 58.6459C102.884 58.1652 102.446 57.6516 101.884 57.1775C101.449 56.8087 100.89 56.4795 100.386 56.1338C101.426 55.7124 102.783 55.719 103.783 56.2886C104.695 56.8088 105.382 57.431 106.124 58.0203C106.66 58.4516 107.131 58.9027 107.661 59.3669Z" fill="#D1A474"/>
<path d="M141.783 59.8344C140.292 60.213 138.785 60.0353 137.794 59.2912C137.438 59.0245 137.209 58.7118 136.879 58.4352C136.14 57.813 135.372 57.1973 134.604 56.5685C135.548 56.1701 136.941 56.1898 137.961 56.7759C138.801 57.2566 139.455 57.8294 140.135 58.3759C140.727 58.8467 141.24 59.3472 141.783 59.8344Z" fill="#D1A474"/>
<path d="M24.455 58.2409C22.8791 58.6261 21.3948 58.4385 20.3911 57.6615C19.9988 57.3586 19.7536 57.0063 19.3809 56.6935C18.6911 56.1174 17.9587 55.5577 17.2329 54.9815C18.1647 54.5865 19.5901 54.5898 20.5546 55.1626C21.5158 55.7322 22.2416 56.4071 23.0426 57.0425C23.5297 57.4244 23.9678 57.8228 24.455 58.2409Z" fill="#D1A474"/>
<path d="M160.729 60.078C159.222 60.4665 157.705 60.2887 156.731 59.5644C156.371 59.2977 156.139 58.9883 155.809 58.7084C155.07 58.0829 154.308 57.4639 153.536 56.8285C154.141 56.5256 155.197 56.4236 156.086 56.7462C156.852 57.0228 157.512 57.3981 158.081 57.7833C158.607 58.1389 158.937 58.5636 159.379 58.9521C159.814 59.3307 160.278 59.7027 160.729 60.078Z" fill="#D1A474"/>
<path d="M43.3552 58.5076C41.6388 58.8862 40.1938 58.6722 39.1933 57.8327C38.6702 57.3948 38.291 56.9108 37.7679 56.473C37.2742 56.0581 36.6759 55.6762 36.1201 55.2746C36.7348 54.9651 37.6404 54.8597 38.5133 55.0968C39.0854 55.2515 39.6608 55.4655 40.0466 55.7223C40.707 56.1602 41.2334 56.6508 41.7957 57.1281C42.3221 57.5759 42.8191 58.0335 43.3552 58.5076Z" fill="#D1A474"/>
<path d="M123.226 56.4104C124.658 56.0022 125.829 56.0845 126.947 56.7791C127.65 57.217 128.206 57.7142 128.781 58.1981C129.353 58.6788 129.873 59.1759 130.422 59.6698C129.033 60.0912 127.349 59.8607 126.313 59.0311C125.845 58.6558 125.538 58.2278 125.087 57.8459C124.518 57.3685 123.87 56.9075 123.226 56.4104Z" fill="#D1A474"/>
<path d="M58.8196 55.5577C60.1469 55.0803 61.3403 55.212 62.5597 55.9232C63.4065 56.417 63.9721 57.0327 64.6521 57.5989C65.1229 57.9907 65.5708 58.3858 66.0384 58.7842C64.9431 59.1957 63.0927 59.0344 62.1936 58.3397C61.4187 57.7405 60.8106 57.0886 60.0914 56.473C59.7285 56.1635 59.2708 55.8804 58.8196 55.5577Z" fill="#D1A474"/>
<path d="M55.1284 55.4523C56.3642 55.0573 58.0741 55.2647 58.983 55.989C59.7546 56.6046 60.4412 57.2499 61.1866 57.8755C61.5266 58.1619 61.9222 58.4319 62.2949 58.715C61.3402 59.0772 59.7579 59.0311 58.9242 58.5471C58.388 58.2343 57.9499 57.8722 57.5216 57.5166C56.7075 56.8384 55.936 56.1503 55.1284 55.4523Z" fill="#D1A474"/>
<path d="M119.525 56.3281C120.784 55.8869 122.585 56.1569 123.645 57.0294C124.315 57.5825 124.897 58.1619 125.547 58.7216C125.897 59.0212 126.306 59.3044 126.688 59.5974C125.413 59.9661 124.07 59.8772 123.118 59.3175C122.654 59.0443 122.298 58.7216 121.928 58.4088C121.127 57.7306 120.349 57.0458 119.525 56.3281Z" fill="#D1A474"/>
<path d="M58.4893 58.715C56.6585 59.0805 55.1317 58.7841 54.0757 57.836C53.1733 57.0293 52.2677 56.2227 51.3523 55.4062C52.562 54.9486 54.2947 55.1758 55.39 56.0449C56.0929 56.6046 56.6879 57.194 57.3451 57.7668C57.7014 58.0796 58.0872 58.3825 58.4893 58.715Z" fill="#D1A474"/>
<path d="M16.1476 58.748C17.6188 59.7949 19.7047 59.7488 20.9961 58.5932C22.3169 57.408 22.2875 55.5873 20.934 54.412C19.6001 53.2564 17.475 53.2366 16.0462 54.3593C15.7585 54.5865 15.4447 54.8104 15.0981 54.9585C14.1696 55.3602 13.4961 55.1495 12.8717 54.435C12.1459 53.6087 11.4005 52.7823 10.5602 52.0415C9.16748 50.8102 7.38894 50.3921 5.46001 50.6818C1.67407 51.2448 -0.728917 54.4713 0.199586 57.678C0.843653 59.897 2.5895 61.1481 5.15269 61.5826C6.89527 61.8789 8.72285 61.902 10.2006 62.9292C10.2791 62.9852 10.5243 62.995 10.5439 62.9588C10.6256 62.8205 10.7172 62.6461 10.6845 62.5045C10.4589 61.5629 9.84424 60.8847 8.83074 60.4303C7.54587 59.8542 6.2512 59.2714 5.05134 58.5768C3.80244 57.8557 3.57031 56.5454 4.29938 55.2845C4.86498 54.3066 6.22177 53.7799 7.55568 54.142C8.24879 54.333 8.91901 54.6787 9.49769 55.0639C10.3445 55.6301 11.0997 56.2952 11.9268 56.9438C12.5317 56.2952 13.2836 55.9857 14.1827 56.4071C15.1145 56.8417 15.1995 57.5627 14.8856 58.287C15.3433 58.4517 15.8239 58.5175 16.1476 58.748ZM20.8195 56.5257C20.8097 57.6681 19.7962 58.5373 18.4787 58.5274C17.1219 58.5175 16.0953 57.6319 16.1116 56.4829C16.128 55.3503 17.1513 54.4976 18.4787 54.5108C19.8224 54.5272 20.8293 55.3931 20.8195 56.5257Z" fill="#8E8E8E"/>
<path d="M9.62849 59.6665C10.5504 59.3175 11.4626 58.9554 12.3911 58.6196C12.5709 58.5537 12.8129 58.534 13.0025 58.5702C13.7414 58.7117 14.2906 58.4944 14.5326 57.9315C14.7353 57.4574 14.49 56.9273 13.9571 56.6936C13.3425 56.4269 12.754 56.5981 12.3159 57.1314C12.1623 57.3191 11.9334 57.4837 11.698 57.5924C11.2337 57.8031 10.7564 58.0171 10.2562 58.1323C9.22308 58.366 8.93211 58.9916 8.89941 59.9068C9.18712 59.8114 9.41271 59.7455 9.62849 59.6665ZM12.5709 57.5924C12.5807 57.1545 12.9273 56.9141 13.4242 56.8878C13.8885 56.8615 14.3299 57.2664 14.271 57.6615C14.2056 58.0895 13.8885 58.3167 13.3785 58.3463C12.875 58.2772 12.5611 58.0236 12.5709 57.5924Z" fill="#8E8E8E"/>
<path d="M166.895 60.4073C166.699 59.7323 166.859 59.0936 167.739 58.794C168.589 58.501 169.223 58.8434 169.69 59.4788C170.501 58.9751 171.253 58.4516 172.074 58.0236C172.636 57.7306 173.274 57.4837 173.914 57.3783C175.144 57.1742 176.298 57.7701 176.687 58.692C177.19 59.8838 176.831 61.0328 175.634 61.5629C174.483 62.0732 173.264 62.4748 172.048 62.8732C171.09 63.186 170.462 63.7358 170.151 64.5556C170.106 64.6774 170.168 64.842 170.223 64.9737C170.236 65.0066 170.459 65.0198 170.534 64.977C171.969 64.1934 173.604 64.3416 175.193 64.2362C177.53 64.0815 179.234 63.1234 180.064 61.204C181.264 58.4253 179.492 55.3272 176.183 54.4811C174.493 54.0465 172.858 54.2605 171.475 55.2318C170.642 55.8178 169.88 56.4828 169.138 57.1578C168.5 57.7372 167.873 57.8656 167.091 57.4211C166.8 57.2565 166.549 57.0294 166.316 56.7989C165.169 55.6696 163.273 55.4918 161.949 56.4005C160.602 57.3257 160.369 58.9488 161.409 60.1274C162.426 61.2764 164.283 61.5069 165.715 60.7102C166.029 60.5225 166.467 60.506 166.895 60.4073ZM164.123 56.7067C165.306 56.8154 166.123 57.6681 166.006 58.6821C165.888 59.7093 164.871 60.4073 163.658 60.2887C162.481 60.1768 161.677 59.3076 161.801 58.287C161.922 57.2796 162.923 56.5981 164.123 56.7067Z" fill="#8E8E8E"/>
<path d="M172.051 62.3925C172.126 61.5727 171.937 60.9867 171.044 60.6838C170.609 60.5357 170.207 60.2986 169.818 60.0714C169.619 59.9529 169.436 59.785 169.318 59.6039C168.988 59.0903 168.484 58.8796 167.906 59.064C167.402 59.222 167.121 59.6731 167.248 60.1142C167.399 60.6377 167.866 60.8813 168.54 60.8221C168.716 60.8056 168.926 60.8451 169.079 60.9209C169.867 61.3061 170.642 61.711 171.423 62.1061C171.61 62.2049 171.803 62.2806 172.051 62.3925ZM168.232 60.5916C167.781 60.5192 167.523 60.2854 167.513 59.9002C167.507 59.5414 167.948 59.222 168.357 59.2879C168.798 59.357 169.079 59.6039 169.037 59.9957C168.997 60.3809 168.687 60.5752 168.232 60.5916Z" fill="#8E8E8E"/>
<path d="M167.363 60.6871C166.274 60.8682 165.176 60.5488 164.59 59.8146C164.365 59.5282 164.244 59.2121 164.058 58.9158C163.613 58.2113 163.155 57.51 162.698 56.7956C163.499 56.5388 164.545 56.7462 165.199 57.4178C165.663 57.8952 166.013 58.422 166.349 58.9422C166.725 59.515 167.029 60.1044 167.363 60.6871Z" fill="#D1A474"/>
<path d="M166.98 59.9529C165.95 60.3019 164.803 60.1604 164.071 59.5282C163.786 59.2813 163.603 58.9916 163.355 58.7282C162.766 58.106 162.168 57.487 161.563 56.8549C162.295 56.4763 163.368 56.5158 164.152 57.0755C164.711 57.4738 165.166 57.9381 165.61 58.3924C166.101 58.8994 166.526 59.4295 166.98 59.9529Z" fill="#D1A474"/>
<path d="M20.669 58.1849C19.1749 58.5635 17.6808 58.389 16.6935 57.6713C16.3763 57.4409 16.1638 57.1709 15.8761 56.9273C15.0915 56.2556 14.2905 55.5906 13.4862 54.9124C14.4212 54.5239 15.8271 54.5403 16.834 55.1362C17.7625 55.6828 18.4557 56.3346 19.2272 56.9503C19.7242 57.3454 20.1721 57.7569 20.669 58.1849Z" fill="#D1A474"/>
<path d="M165.595 40.2235L165.557 43.1106L18.1947 41.1219L18.2331 38.2348L165.595 40.2235Z" fill="#8C6D5D"/>
<path d="M138.9 42.9481C137.066 43.3168 135.624 43.0666 134.636 42.1843C133.692 41.3415 132.75 40.4953 131.789 39.6361C132.743 39.2607 134.12 39.3068 135.176 39.9126C135.947 40.3571 136.556 40.8772 137.173 41.3843C137.782 41.888 138.311 42.4148 138.9 42.9481Z" fill="#D1A474"/>
<path d="M90.0615 39.0731C91.111 38.7109 92.386 38.7472 93.3799 39.3036C94.1613 39.7414 94.7923 40.2517 95.407 40.7555C96.0477 41.2757 96.5905 41.8288 97.1757 42.3687C95.9431 42.721 94.4098 42.5893 93.4453 41.9835C93.1315 41.786 92.8993 41.5522 92.6443 41.3316C91.7943 40.5909 90.9443 39.8435 90.0615 39.0731Z" fill="#D1A474"/>
<path d="M139.305 39.7513C140.302 39.3694 141.659 39.399 142.676 39.9883C143.529 40.4822 144.186 41.0649 144.879 41.6246C145.442 42.079 145.925 42.5563 146.452 43.0271C145.262 43.4189 143.594 43.2543 142.591 42.5728C142.244 42.3358 142.022 42.0526 141.724 41.7991C140.936 41.1275 140.142 40.4591 139.305 39.7513Z" fill="#D1A474"/>
<path d="M48.1221 41.6707C46.7326 42.0526 45.2483 41.9209 44.2675 41.3118C44.0157 41.1538 43.8098 40.976 43.6071 40.8015C42.7047 40.0081 41.8122 39.2114 40.9 38.4047C41.8939 38.0294 43.2507 38.0788 44.3067 38.6846C45.0783 39.1258 45.6733 39.6525 46.301 40.1562C46.6149 40.4065 46.7914 40.6995 47.0955 40.9563C47.3995 41.2065 47.7788 41.4337 48.1221 41.6707Z" fill="#D1A474"/>
<path d="M112.437 42.5827C110.737 42.958 109.344 42.7637 108.321 41.944C107.88 41.5917 107.595 41.19 107.164 40.8312C106.556 40.3241 105.885 39.8402 105.196 39.3101C105.781 39.0303 106.575 38.9611 107.366 39.129C107.958 39.2541 108.576 39.455 108.965 39.7052C109.684 40.1694 110.263 40.6929 110.871 41.2032C111.407 41.6509 111.904 42.1086 112.437 42.5827Z" fill="#D1A474"/>
<path d="M40.4847 41.6147C38.4937 42.0098 37.029 41.7069 35.9795 40.6501C35.5839 40.2517 35.2276 39.8369 34.7666 39.4583C34.3056 39.0796 33.7367 38.7339 33.2136 38.3751C34.165 37.9339 35.6166 37.9471 36.6301 38.5331C37.5194 39.0467 38.1994 39.6558 38.9252 40.2385C39.4745 40.6797 39.9551 41.1439 40.4847 41.6147Z" fill="#D1A474"/>
<path d="M158.261 39.9982C159.215 39.6032 160.69 39.6657 161.743 40.3209C162.596 40.851 163.243 41.4666 163.959 42.0494C164.446 42.4477 164.898 42.8593 165.375 43.2708C164.492 43.6099 162.916 43.5539 161.952 43.0766C161.576 42.8889 161.272 42.6584 161.004 42.428C160.078 41.6279 159.183 40.8213 158.261 39.9982Z" fill="#D1A474"/>
<path d="M82.4767 38.9842C83.4935 38.6022 84.8535 38.6352 85.867 39.2245C86.7171 39.7183 87.3677 40.3044 88.0608 40.8641C88.6231 41.3184 89.1135 41.7925 89.6399 42.26C88.3943 42.6353 86.7923 42.4872 85.8082 41.832C85.442 41.5884 85.2066 41.2921 84.8928 41.0254C84.1048 40.3538 83.3071 39.6854 82.4767 38.9842Z" fill="#D1A474"/>
<path d="M55.5862 41.8155C53.7161 42.2007 52.2743 41.9308 51.2477 40.9793C50.7606 40.5283 50.3519 40.0542 49.8255 39.613C49.3842 39.2443 48.8251 38.915 48.3184 38.566C49.3842 38.1446 50.7377 38.1446 51.7152 38.7241C52.6961 39.3035 53.4284 39.9883 54.2425 40.6402C54.7133 41.0155 55.1219 41.4073 55.5862 41.8155Z" fill="#D1A474"/>
<path d="M146.916 39.8435C147.851 39.4649 149.263 39.5011 150.283 40.1135C151.169 40.6468 151.84 41.2724 152.579 41.865C153.085 42.2732 153.546 42.6979 154.033 43.1193C153.161 43.4387 151.66 43.4058 150.725 42.9745C150.336 42.7967 149.999 42.5728 149.731 42.3424C148.78 41.5226 147.864 40.6896 146.916 39.8435Z" fill="#D1A474"/>
<path d="M97.5908 39.1916C98.6926 38.8097 99.9971 38.8558 101.014 39.4352C101.785 39.8764 102.4 40.3933 103.015 40.897C103.636 41.4073 104.175 41.944 104.751 42.4707C103.378 42.8395 101.848 42.6814 100.873 41.9934C100.504 41.7333 100.268 41.4238 99.9415 41.1439C99.1797 40.4986 98.3984 39.8599 97.5908 39.1916Z" fill="#D1A474"/>
<path d="M82.0875 42.1744C80.2011 42.5662 78.7364 42.2765 77.6967 41.3151C76.8173 40.5019 75.8888 39.7019 74.9537 38.8722C75.7645 38.4969 77.2194 38.5134 78.2362 39.0895C79.0797 39.5702 79.7336 40.1398 80.4136 40.6863C81.0054 41.167 81.5186 41.6674 82.0875 42.1744Z" fill="#D1A474"/>
<path d="M44.676 38.4574C45.6732 38.1018 47.0071 38.1282 47.9814 38.6846C48.8085 39.1554 49.4559 39.7085 50.1228 40.2451C50.7244 40.7324 51.2409 41.246 51.8 41.753C50.6132 42.102 49.1028 41.9868 48.1252 41.4073C47.8146 41.223 47.5727 41.009 47.3308 40.7982C46.448 40.0311 45.5816 39.2574 44.676 38.4574Z" fill="#D1A474"/>
<path d="M93.8574 39.1225C94.8382 38.7537 96.2016 38.7833 97.1987 39.3727C98.0913 39.9027 98.7713 40.525 99.5102 41.1176C100.033 41.5357 100.494 41.9736 100.988 42.4082C99.9679 42.7374 98.4803 42.6749 97.5453 42.1909C97.1399 41.9802 96.8162 41.7234 96.522 41.4699C95.6294 40.7093 94.7728 39.9357 93.8574 39.1225Z" fill="#D1A474"/>
<path d="M143.025 39.8237C144.176 39.4188 145.491 39.4682 146.53 40.0739C147.328 40.5382 147.946 41.0847 148.593 41.6147C149.178 42.0921 149.692 42.5926 150.241 43.0864C148.845 43.5078 147.122 43.2741 146.128 42.4543C145.723 42.1218 145.461 41.7431 145.059 41.4106C144.425 40.8773 143.728 40.367 143.025 39.8237Z" fill="#D1A474"/>
<path d="M29.1237 41.4567C27.3517 41.8353 25.9361 41.6148 24.9226 40.7423C24.3929 40.288 24.0006 39.7941 23.4611 39.3431C22.9936 38.9513 22.4117 38.5957 21.8461 38.2006C22.5359 37.8846 23.3761 37.8319 24.2164 38.0261C24.7558 38.1512 25.3116 38.3422 25.668 38.576C26.3643 39.0336 26.9463 39.5406 27.5381 40.0377C28.084 40.4954 28.581 40.9695 29.1237 41.4567Z" fill="#D1A474"/>
<path d="M32.8802 41.4995C31.3632 41.9012 29.7416 41.6707 28.7641 40.8476C28.3129 40.4657 28.0023 40.041 27.5446 39.6624C26.9659 39.1817 26.299 38.7241 25.668 38.2533C26.6847 37.8253 28.0808 37.8747 29.1499 38.464C29.8462 38.8492 30.4151 39.3002 30.9546 39.7513C31.6444 40.3209 32.2427 40.9168 32.8802 41.4995Z" fill="#D1A474"/>
<path d="M78.2984 42.1118C76.85 42.4905 75.3036 42.316 74.3424 41.595C73.8978 41.2624 73.6199 40.8706 73.2047 40.525C72.5279 39.962 71.8054 39.4154 71.0927 38.8558C72.0702 38.4376 73.5218 38.4771 74.5386 39.0829C75.3952 39.5932 76.049 40.1891 76.7552 40.762C77.2914 41.1933 77.7687 41.6443 78.2984 42.1118Z" fill="#D1A474"/>
<path d="M70.7297 42.0263C68.7648 42.4148 67.323 42.1053 66.2572 41.0847C65.4464 40.311 64.5604 39.557 63.6515 38.7438C63.9392 38.5101 64.8056 38.3586 65.672 38.5628C66.3029 38.7109 66.9372 38.9348 67.3818 39.2048C68.0259 39.5966 68.5261 40.0542 69.046 40.4986C69.6246 40.9925 70.1575 41.5028 70.7297 42.0263Z" fill="#D1A474"/>
<path d="M135.14 42.8757C133.642 43.2477 132.21 43.0798 131.193 42.3885C131.05 42.2897 130.919 42.1876 130.801 42.0823C129.886 41.2658 128.977 40.446 128.032 39.5999C128.503 39.3431 129.412 39.2213 130.245 39.4715C130.958 39.6855 131.635 39.9818 132.142 40.311C132.773 40.7258 133.207 41.2131 133.734 41.6707C134.191 42.0691 134.652 42.4609 135.14 42.8757Z" fill="#D1A474"/>
<path d="M150.512 39.9389C151.768 39.5373 152.994 39.5537 153.955 40.1134C154.89 40.66 155.6 41.3085 156.374 41.9209C156.888 42.3259 157.339 42.7539 157.826 43.1753C156.652 43.5704 154.913 43.4057 153.952 42.7341C153.563 42.4608 153.301 42.1448 152.978 41.8485C152.615 41.516 152.281 41.1736 151.873 40.8575C151.467 40.5447 150.983 40.255 150.512 39.9389Z" fill="#D1A474"/>
<path d="M93.4257 42.339C91.4674 42.7078 90.104 42.4378 89.0415 41.4633C88.1555 40.6501 87.227 39.8501 86.2985 39.027C87.1648 38.6615 88.4791 38.6879 89.5548 39.2245C90.176 39.534 90.7089 39.9027 91.1633 40.2813C91.9643 40.9563 92.6803 41.6542 93.4257 42.339Z" fill="#D1A474"/>
<path d="M109.024 39.3463C110.09 38.971 111.381 38.9973 112.378 39.5603C113.205 40.0278 113.853 40.5842 114.52 41.1209C115.121 41.6081 115.638 42.1217 116.197 42.6255C114.834 43.0074 113.251 42.8329 112.267 42.1217C111.917 41.8682 111.698 41.5719 111.381 41.3053C110.616 40.6567 109.831 40.018 109.024 39.3463Z" fill="#D1A474"/>
<path d="M112.761 39.432C113.696 39.0303 115.013 39.0369 116.053 39.5604C116.746 39.9093 117.335 40.3275 117.848 40.7489C118.61 41.3777 119.26 42.0428 119.96 42.6881C118.319 43.07 116.812 42.8395 115.818 41.9967C115.38 41.6246 115.082 41.2131 114.637 40.8444C114.055 40.3637 113.392 39.9028 112.761 39.432Z" fill="#D1A474"/>
<path d="M74.519 42.0658C72.9497 42.4378 71.5047 42.2534 70.4977 41.5028C70.1708 41.2592 69.9615 40.9727 69.6608 40.7192C68.8957 40.0739 68.1111 39.4352 67.3264 38.7866C68.3203 38.4047 69.6673 38.4179 70.6481 38.9875C71.5668 39.5208 72.2664 40.1562 73.0217 40.7587C73.548 41.1736 74.0057 41.6147 74.519 42.0658Z" fill="#D1A474"/>
<path d="M116.504 39.5044C117.302 39.1554 118.221 39.1027 119.195 39.3793C120.578 39.7711 121.261 40.4559 121.99 41.1209C122.579 41.6576 123.138 42.2041 123.707 42.744C122.124 43.1259 120.464 42.8362 119.473 41.944C118.911 41.437 118.427 40.9069 117.838 40.4065C117.462 40.0904 116.956 39.804 116.504 39.5044Z" fill="#D1A474"/>
<path d="M29.5651 38.2566C30.4838 37.878 31.919 37.9109 32.9325 38.5232C33.8316 39.0665 34.5084 39.7085 35.2603 40.311C35.754 40.7093 36.2052 41.1176 36.6858 41.5291C35.839 41.8485 34.322 41.8188 33.3804 41.3876C32.9914 41.2098 32.6546 40.9859 32.3865 40.7587C31.4319 39.9356 30.5165 39.1027 29.5651 38.2566Z" fill="#D1A474"/>
<path d="M85.8701 42.2205C84.0589 42.6123 82.5942 42.3588 81.5709 41.4403C81.1393 41.0518 80.8157 40.6304 80.358 40.2517C79.8348 39.8172 79.2137 39.4089 78.6023 38.9612C79.2398 38.6616 80.067 38.5924 80.8745 38.7801C81.4826 38.9184 82.0973 39.1389 82.5059 39.4023C83.1925 39.8468 83.7352 40.3505 84.3106 40.8378C84.8403 41.2888 85.3372 41.7464 85.8701 42.2205Z" fill="#D1A474"/>
<path d="M108.563 42.5201C106.948 42.9349 105.32 42.6781 104.329 41.7991C103.787 41.3184 103.349 40.8048 102.786 40.3307C102.351 39.962 101.792 39.6327 101.289 39.2871C102.328 38.8656 103.685 38.8722 104.686 39.4418C105.598 39.962 106.284 40.5842 107.027 41.1735C107.563 41.6048 108.034 42.0559 108.563 42.5201Z" fill="#D1A474"/>
<path d="M142.685 42.9877C141.195 43.3663 139.687 43.1885 138.697 42.4444C138.34 42.1778 138.112 41.865 137.781 41.5884C137.042 40.9662 136.274 40.3505 135.506 39.7217C136.451 39.3233 137.843 39.3431 138.863 39.9291C139.704 40.4098 140.358 40.9827 141.038 41.5292C141.629 42 142.143 42.5004 142.685 42.9877Z" fill="#D1A474"/>
<path d="M25.3574 41.3942C23.7816 41.7794 22.2973 41.5917 21.2936 40.8147C20.9013 40.5118 20.6561 40.1595 20.2834 39.8468C19.5935 39.2706 18.8612 38.7109 18.1354 38.1348C19.0671 37.7397 20.4926 37.743 21.4571 38.3158C22.4183 38.8854 23.1441 39.5603 23.9451 40.1958C24.4355 40.5777 24.8703 40.976 25.3574 41.3942Z" fill="#D1A474"/>
<path d="M161.631 43.2312C160.124 43.6197 158.607 43.442 157.633 42.7176C157.273 42.451 157.041 42.1415 156.711 41.8616C155.972 41.2361 155.21 40.6172 154.439 39.9817C155.044 39.6788 156.1 39.5768 156.989 39.8994C157.754 40.176 158.414 40.5513 158.983 40.9365C159.51 41.2921 159.84 41.7168 160.281 42.1053C160.716 42.4839 161.18 42.8559 161.631 43.2312Z" fill="#D1A474"/>
<path d="M44.2577 41.6608C42.5413 42.0395 41.0962 41.8255 40.0958 40.9859C39.5727 40.548 39.1935 40.0641 38.6704 39.6262C38.1767 39.2114 37.5784 38.8295 37.0226 38.4278C37.6372 38.1183 38.5428 38.013 39.4158 38.25C39.9879 38.4048 40.5633 38.6188 40.9491 38.8756C41.6095 39.3134 42.1359 39.804 42.6982 40.2814C43.2246 40.7291 43.7248 41.1867 44.2577 41.6608Z" fill="#D1A474"/>
<path d="M124.128 39.5636C125.56 39.1554 126.731 39.2377 127.849 39.9324C128.552 40.3703 129.108 40.8674 129.683 41.3514C130.255 41.832 130.775 42.3292 131.324 42.823C129.935 43.2444 128.251 43.014 127.215 42.1843C126.747 41.809 126.44 41.381 125.989 40.9991C125.42 40.5217 124.776 40.0608 124.128 39.5636Z" fill="#D1A474"/>
<path d="M59.7217 38.7109C61.049 38.2336 62.2424 38.3652 63.4618 39.0764C64.3086 39.5702 64.8742 40.1859 65.5542 40.7522C66.025 41.1439 66.4729 41.539 66.9405 41.9374C65.8452 42.3489 63.9948 42.1876 63.0957 41.4929C62.3208 40.8937 61.7127 40.2419 60.9935 39.6262C60.6306 39.3167 60.1761 39.0336 59.7217 38.7109Z" fill="#D1A474"/>
<path d="M56.0305 38.6056C57.2663 38.2105 58.9762 38.4179 59.8851 39.1422C60.6567 39.7579 61.3433 40.4032 62.0887 41.0287C62.4287 41.3151 62.8243 41.5851 63.197 41.8682C62.2423 42.2304 60.66 42.1843 59.8263 41.7003C59.2901 41.3876 58.852 41.0254 58.4237 40.6699C57.6096 39.9916 56.8381 39.3035 56.0305 38.6056Z" fill="#D1A474"/>
<path d="M120.428 39.4813C121.686 39.0402 123.488 39.3101 124.547 40.1826C125.217 40.7357 125.799 41.3151 126.45 41.8748C126.8 42.1744 127.208 42.4576 127.591 42.7506C126.316 43.1193 124.972 43.0304 124.021 42.4707C123.557 42.1975 123.2 41.8748 122.831 41.5621C122.03 40.8838 121.252 40.199 120.428 39.4813Z" fill="#D1A474"/>
<path d="M59.3916 41.8682C57.5607 42.2337 56.0339 41.9374 54.9779 40.9892C54.0756 40.1826 53.1699 39.376 52.2545 38.5595C53.4642 38.1018 55.197 38.329 56.2922 39.1982C56.9951 39.7579 57.5901 40.3472 58.2473 40.9201C58.6036 41.2328 58.9894 41.5357 59.3916 41.8682Z" fill="#D1A474"/>
<path d="M17.0499 41.9012C18.5211 42.9481 20.6069 42.9021 21.8984 41.7465C23.2192 40.5612 23.1898 38.7406 21.8362 37.5652C20.4991 36.4063 18.374 36.3899 16.9452 37.5093C16.6575 37.7364 16.3437 37.9603 15.9971 38.1085C15.0686 38.5101 14.3951 38.2994 13.7707 37.585C13.0449 36.7586 12.2995 35.9322 11.4592 35.1915C10.0665 33.9601 8.28794 33.542 6.35901 33.8317C2.57634 34.398 0.173352 37.6245 1.10512 40.8312C1.74919 43.0502 3.49504 44.3013 6.05823 44.7359C7.8008 45.0322 9.62839 45.0552 11.1061 46.0824C11.1846 46.1384 11.4298 46.1483 11.4494 46.1121C11.5312 45.9738 11.6227 45.7993 11.59 45.6577C11.3644 44.7161 10.7498 44.0379 9.73627 43.5836C8.45141 43.0074 7.15674 42.4247 5.95688 41.73C4.70798 41.009 4.47585 39.6986 5.20492 38.4377C5.77052 37.4599 7.12731 36.9331 8.46122 37.2953C9.15433 37.4862 9.82455 37.8319 10.4032 38.2171C11.25 38.7834 12.0052 39.4484 12.8324 40.097C13.4372 39.4484 14.1892 39.1389 15.0882 39.5604C16.02 39.9949 16.105 40.716 15.7912 41.4403C16.2456 41.6049 16.7262 41.6707 17.0499 41.9012ZM21.7218 39.6789C21.712 40.8213 20.6985 41.6905 19.3809 41.6806C18.0241 41.6707 16.9976 40.7851 17.0139 39.6361C17.0303 38.5035 18.0536 37.6508 19.3809 37.664C20.7246 37.6805 21.7316 38.5463 21.7218 39.6789Z" fill="#8E8E8E"/>
<path d="M10.5307 42.8197C11.4527 42.4707 12.3648 42.1086 13.2933 41.7728C13.4731 41.7069 13.7151 41.6872 13.9047 41.7234C14.6436 41.865 15.1928 41.6477 15.4348 41.0847C15.6375 40.6106 15.3923 40.0805 14.8594 39.8468C14.2447 39.5801 13.6562 39.7513 13.2181 40.2847C13.0645 40.4723 12.8356 40.6369 12.6002 40.7456C12.136 40.9563 11.6586 41.1703 11.1584 41.2855C10.1253 41.5193 9.83433 42.1448 9.80164 43.0601C10.0926 42.9646 10.3149 42.8987 10.5307 42.8197ZM13.4731 40.7456C13.483 40.3077 13.8295 40.0674 14.3265 40.041C14.7907 40.0147 15.2321 40.4196 15.1732 40.8147C15.1078 41.2427 14.7907 41.4699 14.2807 41.4995C13.7772 41.4304 13.4633 41.1769 13.4731 40.7456Z" fill="#8E8E8E"/>
<path d="M167.797 43.5605C167.601 42.8856 167.761 42.2469 168.641 41.9473C169.491 41.6542 170.125 41.9966 170.593 42.6321C171.404 42.1283 172.155 41.6049 172.976 41.1769C173.538 40.8838 174.176 40.6369 174.817 40.5316C176.046 40.3274 177.2 40.9233 177.589 41.8452C178.093 43.037 177.733 44.186 176.536 44.7161C175.386 45.2264 174.166 45.6281 172.95 46.0264C171.992 46.3392 171.364 46.889 171.054 47.7088C171.008 47.8306 171.07 47.9952 171.126 48.1269C171.139 48.1598 171.361 48.173 171.436 48.1302C172.871 47.3466 174.506 47.4948 176.095 47.3894C178.433 47.2347 180.136 46.2766 180.966 44.3572C182.166 41.5785 180.394 38.4805 177.086 37.6343C175.395 37.1997 173.761 37.4137 172.378 38.385C171.544 38.971 170.782 39.6361 170.04 40.311C169.403 40.8904 168.775 41.0188 167.994 40.5744C167.703 40.4097 167.451 40.1826 167.219 39.9521C166.071 38.8229 164.175 38.6451 162.851 39.5537C161.504 40.4789 161.272 42.102 162.311 43.2806C163.328 44.4297 165.185 44.6601 166.617 43.8634C166.931 43.6757 167.369 43.6593 167.797 43.5605ZM165.025 39.8599C166.209 39.9686 167.026 40.8213 166.908 41.8353C166.79 42.8625 165.774 43.5605 164.561 43.442C163.384 43.33 162.58 42.4609 162.704 41.4402C162.825 40.4328 163.825 39.7513 165.025 39.8599Z" fill="#8E8E8E"/>
<path d="M172.953 45.5457C173.029 44.726 172.839 44.1399 171.946 43.837C171.512 43.6889 171.109 43.4518 170.72 43.2247C170.521 43.1061 170.338 42.9382 170.22 42.7572C169.89 42.2436 169.387 42.0329 168.808 42.2172C168.304 42.3753 168.023 42.8263 168.151 43.2675C168.301 43.7909 168.769 44.0346 169.442 43.9753C169.619 43.9589 169.828 43.9984 169.982 44.0741C170.769 44.4593 171.544 44.8642 172.326 45.2593C172.512 45.3581 172.705 45.4338 172.953 45.5457ZM169.135 43.7449C168.684 43.6724 168.425 43.4387 168.416 43.0535C168.409 42.6946 168.85 42.3753 169.259 42.4411C169.7 42.5102 169.982 42.7572 169.939 43.1489C169.9 43.5341 169.593 43.7284 169.135 43.7449Z" fill="#8E8E8E"/>
<path d="M168.265 43.8403C167.176 44.0214 166.078 43.7021 165.493 42.9679C165.267 42.6814 165.146 42.3654 164.96 42.0691C164.515 41.3645 164.057 40.6633 163.6 39.9488C164.401 39.692 165.447 39.8994 166.101 40.5711C166.565 41.0485 166.915 41.5752 167.251 42.0954C167.627 42.6683 167.932 43.2576 168.265 43.8403Z" fill="#D1A474"/>
<path d="M167.883 43.1062C166.853 43.4552 165.705 43.3136 164.973 42.6815C164.689 42.4345 164.505 42.1448 164.257 41.8814C163.668 41.2592 163.07 40.6402 162.465 40.0081C163.198 39.6295 164.27 39.669 165.055 40.2287C165.614 40.6271 166.068 41.0913 166.513 41.5456C167.003 42.0526 167.428 42.5827 167.883 43.1062Z" fill="#D1A474"/>
<path d="M21.5714 41.3382C20.0773 41.7168 18.5832 41.5423 17.5958 40.8246C17.2787 40.5941 17.0662 40.3241 16.7785 40.0805C15.9938 39.4089 15.1928 38.7438 14.3885 38.0656C15.3236 37.6771 16.7294 37.6936 17.7364 38.2895C18.6649 38.836 19.358 39.4879 20.1296 40.1036C20.6265 40.4986 21.0744 40.9102 21.5714 41.3382Z" fill="#D1A474"/>
</g>
<defs>
<clipPath id="clip0">
<rect width="183" height="65" fill="white" transform="matrix(1 0 0 -1 0 65)"/>
</clipPath>
</defs>
</svg>
