<svg width="27" height="26" viewBox="0 0 27 26" fill="none" xmlns="http://www.w3.org/2000/svg">
<path d="M8.27746 0L3.26662 8.66311H1.34976C1.14228 8.66334 0.937633 8.71076 0.751691 8.80171C0.565749 8.89267 0.403506 9.0247 0.277537 9.18758C0.151568 9.35046 0.065258 9.53981 0.0252976 9.74095C-0.0146629 9.94209 -0.00720023 10.1496 0.0471066 10.3475L3.82548 24.0343C3.9821 24.5985 4.32178 25.0963 4.79241 25.4514C5.26304 25.8065 5.83861 25.9992 6.43079 26H20.5683C21.7805 26 22.8524 25.1932 23.1736 24.0329L26.952 10.3461C27.007 10.1482 27.0148 9.94044 26.975 9.73903C26.9352 9.53761 26.8488 9.34802 26.7226 9.18507C26.5963 9.02211 26.4336 8.8902 26.2472 8.79966C26.0608 8.70911 25.8557 8.66238 25.648 8.66311H23.7311L18.7203 0L16.3769 1.32294L20.6223 8.66311H6.37545L10.6209 1.32294L8.27746 0V0ZM16.1987 13.9975H18.8985V20.6656H16.1987V13.9975ZM8.09927 13.9975H10.7991V20.6656H8.09927V13.9975Z" fill="#2F91C9"/>
</svg>
