<svg width="59" height="95" viewBox="0 0 59 95" fill="none" xmlns="http://www.w3.org/2000/svg">
<path d="M25.5695 32.6827H11.439V93.1373H25.5695V32.6827Z" fill="#7E7EA3"/>
<path d="M27.5882 89.0934C29.7986 89.1527 32.0864 88.7835 34.2228 88.2484C38.4754 87.1833 42.5548 85.0225 45.2799 81.4934C46.9907 79.2784 48.0926 76.6503 48.5905 73.8951C48.8933 72.2169 49.0111 70.5083 48.969 68.803C48.9135 66.5915 48.5165 64.4273 48.2793 62.2326C47.6333 56.2769 47.4702 49.1104 51.0869 43.9777C51.8927 42.8347 52.9323 41.8593 54.1199 41.187C54.3487 41.0566 54.5842 40.9431 54.8214 40.8297C55.0872 40.7027 54.6498 40.8873 54.9408 40.7789C55.0418 40.7416 55.141 40.7027 55.2436 40.6671C55.4926 40.5807 55.75 40.5333 56.0023 40.4571C56.1016 40.4267 56.396 40.4012 55.8509 40.4724C56.396 40.3996 56.8535 40.0575 56.8602 39.4563C56.8653 38.9619 56.3909 38.3692 55.8509 38.4403C53.9282 38.6943 52.1332 39.8627 50.7858 41.2124C47.0193 44.9836 46.0302 50.7751 45.9444 55.8993C45.9057 58.1566 46.0521 60.4156 46.3094 62.6577C46.5534 64.7795 46.9184 66.8726 46.9554 69.013C47.0092 72.0188 46.5685 75.1008 45.2177 77.812C43.1974 81.8677 39.4225 84.506 35.2674 85.8387C32.5877 86.6973 30.4294 86.9428 27.7194 87.063C27.6773 87.0647 27.6336 87.063 27.5898 87.0613C26.2895 87.0258 26.2895 89.0579 27.5882 89.0934Z" fill="#494956"/>
<path d="M25.3811 94.8307H11.6273C10.4077 94.8307 9.42029 93.8367 9.42029 92.609V88.0774C9.42029 86.8497 10.4077 85.8557 11.6273 85.8557H25.3811C26.6007 85.8557 27.5881 86.8497 27.5881 88.0774V92.609C27.5881 93.8367 26.6007 94.8307 25.3811 94.8307Z" fill="#535363"/>
<path d="M34.0646 95.0001H2.27092C1.75953 95.0001 1.3457 94.5835 1.3457 94.0687C1.3457 93.5539 1.75953 93.1373 2.27092 93.1373H34.0646C34.576 93.1373 34.9898 93.5539 34.9898 94.0687C34.9898 94.5835 34.576 95.0001 34.0646 95.0001Z" fill="#535363"/>
<path d="M20.6911 7.78967H16.1492V25.5704H20.6911V7.78967Z" fill="#B2B2CE"/>
<path d="M35.01 6.26562H23.5307C22.7989 6.26562 22.2051 5.66784 22.2051 4.93121V3.36651C22.2051 2.62988 22.7989 2.0321 23.5307 2.0321H35.01C35.7418 2.0321 36.3356 2.62988 36.3356 3.36651V4.93121C36.3356 5.66784 35.7418 6.26562 35.01 6.26562Z" fill="#2E2E35"/>
<path d="M12.8049 6.26562H1.32558C0.593819 6.26562 0 5.66784 0 4.93121V3.36651C0 2.62988 0.593819 2.0321 1.32558 2.0321H12.8049C13.5367 2.0321 14.1305 2.62988 14.1305 3.36651V4.93121C14.1305 5.66784 13.5367 6.26562 12.8049 6.26562Z" fill="#2E2E35"/>
<path d="M21.512 27.9412H15.8329C14.6133 27.9412 13.6259 26.9472 13.6259 25.7195V24.9134C13.6259 23.6857 14.6133 22.6917 15.8329 22.6917H21.512C22.7316 22.6917 23.7191 23.6857 23.7191 24.9134V25.7195C23.7191 26.9472 22.7316 27.9412 21.512 27.9412Z" fill="#9E9EB2"/>
<path d="M25.3811 35.2228H11.6273C10.4077 35.2228 9.42029 34.2288 9.42029 33.001V28.4695C9.42029 27.2418 10.4077 26.2477 11.6273 26.2477H25.3811C26.6007 26.2477 27.5881 27.2418 27.5881 28.4695V33.001C27.5881 34.2288 26.6007 35.2228 25.3811 35.2228Z" fill="#797991"/>
<path d="M23.4028 8.46702H13.6056C12.4096 8.46702 11.439 7.48993 11.439 6.28592V2.18111C11.439 0.977094 12.4096 0 13.6056 0H23.4028C24.5989 0 25.5695 0.977094 25.5695 2.18111V6.28592C25.5695 7.48993 24.5989 8.46702 23.4028 8.46702Z" fill="#535363"/>
<path d="M58.5509 40.2437L55.1697 41.3817C54.8265 41.4968 54.453 41.3106 54.3387 40.9651L53.7415 39.1667C53.6271 38.8213 53.8121 38.4453 54.1553 38.3302L57.5365 37.1922C57.8797 37.077 58.2531 37.2633 58.3675 37.6088L58.9647 39.4072C59.0808 39.7543 58.8957 40.1286 58.5509 40.2437Z" fill="#B2B2CE"/>
</svg>
