<svg width="86" height="66" viewBox="0 0 86 66" fill="none" xmlns="http://www.w3.org/2000/svg">
<path d="M81.2387 4.73193H5.0929V65.5862H81.2387V4.73193Z" fill="#7494CE"/>
<path d="M83.1154 10.739H2.88458C1.29149 10.739 0 8.80373 0 6.41654V4.3202C0 1.93525 1.29149 0 2.88458 0H83.1169C84.7085 0 86 1.93525 86 4.32244V6.41878C86 8.80373 84.7085 10.739 83.1154 10.739Z" fill="#5C6989"/>
<path d="M81.7522 66H3.79981C3.26829 66 2.83679 65.3534 2.83679 64.5569V59.6103C2.83679 58.8138 3.26829 58.1672 3.79981 58.1672H81.7537C82.2853 58.1672 82.7168 58.8138 82.7168 59.6103V64.5569C82.7153 65.3534 82.2838 66 81.7522 66Z" fill="#5C6989"/>
<path d="M8.42836 7.98944V60.2189C8.42836 61.0154 7.99687 61.662 7.46534 61.662H5.21082C4.6793 61.662 4.2478 61.0154 4.2478 60.2189V7.98944C4.2478 7.19296 4.6793 6.54639 5.21082 6.54639H7.46683C7.99836 6.54639 8.42836 7.19296 8.42836 7.98944Z" fill="#5C6989"/>
<path d="M82.036 10.674V62.9035C82.036 63.7 81.6045 64.3465 81.0729 64.3465H78.8184C78.2869 64.3465 77.8554 63.7 77.8554 62.9035V10.674C77.8554 9.87753 78.2869 9.23096 78.8184 9.23096H81.0744C81.606 9.23096 82.036 9.87753 82.036 10.674Z" fill="#5C6989"/>
<path d="M48.6736 39.8238H35.9826C34.1685 39.8238 32.6979 37.6201 32.6979 34.9018C32.6979 32.1835 34.1685 29.9797 35.9826 29.9797H48.6736C50.4876 29.9797 51.9583 32.1835 51.9583 34.9018C51.9583 37.6201 50.4876 39.8238 48.6736 39.8238Z" fill="#5C6989"/>
</svg>
