<svg width="66" height="85" viewBox="0 0 66 85" fill="none" xmlns="http://www.w3.org/2000/svg">
<path d="M66 0H16.3317V79.6351H66V0Z" fill="#BABAD3"/>
<path d="M32.6633 6.53845H0V78.2939H32.6633V6.53845Z" fill="#C7C7E5"/>
<path d="M16.3316 13.4122C25.3513 13.4122 32.6633 10.4098 32.6633 6.70611C32.6633 3.00243 25.3513 0 16.3316 0C7.31192 0 0 3.00243 0 6.70611C0 10.4098 7.31192 13.4122 16.3316 13.4122Z" fill="#B2B2CE"/>
<path d="M16.3317 8.71794C19.0377 8.71794 21.2312 7.81721 21.2312 6.70611C21.2312 5.595 19.0377 4.69427 16.3317 4.69427C13.6258 4.69427 11.4323 5.595 11.4323 6.70611C11.4323 7.81721 13.6258 8.71794 16.3317 8.71794Z" fill="#777789"/>
<path d="M16.3316 85C25.3513 85 32.6633 81.9976 32.6633 78.2939C32.6633 74.5902 25.3513 71.5878 16.3316 71.5878C7.31192 71.5878 0 74.5902 0 78.2939C0 81.9976 7.31192 85 16.3316 85Z" fill="#C7C7E5"/>
</svg>
