<svg width="98" height="77" viewBox="0 0 98 77" fill="none" xmlns="http://www.w3.org/2000/svg">
<path d="M61.4546 1.51034C61.175 1.61904 60.8897 1.6934 60.6043 1.73345C60.546 1.75633 60.4936 1.79065 60.4354 1.81354C59.8064 2.06525 58.9678 2.3284 58.2456 2.33412C57.9253 2.50574 57.5933 2.62587 57.2613 2.70024C57.0866 2.78605 56.9119 2.86042 56.7372 2.9119L4.28064 71.1707L8.35742 74.1913L63.5337 2.39704L62.1476 1.37305C61.9205 1.44169 61.6875 1.48746 61.4546 1.51034Z" fill="#8C6D5D"/>
<path d="M40.698 32.5562C39.7836 34.9073 38.0248 36.8695 36.1203 37.6247C35.6311 37.8192 35.1594 37.9279 34.6993 38.0308C32.6143 38.4885 30.541 38.929 28.4327 39.3866C28.9452 37.6018 30.4478 35.7368 32.4221 34.8673C33.8664 34.2323 35.2409 33.9348 36.6212 33.563C37.3084 33.3799 37.9141 33.4257 38.5955 33.2598C39.2711 33.0939 39.9933 32.7964 40.698 32.5562Z" fill="#D1A474"/>
<path d="M32.5618 43.2654C31.0243 46.4804 29.05 48.2366 26.4408 48.6256C25.4508 48.7744 24.4898 48.8487 23.459 49.1119C22.4339 49.3693 21.3449 49.8213 20.2733 50.1931C20.646 48.4025 22.1952 46.366 24.0996 45.5365C25.7711 44.81 27.3552 44.4782 28.951 44.0548C30.1682 43.7345 31.333 43.5343 32.5618 43.2654Z" fill="#D1A474"/>
<path d="M48.77 22.1731C47.3431 25.205 45.4445 26.9613 43.0042 27.4304C41.8453 27.6535 40.7387 27.7393 39.5623 28.031C38.5722 28.277 37.5122 28.7232 36.4814 29.0836C37.0055 27.1501 38.4324 25.2394 40.2844 24.4499C42.1423 23.6605 43.8953 23.3344 45.6774 22.8539C46.7025 22.585 47.6984 22.4076 48.77 22.1731Z" fill="#D1A474"/>
<path d="M32.4745 34.1123C33.0219 32.3389 34.4605 30.4854 36.2834 29.6788C37.8267 28.9981 39.3002 28.6491 40.7678 28.2658C42.0957 27.9168 43.377 27.7166 44.6874 27.4478C43.9361 29.4843 42.1772 31.4923 40.3194 32.276C39.7312 32.522 39.1662 32.6478 38.613 32.7737C36.592 33.2256 34.5769 33.6547 32.4745 34.1123Z" fill="#D1A474"/>
<path d="M20.3606 59.1343C19.0328 62.0232 17.2273 63.7909 14.9152 64.3286C13.7097 64.6089 12.5915 64.6547 11.3801 64.9522C10.3318 65.2096 9.20774 65.6615 8.04877 66.0563C8.32832 64.7577 9.13785 63.522 10.3026 62.5323C11.0481 61.8974 11.9042 61.3138 12.6148 61.0507C14.0009 60.5416 15.3346 60.2384 16.6682 59.9123C17.8971 59.6091 19.0968 59.3974 20.3606 59.1343Z" fill="#D1A474"/>
<path d="M24.385 53.8772C23.3542 56.4286 21.3216 58.4823 19.1143 59.0086C18.0951 59.2546 17.1633 59.2546 16.1383 59.5063C14.8395 59.8267 13.4884 60.2958 12.1547 60.7019C12.6148 58.8313 14.1581 56.9091 16.1266 56.0053C17.4079 55.4218 18.6542 55.0843 19.8598 54.7811C21.3973 54.4092 22.8824 54.1747 24.385 53.8772Z" fill="#D1A474"/>
<path d="M65.3857 0.572021C63.8715 3.74126 61.9088 5.45746 59.3288 5.91511C57.3719 6.25835 55.3568 6.73889 53.2486 7.1851C53.2194 6.53866 53.9125 5.15999 55.1181 4.14743C55.9975 3.40947 56.9817 2.74587 57.8379 2.39691C59.0784 1.88777 60.2548 1.65323 61.4312 1.37863C62.7416 1.06972 64.0346 0.846613 65.3857 0.572021Z" fill="#D1A474"/>
<path d="M16.2664 55.2157C16.6915 53.5281 18.2582 51.5373 20.1975 50.7421C21.9214 50.0327 23.5463 49.7353 25.2003 49.2948C26.2894 49.0088 27.3494 48.7914 28.4385 48.5339C28.0017 50.0556 26.3593 52.1666 24.7519 53.0533C24.088 53.4194 23.4124 53.6654 22.8067 53.8084C20.6285 54.3118 18.4736 54.7466 16.2664 55.2157Z" fill="#D1A474"/>
<path d="M16.3013 64.3801C15.1948 67.0002 13.3544 68.8994 11.1937 69.5173C10.3434 69.7575 9.58629 69.7404 8.74764 69.9463C7.19846 70.3239 5.62599 70.7873 4.04187 71.2163C4.4612 69.4944 5.96961 67.4864 7.79833 66.7142C9.62706 65.9419 11.351 65.6158 13.104 65.1353C14.1639 64.8435 15.1948 64.6376 16.3013 64.3801Z" fill="#D1A474"/>
<path d="M36.6037 37.991C35.3341 40.7998 33.5053 42.619 31.2515 43.1682C30.075 43.4542 28.9859 43.4942 27.8095 43.7803C26.6971 44.0491 25.5207 44.5011 24.3617 44.8729C24.5655 43.6887 25.3751 42.3043 26.633 41.3147C27.4542 40.6682 28.3686 40.079 29.1432 39.793C30.4652 39.3124 31.7174 39.0722 32.987 38.769C34.1867 38.4887 35.3632 38.2598 36.6037 37.991Z" fill="#D1A474"/>
<path d="M48.7001 13.146C49.4164 10.7834 50.8666 9.23311 53.1612 8.24916C54.757 7.56268 56.2363 7.39678 57.7563 7.01921C58.8105 6.75606 59.8472 6.52724 60.9129 6.28125C60.348 8.24915 58.164 10.6919 56.2305 11.2468C54.559 11.7273 52.9923 11.9104 51.35 12.2937C50.523 12.4882 49.6377 12.8428 48.7001 13.146Z" fill="#D1A474"/>
<path d="M44.6582 18.243C45.3978 16.0921 47.4945 13.8954 49.4863 13.3576C51.1811 12.9 52.8176 12.5968 54.4949 12.1906C55.2637 12.0018 56.0615 11.7272 56.8594 11.4927C56.3702 13.2146 54.6347 15.3999 53.068 16.0749C52.0547 16.5097 51.082 16.7557 50.1211 16.9902C48.2982 17.4422 46.5044 17.8254 44.6582 18.243Z" fill="#D1A474"/>
<path d="M52.8526 16.8586C51.4432 19.8162 49.4106 21.664 46.9471 22.1846C44.8446 22.6308 42.7422 23.077 40.6106 23.5289C41.2338 21.3494 43.3828 19.1412 45.7765 18.489C47.314 18.0714 48.7816 17.8369 50.2959 17.4994C51.117 17.3163 51.9557 17.0875 52.8526 16.8586Z" fill="#D1A474"/>
<path d="M12.2362 69.6604C11.2053 72.1546 9.3766 74.0882 7.31491 74.7403C6.65098 74.952 6.04528 74.9749 5.393 75.1293C3.61086 75.547 1.81708 75.9874 0 76.4279C0.430974 74.706 1.93938 72.7438 3.84382 71.9372C5.60266 71.1935 7.26249 70.8789 8.95145 70.4212C10.0405 70.1352 11.1005 69.9236 12.2362 69.6604Z" fill="#D1A474"/>
<path d="M77.7617 0.938321C77.4822 1.04701 77.1968 1.12138 76.9114 1.16143C76.8532 1.18431 76.8007 1.21863 76.7425 1.24152C76.1135 1.49322 75.2749 1.75637 74.5527 1.7621C74.2324 1.93371 73.9004 2.05385 73.5684 2.12822C73.3995 2.21403 73.2248 2.2884 73.0501 2.33988L20.5878 70.5987L24.6645 73.6192L79.8409 1.82502L78.4548 0.801025C78.2276 0.869673 77.9947 0.915438 77.7617 0.938321Z" fill="#8C6D5D"/>
<path d="M57.0051 31.9841C56.0907 34.3353 54.3319 36.2975 52.4274 37.0526C51.9382 37.2471 51.4665 37.3558 51.0064 37.4588C48.9214 37.9165 46.8481 38.3569 44.7398 38.8146C45.2523 37.0297 46.7549 35.1648 48.7292 34.2953C50.1736 33.6603 51.548 33.3628 52.9283 32.991C53.6155 32.8079 54.2212 32.8537 54.9026 32.6878C55.5782 32.5219 56.3004 32.2244 57.0051 31.9841Z" fill="#D1A474"/>
<path d="M48.869 42.6934C47.3314 45.9084 45.3571 47.6646 42.748 48.0536C41.7579 48.2024 40.7969 48.2767 39.7661 48.5399C38.7411 48.7973 37.652 49.2492 36.5804 49.6211C36.9531 47.8305 38.5023 45.794 40.4067 44.9645C42.0782 44.2379 43.6623 43.9061 45.2581 43.4828C46.4753 43.1625 47.6401 42.9622 48.869 42.6934Z" fill="#D1A474"/>
<path d="M65.0771 21.6011C63.6502 24.633 61.7516 26.3893 59.3114 26.8584C58.1524 27.0815 57.0458 27.1673 55.8694 27.459C54.8793 27.705 53.8194 28.1512 52.7885 28.5116C53.3127 26.578 54.7395 24.6673 56.5916 23.8779C58.4494 23.0884 60.2024 22.7624 61.9846 22.2818C63.0096 22.013 64.0055 21.8356 65.0771 21.6011Z" fill="#D1A474"/>
<path d="M48.7816 33.5403C49.3291 31.7669 50.7676 29.9134 52.5905 29.1068C54.1338 28.426 55.6073 28.0771 57.075 27.6938C58.4028 27.3448 59.6841 27.1446 60.9945 26.8757C60.2432 28.9123 58.4844 30.9202 56.6265 31.704C56.0383 31.95 55.4734 32.0758 54.9201 32.2017C52.8992 32.6536 50.8841 33.0826 48.7816 33.5403Z" fill="#D1A474"/>
<path d="M36.6678 58.5623C35.3399 61.4512 33.5345 63.2189 31.2224 63.7566C30.0168 64.0369 28.8986 64.0827 27.6872 64.3802C26.6389 64.6376 25.5149 65.0895 24.3559 65.4842C24.6354 64.1857 25.445 62.95 26.6098 61.9603C27.3552 61.3253 28.2114 60.7418 28.9219 60.4787C30.308 59.9695 31.6417 59.6663 32.9754 59.3403C34.2042 59.0371 35.404 58.8254 36.6678 58.5623Z" fill="#D1A474"/>
<path d="M40.6921 53.3052C39.6613 55.8566 37.6287 57.9103 35.4214 58.4366C34.4022 58.6826 33.4704 58.6826 32.4454 58.9343C31.1466 59.2547 29.7955 59.7238 28.4618 60.1299C28.9219 58.2593 30.4652 56.3371 32.4337 55.4333C33.715 54.8498 34.9613 54.5122 36.1669 54.209C37.7044 53.8372 39.1896 53.6026 40.6921 53.3052Z" fill="#D1A474"/>
<path d="M81.6928 0C80.1786 3.16924 78.2159 4.88544 75.6359 5.34309C73.6791 5.68633 71.664 6.16686 69.5557 6.61308C69.5266 5.96664 70.2196 4.58796 71.4252 3.57541C72.3046 2.83744 73.2889 2.17385 74.145 1.82489C75.3855 1.31575 76.5619 1.0812 77.7384 0.806612C79.0488 0.497697 80.3417 0.274591 81.6928 0Z" fill="#D1A474"/>
<path d="M32.5735 54.6436C32.9986 52.956 34.5653 50.9653 36.5047 50.1701C38.2286 49.4607 39.8534 49.1633 41.5075 48.7228C42.5965 48.4367 43.6565 48.2193 44.7456 47.9619C44.3088 49.4836 42.6664 51.5945 41.059 52.4812C40.3951 52.8473 39.7195 53.0933 39.1138 53.2364C36.9356 53.7398 34.7808 54.1745 32.5735 54.6436Z" fill="#D1A474"/>
<path d="M32.6085 63.8081C31.5019 66.4282 29.6615 68.3274 27.5008 68.9453C26.6505 69.1855 25.8934 69.1684 25.0548 69.3743C23.5056 69.7519 21.9331 70.2152 20.349 70.6443C20.7683 68.9224 22.2767 66.9144 24.1055 66.1421C25.9342 65.3698 27.6581 65.0438 29.4111 64.5632C30.4711 64.2715 31.5019 64.0655 32.6085 63.8081Z" fill="#D1A474"/>
<path d="M52.9108 37.4189C51.6412 40.2278 49.8125 42.047 47.5586 42.5961C46.3821 42.8822 45.2931 42.9222 44.1166 43.2082C43.0042 43.4771 41.8278 43.9291 40.6688 44.3009C40.8727 43.1167 41.6822 41.7323 42.9402 40.7426C43.7614 40.0962 44.6757 39.507 45.4503 39.2209C46.7723 38.7404 48.0245 38.5001 49.2941 38.197C50.4939 37.9166 51.6703 37.6878 52.9108 37.4189Z" fill="#D1A474"/>
<path d="M65.0072 12.574C65.7236 10.2114 67.1737 8.66109 69.4684 7.67713C71.0641 6.99066 72.5434 6.82476 74.0635 6.44719C75.1176 6.18404 76.1543 5.95522 77.2201 5.70923C76.6551 7.67713 74.4712 10.1199 72.5376 10.6748C70.8661 11.1553 69.2995 11.3384 67.6571 11.7216C66.8301 11.9161 65.9449 12.2708 65.0072 12.574Z" fill="#D1A474"/>
<path d="M60.9653 17.671C61.705 15.5201 63.8016 13.3233 65.7934 12.7856C67.4882 12.3279 69.1247 12.0247 70.802 11.6186C71.5708 11.4298 72.3687 11.1552 73.1665 10.9207C72.6773 12.6426 70.9418 14.8279 69.3751 15.5029C68.3618 15.9377 67.3892 16.1837 66.4282 16.4182C64.6053 16.8701 62.8115 17.2534 60.9653 17.671Z" fill="#D1A474"/>
<path d="M69.1597 16.2866C67.7503 19.2442 65.7177 21.092 63.2542 21.6125C61.1518 22.0588 59.0493 22.505 56.9177 22.9569C57.5409 20.7773 59.6899 18.5692 62.0836 17.917C63.6211 17.4994 65.0888 17.2649 66.603 16.9273C67.4242 16.7443 68.2628 16.5154 69.1597 16.2866Z" fill="#D1A474"/>
<path d="M28.5433 69.0884C27.5125 71.5826 25.6837 73.5162 23.622 74.1683C22.9581 74.38 22.3524 74.4029 21.7001 74.5573C19.918 74.9749 18.1242 75.4154 16.3071 75.8559C16.7381 74.134 18.2465 72.1718 20.151 71.3652C21.9098 70.6215 23.5696 70.3069 25.2586 69.8492C26.3477 69.5632 27.4076 69.3515 28.5433 69.0884Z" fill="#D1A474"/>
<path d="M94.0688 2.08236C93.7893 2.19106 93.5039 2.26543 93.2185 2.30547C93.1603 2.32835 93.1079 2.36268 93.0496 2.38556C92.4207 2.63727 91.582 2.90042 90.8598 2.90614C90.5395 3.07776 90.2075 3.19789 89.8756 3.27226C89.7067 3.35807 89.532 3.43244 89.3572 3.48392L36.8949 71.7428L40.9717 74.7633L96.148 2.96907L94.7619 1.94507C94.5348 2.01372 94.3018 2.05948 94.0688 2.08236Z" fill="#8C6D5D"/>
<path d="M73.3122 33.1282C72.3978 35.4794 70.639 37.4415 68.7345 38.1967C68.2453 38.3912 67.7736 38.4999 67.3135 38.6028C65.2285 39.0605 63.1552 39.501 61.0469 39.9586C61.5594 38.1738 63.062 36.3089 65.0363 35.4393C66.4806 34.8043 67.8551 34.5069 69.2354 34.135C69.9226 33.9519 70.5283 33.9977 71.2097 33.8318C71.8853 33.6659 72.6075 33.3684 73.3122 33.1282Z" fill="#D1A474"/>
<path d="M65.1761 43.8374C63.6386 47.0524 61.6642 48.8086 59.0551 49.1977C58.065 49.3464 57.1041 49.4208 56.0732 49.6839C55.0482 49.9413 53.9591 50.3933 52.8875 50.7651C53.2602 48.9745 54.8094 46.938 56.7139 46.1085C58.3853 45.382 59.9695 45.0502 61.5652 44.6269C62.7824 44.3065 63.9472 44.1063 65.1761 43.8374Z" fill="#D1A474"/>
<path d="M81.3842 22.7451C79.9573 25.7771 78.0587 27.5333 75.6184 28.0024C74.4595 28.2255 73.3529 28.3113 72.1765 28.6031C71.1864 28.8491 70.1264 29.2953 69.0956 29.6557C69.6197 27.7221 71.0466 25.8114 72.8986 25.0219C74.7565 24.2325 76.5095 23.9064 78.2916 23.4259C79.3167 23.157 80.3126 22.9797 81.3842 22.7451Z" fill="#D1A474"/>
<path d="M65.0887 34.6843C65.6362 32.9109 67.0747 31.0574 68.8976 30.2508C70.441 29.5701 71.9144 29.2211 73.3821 28.8378C74.7099 28.4889 75.9912 28.2886 77.3016 28.0198C76.5503 30.0563 74.7915 32.0643 72.9336 32.848C72.3454 33.094 71.7805 33.2199 71.2272 33.3457C69.2063 33.7976 67.1912 34.2267 65.0887 34.6843Z" fill="#D1A474"/>
<path d="M52.9749 59.7063C51.647 62.5952 49.8416 64.3629 47.5295 64.9006C46.3239 65.181 45.2057 65.2267 43.9943 65.5242C42.946 65.7816 41.822 66.2336 40.663 66.6283C40.9426 65.3297 41.7521 64.094 42.9169 63.1044C43.6624 62.4694 44.5185 61.8859 45.229 61.6227C46.6151 61.1136 47.9488 60.8104 49.2825 60.4843C50.5114 60.1811 51.7111 59.9694 52.9749 59.7063Z" fill="#D1A474"/>
<path d="M56.9993 54.4492C55.9684 57.0006 53.9358 59.0543 51.7286 59.5806C50.7094 59.8266 49.7775 59.8266 48.7525 60.0783C47.4538 60.3987 46.1026 60.8678 44.7689 61.274C45.229 59.4033 46.7724 57.4812 48.7409 56.5773C50.0221 55.9938 51.2685 55.6563 52.474 55.3531C54.0116 54.9812 55.4967 54.7467 56.9993 54.4492Z" fill="#D1A474"/>
<path d="M98 1.14404C96.4858 4.31328 94.5231 6.02948 91.9431 6.48713C89.9862 6.83037 87.9711 7.31091 85.8628 7.75712C85.8337 7.11068 86.5268 5.73201 87.7323 4.71945C88.6117 3.98149 89.596 3.31789 90.4521 2.96893C91.6926 2.45979 92.8691 2.22525 94.0455 1.95066C95.3559 1.64174 96.6488 1.41863 98 1.14404Z" fill="#D1A474"/>
<path d="M48.8806 55.7877C49.3058 54.1001 50.8724 52.1093 52.8118 51.3141C54.5357 50.6048 56.1606 50.3073 57.8146 49.8668C58.9037 49.5808 59.9636 49.3634 61.0527 49.106C60.6159 50.6277 58.9736 52.7386 57.3661 53.6253C56.7022 53.9914 56.0266 54.2374 55.4209 54.3804C53.2428 54.8838 51.0879 55.3186 48.8806 55.7877Z" fill="#D1A474"/>
<path d="M48.9156 64.9521C47.809 67.5722 45.9687 69.4715 43.808 70.0893C42.9577 70.3296 42.2005 70.3124 41.3619 70.5183C39.8127 70.8959 38.2402 71.3593 36.6561 71.7883C37.0755 70.0664 38.5839 68.0585 40.4126 67.2862C42.2413 66.5139 43.9652 66.1878 45.7182 65.7073C46.7782 65.4155 47.809 65.2096 48.9156 64.9521Z" fill="#D1A474"/>
<path d="M69.2179 38.563C67.9483 41.3718 66.1196 43.191 63.8657 43.7402C62.6893 44.0262 61.6002 44.0663 60.4237 44.3523C59.3114 44.6212 58.1349 45.0731 56.976 45.4449C57.1798 44.2608 57.9893 42.8764 59.2473 41.8867C60.0685 41.2403 60.9828 40.651 61.7574 40.365C63.0795 39.8845 64.3316 39.6442 65.6013 39.341C66.801 39.0607 67.9774 38.8319 69.2179 38.563Z" fill="#D1A474"/>
<path d="M81.3143 13.7181C82.0307 11.3554 83.4809 9.80513 85.7755 8.82118C87.3713 8.1347 88.8506 7.9688 90.3706 7.59124C91.4247 7.32809 92.4614 7.09926 93.5272 6.85327C92.9623 8.82118 90.7783 11.2639 88.8447 11.8188C87.1733 12.2993 85.6066 12.4824 83.9642 12.8657C83.1372 13.0602 82.252 13.4149 81.3143 13.7181Z" fill="#D1A474"/>
<path d="M77.2725 18.8151C78.0122 16.6641 80.1088 14.4674 82.1006 13.9296C83.7954 13.472 85.4319 13.1688 87.1092 12.7626C87.878 12.5738 88.6759 12.2992 89.4737 12.0647C88.9845 13.7866 87.249 15.9719 85.6823 16.6469C84.669 17.0817 83.6964 17.3277 82.7354 17.5622C80.9125 18.0142 79.1187 18.3975 77.2725 18.8151Z" fill="#D1A474"/>
<path d="M85.4668 17.4307C84.0574 20.3882 82.0249 22.236 79.5613 22.7566C77.4589 23.2028 75.3564 23.649 73.2249 24.1009C73.848 21.9214 75.9971 19.7132 78.3907 19.061C79.9283 18.6434 81.3959 18.4089 82.9101 18.0714C83.7313 17.8883 84.57 17.6595 85.4668 17.4307Z" fill="#D1A474"/>
<path d="M44.8504 70.2324C43.8196 72.7266 41.9909 74.6602 39.9292 75.3124C39.2652 75.524 38.6595 75.5469 38.0073 75.7014C36.2251 76.119 34.4313 76.5595 32.6143 77C33.0452 75.278 34.5536 73.3159 36.4581 72.5092C38.2169 71.7656 39.8768 71.4509 41.5657 70.9933C42.6548 70.7072 43.7148 70.4956 44.8504 70.2324Z" fill="#D1A474"/>
</svg>
