<svg width="89" height="99" viewBox="0 0 89 99" fill="none" xmlns="http://www.w3.org/2000/svg">
<g clip-path="url(#clip0)">
<path d="M26.9091 5.25106C26.9091 5.25106 26.2714 3.60875 28.7314 4.15619C28.7314 4.15619 33.1959 5.88973 34.1981 6.43717C34.1981 6.43717 37.2959 9.26558 41.5782 8.17071C41.5782 8.17071 44.9493 5.88973 48.2293 6.43717C51.5094 6.9846 55.7916 1.78397 55.7916 1.78397C55.7916 1.78397 58.6161 -0.770727 60.8028 0.232904C62.9895 1.23654 57.6139 4.97734 57.6139 4.97734C57.6139 4.97734 54.3339 7.07584 54.9716 14.4662C54.9716 14.4662 55.6094 19.0282 53.4227 21.2179C53.4227 21.2179 51.5094 22.6777 55.1539 23.7726C58.7983 24.8675 65.6317 28.3346 67.8184 29.9769C67.8184 29.9769 98.8876 43.6628 85.7675 78.1512C72.6474 112.64 25.3602 93.9356 25.3602 93.9356C25.3602 93.9356 -15.9964 73.5764 6.91462 42.8352C6.91462 42.8352 18.3446 28.716 29.8247 24.7388C41.3048 20.7617 30.9181 14.5575 30.9181 14.5575C30.9181 14.5575 25.9069 7.897 26.9091 5.25106Z" fill="#464656"/>
<path d="M35.2257 20.6291C35.2257 20.6291 44.7998 22.7477 53.2804 21.2577C53.2804 21.2577 55.5172 21.6409 53.4526 22.9785C51.388 24.3161 35.8781 22.2632 35.8781 22.2632C35.8781 22.2632 33.8108 21.9402 33.9893 21.2842C34.167 20.6291 35.2257 20.6291 35.2257 20.6291Z" fill="#ED693B"/>
<path d="M37.57 23.4311C37.57 23.4311 11.9675 43.0247 13.6986 54.4296C13.6986 54.4296 21.0787 38.3259 37.57 23.4311Z" fill="#535363"/>
<path d="M38.8457 31.0378C38.8457 31.0378 30.5745 36.9118 32.7376 49.5028C32.7385 49.5028 32.61 40.0367 38.8457 31.0378Z" fill="#535363"/>
<path d="M47.1367 28.7001C47.1367 28.7001 51.1456 44.0931 47.1367 55.009C47.1367 55.009 55.1545 44.8495 47.1367 28.7001Z" fill="#535363"/>
<path d="M51.8463 25.3243C51.8463 25.3243 69.0036 35.2694 69.8236 57.4405C69.8236 57.4405 65.3026 39.1926 51.8463 25.3243Z" fill="#535363"/>
<path d="M35.765 10.8611C35.765 10.8611 36.565 17.5562 38.5558 19.6237C38.5558 19.6237 36.2935 12.976 35.765 10.8611Z" fill="#535363"/>
<path d="M49.9448 11.1348C49.9448 11.1348 49.1448 17.8299 47.1541 19.8974C47.1541 19.8974 49.4164 13.2497 49.9448 11.1348Z" fill="#535363"/>
<path d="M42.308 11.6384C42.308 11.6384 41.2146 16.6055 42.308 19.1401C42.308 19.1401 42.8546 13.372 42.308 11.6384Z" fill="#535363"/>
</g>
<defs>
<clipPath id="clip0">
<rect width="89" height="99" fill="white"/>
</clipPath>
</defs>
</svg>
