<svg width="405" height="89" viewBox="0 0 405 89" fill="none" xmlns="http://www.w3.org/2000/svg">
<path d="M5.452 86.224C4.64 86.224 3.84667 86.1353 3.072 85.958C2.30667 85.7713 1.67667 85.524 1.182 85.216L2.246 82.808C2.71267 83.0787 3.23533 83.298 3.814 83.466C4.39267 83.6247 4.948 83.704 5.48 83.704C5.93733 83.704 6.264 83.662 6.46 83.578C6.656 83.4847 6.754 83.3493 6.754 83.172C6.754 82.9667 6.62333 82.8127 6.362 82.71C6.11 82.6073 5.69 82.4953 5.102 82.374C4.346 82.2153 3.716 82.0473 3.212 81.87C2.708 81.6833 2.26933 81.3847 1.896 80.974C1.52267 80.554 1.336 79.9893 1.336 79.28C1.336 78.664 1.50867 78.104 1.854 77.6C2.19933 77.096 2.71267 76.6993 3.394 76.41C4.08467 76.1207 4.92 75.976 5.9 75.976C6.572 75.976 7.23 76.0507 7.874 76.2C8.52733 76.34 9.10133 76.55 9.596 76.83L8.602 79.224C7.64067 78.7387 6.73067 78.496 5.872 78.496C5.02267 78.496 4.598 78.7013 4.598 79.112C4.598 79.308 4.724 79.4573 4.976 79.56C5.228 79.6533 5.64333 79.756 6.222 79.868C6.96867 80.008 7.59867 80.1713 8.112 80.358C8.62533 80.5353 9.06867 80.8293 9.442 81.24C9.82467 81.6507 10.016 82.2107 10.016 82.92C10.016 83.536 9.84333 84.096 9.498 84.6C9.15267 85.0947 8.63467 85.4913 7.944 85.79C7.26267 86.0793 6.432 86.224 5.452 86.224ZM16.5432 85.734C16.0672 86.0047 15.4185 86.14 14.5972 86.14C13.5238 86.14 12.6978 85.8833 12.1192 85.37C11.5405 84.8473 11.2512 84.068 11.2512 83.032V81.072H10.2012V78.762H11.2512V76.62H14.4152V78.762H15.9832V81.072H14.4152V83.004C14.4152 83.2373 14.4758 83.4193 14.5972 83.55C14.7185 83.6807 14.8772 83.746 15.0732 83.746C15.3438 83.746 15.5818 83.676 15.7872 83.536L16.5432 85.734ZM20.7706 78.202C22.1146 78.202 23.1413 78.5053 23.8506 79.112C24.56 79.7093 24.9146 80.6333 24.9146 81.884V86H21.9746V84.992C21.6106 85.7573 20.8873 86.14 19.8046 86.14C19.198 86.14 18.68 86.0373 18.2506 85.832C17.8306 85.6173 17.5086 85.3327 17.2846 84.978C17.07 84.614 16.9626 84.208 16.9626 83.76C16.9626 83.004 17.252 82.43 17.8306 82.038C18.4093 81.646 19.2866 81.45 20.4626 81.45H21.7366C21.634 80.8527 21.1533 80.554 20.2946 80.554C19.9493 80.554 19.5993 80.61 19.2446 80.722C18.89 80.8247 18.5866 80.9693 18.3346 81.156L17.3266 79.07C17.7653 78.7993 18.2926 78.5893 18.9086 78.44C19.534 78.2813 20.1546 78.202 20.7706 78.202ZM20.7566 84.236C20.9806 84.236 21.1813 84.1753 21.3586 84.054C21.536 83.9327 21.6666 83.7507 21.7506 83.508V82.976H20.9666C20.3226 82.976 20.0006 83.1907 20.0006 83.62C20.0006 83.7973 20.066 83.9467 20.1966 84.068C20.3366 84.18 20.5233 84.236 20.7566 84.236ZM31.392 78.202C32.064 78.202 32.68 78.3653 33.24 78.692C33.8094 79.0093 34.2574 79.4713 34.584 80.078C34.92 80.6847 35.088 81.3847 35.088 82.178C35.088 82.9713 34.92 83.6713 34.584 84.278C34.2574 84.8753 33.8094 85.3373 33.24 85.664C32.68 85.9813 32.064 86.14 31.392 86.14C30.5427 86.14 29.894 85.9207 29.446 85.482V88.716H26.282V78.342H29.292V78.972C29.7494 78.4587 30.4494 78.202 31.392 78.202ZM30.636 83.676C31 83.676 31.2987 83.5453 31.532 83.284C31.7654 83.0227 31.882 82.654 31.882 82.178C31.882 81.702 31.7654 81.3333 31.532 81.072C31.2987 80.8013 31 80.666 30.636 80.666C30.272 80.666 29.9734 80.8013 29.74 81.072C29.5067 81.3333 29.39 81.702 29.39 82.178C29.39 82.654 29.5067 83.0227 29.74 83.284C29.9734 83.5453 30.272 83.676 30.636 83.676ZM44.636 76.2V86H41.332V78.692H39.652V76.2H44.636Z" fill="#FF546B"/>
<circle cx="208.5" cy="33.5" r="10" stroke="#2F91C9" stroke-width="3"/>
<circle cx="302.5" cy="33.5" r="10" stroke="#2F91C9" stroke-width="3"/>
<circle cx="393.5" cy="32.5" r="10" stroke="#2F91C9" stroke-width="3"/>
<circle cx="115.5" cy="33.5" r="9" stroke="#2F91C9" stroke-width="3"/>
<rect x="314" y="33" width="71" height="2" fill="#2F91C9"/>
<rect x="35" y="33" width="71" height="2" fill="#2F91C9"/>
<rect x="220" y="33" width="71" height="2" fill="#2F91C9"/>
<rect x="126" y="33" width="71" height="2" fill="#2F91C9"/>
<ellipse cx="23.5" cy="26.5" rx="23.5" ry="26.5" fill="#FF546B"/>
<ellipse cx="23.5" cy="26.5" rx="17.5" ry="26.5" fill="#FFFCF5"/>
<ellipse cx="23.5" cy="26.5" rx="11.5" ry="26.5" fill="#FF546B"/>
<ellipse cx="23.5" cy="26.5" rx="4.5" ry="26.5" fill="#FFFCF5"/>
<rect x="17" y="59" width="12" height="7" fill="#8C6D5D"/>
<path d="M28 62L29 56" stroke="#8C6D5D" stroke-width="0.5"/>
<path d="M18 62L17 56" stroke="#8C6D5D" stroke-width="0.5"/>
<ellipse cx="23.5" cy="1" rx="3.5" ry="1" fill="#2F91C9"/>
<path d="M16 56L10.5 48.5H36.5L30 56H16Z" fill="#2F91C9"/>
</svg>
