<svg width="404" height="89" viewBox="0 0 404 89" fill="none" xmlns="http://www.w3.org/2000/svg">
<path d="M4.45213 86.224C3.64013 86.224 2.8468 86.1353 2.07213 85.958C1.3068 85.7713 0.676796 85.524 0.182129 85.216L1.24613 82.808C1.7128 83.0787 2.23546 83.298 2.81413 83.466C3.3928 83.6247 3.94813 83.704 4.48013 83.704C4.93746 83.704 5.26413 83.662 5.46013 83.578C5.65613 83.4847 5.75413 83.3493 5.75413 83.172C5.75413 82.9667 5.62346 82.8127 5.36213 82.71C5.11013 82.6073 4.69013 82.4953 4.10213 82.374C3.34613 82.2153 2.71613 82.0473 2.21213 81.87C1.70813 81.6833 1.26946 81.3847 0.896129 80.974C0.522796 80.554 0.336129 79.9893 0.336129 79.28C0.336129 78.664 0.508796 78.104 0.854129 77.6C1.19946 77.096 1.7128 76.6993 2.39413 76.41C3.0848 76.1207 3.92013 75.976 4.90013 75.976C5.57213 75.976 6.23013 76.0507 6.87413 76.2C7.52746 76.34 8.10146 76.55 8.59613 76.83L7.60213 79.224C6.6408 78.7387 5.7308 78.496 4.87213 78.496C4.0228 78.496 3.59813 78.7013 3.59813 79.112C3.59813 79.308 3.72413 79.4573 3.97613 79.56C4.22813 79.6533 4.64346 79.756 5.22213 79.868C5.9688 80.008 6.5988 80.1713 7.11213 80.358C7.62546 80.5353 8.0688 80.8293 8.44213 81.24C8.8248 81.6507 9.01613 82.2107 9.01613 82.92C9.01613 83.536 8.84346 84.096 8.49813 84.6C8.1528 85.0947 7.6348 85.4913 6.94413 85.79C6.2628 86.0793 5.43213 86.224 4.45213 86.224Z" fill="#2F91C9"/>
<path d="M15.5433 85.734C15.0673 86.0047 14.4186 86.14 13.5973 86.14C12.524 86.14 11.698 85.8833 11.1193 85.37C10.5406 84.8473 10.2513 84.068 10.2513 83.032V81.072H9.2013V78.762H10.2513V76.62H13.4153V78.762H14.9833V81.072H13.4153V83.004C13.4153 83.2373 13.476 83.4193 13.5973 83.55C13.7186 83.6807 13.8773 83.746 14.0733 83.746C14.344 83.746 14.582 83.676 14.7873 83.536L15.5433 85.734Z" fill="#2F91C9"/>
<path d="M19.7708 78.202C21.1148 78.202 22.1414 78.5053 22.8508 79.112C23.5601 79.7093 23.9148 80.6333 23.9148 81.884V86H20.9748V84.992C20.6108 85.7573 19.8874 86.14 18.8048 86.14C18.1981 86.14 17.6801 86.0373 17.2508 85.832C16.8308 85.6173 16.5088 85.3327 16.2848 84.978C16.0701 84.614 15.9628 84.208 15.9628 83.76C15.9628 83.004 16.2521 82.43 16.8308 82.038C17.4094 81.646 18.2868 81.45 19.4628 81.45H20.7368C20.6341 80.8527 20.1534 80.554 19.2948 80.554C18.9494 80.554 18.5994 80.61 18.2448 80.722C17.8901 80.8247 17.5868 80.9693 17.3348 81.156L16.3268 79.07C16.7654 78.7993 17.2928 78.5893 17.9088 78.44C18.5341 78.2813 19.1548 78.202 19.7708 78.202ZM19.7568 84.236C19.9808 84.236 20.1814 84.1753 20.3588 84.054C20.5361 83.9327 20.6668 83.7507 20.7508 83.508V82.976H19.9668C19.3228 82.976 19.0008 83.1907 19.0008 83.62C19.0008 83.7973 19.0661 83.9467 19.1968 84.068C19.3368 84.18 19.5234 84.236 19.7568 84.236Z" fill="#2F91C9"/>
<path d="M30.3922 78.202C31.0642 78.202 31.6802 78.3653 32.2402 78.692C32.8095 79.0093 33.2575 79.4713 33.5842 80.078C33.9202 80.6847 34.0882 81.3847 34.0882 82.178C34.0882 82.9713 33.9202 83.6713 33.5842 84.278C33.2575 84.8753 32.8095 85.3373 32.2402 85.664C31.6802 85.9813 31.0642 86.14 30.3922 86.14C29.5428 86.14 28.8942 85.9207 28.4462 85.482V88.716H25.2822V78.342H28.2922V78.972C28.7495 78.4587 29.4495 78.202 30.3922 78.202ZM29.6362 83.676C30.0002 83.676 30.2988 83.5453 30.5322 83.284C30.7655 83.0227 30.8822 82.654 30.8822 82.178C30.8822 81.702 30.7655 81.3333 30.5322 81.072C30.2988 80.8013 30.0002 80.666 29.6362 80.666C29.2722 80.666 28.9735 80.8013 28.7402 81.072C28.5068 81.3333 28.3902 81.702 28.3902 82.178C28.3902 82.654 28.5068 83.0227 28.7402 83.284C28.9735 83.5453 29.2722 83.676 29.6362 83.676Z" fill="#2F91C9"/>
<path d="M43.6362 76.2V86H40.3322V78.692H38.6522V76.2H43.6362Z" fill="#2F91C9"/>
<path d="M96.4521 86.224C95.6401 86.224 94.8468 86.1353 94.0721 85.958C93.3068 85.7713 92.6768 85.524 92.1821 85.216L93.2461 82.808C93.7128 83.0787 94.2355 83.298 94.8141 83.466C95.3928 83.6247 95.9481 83.704 96.4801 83.704C96.9375 83.704 97.2641 83.662 97.4601 83.578C97.6561 83.4847 97.7541 83.3493 97.7541 83.172C97.7541 82.9667 97.6235 82.8127 97.3621 82.71C97.1101 82.6073 96.6901 82.4953 96.1021 82.374C95.3461 82.2153 94.7161 82.0473 94.2121 81.87C93.7081 81.6833 93.2695 81.3847 92.8961 80.974C92.5228 80.554 92.3361 79.9893 92.3361 79.28C92.3361 78.664 92.5088 78.104 92.8541 77.6C93.1995 77.096 93.7128 76.6993 94.3941 76.41C95.0848 76.1207 95.9201 75.976 96.9001 75.976C97.5721 75.976 98.2301 76.0507 98.8741 76.2C99.5275 76.34 100.101 76.55 100.596 76.83L99.6021 79.224C98.6408 78.7387 97.7308 78.496 96.8721 78.496C96.0228 78.496 95.5981 78.7013 95.5981 79.112C95.5981 79.308 95.7241 79.4573 95.9761 79.56C96.2281 79.6533 96.6435 79.756 97.2221 79.868C97.9688 80.008 98.5988 80.1713 99.1121 80.358C99.6255 80.5353 100.069 80.8293 100.442 81.24C100.825 81.6507 101.016 82.2107 101.016 82.92C101.016 83.536 100.843 84.096 100.498 84.6C100.153 85.0947 99.6348 85.4913 98.9441 85.79C98.2628 86.0793 97.4321 86.224 96.4521 86.224Z" fill="#2F91C9"/>
<path d="M107.543 85.734C107.067 86.0047 106.419 86.14 105.597 86.14C104.524 86.14 103.698 85.8833 103.119 85.37C102.541 84.8473 102.251 84.068 102.251 83.032V81.072H101.201V78.762H102.251V76.62H105.415V78.762H106.983V81.072H105.415V83.004C105.415 83.2373 105.476 83.4193 105.597 83.55C105.719 83.6807 105.877 83.746 106.073 83.746C106.344 83.746 106.582 83.676 106.787 83.536L107.543 85.734Z" fill="#2F91C9"/>
<path d="M111.771 78.202C113.115 78.202 114.141 78.5053 114.851 79.112C115.56 79.7093 115.915 80.6333 115.915 81.884V86H112.975V84.992C112.611 85.7573 111.887 86.14 110.805 86.14C110.198 86.14 109.68 86.0373 109.251 85.832C108.831 85.6173 108.509 85.3327 108.285 84.978C108.07 84.614 107.963 84.208 107.963 83.76C107.963 83.004 108.252 82.43 108.831 82.038C109.409 81.646 110.287 81.45 111.463 81.45H112.737C112.634 80.8527 112.153 80.554 111.295 80.554C110.949 80.554 110.599 80.61 110.245 80.722C109.89 80.8247 109.587 80.9693 109.335 81.156L108.327 79.07C108.765 78.7993 109.293 78.5893 109.909 78.44C110.534 78.2813 111.155 78.202 111.771 78.202ZM111.757 84.236C111.981 84.236 112.181 84.1753 112.359 84.054C112.536 83.9327 112.667 83.7507 112.751 83.508V82.976H111.967C111.323 82.976 111.001 83.1907 111.001 83.62C111.001 83.7973 111.066 83.9467 111.197 84.068C111.337 84.18 111.523 84.236 111.757 84.236Z" fill="#2F91C9"/>
<path d="M122.392 78.202C123.064 78.202 123.68 78.3653 124.24 78.692C124.809 79.0093 125.257 79.4713 125.584 80.078C125.92 80.6847 126.088 81.3847 126.088 82.178C126.088 82.9713 125.92 83.6713 125.584 84.278C125.257 84.8753 124.809 85.3373 124.24 85.664C123.68 85.9813 123.064 86.14 122.392 86.14C121.543 86.14 120.894 85.9207 120.446 85.482V88.716H117.282V78.342H120.292V78.972C120.749 78.4587 121.449 78.202 122.392 78.202ZM121.636 83.676C122 83.676 122.299 83.5453 122.532 83.284C122.765 83.0227 122.882 82.654 122.882 82.178C122.882 81.702 122.765 81.3333 122.532 81.072C122.299 80.8013 122 80.666 121.636 80.666C121.272 80.666 120.973 80.8013 120.74 81.072C120.507 81.3333 120.39 81.702 120.39 82.178C120.39 82.654 120.507 83.0227 120.74 83.284C120.973 83.5453 121.272 83.676 121.636 83.676Z" fill="#2F91C9"/>
<path d="M138.828 83.438V86H130.974V83.97L134.516 80.694C134.824 80.4047 135.029 80.1573 135.132 79.952C135.235 79.7467 135.286 79.546 135.286 79.35C135.286 79.1073 135.202 78.9207 135.034 78.79C134.875 78.65 134.642 78.58 134.334 78.58C134.035 78.58 133.755 78.6593 133.494 78.818C133.233 78.9767 133.032 79.2007 132.892 79.49L130.4 78.244C130.773 77.544 131.319 76.9933 132.038 76.592C132.757 76.1813 133.625 75.976 134.642 75.976C135.417 75.976 136.103 76.102 136.7 76.354C137.297 76.606 137.764 76.9653 138.1 77.432C138.436 77.8987 138.604 78.4353 138.604 79.042C138.604 79.5833 138.487 80.092 138.254 80.568C138.03 81.0347 137.587 81.5667 136.924 82.164L135.524 83.438H138.828Z" fill="#2F91C9"/>
<path d="M188.452 86.224C187.64 86.224 186.847 86.1353 186.072 85.958C185.307 85.7713 184.677 85.524 184.182 85.216L185.246 82.808C185.713 83.0787 186.235 83.298 186.814 83.466C187.393 83.6247 187.948 83.704 188.48 83.704C188.937 83.704 189.264 83.662 189.46 83.578C189.656 83.4847 189.754 83.3493 189.754 83.172C189.754 82.9667 189.623 82.8127 189.362 82.71C189.11 82.6073 188.69 82.4953 188.102 82.374C187.346 82.2153 186.716 82.0473 186.212 81.87C185.708 81.6833 185.269 81.3847 184.896 80.974C184.523 80.554 184.336 79.9893 184.336 79.28C184.336 78.664 184.509 78.104 184.854 77.6C185.199 77.096 185.713 76.6993 186.394 76.41C187.085 76.1207 187.92 75.976 188.9 75.976C189.572 75.976 190.23 76.0507 190.874 76.2C191.527 76.34 192.101 76.55 192.596 76.83L191.602 79.224C190.641 78.7387 189.731 78.496 188.872 78.496C188.023 78.496 187.598 78.7013 187.598 79.112C187.598 79.308 187.724 79.4573 187.976 79.56C188.228 79.6533 188.643 79.756 189.222 79.868C189.969 80.008 190.599 80.1713 191.112 80.358C191.625 80.5353 192.069 80.8293 192.442 81.24C192.825 81.6507 193.016 82.2107 193.016 82.92C193.016 83.536 192.843 84.096 192.498 84.6C192.153 85.0947 191.635 85.4913 190.944 85.79C190.263 86.0793 189.432 86.224 188.452 86.224Z" fill="#2F91C9"/>
<path d="M199.543 85.734C199.067 86.0047 198.419 86.14 197.597 86.14C196.524 86.14 195.698 85.8833 195.119 85.37C194.541 84.8473 194.251 84.068 194.251 83.032V81.072H193.201V78.762H194.251V76.62H197.415V78.762H198.983V81.072H197.415V83.004C197.415 83.2373 197.476 83.4193 197.597 83.55C197.719 83.6807 197.877 83.746 198.073 83.746C198.344 83.746 198.582 83.676 198.787 83.536L199.543 85.734Z" fill="#2F91C9"/>
<path d="M203.771 78.202C205.115 78.202 206.141 78.5053 206.851 79.112C207.56 79.7093 207.915 80.6333 207.915 81.884V86H204.975V84.992C204.611 85.7573 203.887 86.14 202.805 86.14C202.198 86.14 201.68 86.0373 201.251 85.832C200.831 85.6173 200.509 85.3327 200.285 84.978C200.07 84.614 199.963 84.208 199.963 83.76C199.963 83.004 200.252 82.43 200.831 82.038C201.409 81.646 202.287 81.45 203.463 81.45H204.737C204.634 80.8527 204.153 80.554 203.295 80.554C202.949 80.554 202.599 80.61 202.245 80.722C201.89 80.8247 201.587 80.9693 201.335 81.156L200.327 79.07C200.765 78.7993 201.293 78.5893 201.909 78.44C202.534 78.2813 203.155 78.202 203.771 78.202ZM203.757 84.236C203.981 84.236 204.181 84.1753 204.359 84.054C204.536 83.9327 204.667 83.7507 204.751 83.508V82.976H203.967C203.323 82.976 203.001 83.1907 203.001 83.62C203.001 83.7973 203.066 83.9467 203.197 84.068C203.337 84.18 203.523 84.236 203.757 84.236Z" fill="#2F91C9"/>
<path d="M214.392 78.202C215.064 78.202 215.68 78.3653 216.24 78.692C216.809 79.0093 217.257 79.4713 217.584 80.078C217.92 80.6847 218.088 81.3847 218.088 82.178C218.088 82.9713 217.92 83.6713 217.584 84.278C217.257 84.8753 216.809 85.3373 216.24 85.664C215.68 85.9813 215.064 86.14 214.392 86.14C213.543 86.14 212.894 85.9207 212.446 85.482V88.716H209.282V78.342H212.292V78.972C212.749 78.4587 213.449 78.202 214.392 78.202ZM213.636 83.676C214 83.676 214.299 83.5453 214.532 83.284C214.765 83.0227 214.882 82.654 214.882 82.178C214.882 81.702 214.765 81.3333 214.532 81.072C214.299 80.8013 214 80.666 213.636 80.666C213.272 80.666 212.973 80.8013 212.74 81.072C212.507 81.3333 212.39 81.702 212.39 82.178C212.39 82.654 212.507 83.0227 212.74 83.284C212.973 83.5453 213.272 83.676 213.636 83.676Z" fill="#2F91C9"/>
<path d="M228.49 80.078C229.246 80.2647 229.825 80.6053 230.226 81.1C230.637 81.5853 230.842 82.1733 230.842 82.864C230.842 83.452 230.679 84.0027 230.352 84.516C230.035 85.02 229.54 85.4307 228.868 85.748C228.196 86.0653 227.361 86.224 226.362 86.224C225.671 86.224 224.981 86.1493 224.29 86C223.609 85.8507 223.011 85.6313 222.498 85.342L223.618 82.906C224.019 83.1393 224.449 83.3167 224.906 83.438C225.373 83.5593 225.821 83.62 226.25 83.62C226.633 83.62 226.941 83.5547 227.174 83.424C227.407 83.2933 227.524 83.1067 227.524 82.864C227.524 82.416 227.137 82.192 226.362 82.192H225.06V80.162L226.502 78.692H223.002V76.2H230.31V78.23L228.49 80.078Z" fill="#2F91C9"/>
<path d="M284.452 86.224C283.64 86.224 282.847 86.1353 282.072 85.958C281.307 85.7713 280.677 85.524 280.182 85.216L281.246 82.808C281.713 83.0787 282.235 83.298 282.814 83.466C283.393 83.6247 283.948 83.704 284.48 83.704C284.937 83.704 285.264 83.662 285.46 83.578C285.656 83.4847 285.754 83.3493 285.754 83.172C285.754 82.9667 285.623 82.8127 285.362 82.71C285.11 82.6073 284.69 82.4953 284.102 82.374C283.346 82.2153 282.716 82.0473 282.212 81.87C281.708 81.6833 281.269 81.3847 280.896 80.974C280.523 80.554 280.336 79.9893 280.336 79.28C280.336 78.664 280.509 78.104 280.854 77.6C281.199 77.096 281.713 76.6993 282.394 76.41C283.085 76.1207 283.92 75.976 284.9 75.976C285.572 75.976 286.23 76.0507 286.874 76.2C287.527 76.34 288.101 76.55 288.596 76.83L287.602 79.224C286.641 78.7387 285.731 78.496 284.872 78.496C284.023 78.496 283.598 78.7013 283.598 79.112C283.598 79.308 283.724 79.4573 283.976 79.56C284.228 79.6533 284.643 79.756 285.222 79.868C285.969 80.008 286.599 80.1713 287.112 80.358C287.625 80.5353 288.069 80.8293 288.442 81.24C288.825 81.6507 289.016 82.2107 289.016 82.92C289.016 83.536 288.843 84.096 288.498 84.6C288.153 85.0947 287.635 85.4913 286.944 85.79C286.263 86.0793 285.432 86.224 284.452 86.224Z" fill="#FF546B"/>
<path d="M295.543 85.734C295.067 86.0047 294.419 86.14 293.597 86.14C292.524 86.14 291.698 85.8833 291.119 85.37C290.541 84.8473 290.251 84.068 290.251 83.032V81.072H289.201V78.762H290.251V76.62H293.415V78.762H294.983V81.072H293.415V83.004C293.415 83.2373 293.476 83.4193 293.597 83.55C293.719 83.6807 293.877 83.746 294.073 83.746C294.344 83.746 294.582 83.676 294.787 83.536L295.543 85.734Z" fill="#FF546B"/>
<path d="M299.771 78.202C301.115 78.202 302.141 78.5053 302.851 79.112C303.56 79.7093 303.915 80.6333 303.915 81.884V86H300.975V84.992C300.611 85.7573 299.887 86.14 298.805 86.14C298.198 86.14 297.68 86.0373 297.251 85.832C296.831 85.6173 296.509 85.3327 296.285 84.978C296.07 84.614 295.963 84.208 295.963 83.76C295.963 83.004 296.252 82.43 296.831 82.038C297.409 81.646 298.287 81.45 299.463 81.45H300.737C300.634 80.8527 300.153 80.554 299.295 80.554C298.949 80.554 298.599 80.61 298.245 80.722C297.89 80.8247 297.587 80.9693 297.335 81.156L296.327 79.07C296.765 78.7993 297.293 78.5893 297.909 78.44C298.534 78.2813 299.155 78.202 299.771 78.202ZM299.757 84.236C299.981 84.236 300.181 84.1753 300.359 84.054C300.536 83.9327 300.667 83.7507 300.751 83.508V82.976H299.967C299.323 82.976 299.001 83.1907 299.001 83.62C299.001 83.7973 299.066 83.9467 299.197 84.068C299.337 84.18 299.523 84.236 299.757 84.236Z" fill="#FF546B"/>
<path d="M310.392 78.202C311.064 78.202 311.68 78.3653 312.24 78.692C312.809 79.0093 313.257 79.4713 313.584 80.078C313.92 80.6847 314.088 81.3847 314.088 82.178C314.088 82.9713 313.92 83.6713 313.584 84.278C313.257 84.8753 312.809 85.3373 312.24 85.664C311.68 85.9813 311.064 86.14 310.392 86.14C309.543 86.14 308.894 85.9207 308.446 85.482V88.716H305.282V78.342H308.292V78.972C308.749 78.4587 309.449 78.202 310.392 78.202ZM309.636 83.676C310 83.676 310.299 83.5453 310.532 83.284C310.765 83.0227 310.882 82.654 310.882 82.178C310.882 81.702 310.765 81.3333 310.532 81.072C310.299 80.8013 310 80.666 309.636 80.666C309.272 80.666 308.973 80.8013 308.74 81.072C308.507 81.3333 308.39 81.702 308.39 82.178C308.39 82.654 308.507 83.0227 308.74 83.284C308.973 83.5453 309.272 83.676 309.636 83.676Z" fill="#FF546B"/>
<path d="M328.494 84.32H327.192V86H323.986V84.32H318.904V82.22L323.062 76.2H326.45L322.754 81.758H324.084V80.26H327.192V81.758H328.494V84.32Z" fill="#FF546B"/>
<circle cx="207.5" cy="33.5" r="10" fill="#2F91C9" stroke="#2F91C9" stroke-width="3"/>
<circle cx="24.5" cy="34.5" r="10" fill="#2F91C9" stroke="#2F91C9" stroke-width="3"/>
<circle cx="301.5" cy="33.5" r="10" stroke="#2F91C9" stroke-width="3"/>
<circle cx="392.5" cy="32.5" r="10" stroke="#2F91C9" stroke-width="3"/>
<circle cx="114.5" cy="33.5" r="9" fill="#2F91C9" stroke="#2F91C9" stroke-width="3"/>
<rect x="313" y="33" width="71" height="2" fill="#2F91C9"/>
<rect x="34" y="33" width="71" height="2" fill="#2F91C9"/>
<rect x="219" y="33" width="71" height="2" fill="#2F91C9"/>
<rect x="125" y="33" width="71" height="2" fill="#2F91C9"/>
<ellipse cx="302.5" cy="26.5" rx="23.5" ry="26.5" fill="#FF546B"/>
<ellipse cx="302.5" cy="26.5" rx="17.5" ry="26.5" fill="#FFFCF5"/>
<ellipse cx="302.5" cy="26.5" rx="11.5" ry="26.5" fill="#FF546B"/>
<ellipse cx="302.5" cy="26.5" rx="4.5" ry="26.5" fill="#FFFCF5"/>
<rect x="296" y="59" width="12" height="7" fill="#8C6D5D"/>
<path d="M307 62L308 56" stroke="#8C6D5D" stroke-width="0.5"/>
<path d="M297 62L296 56" stroke="#8C6D5D" stroke-width="0.5"/>
<ellipse cx="302.5" cy="1" rx="3.5" ry="1" fill="#2F91C9"/>
<path d="M295 56L289.5 48.5H315.5L309 56H295Z" fill="#2F91C9"/>
</svg>
