<svg width="404" height="89" viewBox="0 0 404 89" fill="none" xmlns="http://www.w3.org/2000/svg">
<path d="M4.452 86.224C3.64 86.224 2.84667 86.1353 2.072 85.958C1.30667 85.7713 0.676667 85.524 0.182 85.216L1.246 82.808C1.71267 83.0787 2.23533 83.298 2.814 83.466C3.39267 83.6247 3.948 83.704 4.48 83.704C4.93733 83.704 5.264 83.662 5.46 83.578C5.656 83.4847 5.754 83.3493 5.754 83.172C5.754 82.9667 5.62333 82.8127 5.362 82.71C5.11 82.6073 4.69 82.4953 4.102 82.374C3.346 82.2153 2.716 82.0473 2.212 81.87C1.708 81.6833 1.26933 81.3847 0.896 80.974C0.522667 80.554 0.336 79.9893 0.336 79.28C0.336 78.664 0.508667 78.104 0.854 77.6C1.19933 77.096 1.71267 76.6993 2.394 76.41C3.08467 76.1207 3.92 75.976 4.9 75.976C5.572 75.976 6.23 76.0507 6.874 76.2C7.52733 76.34 8.10133 76.55 8.596 76.83L7.602 79.224C6.64067 78.7387 5.73067 78.496 4.872 78.496C4.02267 78.496 3.598 78.7013 3.598 79.112C3.598 79.308 3.724 79.4573 3.976 79.56C4.228 79.6533 4.64333 79.756 5.222 79.868C5.96867 80.008 6.59867 80.1713 7.112 80.358C7.62533 80.5353 8.06867 80.8293 8.442 81.24C8.82467 81.6507 9.016 82.2107 9.016 82.92C9.016 83.536 8.84333 84.096 8.498 84.6C8.15267 85.0947 7.63467 85.4913 6.944 85.79C6.26267 86.0793 5.432 86.224 4.452 86.224ZM15.5432 85.734C15.0672 86.0047 14.4185 86.14 13.5972 86.14C12.5238 86.14 11.6978 85.8833 11.1192 85.37C10.5405 84.8473 10.2512 84.068 10.2512 83.032V81.072H9.20117V78.762H10.2512V76.62H13.4152V78.762H14.9832V81.072H13.4152V83.004C13.4152 83.2373 13.4758 83.4193 13.5972 83.55C13.7185 83.6807 13.8772 83.746 14.0732 83.746C14.3438 83.746 14.5818 83.676 14.7872 83.536L15.5432 85.734ZM19.7706 78.202C21.1146 78.202 22.1413 78.5053 22.8506 79.112C23.56 79.7093 23.9146 80.6333 23.9146 81.884V86H20.9746V84.992C20.6106 85.7573 19.8873 86.14 18.8046 86.14C18.198 86.14 17.68 86.0373 17.2506 85.832C16.8306 85.6173 16.5086 85.3327 16.2846 84.978C16.07 84.614 15.9626 84.208 15.9626 83.76C15.9626 83.004 16.252 82.43 16.8306 82.038C17.4093 81.646 18.2866 81.45 19.4626 81.45H20.7366C20.634 80.8527 20.1533 80.554 19.2946 80.554C18.9493 80.554 18.5993 80.61 18.2446 80.722C17.89 80.8247 17.5866 80.9693 17.3346 81.156L16.3266 79.07C16.7653 78.7993 17.2926 78.5893 17.9086 78.44C18.534 78.2813 19.1546 78.202 19.7706 78.202ZM19.7566 84.236C19.9806 84.236 20.1813 84.1753 20.3586 84.054C20.536 83.9327 20.6666 83.7507 20.7506 83.508V82.976H19.9666C19.3226 82.976 19.0006 83.1907 19.0006 83.62C19.0006 83.7973 19.066 83.9467 19.1966 84.068C19.3366 84.18 19.5233 84.236 19.7566 84.236ZM30.392 78.202C31.064 78.202 31.68 78.3653 32.24 78.692C32.8094 79.0093 33.2574 79.4713 33.584 80.078C33.92 80.6847 34.088 81.3847 34.088 82.178C34.088 82.9713 33.92 83.6713 33.584 84.278C33.2574 84.8753 32.8094 85.3373 32.24 85.664C31.68 85.9813 31.064 86.14 30.392 86.14C29.5427 86.14 28.894 85.9207 28.446 85.482V88.716H25.282V78.342H28.292V78.972C28.7494 78.4587 29.4494 78.202 30.392 78.202ZM29.636 83.676C30 83.676 30.2987 83.5453 30.532 83.284C30.7654 83.0227 30.882 82.654 30.882 82.178C30.882 81.702 30.7654 81.3333 30.532 81.072C30.2987 80.8013 30 80.666 29.636 80.666C29.272 80.666 28.9734 80.8013 28.74 81.072C28.5067 81.3333 28.39 81.702 28.39 82.178C28.39 82.654 28.5067 83.0227 28.74 83.284C28.9734 83.5453 29.272 83.676 29.636 83.676ZM43.636 76.2V86H40.332V78.692H38.652V76.2H43.636Z" fill="#2F91C9"/>
<path d="M96.452 86.224C95.64 86.224 94.8467 86.1353 94.072 85.958C93.3067 85.7713 92.6767 85.524 92.182 85.216L93.246 82.808C93.7127 83.0787 94.2353 83.298 94.814 83.466C95.3927 83.6247 95.948 83.704 96.48 83.704C96.9373 83.704 97.264 83.662 97.46 83.578C97.656 83.4847 97.754 83.3493 97.754 83.172C97.754 82.9667 97.6233 82.8127 97.362 82.71C97.11 82.6073 96.69 82.4953 96.102 82.374C95.346 82.2153 94.716 82.0473 94.212 81.87C93.708 81.6833 93.2693 81.3847 92.896 80.974C92.5227 80.554 92.336 79.9893 92.336 79.28C92.336 78.664 92.5087 78.104 92.854 77.6C93.1993 77.096 93.7127 76.6993 94.394 76.41C95.0847 76.1207 95.92 75.976 96.9 75.976C97.572 75.976 98.23 76.0507 98.874 76.2C99.5273 76.34 100.101 76.55 100.596 76.83L99.602 79.224C98.6407 78.7387 97.7307 78.496 96.872 78.496C96.0227 78.496 95.598 78.7013 95.598 79.112C95.598 79.308 95.724 79.4573 95.976 79.56C96.228 79.6533 96.6433 79.756 97.222 79.868C97.9687 80.008 98.5987 80.1713 99.112 80.358C99.6253 80.5353 100.069 80.8293 100.442 81.24C100.825 81.6507 101.016 82.2107 101.016 82.92C101.016 83.536 100.843 84.096 100.498 84.6C100.153 85.0947 99.6347 85.4913 98.944 85.79C98.2627 86.0793 97.432 86.224 96.452 86.224ZM107.543 85.734C107.067 86.0047 106.419 86.14 105.597 86.14C104.524 86.14 103.698 85.8833 103.119 85.37C102.541 84.8473 102.251 84.068 102.251 83.032V81.072H101.201V78.762H102.251V76.62H105.415V78.762H106.983V81.072H105.415V83.004C105.415 83.2373 105.476 83.4193 105.597 83.55C105.719 83.6807 105.877 83.746 106.073 83.746C106.344 83.746 106.582 83.676 106.787 83.536L107.543 85.734ZM111.771 78.202C113.115 78.202 114.141 78.5053 114.851 79.112C115.56 79.7093 115.915 80.6333 115.915 81.884V86H112.975V84.992C112.611 85.7573 111.887 86.14 110.805 86.14C110.198 86.14 109.68 86.0373 109.251 85.832C108.831 85.6173 108.509 85.3327 108.285 84.978C108.07 84.614 107.963 84.208 107.963 83.76C107.963 83.004 108.252 82.43 108.831 82.038C109.409 81.646 110.287 81.45 111.463 81.45H112.737C112.634 80.8527 112.153 80.554 111.295 80.554C110.949 80.554 110.599 80.61 110.245 80.722C109.89 80.8247 109.587 80.9693 109.335 81.156L108.327 79.07C108.765 78.7993 109.293 78.5893 109.909 78.44C110.534 78.2813 111.155 78.202 111.771 78.202ZM111.757 84.236C111.981 84.236 112.181 84.1753 112.359 84.054C112.536 83.9327 112.667 83.7507 112.751 83.508V82.976H111.967C111.323 82.976 111.001 83.1907 111.001 83.62C111.001 83.7973 111.066 83.9467 111.197 84.068C111.337 84.18 111.523 84.236 111.757 84.236ZM122.392 78.202C123.064 78.202 123.68 78.3653 124.24 78.692C124.809 79.0093 125.257 79.4713 125.584 80.078C125.92 80.6847 126.088 81.3847 126.088 82.178C126.088 82.9713 125.92 83.6713 125.584 84.278C125.257 84.8753 124.809 85.3373 124.24 85.664C123.68 85.9813 123.064 86.14 122.392 86.14C121.543 86.14 120.894 85.9207 120.446 85.482V88.716H117.282V78.342H120.292V78.972C120.749 78.4587 121.449 78.202 122.392 78.202ZM121.636 83.676C122 83.676 122.299 83.5453 122.532 83.284C122.765 83.0227 122.882 82.654 122.882 82.178C122.882 81.702 122.765 81.3333 122.532 81.072C122.299 80.8013 122 80.666 121.636 80.666C121.272 80.666 120.973 80.8013 120.74 81.072C120.507 81.3333 120.39 81.702 120.39 82.178C120.39 82.654 120.507 83.0227 120.74 83.284C120.973 83.5453 121.272 83.676 121.636 83.676ZM138.828 83.438V86H130.974V83.97L134.516 80.694C134.824 80.4047 135.029 80.1573 135.132 79.952C135.235 79.7467 135.286 79.546 135.286 79.35C135.286 79.1073 135.202 78.9207 135.034 78.79C134.875 78.65 134.642 78.58 134.334 78.58C134.035 78.58 133.755 78.6593 133.494 78.818C133.233 78.9767 133.032 79.2007 132.892 79.49L130.4 78.244C130.773 77.544 131.319 76.9933 132.038 76.592C132.757 76.1813 133.625 75.976 134.642 75.976C135.417 75.976 136.103 76.102 136.7 76.354C137.297 76.606 137.764 76.9653 138.1 77.432C138.436 77.8987 138.604 78.4353 138.604 79.042C138.604 79.5833 138.487 80.092 138.254 80.568C138.03 81.0347 137.587 81.5667 136.924 82.164L135.524 83.438H138.828Z" fill="#2F91C9"/>
<path d="M188.452 86.224C187.64 86.224 186.847 86.1353 186.072 85.958C185.307 85.7713 184.677 85.524 184.182 85.216L185.246 82.808C185.713 83.0787 186.235 83.298 186.814 83.466C187.393 83.6247 187.948 83.704 188.48 83.704C188.937 83.704 189.264 83.662 189.46 83.578C189.656 83.4847 189.754 83.3493 189.754 83.172C189.754 82.9667 189.623 82.8127 189.362 82.71C189.11 82.6073 188.69 82.4953 188.102 82.374C187.346 82.2153 186.716 82.0473 186.212 81.87C185.708 81.6833 185.269 81.3847 184.896 80.974C184.523 80.554 184.336 79.9893 184.336 79.28C184.336 78.664 184.509 78.104 184.854 77.6C185.199 77.096 185.713 76.6993 186.394 76.41C187.085 76.1207 187.92 75.976 188.9 75.976C189.572 75.976 190.23 76.0507 190.874 76.2C191.527 76.34 192.101 76.55 192.596 76.83L191.602 79.224C190.641 78.7387 189.731 78.496 188.872 78.496C188.023 78.496 187.598 78.7013 187.598 79.112C187.598 79.308 187.724 79.4573 187.976 79.56C188.228 79.6533 188.643 79.756 189.222 79.868C189.969 80.008 190.599 80.1713 191.112 80.358C191.625 80.5353 192.069 80.8293 192.442 81.24C192.825 81.6507 193.016 82.2107 193.016 82.92C193.016 83.536 192.843 84.096 192.498 84.6C192.153 85.0947 191.635 85.4913 190.944 85.79C190.263 86.0793 189.432 86.224 188.452 86.224ZM199.543 85.734C199.067 86.0047 198.419 86.14 197.597 86.14C196.524 86.14 195.698 85.8833 195.119 85.37C194.541 84.8473 194.251 84.068 194.251 83.032V81.072H193.201V78.762H194.251V76.62H197.415V78.762H198.983V81.072H197.415V83.004C197.415 83.2373 197.476 83.4193 197.597 83.55C197.719 83.6807 197.877 83.746 198.073 83.746C198.344 83.746 198.582 83.676 198.787 83.536L199.543 85.734ZM203.771 78.202C205.115 78.202 206.141 78.5053 206.851 79.112C207.56 79.7093 207.915 80.6333 207.915 81.884V86H204.975V84.992C204.611 85.7573 203.887 86.14 202.805 86.14C202.198 86.14 201.68 86.0373 201.251 85.832C200.831 85.6173 200.509 85.3327 200.285 84.978C200.07 84.614 199.963 84.208 199.963 83.76C199.963 83.004 200.252 82.43 200.831 82.038C201.409 81.646 202.287 81.45 203.463 81.45H204.737C204.634 80.8527 204.153 80.554 203.295 80.554C202.949 80.554 202.599 80.61 202.245 80.722C201.89 80.8247 201.587 80.9693 201.335 81.156L200.327 79.07C200.765 78.7993 201.293 78.5893 201.909 78.44C202.534 78.2813 203.155 78.202 203.771 78.202ZM203.757 84.236C203.981 84.236 204.181 84.1753 204.359 84.054C204.536 83.9327 204.667 83.7507 204.751 83.508V82.976H203.967C203.323 82.976 203.001 83.1907 203.001 83.62C203.001 83.7973 203.066 83.9467 203.197 84.068C203.337 84.18 203.523 84.236 203.757 84.236ZM214.392 78.202C215.064 78.202 215.68 78.3653 216.24 78.692C216.809 79.0093 217.257 79.4713 217.584 80.078C217.92 80.6847 218.088 81.3847 218.088 82.178C218.088 82.9713 217.92 83.6713 217.584 84.278C217.257 84.8753 216.809 85.3373 216.24 85.664C215.68 85.9813 215.064 86.14 214.392 86.14C213.543 86.14 212.894 85.9207 212.446 85.482V88.716H209.282V78.342H212.292V78.972C212.749 78.4587 213.449 78.202 214.392 78.202ZM213.636 83.676C214 83.676 214.299 83.5453 214.532 83.284C214.765 83.0227 214.882 82.654 214.882 82.178C214.882 81.702 214.765 81.3333 214.532 81.072C214.299 80.8013 214 80.666 213.636 80.666C213.272 80.666 212.973 80.8013 212.74 81.072C212.507 81.3333 212.39 81.702 212.39 82.178C212.39 82.654 212.507 83.0227 212.74 83.284C212.973 83.5453 213.272 83.676 213.636 83.676ZM228.49 80.078C229.246 80.2647 229.825 80.6053 230.226 81.1C230.637 81.5853 230.842 82.1733 230.842 82.864C230.842 83.452 230.679 84.0027 230.352 84.516C230.035 85.02 229.54 85.4307 228.868 85.748C228.196 86.0653 227.361 86.224 226.362 86.224C225.671 86.224 224.981 86.1493 224.29 86C223.609 85.8507 223.011 85.6313 222.498 85.342L223.618 82.906C224.019 83.1393 224.449 83.3167 224.906 83.438C225.373 83.5593 225.821 83.62 226.25 83.62C226.633 83.62 226.941 83.5547 227.174 83.424C227.407 83.2933 227.524 83.1067 227.524 82.864C227.524 82.416 227.137 82.192 226.362 82.192H225.06V80.162L226.502 78.692H223.002V76.2H230.31V78.23L228.49 80.078Z" fill="#FF546B"/>
<circle cx="207.5" cy="33.5" r="10" stroke="#2F91C9" stroke-width="3"/>
<circle cx="24.5" cy="34.5" r="10" fill="#2F91C9" stroke="#2F91C9" stroke-width="3"/>
<circle cx="301.5" cy="33.5" r="10" stroke="#2F91C9" stroke-width="3"/>
<circle cx="392.5" cy="32.5" r="10" stroke="#2F91C9" stroke-width="3"/>
<circle cx="114.5" cy="33.5" r="9" fill="#2F91C9" stroke="#2F91C9" stroke-width="3"/>
<rect x="313" y="33" width="71" height="2" fill="#2F91C9"/>
<rect x="34" y="33" width="71" height="2" fill="#2F91C9"/>
<rect x="219" y="33" width="71" height="2" fill="#2F91C9"/>
<rect x="125" y="33" width="71" height="2" fill="#2F91C9"/>
<ellipse cx="206.5" cy="26.5" rx="23.5" ry="26.5" fill="#FF546B"/>
<ellipse cx="206.5" cy="26.5" rx="17.5" ry="26.5" fill="#FFFCF5"/>
<ellipse cx="206.5" cy="26.5" rx="11.5" ry="26.5" fill="#FF546B"/>
<ellipse cx="206.5" cy="26.5" rx="4.5" ry="26.5" fill="#FFFCF5"/>
<rect x="200" y="59" width="12" height="7" fill="#8C6D5D"/>
<path d="M211 62L212 56" stroke="#8C6D5D" stroke-width="0.5"/>
<path d="M201 62L200 56" stroke="#8C6D5D" stroke-width="0.5"/>
<ellipse cx="206.5" cy="1" rx="3.5" ry="1" fill="#2F91C9"/>
<path d="M199 56L193.5 48.5H219.5L213 56H199Z" fill="#2F91C9"/>
</svg>
