<svg width="220" height="42" viewBox="0 0 220 42" fill="none" xmlns="http://www.w3.org/2000/svg">
<g clip-path="url(#clip0)">
<path d="M59.1207 41.9416C58.77 41.8993 58.4199 41.8482 58.0678 41.8154C50.2264 41.0842 43.3317 35.6595 40.7495 28.1935C39.8812 25.6838 39.4887 23.1034 39.6322 20.4548C39.9184 15.1696 41.9287 10.625 45.6801 6.88538C48.819 3.75693 52.6089 1.80978 57.0017 1.18409C63.5476 0.251559 69.2991 2.03771 74.2007 6.48635C74.6133 6.86075 74.9938 7.26925 75.3888 7.66323C75.4178 7.69227 75.4431 7.72636 75.4362 7.71879C73.357 9.79347 71.2848 11.8618 69.1778 13.9637C66.2821 10.7595 62.6344 9.25049 58.2258 9.93427C55.2562 10.3945 52.8206 11.8694 50.9633 14.2301C47.2789 18.9136 47.7005 25.6213 51.9327 29.7196C54.3923 32.1017 57.3487 33.2369 60.7809 33.0633C64.2093 32.8903 66.9741 31.3624 69.2012 28.8546C71.2999 30.9488 73.3741 33.0185 75.4671 35.1077C75.0488 35.5269 74.6209 35.9865 74.1608 36.4115C71.0547 39.276 67.4184 41.0552 63.2297 41.6866C62.6275 41.7775 62.0176 41.816 61.4122 41.8817C61.3212 41.8918 61.2327 41.9214 61.143 41.9423C60.4687 41.9416 59.795 41.9416 59.1207 41.9416ZM72.0229 7.77814C65.3133 1.73907 53.8678 1.44548 46.7215 9.26123C39.6802 16.9621 40.5593 29.0421 48.8949 35.6235C56.7376 41.816 66.856 39.956 72.009 35.0578C71.0668 34.1177 70.1239 33.1769 69.1784 32.2343C62.8556 37.469 54.12 35.9638 49.5439 30.69C44.8825 25.3183 44.9065 17.4381 49.6513 12.0595C54.3279 6.75721 63.0332 5.50899 69.1721 10.6212C70.1245 9.67162 71.0743 8.72393 72.0229 7.77814Z" fill="#2F91C9"/>
<path d="M219.532 10.9223C219.386 10.9337 219.24 10.9552 219.094 10.9552C215.777 10.9571 212.461 10.9564 209.145 10.9564C208.734 10.9564 208.733 10.9571 208.733 11.3681C208.733 21.0022 208.733 30.6369 208.733 40.271C208.733 40.4257 208.733 40.5804 208.733 40.7559C205.477 40.7559 202.261 40.7559 199.007 40.7559C199.007 40.5949 199.007 40.4516 199.007 40.3076C199.007 30.6944 199.008 21.0811 199.006 11.4672C199.006 10.8838 199.086 10.9571 198.48 10.9564C195.195 10.9539 191.91 10.9508 188.625 10.9621C188.311 10.9634 188.216 10.8889 188.217 10.5631C188.231 7.89429 188.228 5.22612 188.219 2.55731C188.218 2.27761 188.282 2.17975 188.583 2.17975C198.785 2.18732 208.987 2.18606 219.189 2.18796C219.304 2.18796 219.418 2.20942 219.533 2.22079C219.532 5.12194 219.532 8.02183 219.532 10.9223ZM205.862 8.09317C206.675 8.09317 207.452 8.09317 208.23 8.09317C210.915 8.09317 213.599 8.08938 216.284 8.09885C216.558 8.10012 216.648 8.03256 216.641 7.74907C216.622 6.94029 216.629 6.1315 216.638 5.32208C216.64 5.12068 216.581 5.03733 216.37 5.04744C216.076 5.06133 215.78 5.05059 215.486 5.05059C207.505 5.05059 199.525 5.05059 191.544 5.05059C191.106 5.05059 191.106 5.05122 191.106 5.50013C191.106 6.22494 191.105 6.94976 191.106 7.67457C191.106 8.09191 191.106 8.09254 191.512 8.09254C194.829 8.09254 198.145 8.09254 201.461 8.09254C201.585 8.09254 201.709 8.09254 201.881 8.09254C201.881 18.0436 201.881 27.9637 201.881 37.887C203.229 37.887 204.527 37.887 205.861 37.887C205.862 27.9466 205.862 18.0335 205.862 8.09317Z" fill="#2F91C9"/>
<path d="M96.0804 41.9417C95.7189 41.8993 95.3581 41.8495 94.9953 41.816C87.1349 41.0931 80.2339 35.6728 77.6453 28.1916C76.7808 25.692 76.3865 23.1217 76.528 20.4839C76.9546 12.5216 81.683 5.72745 88.955 2.59332C91.9556 1.30027 95.0983 0.769921 98.3492 0.989638C103.523 1.33942 107.946 3.38064 111.629 7.02113C111.689 7.08048 111.748 7.14046 111.805 7.20233C111.876 7.27936 111.945 7.35828 111.986 7.40437C110.087 9.30038 108.193 11.1894 106.285 13.093C103.507 10.142 100.032 8.69868 95.9003 9.04909C92.566 9.33195 89.7784 10.7948 87.5893 13.3241C83.3653 18.2046 83.6073 25.4111 88.0178 30.0195C89.6318 31.7059 91.5726 32.8562 93.8344 33.4566C96.1063 34.0602 98.3713 34.0217 100.62 33.3468C102.86 32.675 104.748 31.44 106.305 29.7398C108.216 31.6465 110.113 33.5387 112.018 35.4392C110.274 37.2954 108.238 38.7974 105.917 39.9093C103.491 41.0716 100.933 41.7346 98.2436 41.8817C98.1539 41.8867 98.0654 41.9208 97.9763 41.9417C97.3443 41.9417 96.7124 41.9417 96.0804 41.9417ZM83.958 7.5881C83.8557 7.66323 83.8026 7.69165 83.7628 7.73332C83.3356 8.18285 82.9147 8.63744 82.4837 9.08256C82.2972 9.27513 82.2302 9.48663 82.2302 9.75812C82.2372 17.2594 82.2359 24.7601 82.2359 32.2615C82.2359 33.5659 82.2347 33.5671 83.1422 34.5136C83.3836 34.7655 83.6376 35.0048 83.934 35.2971C83.9467 35.1412 83.9568 35.0711 83.9568 35.0004C83.9574 32.1219 83.9587 29.2435 83.9542 26.3645C83.9542 26.2319 83.9239 26.0936 83.8809 25.9667C82.8711 22.9607 82.8717 19.9541 83.862 16.9438C83.9195 16.7682 83.953 16.5763 83.953 16.3926C83.9587 13.5874 83.9568 10.7822 83.9568 7.97766C83.958 7.8678 83.958 7.75731 83.958 7.5881ZM81.5193 10.3529C81.4226 10.4747 81.3714 10.5265 81.3347 10.5871C80.9037 11.2949 80.4765 12.0052 80.0443 12.7123C79.8743 12.9901 79.8237 13.2843 79.8243 13.6095C79.8319 18.3145 79.8294 23.0188 79.8294 27.7238C79.8294 30.0454 79.8294 30.0453 81.1243 31.9767C81.2001 32.0904 81.2798 32.2009 81.355 32.3151C81.3885 32.3663 81.4144 32.4218 81.4434 32.4755C81.4687 32.4591 81.494 32.4427 81.5193 32.4256C81.5193 25.0973 81.5193 17.7683 81.5193 10.3529ZM84.6905 27.8659C84.6633 27.9928 84.6513 28.0224 84.6513 28.0527C84.65 30.6155 84.6475 33.1788 84.657 35.7416C84.6576 35.8565 84.7385 36.003 84.8289 36.0806C85.1392 36.3477 85.4678 36.5946 85.7945 36.8421C85.9633 36.9696 86.1427 37.0826 86.3456 37.2215C86.3563 37.118 86.3639 37.0763 86.3639 37.0353C86.3646 34.8716 86.3677 32.7078 86.3582 30.5435C86.3576 30.4122 86.2811 30.267 86.204 30.1527C85.8337 29.6047 85.4476 29.068 85.0754 28.5219C84.9483 28.3343 84.8453 28.1317 84.6905 27.8659ZM84.6665 14.9164C85.2321 14.114 85.7768 13.3468 86.3108 12.5728C86.3633 12.4964 86.362 12.3739 86.3627 12.2729C86.3652 10.1742 86.3652 8.07489 86.3639 5.97621C86.3639 5.88024 86.3538 5.78427 86.3437 5.60623C85.8204 6.00904 85.3686 6.36577 84.9066 6.7086C84.7113 6.85382 84.6425 7.02239 84.6437 7.26736C84.6526 9.71267 84.6488 12.158 84.65 14.6026C84.6494 14.703 84.6602 14.8028 84.6665 14.9164ZM87.0799 11.6819C87.6032 11.2355 88.0639 10.8258 88.5448 10.4413C88.7199 10.3017 88.7863 10.1616 88.785 9.94059C88.7768 8.16517 88.7806 6.39039 88.7806 4.61497C88.7806 4.51395 88.7806 4.4123 88.7806 4.22226C88.256 4.50764 87.8029 4.76208 87.3416 5.00074C87.1375 5.10618 87.0743 5.24698 87.0755 5.4749C87.085 7.42836 87.0806 9.38246 87.0806 11.3366C87.0799 11.43 87.0799 11.5228 87.0799 11.6819ZM87.0983 31.2058C87.0913 31.3428 87.0812 31.459 87.0812 31.5752C87.0799 33.4238 87.0989 35.2725 87.0673 37.1205C87.0597 37.5751 87.1855 37.8365 87.5975 38.0164C87.9849 38.1856 88.3477 38.411 88.7363 38.62C88.7622 38.5253 88.7774 38.4956 88.7774 38.4653C88.7793 36.575 88.7818 34.6847 88.7755 32.7937C88.7755 32.7041 88.7218 32.5879 88.6542 32.5285C88.1556 32.0942 87.6475 31.6705 87.0983 31.2058ZM79.0894 15.0345C78.5636 16.0813 77.9291 19.0046 77.9234 21.4372C77.9177 23.9198 78.6457 27.1189 79.0894 27.7926C79.0894 23.553 79.0894 19.3177 79.0894 15.0345ZM104.012 3.66539C104.012 3.86932 104.012 3.99244 104.012 4.11556C104.012 5.63716 104.039 7.1594 103.998 8.67974C103.983 9.21451 104.112 9.55293 104.605 9.79601C104.982 9.98163 105.31 10.2676 105.663 10.5107C105.687 10.4646 105.705 10.4463 105.705 10.4286C105.708 8.4878 105.711 6.54634 105.707 4.6055C105.707 4.53542 105.66 4.42872 105.604 4.4022C105.098 4.15723 104.585 3.92741 104.012 3.66539ZM104.012 39.1977C104.523 38.9673 104.966 38.7551 105.419 38.5689C105.649 38.4742 105.72 38.3397 105.719 38.0928C105.707 36.2884 105.713 34.4839 105.712 32.6794C105.712 32.5797 105.7 32.4806 105.692 32.3448C105.207 32.6712 104.767 32.9888 104.304 33.2685C104.089 33.3986 104.004 33.5337 104.006 33.7881C104.018 35.4246 104.012 37.0612 104.012 38.6983C104.012 38.8328 104.012 38.9673 104.012 39.1977ZM91.1934 3.26763C90.6847 3.45704 90.2297 3.63761 89.7664 3.79482C89.549 3.86869 89.4903 3.99055 89.4915 4.21216C89.5004 5.94338 89.496 7.6746 89.4972 9.40645C89.4972 9.50431 89.5099 9.60218 89.5174 9.71645C90.0104 9.45254 90.4654 9.19494 90.9337 8.96449C91.1403 8.86284 91.2187 8.73972 91.2174 8.50611C91.2073 6.8797 91.2124 5.25329 91.2117 3.62688C91.2111 3.53343 91.2023 3.44062 91.1934 3.26763ZM89.4966 33.1422C89.4966 35.054 89.4953 36.9204 89.501 38.7873C89.501 38.8561 89.5478 38.9654 89.6009 38.9868C90.1109 39.1946 90.6272 39.3878 91.158 39.5917C91.1858 39.4982 91.2073 39.4597 91.2073 39.4218C91.2098 37.6906 91.2124 35.9594 91.2067 34.2282C91.2067 34.1493 91.1549 34.0337 91.0917 33.9984C90.581 33.7124 90.0622 33.4428 89.4966 33.1422ZM103.297 33.8689C102.795 34.0748 102.337 34.2774 101.867 34.4492C101.648 34.5287 101.561 34.6297 101.563 34.8741C101.575 36.4582 101.568 38.0429 101.57 39.627C101.57 39.7249 101.584 39.8228 101.596 39.9636C102.08 39.8202 102.517 39.6782 102.962 39.5633C103.213 39.4982 103.307 39.3852 103.304 39.1106C103.289 37.4741 103.297 35.8369 103.297 34.2004C103.297 34.0988 103.297 33.9977 103.297 33.8689ZM101.611 2.90711C101.59 2.99487 101.572 3.03465 101.572 3.07379C101.57 4.75387 101.569 6.43395 101.573 8.11403C101.573 8.18664 101.611 8.30218 101.664 8.32491C102.191 8.55031 102.724 8.76056 103.254 8.97396C103.272 8.93797 103.29 8.92029 103.29 8.90262C103.293 7.12783 103.296 5.35368 103.292 3.57889C103.292 3.5126 103.235 3.404 103.182 3.38696C102.665 3.21964 102.143 3.06748 101.611 2.90711ZM93.5734 40.1959C93.5993 40.1176 93.6176 40.0886 93.6176 40.0589C93.6202 38.399 93.6233 36.7392 93.6189 35.0793C93.6189 35.0111 93.5677 34.8993 93.5153 34.8823C92.992 34.7074 92.463 34.5483 91.9037 34.374C91.9037 36.1488 91.9018 37.8914 91.9113 39.634C91.912 39.7053 92.0118 39.8209 92.0851 39.8398C92.5711 39.9686 93.0621 40.0759 93.5734 40.1959ZM93.6246 2.66719C93.1165 2.78084 92.6615 2.89259 92.202 2.98161C91.9562 3.0296 91.8962 3.15524 91.8974 3.3939C91.9075 4.98874 91.9025 6.58359 91.9037 8.1778C91.9037 8.27566 91.9151 8.37416 91.9227 8.49475C92.4188 8.33564 92.8719 8.17023 93.3364 8.0509C93.5683 7.99092 93.6309 7.89116 93.6296 7.6645C93.6208 6.12206 93.6252 4.58025 93.6252 3.03781C93.6246 2.93552 93.6246 2.83324 93.6246 2.66719ZM99.184 2.47904C99.184 4.24941 99.184 5.97305 99.184 7.69354C99.754 7.81729 100.303 7.93662 100.845 8.05405C100.866 8.00607 100.882 7.98776 100.882 7.96882C100.885 6.29126 100.89 4.61371 100.882 2.93616C100.882 2.86355 100.785 2.74043 100.717 2.7278C100.215 2.6331 99.7092 2.56112 99.184 2.47904ZM100.873 34.8046C100.394 34.9101 99.9392 35.0344 99.4766 35.102C99.2181 35.1399 99.1555 35.2333 99.1574 35.4796C99.1682 37.0005 99.1625 38.5209 99.1631 40.0419C99.1631 40.1441 99.1726 40.2458 99.1789 40.3878C99.6719 40.3133 100.134 40.2363 100.6 40.1751C100.837 40.1441 100.897 40.0273 100.895 39.7975C100.885 38.2349 100.89 36.6722 100.89 35.1096C100.89 35.0174 100.88 34.9252 100.873 34.8046ZM96.0305 40.487C96.0305 38.7627 96.0317 37.106 96.0254 35.4486C96.0254 35.388 95.9534 35.2807 95.9041 35.2737C95.3897 35.2024 94.8727 35.1468 94.364 35.0881C94.345 35.1292 94.3292 35.1481 94.3292 35.167C94.3242 36.8143 94.3185 38.4622 94.3261 40.1094C94.3267 40.182 94.4449 40.307 94.5207 40.3178C95.0067 40.3866 95.4971 40.4301 96.0305 40.487ZM96.014 2.37613C95.542 2.42664 95.1059 2.49735 94.668 2.51251C94.3646 2.52261 94.3084 2.65078 94.3103 2.91911C94.3204 4.41862 94.3147 5.91876 94.316 7.41826C94.316 7.53128 94.3254 7.64429 94.3324 7.78951C94.9081 7.71438 95.4541 7.64303 96.0147 7.56979C96.014 5.8493 96.014 4.1446 96.014 2.37613ZM96.7749 35.3009C96.7749 37.0668 96.7749 38.769 96.7749 40.4447C97.3519 40.4447 97.8998 40.4447 98.4509 40.4447C98.4509 38.6869 98.4509 36.9841 98.4509 35.3009C97.8815 35.3009 97.3399 35.3009 96.7749 35.3009ZM98.4598 7.60199C98.4667 7.45109 98.4768 7.33808 98.4768 7.22506C98.4781 6.63726 98.4774 6.05008 98.4774 5.46227C98.4774 4.54931 98.4819 3.63635 98.4711 2.72338C98.4699 2.62047 98.3877 2.43106 98.3372 2.42853C97.8183 2.40644 97.2988 2.41527 96.7667 2.41527C96.7667 4.11808 96.7667 5.81268 96.7667 7.52749C97.3266 7.55211 97.8682 7.5761 98.4598 7.60199ZM106.443 38.0486C106.985 37.7001 107.468 37.4071 107.928 37.0807C108.04 37.0012 108.129 36.8149 108.134 36.6741C108.156 36.0554 108.083 35.4278 108.157 34.8173C108.271 33.8866 107.997 33.1744 107.239 32.6195C106.96 32.4149 106.739 32.132 106.442 31.8366C106.443 33.934 106.443 35.9443 106.443 38.0486ZM106.44 11.0449C106.985 10.4981 107.475 10.0258 107.938 9.52894C108.052 9.40708 108.131 9.20567 108.135 9.03836C108.155 8.23084 108.102 7.42016 108.159 6.61642C108.197 6.0646 108 5.73881 107.532 5.49637C107.168 5.30759 106.828 5.07082 106.44 4.83343C106.44 6.91948 106.44 8.93103 106.44 11.0449ZM108.861 34.362C108.861 35.0124 108.861 35.6734 108.861 36.4121C109.277 36.0592 109.639 35.7517 109.963 35.4764C109.581 35.09 109.22 34.7251 108.861 34.362ZM108.868 6.45858C108.868 7.21243 108.868 7.87853 108.868 8.52442C109.237 8.16012 109.6 7.80277 109.991 7.417C109.643 7.12025 109.281 6.81151 108.868 6.45858Z" fill="#2F91C9"/>
<path d="M141.103 16.8067C141.103 19.6902 141.103 22.5238 141.103 25.4148C140.974 25.4148 140.843 25.4148 140.712 25.4148C135.532 25.4148 130.352 25.4148 125.172 25.4148C124.757 25.4148 124.756 25.4155 124.756 25.8189C124.756 27.7945 124.756 29.7694 124.756 31.745C124.756 31.858 124.756 31.971 124.756 32.132C130.857 32.132 136.923 32.132 143.007 32.132C143.007 35.0319 143.007 37.8838 143.007 40.778C142.863 40.778 142.74 40.778 142.616 40.778C133.719 40.778 124.823 40.778 115.926 40.778C115.506 40.778 115.505 40.7774 115.505 40.343C115.505 27.7667 115.505 15.1898 115.505 2.61349C115.505 2.18795 115.506 2.18732 115.935 2.18732C124.505 2.18732 133.076 2.18732 141.646 2.18732C141.771 2.18732 141.895 2.18732 142.044 2.18732C142.044 5.03922 142.044 7.85893 142.044 10.7171C141.906 10.7235 141.764 10.7361 141.622 10.7361C136.157 10.7374 130.694 10.7367 125.229 10.7367C124.756 10.7367 124.756 10.7367 124.756 11.2147C124.756 12.9377 124.756 14.6607 124.756 16.3837C124.756 16.5081 124.756 16.6325 124.756 16.8061C130.218 16.8067 135.652 16.8067 141.103 16.8067Z" fill="#2F91C9"/>
<path d="M40.9383 40.778C40.7664 40.778 40.6539 40.778 40.5408 40.778C37.393 40.778 34.2451 40.7742 31.0967 40.785C30.8148 40.7862 30.6973 40.6884 30.5993 40.4365C29.6482 37.9937 28.6807 35.5572 27.7283 33.1144C27.6348 32.8739 27.5185 32.7849 27.2512 32.7855C22.9033 32.795 18.5547 32.7943 14.2068 32.7861C13.9439 32.7855 13.8257 32.8657 13.729 33.1126C12.7703 35.5749 11.7946 38.0309 10.8314 40.4914C10.7518 40.6947 10.6589 40.7837 10.4245 40.7831C7.21345 40.7749 4.00243 40.7774 0.791415 40.7768C0.719371 40.7768 0.647327 40.7679 0.531677 40.7604C0.577179 40.6347 0.610041 40.5299 0.653647 40.4289C5.55201 29.1198 10.4504 17.8106 15.3494 6.50087C15.9333 5.15352 16.5229 3.80807 17.0974 2.45693C17.1859 2.24921 17.2971 2.18165 17.5195 2.18229C19.6568 2.19049 21.7942 2.19112 23.9315 2.18165C24.1729 2.18039 24.2784 2.27005 24.3694 2.48156C29.8346 15.1115 35.3049 27.7389 40.7746 40.367C40.8239 40.4807 40.8669 40.5975 40.9383 40.778ZM20.7274 14.912C19.4142 18.2646 18.1344 21.5319 16.8478 24.8176C19.4641 24.8176 22.0122 24.8176 24.607 24.8176C23.314 21.5161 22.0387 18.2602 20.7274 14.912Z" fill="#2F91C9"/>
<path d="M175.946 26.247C175.946 18.2456 175.946 10.2436 175.946 2.20945C176.079 2.20124 176.191 2.18798 176.302 2.18798C179.313 2.18672 182.324 2.1905 185.335 2.18103C185.622 2.1804 185.709 2.25554 185.709 2.54912C185.702 15.1677 185.702 27.7857 185.71 40.4043C185.71 40.7181 185.61 40.7843 185.315 40.7837C181.588 40.7742 177.861 40.7736 174.134 40.7856C173.819 40.7869 173.648 40.6896 173.484 40.4245C168.497 32.394 163.502 24.3693 158.508 16.344C158.448 16.2474 158.384 16.1539 158.262 16.0712C158.262 24.2866 158.262 32.5014 158.262 40.7477C155 40.7477 151.777 40.7477 148.535 40.7477C148.535 27.9018 148.535 15.068 148.535 2.20566C148.671 2.19934 148.795 2.18861 148.918 2.18861C152.803 2.18798 156.688 2.18987 160.573 2.18293C160.823 2.1823 160.968 2.25427 161.103 2.47147C165.95 10.291 170.806 18.1061 175.66 25.9219C175.731 26.0368 175.803 26.1511 175.876 26.2653C175.899 26.259 175.922 26.2527 175.946 26.247ZM153.954 39.3631C153.954 27.4201 153.954 15.5251 153.954 3.60036C153.486 3.60036 153.046 3.60036 152.606 3.60036C152.124 3.60036 152.124 3.60036 152.124 4.06947C152.124 15.6779 152.124 27.2863 152.124 38.8947C152.124 38.9894 152.1 39.0935 152.133 39.1756C152.164 39.2514 152.255 39.3537 152.321 39.3556C152.856 39.3701 153.391 39.3631 153.954 39.3631ZM154.712 39.3644C155.189 39.3644 155.63 39.3669 156.07 39.3638C156.566 39.3606 156.539 39.4313 156.539 38.882C156.539 27.2825 156.539 15.6829 156.539 4.08273C156.539 3.97792 156.554 3.86806 156.529 3.76893C156.513 3.7058 156.436 3.61172 156.386 3.61046C155.832 3.59909 155.278 3.60351 154.711 3.60351C154.712 15.5377 154.712 27.4271 154.712 39.3644ZM177.708 3.60162C177.708 15.5459 177.708 27.4409 177.708 39.3644C178.176 39.3644 178.616 39.3644 179.056 39.3644C179.536 39.3644 179.536 39.3644 179.536 38.894C179.536 27.2856 179.536 15.6772 179.536 4.06883C179.536 3.97413 179.56 3.86932 179.527 3.78851C179.496 3.71337 179.405 3.61235 179.338 3.61046C178.803 3.59531 178.268 3.60162 177.708 3.60162ZM180.241 39.3644C180.71 39.3644 181.16 39.3644 181.61 39.3644C182.075 39.3644 182.076 39.3644 182.076 38.9149C182.076 27.2938 182.076 15.6728 182.076 4.05242C182.076 3.95771 182.088 3.86048 182.069 3.76956C182.056 3.71022 181.999 3.61488 181.959 3.61425C181.386 3.60415 180.812 3.6073 180.242 3.6073C180.241 15.5478 180.241 27.4378 180.241 39.3644ZM184.275 21.4827C184.275 15.6507 184.273 9.81873 184.281 3.98739C184.281 3.69254 184.213 3.56247 183.899 3.59657C183.68 3.61993 183.457 3.59909 183.236 3.60162C182.739 3.60604 182.766 3.53406 182.766 4.08209C182.766 15.6829 182.766 27.2831 182.766 38.8839C182.766 38.9363 182.772 38.9894 182.766 39.0411C182.738 39.2779 182.816 39.3922 183.079 39.3694C183.33 39.348 183.584 39.365 183.837 39.365C184.275 39.365 184.276 39.3644 184.276 38.9155C184.275 33.1043 184.275 27.2932 184.275 21.4827ZM149.971 3.60225C149.971 15.5453 149.971 27.4403 149.971 39.3644C150.323 39.3644 150.647 39.3644 150.972 39.3644C151.433 39.3644 151.434 39.3644 151.434 38.9111C151.434 27.2919 151.434 15.6728 151.434 4.05368C151.434 3.95898 151.454 3.85669 151.425 3.77272C151.401 3.70453 151.317 3.61172 151.256 3.60983C150.837 3.59531 150.417 3.60225 149.971 3.60225ZM164.174 22.7101C164.186 22.5484 164.195 22.4878 164.195 22.4279C164.196 18.4048 164.197 14.3817 164.19 10.3579C164.19 10.231 164.142 10.0896 164.075 9.9791C163.577 9.16337 163.071 8.35332 162.565 7.54201C162.518 7.46688 162.461 7.39869 162.369 7.27178C162.358 7.42205 162.348 7.50097 162.348 7.57989C162.347 11.5822 162.346 15.5844 162.353 19.5867C162.353 19.7332 162.406 19.8973 162.483 20.0242C162.968 20.8229 163.466 21.614 163.961 22.4064C164.01 22.484 164.066 22.5567 164.174 22.7101ZM166.656 26.7363C166.68 26.7275 166.703 26.7187 166.726 26.7098C166.732 26.6479 166.742 26.5861 166.742 26.5242C166.743 22.5036 166.744 18.483 166.739 14.4625C166.739 14.3349 166.691 14.1929 166.624 14.083C166.111 13.2408 165.588 12.4042 165.066 11.5676C165.032 11.5146 164.979 11.4742 164.901 11.394C164.894 11.5304 164.887 11.6125 164.887 11.6945C164.886 15.6728 164.884 19.6517 164.893 23.63C164.893 23.7967 164.954 23.981 165.04 24.1262C165.364 24.6781 165.71 25.2166 166.048 25.7602C166.251 26.086 166.454 26.4112 166.656 26.7363ZM167.541 15.5503C167.518 15.5579 167.496 15.5648 167.474 15.5724C167.468 15.6532 167.46 15.7341 167.46 15.8149C167.459 19.8045 167.458 23.7941 167.465 27.7838C167.465 27.9404 167.521 28.1152 167.602 28.2497C168.097 29.0667 168.606 29.8749 169.112 30.6849C169.153 30.7493 169.209 30.8036 169.292 30.9053C169.302 30.7859 169.312 30.7266 169.312 30.6666C169.313 26.6454 169.313 22.6242 169.311 18.6036C169.311 18.5127 169.303 18.4073 169.258 18.3334C168.69 17.4028 168.115 16.4772 167.541 15.5503ZM171.834 35.0168C171.847 34.8583 171.86 34.7705 171.86 34.6821C171.861 30.7007 171.862 26.7193 171.856 22.7379C171.856 22.5996 171.813 22.4443 171.742 22.3268C171.241 21.501 170.728 20.6821 170.216 19.8626C170.173 19.7931 170.116 19.7325 170.022 19.6145C170.012 19.7609 170.005 19.8228 170.005 19.8847C170.004 23.887 170.003 27.8892 170.01 31.8921C170.01 32.0392 170.065 32.2027 170.142 32.3303C170.632 33.1384 171.135 33.9384 171.636 34.7402C171.683 34.8154 171.74 34.8854 171.834 35.0168ZM161.57 18.5582C161.594 18.55 161.618 18.5418 161.642 18.5336C161.647 18.4736 161.656 18.4136 161.656 18.3536C161.657 14.3324 161.658 10.3118 161.652 6.29063C161.652 6.16246 161.613 6.01788 161.546 5.90802C161.117 5.19836 160.672 4.4988 160.241 3.79103C160.138 3.62119 160.023 3.55048 159.8 3.65276C159.8 3.77714 159.8 3.91099 159.8 4.04547C159.8 7.63608 159.812 11.2267 159.789 14.8167C159.784 15.4417 159.908 15.9733 160.266 16.4885C160.729 17.1578 161.137 17.8668 161.57 18.5582ZM172.646 23.7758C172.623 23.7821 172.601 23.7878 172.579 23.7941C172.573 23.8554 172.563 23.9173 172.563 23.9785C172.562 27.9896 172.561 32.0013 172.567 36.0124C172.567 36.1494 172.618 36.3022 172.69 36.4203C173.186 37.2367 173.694 38.0461 174.199 38.8568C174.244 38.9281 174.3 38.9925 174.351 39.0601C174.374 39.0519 174.397 39.0437 174.419 39.0354C174.419 38.9136 174.419 38.7911 174.419 38.6693C174.419 34.9732 174.406 31.2765 174.431 27.5805C174.435 26.9232 174.308 26.3619 173.93 25.8202C173.47 25.1617 173.071 24.4596 172.646 23.7758ZM175.129 27.8242C175.12 27.9864 175.11 28.0761 175.11 28.1664C175.11 31.7785 175.11 35.3905 175.11 39.0026C175.11 39.0759 175.095 39.156 175.119 39.2211C175.139 39.2766 175.205 39.3537 175.252 39.3543C175.815 39.3638 176.379 39.36 176.94 39.36C176.952 39.2703 176.962 39.2299 176.962 39.1889C176.964 36.4172 176.965 33.6448 176.959 30.8731C176.959 30.7569 176.906 30.6281 176.843 30.5265C176.343 29.7126 175.835 28.9038 175.328 28.0944C175.281 28.0199 175.223 27.9517 175.129 27.8242ZM159.001 14.4328C159.018 14.4271 159.037 14.4221 159.054 14.4164C159.054 10.8176 159.054 7.21938 159.054 3.60036C158.532 3.60036 158.038 3.61298 157.545 3.59531C157.295 3.58647 157.224 3.66665 157.225 3.91541C157.233 6.39228 157.229 8.86915 157.233 11.346C157.233 11.4571 157.243 11.5859 157.298 11.6769C157.86 12.5993 158.432 13.5148 159.001 14.4328Z" fill="#2F91C9"/>
</g>
<defs>
<clipPath id="clip0">
<rect width="219" height="41" fill="white" transform="translate(0.532227 0.94165)"/>
</clipPath>
</defs>
</svg>
