<svg width="240" height="99" viewBox="0 0 240 99" fill="none" xmlns="http://www.w3.org/2000/svg">
<g clip-path="url(#clip0)">
<path d="M46.1288 78.7377C46.1288 80.6256 46.1288 82.3339 46.1288 84.1535C44.1257 84.2038 42.3482 83.6236 40.6537 82.7883C37.4939 81.2291 34.9458 78.9335 32.7803 76.1833C31.5874 74.6672 31.4413 72.8691 31.2879 71.0692C31.1273 69.1903 31.1886 67.2682 30.806 65.4378C30.4325 63.6594 29.9254 61.7733 28.9437 60.2788C25.0746 54.3869 23.6111 47.7441 22.2234 41.008C20.6769 33.5012 18.856 26.0519 17.1543 18.5775C17.1038 18.3529 17.046 18.1284 16.9919 17.9038C17.0911 17.841 17.1922 17.7781 17.2914 17.7134C17.7841 18.3619 18.3634 18.9655 18.7586 19.6696C21.1442 23.9359 22.559 28.556 23.6797 33.2785C24.7588 37.8267 25.6918 42.4163 26.946 46.916C27.5433 49.0572 28.765 51.0224 29.6493 53.09C30.3874 54.818 31.1651 56.5443 31.7119 58.337C32.4897 60.8931 34.6733 63.1008 37.0373 63.4277C39.3201 63.7439 42.6676 62.0446 43.8767 59.9554C45.2536 57.5771 44.3351 54.5378 41.8411 53.3828C39.995 52.5277 38.1579 51.6906 37.1546 49.765C37.003 49.474 36.7233 49.1812 36.7269 48.8938C36.7377 48.2094 36.8857 47.5286 36.9777 46.846C37.6039 47.0005 38.3817 46.9735 38.8238 47.3454C40.0564 48.3782 41.26 48.7447 42.7849 48.0172C43.3028 47.7711 43.9994 47.7352 44.5823 47.8178C45.6668 47.9705 46.2461 48.5148 46.2263 49.8009C46.1487 54.9294 46.1703 60.0596 46.2136 65.1899C46.2227 66.2497 45.943 66.5641 44.8638 66.3467C43.4147 66.0539 41.9368 65.7935 40.4642 65.7485C36.6258 65.6318 34.159 67.3616 33.1845 71.0584C32.1865 74.8468 31.988 74.2666 35.2453 75.9121C38.1778 77.3922 41.3033 78.2598 44.5805 78.5742C45.0695 78.6191 45.555 78.6766 46.1288 78.7377Z" fill="#2F91C9"/>
<path d="M165.97 25.9818C165.97 23.8173 166.01 21.8557 165.952 19.8959C165.927 19.0391 166.13 18.6852 167.069 18.5846C170.377 18.2307 170.373 18.1876 170.373 21.4911C170.375 28.9942 170.373 36.4956 170.375 43.9988C170.375 44.606 170.375 45.2131 170.375 45.9981C168.828 45.8077 167.121 46.9052 166.367 44.8772C164.781 45.3963 163.348 46.131 161.846 46.3071C157.29 46.8442 153.832 44.2611 152.816 39.7775C152.28 37.4117 152.356 35.046 153.067 32.7324C154.361 28.5182 157.69 26.077 162.191 25.9854C163.378 25.9621 164.566 25.9818 165.97 25.9818ZM165.964 35.7017C165.966 35.7017 165.968 35.7017 165.97 35.7017C165.97 34.2682 166.008 32.8347 165.945 31.4049C165.928 31.042 165.652 30.4331 165.398 30.3774C163.452 29.9499 161.471 29.7092 159.657 30.8283C157.315 32.2761 156.886 34.5628 157.133 37.0489C157.569 41.4498 161.231 43.3934 165.154 41.2972C165.546 41.0888 165.896 40.4565 165.928 39.9966C166.028 38.5704 165.964 37.1351 165.964 35.7017Z" fill="#2F91C9"/>
<path d="M111.101 27.5913C114.424 26.1615 117.686 25.5004 121.119 26.2836C123.977 26.9357 125.632 29.005 125.684 31.9348C125.72 34.0275 125.766 36.1256 125.674 38.2147C125.578 40.3864 125.888 42.2133 128.689 42.6677C128.003 43.9162 127.466 45.0065 126.809 46.0179C126.655 46.255 126.042 46.3933 125.731 46.2927C124.843 46.0071 123.9 45.7107 123.171 45.1646C122.433 44.6095 121.971 44.4766 121.166 45.0514C118.995 46.5999 116.562 46.7292 114.079 45.9496C111.489 45.1359 110.149 42.8384 110.345 39.7128C110.529 36.7866 111.675 35.3442 114.638 34.8879C116.494 34.6023 118.415 34.676 120.307 34.7137C121.234 34.7334 121.444 34.4101 121.397 33.5784C121.278 31.5091 120.02 30.0882 117.95 30.1906C116.048 30.284 114.164 30.7456 112.085 31.0744C111.814 30.1223 111.477 28.9242 111.101 27.5913ZM121.382 39.05C121.568 38.2057 121.135 37.9003 120.231 37.9776C119.09 38.0764 117.932 38.0315 116.806 38.2075C115.368 38.432 114.716 39.208 114.763 40.3685C114.812 41.5935 115.7 42.5348 117.006 42.745C119.428 43.1366 121.288 41.6079 121.382 39.05Z" fill="#2F91C9"/>
<path d="M178.92 37.8895C179.227 39.5781 180.026 40.8103 181.428 41.3349C182.695 41.8091 184.128 42.0893 185.474 42.0444C186.871 41.9977 188.251 41.4588 189.771 41.1031C189.771 42.3246 189.802 43.5443 189.746 44.7604C189.735 45.0065 189.442 45.3586 189.199 45.4556C184.886 47.1585 178.573 46.7418 175.551 42.1001C172.967 38.1303 173.665 31.4498 177.148 28.2236C179.799 25.7699 182.919 25.319 186.223 26.589C189.498 27.8482 190.554 30.6432 190.8 33.8532C190.872 34.7909 190.763 35.743 190.819 36.6824C190.87 37.5339 190.565 37.8285 189.695 37.8177C186.481 37.7764 183.265 37.7997 180.051 37.8051C179.732 37.8087 179.413 37.8536 178.92 37.8895ZM186.696 34.2646C186.418 31.6043 185.057 30.1816 182.966 30.2103C180.833 30.2391 179.079 31.9689 178.943 34.2646C181.502 34.2646 184.059 34.2646 186.696 34.2646Z" fill="#2F91C9"/>
<path d="M83.7168 46.0358C83.7168 37.6417 83.7168 29.3804 83.7168 21.0276C88.8436 21.0276 93.9235 21.0276 99.0738 21.0276C99.0738 22.4251 99.0738 23.758 99.0738 25.2543C97.3053 25.2543 95.5892 25.2543 93.8748 25.2543C92.2687 25.2543 90.6609 25.283 89.0548 25.2453C88.3113 25.2274 88.0189 25.4824 88.0406 26.2369C88.0803 27.6308 88.0929 29.0266 88.0406 30.4187C88.0081 31.2684 88.2986 31.5719 89.1685 31.5576C91.8862 31.5144 94.6093 31.6061 97.3252 31.5126C98.5613 31.4713 98.9223 31.8917 98.8013 33.0485C98.7129 33.8946 98.7833 34.7568 98.7833 35.6999C98.3592 35.7412 98.0488 35.7986 97.7366 35.8004C95.1001 35.8094 92.4636 35.8112 89.8271 35.8076C88.0514 35.8058 88.0532 35.8004 88.0532 37.6273C88.055 39.9643 87.9883 42.3049 88.0803 44.6383C88.1272 45.8167 87.7013 46.1436 86.6023 46.0502C85.6694 45.9729 84.7256 46.0358 83.7168 46.0358Z" fill="#2F91C9"/>
<path d="M131.304 26.3213C132.605 26.3213 133.754 26.3213 134.917 26.3213C135.095 26.765 135.259 27.1764 135.447 27.6416C136.51 27.2195 137.503 26.7183 138.553 26.4291C141.352 25.6585 144.113 25.6046 146.589 27.4225C148.119 28.547 148.85 30.196 148.886 32.0121C148.974 36.6034 148.915 41.2002 148.915 45.9137C147.469 45.9137 146.065 45.9137 144.517 45.9137C144.517 45.1754 144.517 44.4874 144.517 43.8012C144.517 40.9271 144.394 38.0477 144.544 35.1825C144.786 30.557 141.482 29.8026 138.325 30.3523C138.123 30.3882 137.927 30.4565 137.728 30.5121C135.703 31.078 135.624 31.1804 135.624 33.3C135.624 37.0345 135.628 40.7709 135.629 44.5054C135.629 44.9509 135.629 45.3946 135.629 45.9352C134.144 45.9352 132.767 45.9352 131.306 45.9352C131.304 39.4182 131.304 32.9228 131.304 26.3213Z" fill="#2F91C9"/>
<path d="M26.1972 81.3297C23.5481 79.3376 20.8051 77.4551 18.2714 75.3264C13.9531 71.6979 12.457 66.8586 13.0526 61.4104C13.3485 58.6998 13.9639 55.9964 14.7254 53.372C15.9309 49.2099 17.4486 45.1341 17.454 40.7116C17.5875 40.6756 17.721 40.6397 17.8546 40.6056C18.2426 41.5379 18.7569 42.4378 18.9933 43.406C19.9569 47.3328 19.4047 51.2308 18.5457 55.0946C17.7102 58.8633 17.4251 62.6194 18.3869 66.415C18.9933 68.813 20.1681 70.8482 21.7309 72.7685C23.2738 74.6636 24.602 76.7437 25.894 78.8239C26.3145 79.5011 26.3253 80.4298 26.5238 81.2453C26.4174 81.2704 26.3073 81.2992 26.1972 81.3297Z" fill="#2F91C9"/>
<path d="M220.559 30.3702C218.731 30.2948 217.156 30.1439 215.586 30.1996C214.759 30.2283 213.801 30.7025 213.945 31.6707C214.037 32.2833 214.714 32.9695 215.31 33.3072C216.226 33.8281 217.311 34.0491 218.303 34.446C220.608 35.3693 222.001 36.9501 222.053 39.5511C222.109 42.2833 221.046 44.3778 218.531 45.5239C215.851 46.7454 213.097 46.6681 210.36 45.5796C209.605 45.2796 209.28 44.8269 209.342 43.9916C209.416 43.018 209.358 42.0336 209.358 40.8571C210.098 41.1247 210.674 41.4301 211.285 41.5361C212.648 41.7732 214.028 42.0426 215.402 42.0462C216.528 42.048 217.491 41.4355 217.686 40.1835C217.885 38.9027 217.08 38.2021 216.008 37.7746C214.824 37.3022 213.61 36.9106 212.422 36.4489C210.49 35.6999 209.477 34.2431 209.382 32.2132C209.279 30.0325 209.907 28.114 211.942 26.9824C214.525 25.5471 217.26 25.7824 219.989 26.501C220.222 26.562 220.521 26.9339 220.534 27.1728C220.592 28.308 220.559 29.4469 220.559 30.3702Z" fill="#2F91C9"/>
<path d="M7.08097 65.6802C7.67468 62.5636 6.16424 59.9715 5.2836 57.2286C3.24621 50.8786 4.8902 45.1789 8.586 39.9086C9.57492 38.4985 10.8057 37.259 11.809 35.8597C13.3718 33.6808 14.8389 31.4318 16.2754 29.3157C16.9701 32.3102 16.6995 35.3855 14.8173 38.2955C13.527 40.2912 12.345 42.3641 11.2225 44.4586C9.00467 48.6009 8.8188 53.0791 9.12016 57.6435C9.23024 59.3105 9.1725 61.0008 9.02993 62.6678C8.92707 63.9055 8.38028 65.0084 7.08097 65.6802Z" fill="#2F91C9"/>
<path d="M194.593 26.2782C195.311 26.2782 195.886 26.3016 196.459 26.2728C197.556 26.2189 198.682 26.0842 198.669 27.9218C201.528 25.6477 204.466 25.5507 207.692 26.6249C207.225 28.1428 206.784 29.5691 206.313 31.0977C204.235 30.0523 202.237 29.8475 200.189 30.8588C199.286 31.3043 198.85 31.845 198.871 32.9353C198.945 36.7884 198.9 40.6451 198.9 44.5C198.9 44.9437 198.9 45.3892 198.9 45.9334C197.433 45.9334 196.058 45.9334 194.593 45.9334C194.593 39.4236 194.593 32.9282 194.593 26.2782Z" fill="#2F91C9"/>
<path d="M102.06 46.0358C102.06 45.4197 102.06 45.0155 102.06 44.6096C102.06 36.5298 102.087 28.4482 102.033 20.3684C102.026 19.1738 102.396 18.7086 103.551 18.8235C103.592 18.8271 103.634 18.8218 103.673 18.82C106.465 18.626 106.467 18.6242 106.467 21.4839C106.467 29.1954 106.444 36.907 106.49 44.6168C106.498 45.7448 106.194 46.167 105.045 46.0538C104.114 45.964 103.168 46.0358 102.06 46.0358Z" fill="#2F91C9"/>
<path d="M13.3484 19.2403C14.5954 19.5223 15.6439 20.9468 15.1819 22.5599C14.8065 23.864 14.2183 25.24 13.3322 26.2387C11.5673 28.2254 9.49924 29.9409 7.62427 31.8342C6.58843 32.8797 5.58328 33.9862 4.74414 35.1897C3.41957 37.0902 2.72119 39.2117 3.22287 41.6008C0.815541 40.7457 -0.593846 37.5249 0.24529 34.8359C0.902162 32.727 2.34223 31.1552 3.91944 29.684C6.17157 27.5859 8.50311 25.5615 10.6217 23.3359C11.7081 22.1916 12.4082 20.6827 13.3484 19.2403Z" fill="#2F91C9"/>
<path d="M109.405 74.0008C107.871 75.3246 106.187 75.8941 104.229 75.2959C102.564 74.7876 101.705 73.5086 101.753 71.6404C101.8 69.8369 102.571 68.7609 104.37 68.4376C105.808 68.1789 107.299 68.2023 108.927 68.0873C109.019 67.0042 109.298 65.6857 108.31 64.8683C106.644 63.4924 104.805 64.4516 103.058 64.9258C102.315 63.7097 102.351 63.4726 103.637 63.1295C104.699 62.8475 105.808 62.623 106.902 62.605C109.246 62.5673 110.488 63.7546 110.627 66.0988C110.715 67.6095 110.675 69.1292 110.672 70.6435C110.668 71.9727 110.868 73.1996 112.33 73.9325C111.984 74.4876 111.691 74.9582 111.289 75.6031C110.643 75.0534 110.071 74.5666 109.405 74.0008ZM107.039 69.7417C106.308 69.8333 105.554 69.8405 104.85 70.0327C103.486 70.4064 103.026 71.9763 103.899 73.0703C104.996 74.4427 107.801 74.0277 108.634 72.3697C109.544 70.5662 109.028 69.7292 107.039 69.7417Z" fill="#2F91C9"/>
<path d="M211.464 64.8899C210.893 64.0564 210.832 63.3792 212.047 63.142C213.131 62.9301 214.223 62.6355 215.315 62.6121C217.846 62.56 219.086 63.8336 219.142 66.3862C219.171 67.6975 219.14 69.0106 219.157 70.3237C219.182 72.4254 219.27 72.6248 220.725 74.0762C220.441 74.5271 220.146 74.9959 219.765 75.6048C219.115 75.0408 218.568 74.5666 218.215 74.2612C216.811 74.7031 215.531 75.3749 214.212 75.4629C211.5 75.6462 209.93 73.7403 210.3 71.0512C210.487 69.6824 211.262 68.7304 212.608 68.495C213.891 68.2705 215.219 68.2436 216.529 68.2346C217.215 68.231 217.475 68.0657 217.498 67.3526C217.581 64.9168 216.69 64.0133 214.243 64.2755C213.317 64.3779 212.413 64.6761 211.464 64.8899ZM215.389 69.7776C214.862 69.8315 214.198 69.8513 213.555 69.9734C212.615 70.1512 211.978 70.6614 211.971 71.7104C211.963 72.8008 212.51 73.5067 213.541 73.7906C215.724 74.3905 217.576 72.9337 217.446 70.6758C217.428 70.3632 216.962 69.9788 216.614 69.8099C216.314 69.6609 215.889 69.7776 215.389 69.7776Z" fill="#2F91C9"/>
<path d="M180.789 75.1468C180.16 75.1468 179.725 75.1468 179.234 75.1468C179.196 74.8863 179.144 74.6905 179.144 74.4948C179.142 69.3645 179.16 64.2342 179.134 59.1022C179.129 57.9076 179.882 58.0657 180.78 58.0873C180.78 59.9015 180.78 61.6889 180.78 63.7241C181.466 63.4385 181.935 63.2373 182.412 63.0469C185.907 61.6547 188.603 63.4133 188.643 67.1335C188.67 69.7543 188.648 72.3751 188.648 75.136C188.111 75.1648 187.649 75.1917 187.01 75.2258C187.01 73.2804 187.026 71.4464 187.003 69.6124C186.988 68.549 187.003 67.4712 186.838 66.4239C186.589 64.8432 185.552 64.0636 183.951 64.2468C183.191 64.333 182.453 64.6564 181.722 64.9204C181.022 65.1737 180.76 65.6856 180.775 66.4527C180.816 68.9154 180.791 71.3782 180.791 73.8409C180.789 74.2451 180.789 74.6474 180.789 75.1468Z" fill="#2F91C9"/>
<path d="M131.401 73.1619C131.827 74.3816 131.307 74.8774 130.335 75.1881C126.366 76.4599 122.977 74.4355 122.519 70.3219C122.36 68.8938 122.542 67.3688 122.876 65.9587C123.335 64.0223 124.762 62.9588 126.747 62.6409C129.526 62.1972 131.313 63.5175 131.656 66.3C132.036 69.3824 132.036 69.3824 129.026 69.3878C127.749 69.3896 126.467 69.4327 125.192 69.3806C124.145 69.3375 124.022 69.7938 124.26 70.6668C124.991 73.3343 127.258 74.5055 130.073 73.6253C130.501 73.4942 130.918 73.3325 131.401 73.1619ZM124.026 67.5035C124.129 67.6221 124.233 67.7388 124.336 67.8574C126.043 67.8574 127.752 67.8771 129.458 67.8304C129.663 67.825 130.039 67.446 130.028 67.2574C129.965 66.1832 129.799 65.0677 128.729 64.5126C127.705 63.9827 126.549 64.0492 125.749 64.8755C125.033 65.6156 124.589 66.6179 124.026 67.5035Z" fill="#2F91C9"/>
<path d="M193.454 69.3914C193.351 73.1349 195.593 74.2594 200.658 73.2481C201.001 74.1876 200.723 74.7588 199.747 75.1163C195.761 76.5785 192.133 74.4804 191.733 70.286C191.592 68.8166 191.731 67.2287 192.151 65.815C192.965 63.0756 196.161 61.7985 198.787 62.9571C200.146 63.557 200.662 64.7139 200.851 66.0898C201.304 69.3896 201.308 69.3878 198.056 69.3914C196.54 69.3932 195.024 69.3914 193.454 69.3914ZM193.434 67.8592C195.277 67.8592 196.948 67.8789 198.617 67.834C198.832 67.8286 199.252 67.4029 199.216 67.3005C198.886 66.3736 198.7 65.1899 198.018 64.6582C197.457 64.2199 196.186 64.3223 195.398 64.6204C194.126 65.1001 193.638 66.3215 193.434 67.8592Z" fill="#2F91C9"/>
<path d="M152.412 69.0878C152.228 72.9714 149.814 75.6587 146.435 75.4935C145.604 75.4521 144.703 75.1989 143.985 74.7839C140.049 72.517 140.148 65.5042 144.108 63.2786C147.027 61.6367 150.566 62.9678 151.777 66.2281C152.113 67.1352 152.207 68.1322 152.412 69.0878ZM150.766 69.1112C150.483 68.107 150.314 67.1316 149.933 66.2461C149.364 64.9222 148.258 64.2899 146.802 64.2396C145.34 64.1875 144.263 64.8144 143.51 66.0233C142.429 67.7586 142.583 70.8015 143.81 72.4505C145.385 74.5648 148.684 74.3851 149.895 72.0427C150.351 71.159 150.48 70.1099 150.766 69.1112Z" fill="#2F91C9"/>
<path d="M45.0862 0C56.5652 32.9479 68.0442 65.8958 79.5214 98.8437C79.3716 98.8958 79.22 98.9479 79.0703 99C67.5912 66.0521 56.1122 33.1042 44.635 0.156279C44.7848 0.104186 44.9346 0.052093 45.0862 0Z" fill="#2F91C9"/>
<path d="M2.88017 25.3909C1.75049 21.324 3.03536 17.8176 6.28724 15.4465C7.98897 14.2052 9.67987 12.946 11.3257 11.7299C12.2929 13.952 11.4917 17.2823 9.18541 18.9511C6.77628 20.6953 4.41407 22.4413 2.88017 25.3909Z" fill="#2F91C9"/>
<path d="M82.3455 73.5966C83.7982 73.6846 85.1462 73.8553 86.4889 73.8229C87.9704 73.787 88.999 72.9876 89.2264 71.9404C89.5206 70.595 89.129 69.7633 87.6853 68.919C86.5502 68.2562 85.3646 67.6795 84.2097 67.049C82.5097 66.1221 82.1687 64.5827 82.3708 62.8385C82.553 61.2631 83.5853 60.0812 85.296 59.7596C86.404 59.5512 87.5824 59.5566 88.7139 59.6554C89.8508 59.7542 89.8418 59.8566 89.6848 61.22C88.7681 61.1733 87.8279 61.0063 86.9202 61.1122C86.0991 61.2074 85.1751 61.4212 84.5417 61.9026C83.4229 62.7541 83.6376 64.5647 84.8972 65.3713C86.0359 66.0988 87.2648 66.6934 88.4685 67.3167C90.1612 68.1933 91.1591 69.4597 90.8812 71.4572C90.5997 73.4798 89.3798 74.7857 87.4489 75.1845C86.1604 75.4504 84.7745 75.3192 83.4355 75.2546C82.3834 75.2061 82.0351 74.5594 82.3455 73.5966Z" fill="#2F91C9"/>
<path d="M25.8036 22.9838C28.1207 22.5473 30.261 22.3084 32.4373 22.7934C36.3587 23.6682 38.84 28.1643 37.4 31.9043C37.3278 32.0929 36.7521 32.0911 36.411 32.1791C36.2919 31.6923 35.9382 31.1031 36.0989 30.7402C36.4923 29.8475 35.9491 29.5906 35.3644 29.3984C34.7075 29.1811 34.0073 29.0266 33.318 28.9835C30.6345 28.8182 28.6369 27.6201 27.3213 25.2687C26.9026 24.5214 26.3757 23.837 25.8036 22.9838ZM34.8753 25.716C34.7274 25.61 34.5794 25.5058 34.4332 25.3998C33.7312 25.601 33.0383 25.8597 32.3218 25.971C32.0764 26.0088 31.7714 25.6729 31.4935 25.5058C31.674 25.2705 31.8166 24.9759 32.0493 24.816C32.2298 24.6921 32.5727 24.8052 32.7567 24.6831C32.9553 24.5502 33.1411 24.2753 33.161 24.0472C33.1736 23.8999 32.9083 23.6466 32.7188 23.5784C31.8978 23.282 29.6059 24.7154 29.7304 25.5471C29.8279 26.1902 30.2538 26.9393 30.7717 27.3309C31.6596 28.0027 32.8253 28.1518 33.7673 27.4728C34.2888 27.0991 34.5162 26.3159 34.8753 25.716Z" fill="#2F91C9"/>
<path d="M161.993 58.6962C161.979 59.7956 161.61 60.1063 160.526 59.853C158.331 59.3411 157.334 60.3398 157.527 62.914C158.138 62.914 158.786 62.8439 159.403 62.9445C159.69 62.9912 160.163 63.4241 160.129 63.5948C160.062 63.9181 159.725 64.3887 159.44 64.4354C157.366 64.7695 157.362 64.7408 157.362 66.8604C157.362 69.5962 157.362 72.332 157.362 75.0319C155.729 75.375 155.677 75.3319 155.681 73.8499C155.686 71.4321 155.69 69.0124 155.69 66.5946C155.69 64.6402 155.688 64.6402 153.766 64.3402C153.746 63.9396 153.724 63.5121 153.699 63.0199C154.39 62.9427 154.984 62.8762 155.563 62.8116C155.937 57.7819 158.669 57.4837 161.993 58.6962Z" fill="#2F91C9"/>
<path d="M95.1255 60.5769C95.3167 61.3475 95.2734 62.3894 95.7571 62.772C96.2443 63.16 97.2549 62.8906 98.0363 62.9175C98.2384 62.9247 98.4387 62.9624 98.6282 62.9858C98.9837 64.3653 98.9277 64.4462 97.6284 64.4767C95.3294 64.5324 95.3258 64.5324 95.3312 66.7796C95.3348 68.1735 95.3077 69.571 95.3763 70.9632C95.5044 73.5732 96.7261 74.3744 99.2291 73.5552C99.4186 73.4924 99.6063 73.4223 99.9004 73.3199C100.063 73.7798 100.209 74.1875 100.346 74.5773C97.7981 76.6018 94.3423 75.4935 93.8676 72.3733C93.5302 70.1638 93.6962 67.8789 93.6583 65.6263C93.6475 65.0192 93.689 64.4767 92.8156 64.439C92.6207 64.43 92.3049 63.9468 92.3049 63.6827C92.3049 63.4259 92.6261 62.9606 92.8282 62.948C93.5843 62.8995 93.6637 62.4936 93.671 61.881C93.6872 60.5356 93.7648 60.4907 95.1255 60.5769Z" fill="#2F91C9"/>
<path d="M239.607 73.329C239.765 73.8373 239.886 74.2217 240 74.5882C237.502 76.5695 234.081 75.5259 233.568 72.4865C233.206 70.3291 233.375 68.0837 233.307 65.8779C233.287 65.2096 233.5 64.4211 232.363 64.4139C232.213 64.4121 231.959 63.8588 231.957 63.5606C231.955 63.3451 232.257 63.0756 232.488 62.9265C232.67 62.808 232.948 62.8349 233.206 62.7918C233.491 61.8254 232.827 60.1728 234.66 60.5177C234.998 61.3763 235.093 62.4936 235.644 62.799C236.33 63.1798 237.391 62.8906 238.3 62.8906C238.681 64.0187 238.49 64.5109 237.275 64.5055C234.994 64.4929 234.99 64.5414 234.994 66.7994C234.996 68.1502 234.958 69.5064 235.034 70.8537C235.187 73.6236 236.416 74.4211 239.02 73.505C239.168 73.4511 239.323 73.4134 239.607 73.329Z" fill="#2F91C9"/>
<path d="M168.52 63.0702C169.172 62.9319 169.524 62.8565 169.89 62.7792C170.2 61.8398 169.536 60.1764 171.494 60.5446C171.687 61.3332 171.639 62.3733 172.122 62.7613C172.606 63.1511 173.616 62.887 174.398 62.9176C174.598 62.9248 174.798 62.9625 174.979 62.984C175.334 64.3546 175.266 64.4516 173.972 64.4839C171.705 64.5396 171.696 64.5396 171.707 66.812C171.714 68.2454 171.696 69.6825 171.792 71.1123C171.96 73.6361 173.212 74.4032 175.627 73.5463C175.813 73.4799 176 73.4242 176.293 73.329C176.45 73.796 176.589 74.2092 176.72 74.6008C174.048 76.6144 170.688 75.4396 170.22 72.2332C169.921 70.1818 170.076 68.0658 170.014 65.9803C169.995 65.2869 170.236 64.4516 169.04 64.3851C168.86 64.3744 168.724 63.6127 168.52 63.0702Z" fill="#2F91C9"/>
<path d="M113.153 63.0738C113.991 62.9301 114.346 62.8691 114.734 62.8026C115.08 61.8972 114.267 60.162 116.331 60.5285C116.995 61.1841 115.768 62.5852 117.186 62.8655C118.047 63.0361 118.969 62.8978 119.819 62.8978C120.258 64.166 119.814 64.5073 118.717 64.5019C116.508 64.4911 116.503 64.5306 116.51 66.7581C116.513 68.1502 116.474 69.5477 116.564 70.9363C116.739 73.6361 117.964 74.4121 120.507 73.5122C120.66 73.4583 120.819 73.4206 121.108 73.3362C121.265 73.7924 121.415 74.2307 121.561 74.6528C118.101 76.7276 115.008 75.1181 114.859 71.2165C114.786 69.334 114.84 67.4461 114.85 65.5617C114.851 65.0085 114.896 64.5576 114.099 64.4229C113.774 64.369 113.557 63.6846 113.153 63.0738Z" fill="#2F91C9"/>
<path d="M225.588 63.8534C226.817 62.6912 228.333 62.1218 230.177 63.0469C230.055 63.9774 229.856 64.5576 228.647 64.3151C226.747 63.9325 225.374 65.1971 225.372 67.1227C225.372 69.7741 225.372 72.4254 225.372 75.145C224.8 75.145 224.365 75.145 223.722 75.145C223.722 74.6421 223.722 74.1696 223.722 73.6972C223.719 70.5824 223.701 67.4694 223.73 64.3546C223.735 63.8804 223.968 63.4098 224.096 62.9373C224.529 63.2032 224.962 63.469 225.588 63.8534Z" fill="#2F91C9"/>
</g>
<defs>
<clipPath id="clip0">
<rect width="240" height="99" fill="white"/>
</clipPath>
</defs>
</svg>
