<svg width="171" height="121" viewBox="0 0 171 121" fill="none" xmlns="http://www.w3.org/2000/svg">
<path d="M0 112.037C0 77.6784 0 43.3216 0 8.96265C1.67063 4.33517 4.85279 1.32398 9.60667 0C60.2029 0 110.797 0 161.393 0C166.382 1.4164 169.654 4.54795 171 9.60314C171 43.7472 171 77.8933 171 112.037C169.291 116.624 166.216 119.747 161.393 121C110.584 121 59.7751 121 8.96594 121C4.56037 119.429 1.54378 116.469 0 112.037ZM42.5635 53.2729C41.2025 50.7475 40.0823 48.6669 38.8545 46.3865C34.0684 50.5025 28.7835 52.3681 22.9782 53.4083C14.0165 55.016 9.07989 62.0572 11.789 69.6679C12.8598 72.6727 15.7753 75.0197 18.0243 77.8912C18.2028 77.6376 17.8695 78.0567 17.5943 78.5102C14.3089 83.905 16.6655 88.6722 22.9395 89.0891C24.9348 89.2224 26.9709 88.9021 28.9748 88.6679C30.7702 88.4572 32.587 87.6985 34.3135 87.8941C35.6874 88.0489 37.2871 89.0182 38.1149 90.1272C38.6288 90.815 38.2848 92.7408 37.6397 93.5898C34.4877 97.7466 24.9369 97.4779 22.0106 93.19C19.5832 93.6091 17.0998 94.0368 14.4165 94.4989C14.9497 98.3806 16.573 101.089 20.1422 102.454C26.5602 104.906 40.3682 101.824 45.0576 96.8675C49.805 91.8467 48.2849 83.9544 41.7658 81.6933C38.9922 80.7304 35.724 81.0077 32.6837 81.0528C30.3659 81.0872 28.0589 81.8051 25.7389 81.8567C25.0745 81.8717 24.3843 80.6165 23.7049 79.9438C24.3564 79.2882 24.9004 78.3253 25.6852 78.0459C26.9645 77.5924 28.4201 77.6612 29.7725 77.3775C38.0074 75.6495 42.8043 68.9586 40.136 62.1775C39.1276 59.6156 36.4916 57.6919 34.8984 55.8263C36.8764 55.1686 39.5576 54.2745 42.5635 53.2729ZM78.1434 65.1801C77.1716 61.709 76.6147 58.4528 75.359 55.4953C72.6477 49.1205 67.2402 46.1909 60.1771 46.7927C53.5634 47.3559 48.4139 51.7491 46.7433 58.197C45.4962 63.0136 46.0101 67.755 47.642 72.3309C49.7018 78.104 53.4344 82.336 59.8546 83.1721C67.1951 84.1264 73.411 81.8438 78.5175 76.0858C76.849 74.5017 75.3999 73.1262 73.9765 71.7742C64.4515 78.3812 58.3882 77.4656 56.8703 69.0274C63.727 67.7873 70.5922 66.545 78.1434 65.1801ZM96.3312 76.6962C95.0088 69.1198 93.7639 61.9949 92.5212 54.8699C91.96 51.6566 94.667 47.8459 97.8685 47.3365C100.666 46.8916 101.788 48.1038 102.551 52.3853C103.876 59.8047 105.205 67.2241 106.581 74.9144C109.681 74.3642 112.567 73.8526 115.852 73.2702C114.138 64.0947 112.734 55.0676 110.69 46.1888C109.432 40.7231 104.312 38.1482 98.9005 40.1771C95.7227 41.3679 93.0329 43.8632 90.1776 45.7331C89.969 45.2302 89.5218 44.1598 88.9477 42.7778C86.3697 43.2571 83.8304 43.7278 81.0783 44.2372C83.1317 55.8005 85.1141 66.9576 87.1352 78.3296C90.3539 77.7558 93.149 77.2593 96.3312 76.6962ZM140.507 61.4231C135.865 63.912 133.842 63.839 133.122 60.8321C131.677 54.7925 130.713 48.6369 129.544 42.4855C132.124 41.9439 134.182 41.514 136.119 41.1078C136.119 38.8274 136.119 36.7769 136.119 34.5481C133.42 34.9823 131.034 35.3648 128.492 35.7732C127.942 32.949 127.424 30.2796 126.841 27.2813C123.67 28.2678 120.804 29.1598 117.914 30.0582C118.348 32.6846 118.724 34.9543 119.118 37.3293C117.368 37.7291 115.85 38.0773 114.123 38.4727C114.568 40.7403 114.964 42.7499 115.37 44.8175C117.183 44.5467 118.621 44.3339 120.32 44.0803C120.866 47.1925 121.363 50.1048 121.896 53.0129C122.451 56.0434 122.988 59.0804 123.631 62.0937C124.562 66.4504 126.704 69.9559 131.397 70.807C136.396 71.7141 140.666 69.9108 144.612 66.661C143.079 64.703 141.838 63.1232 140.507 61.4231ZM159.394 60.701C159.297 57.6747 156.474 55.0311 153.498 55.1772C150.611 55.3191 148.005 58.0079 148.026 60.8235C148.048 63.8282 150.778 66.5192 153.797 66.5106C156.768 66.502 159.488 63.6799 159.394 60.701ZM150.017 43.3195C153.01 43.3861 155.67 40.7252 155.685 37.6517C155.7 34.4514 153.275 32.0162 150.077 32.0205C147.052 32.0248 144.638 34.3933 144.567 37.4303C144.491 40.5404 147.005 43.2528 150.017 43.3195Z" fill="#2F91C9"/>
<path d="M9.60667 0C4.85279 1.32398 1.67063 4.33517 0 8.96264C0 6.02668 0 3.08857 0 0" fill="white"/>
<path d="M20.3572 65.0963C20.3142 61.464 22.3332 59.4436 26.0636 59.3813C29.6199 59.3232 31.6023 61.608 31.7334 65.9195C31.841 69.4465 29.6091 71.742 26.0722 71.7398C22.6514 71.7355 20.4024 69.1198 20.3572 65.0963Z" fill="#2F91C9"/>
<path d="M55.707 63.1039C54.4534 57.7134 56.3047 53.9736 60.3211 53.2944C64.1655 52.6432 66.8251 55.4588 67.3992 61.0922C63.5118 61.7606 59.6008 62.4333 55.707 63.1039Z" fill="#2F91C9"/>
</svg>
