<svg width="182" height="72" viewBox="0 0 182 72" fill="none" xmlns="http://www.w3.org/2000/svg">
<g clip-path="url(#clip0)">
<path d="M0.0174348 0.003479C0.444911 0.003479 0.762695 0.003479 1.08209 0.003479C5.00681 0.003479 8.93152 0.003479 12.8562 0.003479C14.2645 0.003479 14.2209 0.0165117 14.5903 1.40451C14.9888 2.8984 15.4937 4.3646 15.9308 5.84871C16.4454 7.59675 16.9261 9.35618 17.4423 11.1058C17.9666 12.8799 18.5231 14.6426 19.0571 16.4135C19.5894 18.1811 20.1024 19.9535 20.6395 21.7195C21.0606 23.1058 21.5171 24.4808 21.9381 25.8672C22.343 27.2014 22.7124 28.5471 23.1157 29.8829C23.548 31.3133 23.9803 32.7453 24.4529 34.1626C24.6062 34.6236 24.3529 35.3078 25.1321 35.5294C25.424 34.5438 25.7209 33.5875 25.9919 32.6247C26.4193 31.1064 26.8275 29.5832 27.2452 28.0632C27.7792 26.1229 28.3099 24.1811 28.8519 22.2424C29.2487 20.8235 29.673 19.411 30.0698 17.9904C30.5021 16.4444 30.907 14.8903 31.3393 13.3442C31.7362 11.9269 32.162 10.5194 32.5621 9.10367C32.9912 7.58045 33.4074 6.05398 33.8268 4.52914C34.1978 3.1835 34.5204 1.82319 34.9737 0.506873C35.0624 0.249474 35.6528 0.0311738 36.0125 0.0279156C39.8566 -0.00629563 43.7007 0.00673722 47.5447 0.00673722C49.4417 0.00673722 49.4418 0.00673714 49.4418 1.96004C49.4418 17.1906 49.4369 32.4211 49.4595 47.6516C49.4611 48.4629 49.2675 48.704 48.4336 48.6861C45.6929 48.6258 42.9506 48.6421 40.2083 48.6779C39.4678 48.6877 39.2404 48.458 39.2436 47.7005C39.2727 37.5462 39.2743 27.3937 39.2678 17.2394C39.2678 17.0276 39.092 16.8159 38.9984 16.6041C38.9081 16.7996 38.7839 16.9869 38.7323 17.1922C38.4064 18.5215 38.116 19.859 37.7757 21.1835C37.4111 22.6073 37.032 24.0279 36.6126 25.4355C36.1045 27.1346 35.5464 28.8191 35.0108 30.5101C34.4785 32.1881 33.9526 33.8677 33.4122 35.5424C32.896 37.1439 32.3637 38.7404 31.841 40.3385C31.1813 42.3554 30.5231 44.3722 29.8682 46.3907C29.702 46.9006 29.5568 47.4186 29.3891 47.9285C29.2133 48.4596 28.9326 48.704 28.2841 48.6861C25.9209 48.6225 23.5528 48.66 21.188 48.6616C19.6846 48.6616 19.7104 48.6535 19.27 47.2492C18.3586 44.338 17.4085 41.4382 16.4874 38.5286C15.726 36.1257 14.9952 33.713 14.229 31.3117C13.4434 28.8468 12.5578 26.4113 11.8513 23.9237C11.2447 21.7879 10.835 19.5951 10.3253 17.43C10.201 16.9022 10.0333 16.3841 9.88488 15.8612C9.80906 15.8677 9.73324 15.8759 9.65743 15.8824C9.63162 16.1528 9.58484 16.4232 9.58484 16.6937C9.58806 27.0369 9.58806 37.3801 9.61549 47.7233C9.6171 48.4808 9.38481 48.6877 8.646 48.6747C6.09244 48.6291 3.53887 48.6274 0.985306 48.6747C0.217461 48.6893 -0.00676196 48.4841 -0.00514884 47.6907C0.0255004 37.1601 0.0174348 26.6263 0.0174348 16.0925C0.0174348 11.07 0.0174348 6.04746 0.0174348 1.02493C0.0174348 0.730061 0.0174348 0.435192 0.0174348 0.003479Z" fill="#2F91C9"/>
<path d="M129.409 48.6093C129.062 48.6305 128.832 48.6582 128.601 48.6582C125.538 48.6614 122.473 48.6419 119.409 48.6793C118.816 48.6875 118.611 48.3486 118.391 47.9446C116.754 44.921 115.12 41.8957 113.488 38.8689C112.712 37.432 111.942 35.9919 111.102 34.4263C110.805 34.7228 110.545 34.959 110.311 35.218C109.193 36.461 108.064 37.6943 106.985 38.9715C106.771 39.2256 106.679 39.6557 106.675 40.006C106.651 42.6109 106.646 45.2175 106.675 47.8224C106.683 48.4985 106.487 48.6875 105.799 48.6761C102.925 48.6305 100.047 48.6239 97.1725 48.6777C96.4095 48.6924 96.2885 48.4236 96.2901 47.754C96.3078 41.2946 96.3014 34.8336 96.2998 28.3742C96.2998 19.2805 96.2998 10.1884 96.2998 1.09476C96.2998 0.00325937 96.2998 1.12687e-06 97.3531 1.12687e-06C100.094 -0.00162798 102.836 -0.00162798 105.577 1.12687e-06C106.658 1.12687e-06 106.661 0.0016303 106.661 1.06707C106.661 9.15558 106.659 17.2441 106.671 25.3326C106.671 25.621 106.812 25.9093 106.888 26.1977C107.14 26.0282 107.446 25.9061 107.634 25.6812C110.05 22.7847 112.452 19.8784 114.851 16.9671C115.672 15.9685 116.454 14.9373 117.29 13.9517C117.454 13.7562 117.785 13.603 118.038 13.6014C121.452 13.5786 124.865 13.5868 128.278 13.5916C128.373 13.5916 128.469 13.6503 128.688 13.7203C127.938 14.6229 127.254 15.47 126.546 16.2943C124.205 19.0133 121.856 21.7258 119.504 24.435C119.009 25.0052 118.498 25.5607 117.974 26.1048C117.628 26.4632 117.569 26.7646 117.835 27.2452C120.603 32.2465 123.344 37.2642 126.086 42.2818C127.114 44.1635 128.127 46.0532 129.14 47.943C129.238 48.1222 129.294 48.3193 129.409 48.6093Z" fill="#2F91C9"/>
<path d="M89.2439 48.6598C88.218 48.6598 87.0936 48.6598 85.9709 48.6598C83.9545 48.6598 81.9381 48.6435 79.9233 48.6695C79.2732 48.6777 78.9635 48.518 78.9038 47.7768C78.8119 46.6006 78.5731 45.4358 78.3844 44.2677C78.3618 44.1243 78.2666 43.9924 78.157 43.7447C77.9247 43.9516 77.7424 44.0885 77.5907 44.2563C76.1341 45.8756 74.4032 47.1496 72.4223 47.9837C69.8978 49.0475 67.1942 49.5199 64.4955 49.1045C61.266 48.606 58.5592 47.0763 57.1267 43.9028C56.2686 42.0032 55.9927 40.0157 56.3686 37.906C56.7234 35.9136 57.4364 34.1493 58.7495 32.6196C60.0739 31.0784 61.7209 29.9706 63.5308 29.1594C65.1262 28.4442 66.7941 27.8658 68.4766 27.3918C69.8558 27.0024 71.2996 26.8281 72.7207 26.6065C74.4129 26.341 76.1164 26.139 77.8069 25.8702C77.9924 25.8409 78.2683 25.559 78.2795 25.3798C78.4473 22.7863 77.3859 20.9926 74.3484 20.8118C72.0126 20.6733 69.7268 20.9649 67.6007 21.9326C66.0118 22.6543 64.5003 23.5715 63.0195 24.5034C62.4226 24.8797 62.0887 25.0654 61.6096 24.3796C60.5014 22.7928 59.3415 21.2435 58.1785 19.6975C57.8236 19.2267 57.8736 18.8764 58.3156 18.5245C60.2029 17.0176 62.1984 15.7111 64.439 14.7727C68.888 12.909 73.5467 12.5897 78.236 13.0279C81.3187 13.3163 84.1513 14.5023 86.0951 17.174C87.184 18.6712 87.8437 20.3589 88.1357 22.1949C88.9407 27.2663 88.3535 32.3736 88.5196 37.4613C88.5729 39.0888 88.4503 40.7244 88.5616 42.3453C88.7035 44.4127 89.0003 46.467 89.2439 48.6598ZM78.3037 35.0437C78.3037 34.2031 78.3054 33.3624 78.3037 32.5235C78.3005 31.6128 78.2344 31.5525 77.3197 31.7268C75.7228 32.0298 74.1258 32.328 72.5352 32.6636C70.8205 33.0252 69.2122 33.6671 67.8749 34.8319C66.6699 35.881 66.1521 37.2593 66.5425 38.8362C66.899 40.2796 68.0008 41.0698 69.3864 41.2229C72.2417 41.5357 74.8952 40.858 77.2665 39.1784C78.0102 38.6522 78.4554 37.9924 78.3215 36.9954C78.2344 36.3535 78.3037 35.6937 78.3037 35.0437Z" fill="#2F91C9"/>
<path d="M152.78 33.9457C149.259 33.9457 145.737 33.9538 142.214 33.9375C141.569 33.9343 141.282 33.9783 141.374 34.8352C141.564 36.6402 142.177 38.24 143.288 39.6166C144.458 41.0632 146.082 41.7996 147.891 41.9869C151.551 42.3649 154.875 41.3744 157.881 39.2549C158.276 38.9764 158.728 38.7532 159.049 38.4062C159.533 37.8832 159.854 38.0184 160.176 38.5284C161.08 39.9587 161.985 41.3891 162.878 42.8259C163.744 44.2188 163.728 44.2074 162.362 45.2044C160.241 46.7537 157.913 47.8159 155.382 48.5115C151.859 49.4792 148.278 49.6796 144.716 49.1159C139.998 48.3682 136.015 46.2031 133.432 41.9625C132.473 40.3855 131.855 38.6489 131.451 36.8129C130.966 34.6022 130.703 32.3883 130.829 30.1401C131.047 26.2433 132.024 22.6022 134.428 19.4303C136.665 16.4768 139.646 14.7581 143.092 13.634C145.769 12.7592 148.51 12.6663 151.194 13.041C156.014 13.7122 159.791 16.1395 162.015 20.6815C162.989 22.6706 163.661 24.7575 163.872 26.9698C164.067 29.0144 164.18 31.0654 164.341 33.1132C164.391 33.7469 164.143 33.9652 163.504 33.9603C159.931 33.9326 156.355 33.9457 152.78 33.9457ZM155.034 27.6345C154.887 26.9698 154.732 26.3834 154.632 25.7871C154.413 24.4822 153.848 23.3304 153.028 22.3302C151.743 20.7613 149.989 20.3654 148.054 20.3997C146.416 20.4274 145.05 20.9764 143.872 22.1298C142.504 23.4689 141.935 25.1876 141.462 26.9666C141.27 27.6867 141.735 27.6964 142.242 27.6964C146.218 27.6899 150.196 27.6932 154.172 27.6915C154.408 27.6883 154.643 27.6606 155.034 27.6345Z" fill="#2F91C9"/>
<path d="M0.050354 71.7523C0.050354 66.9383 0.050354 62.2514 0.050354 57.4439C1.3473 57.4439 2.6265 57.4292 3.90571 57.4651C4.04605 57.4683 4.26543 57.76 4.29285 57.9424C4.35254 58.335 4.3106 58.7423 4.3106 59.3451C4.65419 59.1219 4.88648 59.0225 5.04941 58.8547C6.39958 57.4814 8.04819 56.8982 9.91941 57.1328C10.9583 57.2631 11.9052 57.7306 12.4665 58.7358C12.6069 58.9867 12.7779 59.2196 12.8908 59.3923C13.7264 58.7798 14.4458 58.1232 15.2733 57.6704C17.0833 56.6766 19.4691 56.8884 20.6208 58.3839C21.1757 59.104 21.6081 60.1173 21.6403 61.0149C21.7581 64.3481 21.6758 67.6893 21.6984 71.0274C21.7016 71.5845 21.5645 71.7979 20.9773 71.7654C20.0401 71.7149 19.0948 71.7116 18.1576 71.7637C17.5543 71.7963 17.4317 71.5471 17.4349 71.0078C17.4527 68.3214 17.4349 65.6334 17.4478 62.947C17.4511 62.1146 17.4753 61.2609 16.6397 60.7982C15.8073 60.3372 15.0491 60.8015 14.299 61.1436C13.2263 61.6307 12.823 62.3964 12.8843 63.6427C13.0021 66.0521 12.9021 68.4713 12.9311 70.8873C12.9392 71.5471 12.7537 71.8208 12.06 71.7637C11.3131 71.7018 10.5566 71.7474 9.80326 71.7507C8.80797 71.7523 8.79668 71.7442 8.79668 70.6902C8.79668 68.1667 8.80152 65.6416 8.79506 63.1181C8.79345 62.7678 8.77409 62.411 8.70796 62.0673C8.4547 60.7738 7.72073 60.2867 6.51412 60.7477C5.83177 61.0084 5.20426 61.4678 4.62838 61.9337C4.41384 62.1064 4.33318 62.5528 4.32996 62.8753C4.30737 65.534 4.30092 68.1944 4.32673 70.8547C4.33318 71.5291 4.18155 71.8224 3.43145 71.7703C2.33614 71.6953 1.236 71.7523 0.050354 71.7523Z" fill="#2F91C9"/>
<path d="M164.555 59.3988C167.576 56.8851 170.441 55.6714 173.212 59.3288C173.965 58.7765 174.696 58.0874 175.551 57.6426C177.697 56.5267 180.362 57.1099 181.383 59.0469C181.781 59.8028 182.015 60.5636 181.999 61.4596C181.942 64.5533 181.978 67.6486 181.978 70.7423C181.978 71.0371 181.978 71.332 181.978 71.6904C180.56 71.6904 179.205 71.6904 177.756 71.6904C177.732 71.3141 177.685 70.9215 177.684 70.5272C177.677 68.0021 177.608 65.4754 177.703 62.9552C177.781 60.909 176.705 60.013 174.603 61.0849C173.643 61.5737 173.156 62.2286 173.217 63.4406C173.338 65.8501 173.254 68.2709 173.256 70.6869C173.256 71.7263 173.228 71.754 172.239 71.7523C171.46 71.7507 170.678 71.71 169.902 71.7654C169.252 71.8126 169.058 71.5731 169.065 70.9361C169.091 68.3035 169.094 65.6709 169.065 63.0382C169.058 62.4811 168.939 61.9093 168.781 61.3717C168.591 60.7249 167.629 60.43 166.756 60.7363C166.331 60.8862 165.913 61.0947 165.535 61.344C164.882 61.7724 164.503 62.3068 164.527 63.2028C164.598 65.78 164.537 68.3589 164.564 70.9378C164.571 71.5617 164.417 71.8142 163.748 71.767C162.838 71.7034 161.92 71.7279 161.007 71.7654C160.499 71.7865 160.293 71.6627 160.296 71.1007C160.315 66.7852 160.317 62.4697 160.296 58.1525C160.293 57.553 160.522 57.4064 161.056 57.4243C161.915 57.452 162.78 57.483 163.635 57.4162C164.422 57.3543 164.643 57.6931 164.559 58.4067C164.532 58.6445 164.555 58.8873 164.555 59.3988Z" fill="#2F91C9"/>
<path d="M40.2652 51.7925C41.6735 51.7925 42.9833 51.7925 44.4319 51.7925C44.4319 55.3456 44.4319 58.871 44.4319 62.3964C44.5045 62.4192 44.5771 62.4404 44.6481 62.4632C45.482 61.4596 46.3144 60.4577 47.1484 59.4542C47.5968 58.9166 48.0372 58.3709 48.4986 57.8463C48.6357 57.6899 48.8309 57.4797 49.0018 57.4765C50.4085 57.4472 51.8151 57.4602 53.4057 57.4602C52.0087 59.0421 50.7779 60.4936 49.4809 61.88C48.9276 62.4713 48.8922 62.921 49.2987 63.6329C50.7569 66.1873 52.1345 68.789 53.5395 71.376C53.5863 71.4624 53.5976 71.5682 53.6492 71.754C52.2797 71.754 50.9666 71.824 49.6713 71.7067C49.3325 71.6758 48.9712 71.1072 48.7486 70.7113C47.9775 69.3347 47.2694 67.9239 46.5225 66.5343C46.4241 66.3518 46.2418 66.215 46.1031 66.0602C44.819 66.966 44.2657 68.1015 44.3867 69.7225C44.5367 71.7458 44.4222 71.7556 42.4316 71.7556C41.8945 71.7556 41.3541 71.723 40.8201 71.767C40.3023 71.8093 40.1684 71.5796 40.1684 71.1072C40.1765 64.8368 40.1733 58.5664 40.1781 52.2943C40.1797 52.1347 40.2313 51.9799 40.2652 51.7925Z" fill="#2F91C9"/>
<path d="M95.9449 59.2376C96.8208 58.6658 97.5387 58.1119 98.3307 57.6997C100.092 56.7809 101.934 56.8037 103.556 57.9001C104.19 58.3285 104.744 59.3549 104.775 60.1303C104.917 63.7877 104.861 67.4548 104.886 71.117C104.89 71.6074 104.712 71.785 104.215 71.7638C103.357 71.7263 102.493 71.7068 101.638 71.767C100.865 71.8208 100.595 71.5536 100.607 70.7619C100.644 67.994 100.621 65.2262 100.621 62.4583C100.621 61.155 99.9164 60.4073 98.6727 60.7021C97.7758 60.9139 96.9499 61.489 96.1466 61.9891C95.9643 62.1015 95.9546 62.5805 95.953 62.89C95.9401 65.5764 95.9256 68.2628 95.9594 70.9492C95.9675 71.5829 95.8255 71.8192 95.1577 71.7703C94.2753 71.7051 93.3817 71.7084 92.4993 71.7687C91.8428 71.8143 91.6702 71.5797 91.675 70.946C91.6992 67.5265 91.6863 64.107 91.6879 60.6875C91.6879 59.9006 91.7202 59.1121 91.6782 58.3269C91.6428 57.6769 91.8299 57.382 92.5283 57.4228C93.4123 57.4733 94.3028 57.4667 95.1868 57.4244C95.7949 57.3951 96.0223 57.6134 95.953 58.2194C95.9126 58.5452 95.9449 58.8792 95.9449 59.2376Z" fill="#2F91C9"/>
<path d="M26.2133 61.9516C25.7358 61.3098 25.1519 60.5245 24.4292 59.552C25.4503 58.9459 26.3407 58.2503 27.3489 57.861C28.8669 57.2729 30.4784 56.9878 32.1318 57.1099C34.9757 57.3185 36.8147 58.5142 36.9534 61.8132C37.0486 64.0613 36.9647 66.3176 37.0179 68.5674C37.0421 69.5824 37.2002 70.594 37.3099 71.7426C36.0339 71.7426 34.787 71.7621 33.5417 71.7165C33.3884 71.71 33.19 71.3695 33.1174 71.1479C32.9948 70.7781 32.9545 70.379 32.8561 69.8756C32.2367 70.3008 31.7301 70.6608 31.2107 70.9997C29.7944 71.9283 28.1603 72.0945 26.6392 71.7067C24.5679 71.1805 23.3452 68.9356 24.0791 66.7347C24.7986 64.5761 26.4875 63.6932 28.47 63.2109C29.7605 62.8965 31.0849 62.7255 32.3915 62.4811C32.8884 62.3882 32.9787 61.5379 32.5545 61.0084C32.0205 60.3421 30.6994 60.0423 29.7218 60.4333C28.5813 60.8878 27.4667 61.4059 26.2133 61.9516ZM29.896 68.5756C30.8236 68.7483 31.6059 68.341 32.3157 67.8132C32.5786 67.6177 32.7948 67.2397 32.8561 66.9123C32.9481 66.4154 32.8964 65.8908 32.8835 65.3777C32.8739 65.0046 32.7593 64.7684 32.2883 64.8775C31.5156 65.0567 30.7203 65.1365 29.9541 65.3353C29.5573 65.4379 29.1782 65.6693 28.833 65.9055C28.1523 66.3747 27.8571 67.1534 28.1329 67.8034C28.4652 68.5837 29.1443 68.6847 29.896 68.5756Z" fill="#2F91C9"/>
<path d="M150.3 71.8354C148.658 71.9886 146.989 71.477 145.577 70.2291C144.509 69.2843 143.909 68.0689 143.58 66.6647C143.224 65.1463 143.259 63.6394 143.629 62.1732C144.127 60.2004 145.221 58.625 147.171 57.8072C148.524 57.2403 149.928 57.0562 151.396 57.0969C154.177 57.1719 156.719 59.2767 157.479 61.9761C157.882 63.4081 157.94 64.8466 157.705 66.215C157.135 69.54 154.916 71.767 151.252 71.8338C151.01 71.8387 150.768 71.8354 150.3 71.8354ZM153.667 64.6055C153.506 63.7925 153.37 62.9731 153.175 62.1667C152.967 61.3114 151.828 60.3405 151.042 60.29C149.612 60.2004 148.637 60.6793 148.205 61.779C147.984 62.3426 147.892 62.9568 147.739 63.5482C147.34 65.0698 147.666 66.4936 148.419 67.8083C149.102 69.0008 151.228 69.4374 152.317 68.2498C153.298 67.1778 153.548 65.9755 153.667 64.6055Z" fill="#2F91C9"/>
<path d="M66.0174 67.4499C66.5062 68.2042 67.0127 68.9845 67.645 69.9604C66.6659 70.467 65.7899 71.0144 64.8447 71.3891C63.0702 72.0912 61.1716 72 59.3649 71.7198C57.2711 71.394 55.5724 70.2243 54.8288 68.0918C53.8416 65.2588 53.8754 62.4828 55.5692 59.8729C56.4097 58.5778 57.6856 57.9164 59.0761 57.4879C59.8537 57.2484 60.7022 57.1148 61.5136 57.1344C64.3349 57.1996 66.4965 58.5452 67.2063 61.3538C67.4998 62.5186 67.6628 63.7176 67.8757 64.902C67.9822 65.4966 67.7515 65.6954 67.1304 65.6872C64.5236 65.6514 61.9152 65.684 59.3084 65.6644C58.6245 65.6595 58.3906 65.741 58.5809 66.5816C59.0907 68.8281 61.3813 69.3674 63.1557 68.7776C64.1026 68.4632 64.9785 67.9403 66.0174 67.4499ZM61.2329 63.1719C61.9281 63.1719 62.6234 63.1621 63.3186 63.1751C63.859 63.1849 64.0704 62.9536 63.8897 62.4257C63.4396 61.1078 62.7024 60.044 60.9135 60.2737C59.8488 60.4105 58.6954 61.5216 58.6229 62.5952C58.5938 63.0285 58.7309 63.1849 59.1487 63.1768C59.844 63.1621 60.5392 63.1719 61.2329 63.1719Z" fill="#2F91C9"/>
<path d="M116.214 65.6709C114.924 65.6709 113.633 65.666 112.344 65.6726C111.576 65.6774 111.391 65.9544 111.657 66.6728C112.523 69.009 114.186 69.2957 116.283 68.7727C117.058 68.5805 117.758 68.0657 118.474 67.665C118.919 67.4141 119.223 67.3098 119.463 67.937C119.642 68.4029 119.956 68.833 120.277 69.2224C120.637 69.6574 120.511 69.9424 120.124 70.2292C118.858 71.1692 117.472 71.7964 115.874 71.8078C114.693 71.8159 113.483 71.9381 112.336 71.7328C110.463 71.3972 109.065 70.2406 108.136 68.5577C107.132 66.7412 107.085 64.7098 107.426 62.7956C107.848 60.4138 109.434 58.0386 112.501 57.4325C113.251 57.2843 114.02 57.1083 114.775 57.1328C117.242 57.2126 119.061 58.3514 120.124 60.6582C120.773 62.0673 120.829 63.5612 120.874 65.0682C120.89 65.6058 120.613 65.6856 120.166 65.6791C118.848 65.6595 117.53 65.6709 116.214 65.6709ZM114.319 63.1686C114.319 63.1702 114.319 63.1702 114.319 63.1719C115.016 63.1719 115.711 63.1556 116.408 63.1784C116.837 63.1914 117.072 62.9731 116.94 62.6017C116.712 61.9647 116.503 61.2463 116.061 60.782C115.29 59.9739 114.19 60.1287 113.272 60.4399C112.291 60.7722 111.922 61.766 111.668 62.7206C111.642 62.82 111.973 63.136 112.152 63.1491C112.872 63.1979 113.596 63.1686 114.319 63.1686Z" fill="#2F91C9"/>
<path d="M176.154 48.6598C174.544 48.6598 172.933 48.6386 171.324 48.6712C170.784 48.6826 170.539 48.5474 170.542 47.9592C170.56 45.0057 170.558 42.0505 170.544 39.0969C170.542 38.6049 170.71 38.4404 171.203 38.4437C174.476 38.4616 177.751 38.4534 181.026 38.4518C181.668 38.4518 181.992 38.7141 181.987 39.4227C181.964 42.2134 181.958 45.0057 181.992 47.7963C182 48.5197 181.651 48.6663 181.066 48.663C179.429 48.6565 177.791 48.6614 176.156 48.6614C176.154 48.663 176.154 48.6614 176.154 48.6598Z" fill="#2F91C9"/>
<path d="M181.976 13.7382C181.976 16.8433 181.974 19.8783 181.977 22.9133C181.977 23.5373 181.551 23.7051 181.077 23.7083C177.775 23.7263 174.475 23.7149 171.173 23.7214C170.734 23.723 170.545 23.5503 170.547 23.0958C170.555 20.1145 170.54 17.1316 170.571 14.1504C170.573 13.9614 170.887 13.6128 171.058 13.6128C174.547 13.5883 178.036 13.603 181.524 13.616C181.651 13.6144 181.779 13.6812 181.976 13.7382Z" fill="#2F91C9"/>
<path d="M74.152 68.5968C74.886 68.5968 75.3829 68.5968 75.8797 68.5968C77.4912 68.5968 79.1027 68.618 80.7126 68.5854C81.3095 68.574 81.5046 68.776 81.5143 69.3788C81.553 71.7524 81.5708 71.7524 79.2318 71.7524C76.0636 71.7524 72.8938 71.7377 69.7256 71.767C69.132 71.7719 69.0094 71.5895 68.911 71.0046C68.5819 69.0741 70.0225 68.0608 70.9419 66.7999C72.3357 64.8922 73.8246 63.0546 75.2651 61.1811C75.3699 61.0459 75.4054 60.8569 75.5264 60.5686C75.1506 60.5409 74.8747 60.505 74.5973 60.5034C73.1197 60.4985 71.6436 60.4838 70.166 60.5132C69.5982 60.5246 69.353 60.3731 69.3417 59.7442C69.3014 57.4325 69.2804 57.4325 71.5856 57.4325C74.4585 57.4325 77.3331 57.4472 80.2061 57.4211C80.8287 57.4146 80.953 57.6133 81.0578 58.2389C81.2885 59.6155 80.448 60.4627 79.7657 61.3815C78.1977 63.4928 76.5766 65.5667 74.9731 67.6503C74.7666 67.9158 74.5344 68.1569 74.152 68.5968Z" fill="#2F91C9"/>
<path d="M142.129 67.6242C141.283 69.5986 140.003 70.9883 137.989 71.6823C135.575 72.5164 131.911 71.6644 130.33 69.6198C129.691 68.7922 129.411 67.6665 129.04 66.65C128.496 65.1675 128.678 63.6491 129.058 62.1748C129.567 60.184 130.679 58.6429 132.613 57.8039C133.99 57.206 135.426 57.0415 136.915 57.1034C138.939 57.1881 141.346 59.0274 141.862 60.9872C141.914 61.1843 141.806 61.5981 141.68 61.6421C140.767 61.9614 139.835 62.2383 138.893 62.4583C138.722 62.4974 138.37 62.2628 138.285 62.0722C137.63 60.6011 136.712 60.0456 135.255 60.3062C134.339 60.4708 133.489 61.8164 133.208 62.947C132.895 64.2112 133.032 65.4102 133.271 66.619C133.479 67.6747 134.287 68.7515 135.345 68.9389C136.6 69.1604 137.744 68.4876 138.252 67.1859C138.506 66.5392 138.722 66.3567 139.417 66.7005C140.241 67.1061 141.166 67.3065 142.129 67.6242Z" fill="#2F91C9"/>
<path d="M88.1729 64.5794C88.1729 66.6402 88.1439 68.7011 88.1891 70.7603C88.2052 71.508 88.0584 71.8518 87.226 71.7703C86.4017 71.6888 85.5629 71.7279 84.7322 71.767C84.1515 71.7931 83.9079 71.6025 83.9095 70.9883C83.924 66.6777 83.9224 62.3687 83.9111 58.0581C83.9095 57.602 84.066 57.4227 84.516 57.4293C85.4823 57.4456 86.4501 57.4635 87.4148 57.4228C88.0342 57.3967 88.1907 57.6541 88.1842 58.2373C88.1568 60.3503 88.1729 62.4648 88.1729 64.5794Z" fill="#2F91C9"/>
<path d="M127.213 71.7623C125.769 71.7623 124.433 71.7786 123.097 71.7411C122.941 71.7362 122.668 71.4365 122.662 71.2654C122.622 70.182 122.617 69.0971 122.665 68.0153C122.673 67.8426 122.997 67.5478 123.185 67.5413C124.364 67.4973 125.546 67.5005 126.725 67.5396C126.892 67.5445 127.185 67.8231 127.19 67.9811C127.23 69.1932 127.213 70.4101 127.213 71.7623Z" fill="#2F91C9"/>
<path d="M86.039 55.3489C83.9194 55.3489 83.9194 55.3489 83.9178 53.2441C83.9178 52.0353 83.9178 52.0353 85.147 52.0337C85.8971 52.0337 86.6488 52.0565 87.3989 52.0272C87.9667 52.0043 88.2522 52.177 88.2135 52.8059C88.1748 53.4266 88.1861 54.0521 88.2119 54.6728C88.2329 55.155 88.0603 55.375 87.5667 55.3538C87.0585 55.331 86.5488 55.3489 86.039 55.3489Z" fill="#2F91C9"/>
</g>
<defs>
<clipPath id="clip0">
<rect width="182" height="72" fill="white"/>
</clipPath>
</defs>
</svg>
