<svg width="254" height="109" viewBox="0 0 254 109" fill="none" xmlns="http://www.w3.org/2000/svg">
<g clip-path="url(#clip0)">
<path d="M81.0328 78.2734C75.3032 78.7966 75.3165 78.7932 73.9639 73.675C72.2421 67.1605 70.4987 60.6527 68.7553 54.1449C68.64 53.715 68.4313 53.3085 67.8652 52.947C67.8652 61.3491 67.8652 69.7513 67.8652 78.2984C66.055 78.2984 64.5086 78.2984 62.7952 78.2984C62.7952 66.0475 62.7952 53.875 62.7952 41.3659C64.8593 41.3659 66.9133 41.2159 68.9189 41.4575C69.5151 41.5292 70.2515 42.6205 70.462 43.3735C72.0067 48.8683 73.4295 54.3948 74.899 59.9096C75.0961 60.6494 75.3315 61.3775 75.9828 62.0756C75.9828 55.2629 75.9828 48.4518 75.9828 41.5008C77.8114 41.5008 79.3511 41.5008 81.0328 41.5008C81.0328 53.7834 81.0328 65.9526 81.0328 78.2734Z" fill="#2F91C9"/>
<path d="M233.541 78.3367C233.725 78.2251 233.658 78.3001 233.588 78.3034C227.184 78.5999 227.952 79.0881 227.807 73.3034C227.763 71.559 227.824 69.8129 227.793 68.0668C227.723 64.0932 226.27 62.9203 221.934 63.5767C221.934 68.3951 221.934 73.2684 221.934 78.2851C219.935 78.2851 218.226 78.2851 216.299 78.2851C216.299 66.0725 216.299 53.905 216.299 41.1226C220.497 41.4042 224.749 41.4642 228.927 42.0556C231.411 42.4072 232.925 44.5098 233.177 46.954C233.468 49.7697 233.592 52.682 233.179 55.4611C232.925 57.1755 231.538 58.725 230.504 60.6377C233.902 62.7037 233.546 66.6073 233.541 70.3977C233.538 72.9935 233.541 75.5876 233.541 78.3367ZM222.056 57.827C226.556 58.4668 227.737 57.4904 227.763 53.2385C227.767 52.6054 227.77 51.9723 227.765 51.3375C227.73 47.0056 226.579 46.0759 222.056 46.874C222.056 50.4478 222.056 54.0549 222.056 57.827Z" fill="#2F91C9"/>
<path d="M144.097 62.1988C141.544 62.1988 139.104 62.1988 136.455 62.1988C136.455 65.8993 136.455 69.4014 136.455 73.1285C139.692 73.1285 142.84 73.1285 146.19 73.1285C146.19 74.9512 146.19 76.554 146.19 78.3017C140.994 78.3017 135.876 78.3017 130.602 78.3017C130.602 66.0276 130.602 53.8617 130.602 41.5242C135.779 41.5242 140.901 41.5242 146.21 41.5242C146.21 43.137 146.21 44.7447 146.21 46.5708C142.931 46.5708 139.78 46.5708 136.437 46.5708C136.437 50.0646 136.437 53.3485 136.437 56.919C138.939 56.919 141.43 56.919 144.095 56.919C144.097 58.7417 144.097 60.2862 144.097 62.1988Z" fill="#2F91C9"/>
<path d="M200.249 46.5291C200.249 50.2462 200.249 53.4768 200.249 56.9656C202.863 56.9656 205.368 56.9656 208.029 56.9656C208.029 58.7667 208.029 60.3128 208.029 62.1289C205.548 62.1289 203.043 62.1289 200.334 62.1289C200.334 65.8343 200.334 69.2814 200.334 73.0685C203.445 73.0685 206.65 73.0685 210.043 73.0685C210.043 74.9395 210.043 76.4823 210.043 78.2351C204.962 78.2351 199.847 78.2351 194.546 78.2351C194.546 66.0842 194.546 53.9083 194.546 41.5441C199.64 41.5441 204.755 41.5441 210.053 41.5441C210.053 43.1203 210.053 44.6631 210.053 46.5308C206.849 46.5291 203.637 46.5291 200.249 46.5291Z" fill="#2F91C9"/>
<path d="M41.2128 41.4775C46.378 41.4775 51.4313 41.4775 56.6816 41.4775C56.6816 43.0553 56.6816 44.5964 56.6816 46.4608C53.5788 46.4608 50.3725 46.4608 46.9809 46.4608C46.9809 50.0496 46.9809 53.3318 46.9809 56.9523C49.4841 56.9523 52.0492 56.9523 54.7328 56.9523C54.7328 58.8316 54.7328 60.3744 54.7328 62.1805C52.146 62.1805 49.6428 62.1805 46.9658 62.1805C46.9658 65.8826 46.9658 69.3297 46.9658 73.0868C50.122 73.0868 53.33 73.0868 56.7033 73.0868C56.7033 74.9362 56.7033 76.4823 56.7033 78.2417C51.6434 78.2417 46.5283 78.2417 41.2112 78.2417C41.2128 66.0492 41.2128 53.8283 41.2128 41.4775Z" fill="#2F91C9"/>
<path d="M125.158 41.5292C124.737 44.0383 124.727 46.4692 123.903 48.5818C121.053 55.8943 117.917 63.0952 114.896 70.3411C114.568 71.1258 114.28 71.9272 113.822 73.1068C117.581 73.1068 121.011 73.1068 124.628 73.1068C124.628 74.9562 124.628 76.499 124.628 78.2434C119.129 78.2434 113.623 78.2434 107.471 78.2434C107.852 75.8392 107.822 73.4167 108.642 71.3241C111.588 63.795 114.824 56.3792 117.942 48.9167C118.209 48.2786 118.403 47.6105 118.743 46.6291C115.211 46.6291 111.925 46.6291 108.49 46.6291C108.49 44.8081 108.49 43.2586 108.49 41.5308C113.787 41.5292 119.071 41.5292 125.158 41.5292Z" fill="#2F91C9"/>
<path d="M189.522 41.5192C189.522 43.2253 189.522 44.7164 189.522 46.5741C188.288 46.5741 187.119 46.6808 185.977 46.5508C184.015 46.3275 183.39 47.029 183.414 49.0416C183.519 57.9303 183.46 66.8223 183.46 75.7126C183.46 76.4974 183.46 77.2821 183.46 78.2534C181.518 78.2534 179.75 78.2534 177.704 78.2534C177.704 67.7436 177.704 57.3105 177.704 46.6025C175.57 46.6025 173.705 46.6025 171.694 46.6025C171.694 44.7814 171.694 43.2369 171.694 41.5208C177.597 41.5192 183.435 41.5192 189.522 41.5192Z" fill="#2F91C9"/>
<path d="M168.395 46.6192C166.349 46.6192 164.544 46.6192 162.465 46.6192C162.465 57.2456 162.465 67.6787 162.465 78.2735C160.483 78.2735 158.768 78.2735 156.772 78.2735C156.772 67.8836 156.772 57.4505 156.772 46.6525C154.585 46.6525 152.662 46.6525 150.622 46.6525C150.622 44.7415 150.622 43.197 150.622 41.5042C156.573 41.5042 162.412 41.5042 168.395 41.5042C168.395 43.157 168.395 44.6998 168.395 46.6192Z" fill="#2F91C9"/>
<path d="M97.8307 46.5825C97.8307 57.2905 97.8307 67.7154 97.8307 78.2868C95.8635 78.2868 94.1552 78.2868 92.0677 78.2868C92.0677 67.7853 92.0677 57.3055 92.0677 46.6291C89.8968 46.6291 88.0966 46.6291 86.1027 46.6291C86.1027 44.8281 86.1027 43.2286 86.1027 41.4875C91.9625 41.4875 97.7372 41.4875 103.729 41.4875C103.729 43.0853 103.729 44.6848 103.729 46.5808C101.812 46.5825 99.9482 46.5825 97.8307 46.5825Z" fill="#2F91C9"/>
<path d="M24.4827 46.5892C22.1965 46.5892 20.3345 46.5892 18.3439 46.5892C18.3439 44.7714 18.3439 43.2253 18.3439 41.5159C24.2389 41.5159 30.072 41.5159 36.0872 41.5159C36.0872 43.077 36.0872 44.6165 36.0872 46.4475C34.2736 46.4475 32.415 46.4475 30.219 46.4475C30.219 57.2022 30.219 67.6754 30.219 78.2935C28.1716 78.2935 26.4599 78.2935 24.4827 78.2935C24.4827 67.8636 24.4827 57.4455 24.4827 46.5892Z" fill="#2F91C9"/>
<path d="M126.766 84.0948C211.136 84.0948 279.532 83.8919 279.532 83.6416C279.532 83.3913 211.136 83.1884 126.766 83.1884C42.3956 83.1884 -26 83.3913 -26 83.6416C-26 83.8919 42.3956 84.0948 126.766 84.0948Z" fill="#2F91C9"/>
<path d="M118.482 36.2976C120.331 33.0104 120.117 30.1014 118.993 26.7808C121.851 26.5142 124.81 25.8445 127.599 27.234C129.514 28.1887 129.915 30.1597 129.679 32.169C129.436 34.2416 128.359 35.956 126.259 36.2226C123.803 36.5375 121.276 36.2976 118.482 36.2976ZM124.174 27.6938C123.816 27.8621 123.457 28.0287 123.1 28.197C123.1 30.0814 123.036 31.9674 123.12 33.8484C123.187 35.3279 124.474 35.4962 124.999 34.6165C125.698 33.4402 126.001 31.8291 125.899 30.4462C125.829 29.4916 124.783 28.6085 124.174 27.6938Z" fill="#2F91C9"/>
<path d="M137.275 28.95C137.275 30.7744 137.275 32.009 137.275 33.7151C136.39 32.937 135.912 32.5172 135.436 32.0973C135.207 32.1573 134.979 32.2156 134.75 32.2756C134.9 33.1419 135.05 34.0066 135.201 34.873C136.669 34.5498 138.138 34.2282 139.8 33.8617C140.509 35.1029 139.846 36.4408 137.891 36.4475C135.525 36.4558 133.16 36.4492 130.52 36.4492C131.944 33.1803 132.37 30.2113 130.274 26.8357C133.173 26.7358 135.867 26.5408 138.546 26.6591C138.956 26.6775 139.304 28.1336 139.618 28.7934C137.784 28.6151 136.355 28.4752 134.925 28.3369C134.877 29.1066 134.828 29.8747 134.736 31.3359C135.819 30.3162 136.333 29.8331 137.275 28.95Z" fill="#2F91C9"/>
<path d="M57.1498 31.8841C73.1447 31.7891 89.1378 31.0377 105.134 31.246C105.163 31.5509 105.193 31.8558 105.221 32.1607C104.379 32.3289 103.539 32.6438 102.698 32.6455C87.5063 32.6755 72.3164 32.6672 57.1248 32.6672C57.1331 32.4056 57.1415 32.144 57.1498 31.8841Z" fill="#2F91C9"/>
<path d="M197.807 32.4855C182.158 32.4855 166.509 32.4889 150.861 32.4639C150.542 32.4639 150.223 32.1357 149.943 31.5858C165.946 31.0027 181.909 31.7175 197.875 31.9024C197.852 32.0957 197.829 32.2906 197.807 32.4855Z" fill="#2F91C9"/>
<path d="M76.2866 96.2057H77.1366L77.5291 100.508H77.5458L77.9633 96.2057H78.9251L79.3426 100.508H79.3593L79.7518 96.2057H80.5133L79.9438 101.804H78.845L78.4442 98.0285H78.4275L78.0267 101.804H76.8561L76.2866 96.2057Z" fill="#2F91C9"/>
<path d="M80.7903 96.2057H81.6403L82.0327 100.508H82.0494L82.4669 96.2057H83.4288L83.8463 100.508H83.863L84.2554 96.2057H85.0169L84.4475 101.804H83.3487L82.9479 98.0285H82.9312L82.5304 101.804H81.3597L80.7903 96.2057Z" fill="#2F91C9"/>
<path d="M85.2957 96.2057H86.1457L86.5381 100.508H86.5548L86.9723 96.2057H87.9342L88.3517 100.508H88.3684L88.7608 96.2057H89.5223L88.9529 101.804H87.854L87.4533 98.0285H87.4366L87.0358 101.804H85.8651L85.2957 96.2057Z" fill="#2F91C9"/>
<path d="M89.7678 100.956H90.6178V101.804H89.7678V100.956Z" fill="#2F91C9"/>
<path d="M91.274 96.2057H92.62C93.0575 96.2057 93.3865 96.3224 93.6053 96.5573C93.824 96.7922 93.9343 97.1354 93.9343 97.5886V100.419C93.9343 100.873 93.824 101.216 93.6053 101.451C93.3865 101.686 93.0575 101.802 92.62 101.802H91.274V96.2057ZM92.605 101.004C92.7486 101.004 92.8605 100.961 92.9373 100.876C93.0141 100.791 93.0542 100.653 93.0542 100.459V97.5486C93.0542 97.357 93.0158 97.2187 92.9373 97.1321C92.8605 97.0471 92.7486 97.0038 92.605 97.0038H92.1557V101.002H92.605V101.004Z" fill="#2F91C9"/>
<path d="M94.5286 96.2057H96.9333V97.0055H95.4103V98.485H96.6211V99.2847H95.4103V101.004H96.9333V101.804H94.5286V96.2057Z" fill="#2F91C9"/>
<path d="M98.1284 97.0055H97.2065V96.2057H99.9319V97.0055H99.0101V101.804H98.1284V97.0055V97.0055Z" fill="#2F91C9"/>
<path d="M100.357 96.2057H102.762V97.0055H101.239V98.485H102.45V99.2847H101.239V101.004H102.762V101.804H100.357V96.2057Z" fill="#2F91C9"/>
<path d="M103.266 96.2057H104.372L105.23 99.5563H105.247V96.2057H106.032V101.804H105.127L104.068 97.7169H104.051V101.804H103.266V96.2057V96.2057Z" fill="#2F91C9"/>
<path d="M107.378 97.0055H106.456V96.2057H109.181V97.0055H108.26V101.804H107.378V97.0055V97.0055Z" fill="#2F91C9"/>
<path d="M109.43 101.021L111.065 97.0055H109.51V96.2057H112.012V96.9888L110.377 101.004H112.012V101.804H109.43V101.021Z" fill="#2F91C9"/>
<path d="M112.508 96.2057H114.912V97.0055H113.389V98.485H114.6V99.2847H113.389V101.004H114.912V101.804H112.508V96.2057Z" fill="#2F91C9"/>
<path d="M116.108 97.0055H115.186V96.2057H117.912V97.0055H116.99V101.804H116.108V97.0055V97.0055Z" fill="#2F91C9"/>
<path d="M119.106 97.0055H118.184V96.2057H120.909V97.0055H119.987V101.804H119.106V97.0055V97.0055Z" fill="#2F91C9"/>
<path d="M121.334 96.2057H123.738V97.0055H122.215V98.485H123.426V99.2847H122.215V101.004H123.738V101.804H121.334V96.2057Z" fill="#2F91C9"/>
<path d="M124.242 96.2057H125.548C126.002 96.2057 126.333 96.3107 126.542 96.5223C126.75 96.7322 126.854 97.0571 126.854 97.4937V97.8369C126.854 98.4183 126.662 98.7866 126.276 98.9398V98.9565C126.49 99.0198 126.64 99.1514 126.729 99.348C126.817 99.5446 126.861 99.8095 126.861 100.139V101.122C126.861 101.282 126.866 101.412 126.877 101.511C126.887 101.609 126.914 101.707 126.957 101.802H126.059C126.027 101.712 126.006 101.626 125.996 101.546C125.984 101.466 125.979 101.322 125.979 101.114V100.091C125.979 99.8345 125.937 99.6563 125.855 99.5546C125.772 99.453 125.63 99.403 125.426 99.403H125.122V101.802H124.24V96.2057H124.242ZM125.445 98.6049C125.622 98.6049 125.753 98.56 125.842 98.4683C125.93 98.3767 125.974 98.2251 125.974 98.0118V97.5803C125.974 97.377 125.937 97.2304 125.865 97.1404C125.794 97.0505 125.68 97.0038 125.525 97.0038H125.124V98.6033H125.445V98.6049Z" fill="#2F91C9"/>
<path d="M127.514 100.956H128.364V101.804H127.514V100.956Z" fill="#2F91C9"/>
<path d="M129.02 96.2057H130.351C130.806 96.2057 131.136 96.3107 131.345 96.5223C131.554 96.7322 131.657 97.0571 131.657 97.4937V97.7169C131.657 98.0051 131.611 98.2401 131.517 98.42C131.424 98.6016 131.28 98.7316 131.088 98.8115V98.8282C131.525 98.9782 131.746 99.3664 131.746 99.9961V100.476C131.746 100.908 131.632 101.237 131.405 101.464C131.178 101.691 130.846 101.804 130.407 101.804H129.02V96.2057V96.2057ZM130.248 98.485C130.425 98.485 130.557 98.44 130.645 98.3484C130.734 98.2584 130.777 98.1051 130.777 97.8919V97.5803C130.777 97.377 130.741 97.2304 130.669 97.1404C130.597 97.0505 130.483 97.0038 130.328 97.0038H129.904V98.4833H130.248V98.485ZM130.408 101.004C130.563 101.004 130.679 100.962 130.752 100.881C130.826 100.799 130.864 100.656 130.864 100.453V99.9645C130.864 99.7079 130.821 99.5313 130.732 99.433C130.644 99.3347 130.498 99.2847 130.295 99.2847H129.902V101.004H130.408Z" fill="#2F91C9"/>
<path d="M132.258 96.2057H134.663V97.0055H133.14V98.485H134.351V99.2847H133.14V101.004H134.663V101.804H132.258V96.2057Z" fill="#2F91C9"/>
<path d="M143.572 101.517C143.342 101.272 143.228 100.925 143.228 100.477V97.5345C143.228 97.0863 143.343 96.7398 143.572 96.4949C143.803 96.2499 144.133 96.1266 144.566 96.1266C144.998 96.1266 145.331 96.2499 145.559 96.4949C145.79 96.7398 145.903 97.0863 145.903 97.5345V100.477C145.903 100.925 145.788 101.272 145.559 101.517C145.329 101.761 144.998 101.885 144.566 101.885C144.133 101.885 143.803 101.761 143.572 101.517ZM145.023 100.533V97.4779C145.023 97.1096 144.871 96.9264 144.566 96.9264C144.26 96.9264 144.108 97.1096 144.108 97.4779V100.533C144.108 100.902 144.26 101.085 144.566 101.085C144.871 101.085 145.023 100.902 145.023 100.533Z" fill="#2F91C9"/>
<path d="M147.974 100.788H146.291V99.9878L147.894 96.2057H148.856V99.9878H149.273V100.788H148.856V101.804H147.974V100.788ZM147.974 99.9878V97.8052H147.957L147.092 99.9878H147.974Z" fill="#2F91C9"/>
<path d="M151.428 97.0055H149.648V96.2057H152.293V96.9738L150.913 101.804H150.015L151.428 97.0055Z" fill="#2F91C9"/>
<path d="M153.216 101.516C152.986 101.271 152.872 100.924 152.872 100.476V97.5803C152.872 96.6106 153.321 96.1241 154.218 96.1241C154.646 96.1241 154.971 96.2457 155.197 96.4873C155.421 96.7305 155.534 97.0771 155.534 97.5303V97.6369H154.701V97.477C154.701 97.1088 154.549 96.9255 154.243 96.9255C154.078 96.9255 153.954 96.9755 153.874 97.0771C153.794 97.1787 153.754 97.357 153.754 97.6136V98.6849H153.771C153.926 98.36 154.193 98.1967 154.572 98.1967C154.893 98.1967 155.137 98.3067 155.302 98.5249C155.467 98.7432 155.551 99.0614 155.551 99.4763V100.476C155.551 100.924 155.436 101.271 155.207 101.516C154.976 101.761 154.646 101.884 154.213 101.884C153.777 101.884 153.445 101.761 153.216 101.516ZM154.667 100.541V99.5496C154.667 99.1814 154.515 98.9981 154.21 98.9981C153.906 98.9981 153.752 99.1814 153.752 99.5496V100.541C153.752 100.904 153.904 101.084 154.21 101.084C154.514 101.084 154.667 100.902 154.667 100.541Z" fill="#2F91C9"/>
<path d="M158.074 96.2057H158.836L156.623 101.804H155.861L158.074 96.2057Z" fill="#2F91C9"/>
<path d="M159.5 101.521C159.276 101.277 159.163 100.931 159.163 100.478V100.374H159.996V100.534C159.996 100.902 160.148 101.086 160.454 101.086C160.619 101.086 160.742 101.036 160.823 100.934C160.903 100.833 160.943 100.654 160.943 100.398V99.3264H160.926C160.771 99.6513 160.504 99.8145 160.125 99.8145C159.804 99.8145 159.56 99.7046 159.395 99.4863C159.23 99.268 159.146 98.9498 159.146 98.535V97.5353C159.146 97.0871 159.261 96.7406 159.49 96.4957C159.72 96.2507 160.051 96.1274 160.484 96.1274C160.916 96.1274 161.248 96.2507 161.477 96.4957C161.708 96.7406 161.821 97.0871 161.821 97.5353V100.431C161.821 101.401 161.372 101.887 160.475 101.887C160.049 101.884 159.724 101.762 159.5 101.521ZM160.943 98.4617V97.4703C160.943 97.1071 160.791 96.9272 160.485 96.9272C160.18 96.9272 160.028 97.1088 160.028 97.4703V98.4617C160.028 98.8299 160.18 99.0131 160.485 99.0131C160.791 99.0131 160.943 98.8282 160.943 98.4617Z" fill="#2F91C9"/>
<path d="M162.426 101.196C162.426 100.796 162.49 100.453 162.618 100.168C162.747 99.8828 162.976 99.5662 163.308 99.2197C163.634 98.8731 163.859 98.5766 163.986 98.3317C164.111 98.0867 164.175 97.8302 164.175 97.5636C164.175 97.3237 164.136 97.1571 164.058 97.0638C163.981 96.9704 163.868 96.9238 163.717 96.9238C163.413 96.9238 163.26 97.1071 163.26 97.4753V98.0751H162.426V97.5319C162.426 97.0787 162.538 96.7305 162.764 96.4889C162.988 96.2457 163.313 96.1257 163.742 96.1257C164.17 96.1257 164.495 96.2474 164.721 96.4889C164.945 96.7322 165.058 97.0787 165.058 97.5319C165.058 97.8735 164.976 98.2067 164.814 98.5316C164.651 98.8565 164.37 99.2297 163.969 99.6512C163.707 99.9278 163.532 100.154 163.44 100.328C163.35 100.501 163.303 100.686 163.303 100.884V101.004H164.978V101.804H162.43V101.196H162.426Z" fill="#2F91C9"/>
<path d="M165.928 101.516C165.697 101.271 165.584 100.924 165.584 100.476V97.5336C165.584 97.0854 165.699 96.7389 165.928 96.4939C166.158 96.249 166.489 96.1257 166.921 96.1257C167.354 96.1257 167.686 96.249 167.915 96.4939C168.145 96.7389 168.259 97.0854 168.259 97.5336V100.476C168.259 100.924 168.144 101.271 167.915 101.516C167.686 101.761 167.354 101.884 166.921 101.884C166.489 101.884 166.158 101.761 165.928 101.516ZM167.379 100.533V97.4769C167.379 97.1087 167.227 96.9255 166.921 96.9255C166.616 96.9255 166.464 97.1087 166.464 97.4769V100.533C166.464 100.901 166.616 101.084 166.921 101.084C167.227 101.084 167.379 100.901 167.379 100.533Z" fill="#2F91C9"/>
<path d="M168.853 100.956H169.703V101.804H168.853V100.956Z" fill="#2F91C9"/>
<path d="M170.625 101.521C170.402 101.277 170.288 100.931 170.288 100.478V100.374H171.121V100.534C171.121 100.902 171.273 101.086 171.579 101.086C171.744 101.086 171.868 101.036 171.948 100.934C172.028 100.833 172.068 100.654 172.068 100.398V99.3264H172.051C171.896 99.6513 171.629 99.8145 171.25 99.8145C170.929 99.8145 170.685 99.7046 170.52 99.4863C170.355 99.268 170.271 98.9498 170.271 98.535V97.5353C170.271 97.0871 170.387 96.7406 170.615 96.4957C170.846 96.2507 171.176 96.1274 171.609 96.1274C172.041 96.1274 172.374 96.2507 172.603 96.4957C172.833 96.7406 172.947 97.0871 172.947 97.5353V100.431C172.947 101.401 172.497 101.887 171.601 101.887C171.176 101.884 170.851 101.762 170.625 101.521ZM172.068 98.4617V97.4703C172.068 97.1071 171.916 96.9272 171.611 96.9272C171.305 96.9272 171.153 97.1088 171.153 97.4703V98.4617C171.153 98.8299 171.305 99.0131 171.611 99.0131C171.916 99.0131 172.068 98.8282 172.068 98.4617Z" fill="#2F91C9"/>
<path d="M173.551 101.196C173.551 100.796 173.614 100.453 173.743 100.168C173.872 99.8828 174.1 99.5662 174.433 99.2197C174.758 98.8731 174.984 98.5766 175.111 98.3317C175.236 98.0867 175.299 97.8302 175.299 97.5636C175.299 97.3237 175.261 97.1571 175.182 97.0638C175.106 96.9704 174.992 96.9238 174.842 96.9238C174.538 96.9238 174.384 97.1071 174.384 97.4753V98.0751H173.551V97.5319C173.551 97.0787 173.663 96.7305 173.888 96.4889C174.112 96.2457 174.439 96.1257 174.867 96.1257C175.294 96.1257 175.62 96.2474 175.845 96.4889C176.069 96.7322 176.183 97.0787 176.183 97.5319C176.183 97.8735 176.101 98.2067 175.939 98.5316C175.777 98.8565 175.495 99.2297 175.094 99.6512C174.832 99.9278 174.656 100.154 174.565 100.328C174.474 100.501 174.428 100.686 174.428 100.884V101.004H176.103V101.804H173.554V101.196H173.551Z" fill="#2F91C9"/>
<path d="M178.009 97.5336H177.087V96.9105C177.337 96.9105 177.539 96.8888 177.691 96.8472C177.843 96.8055 177.965 96.7339 178.055 96.6356C178.146 96.5373 178.226 96.394 178.296 96.2074H178.889V101.806H178.007V97.5336H178.009Z" fill="#2F91C9"/>
<path d="M81.2211 18.8468C81.0224 18.9534 80.7819 19.0267 80.4997 19.0617C79.9536 19.1317 79.5161 19.03 79.1871 18.7585C78.8581 18.4869 78.6561 18.0687 78.5843 17.5039L78.1066 13.7935C78.0332 13.2287 78.1217 12.7738 78.3722 12.4273C78.6227 12.0807 79.0201 11.8725 79.5645 11.8025C80.1089 11.7325 80.5481 11.8341 80.8771 12.1057C81.2061 12.3773 81.4081 12.7955 81.48 13.3603L81.9576 17.0707C82.0177 17.5405 81.9642 17.9404 81.7939 18.2703C81.8423 18.3319 81.8991 18.3703 81.9626 18.3819C82.026 18.3936 82.1145 18.3936 82.2298 18.3786L82.4018 18.3569L82.532 19.3649L82.2398 19.4032C81.7321 19.4682 81.3931 19.2816 81.2211 18.8468ZM80.8554 17.2856L80.3594 13.4353C80.2993 12.9721 80.0772 12.7638 79.6948 12.8138C79.3107 12.8638 79.1487 13.1187 79.2088 13.5835L79.7048 17.4339C79.7649 17.8971 79.987 18.1054 80.3711 18.0554C80.7535 18.0054 80.9155 17.7488 80.8554 17.2856Z" fill="#2F91C9"/>
<path d="M83.2435 18.2554C82.9245 17.9822 82.7325 17.559 82.6657 16.9858L82.0444 11.5943L83.1583 11.466L83.7895 16.9392C83.8179 17.1808 83.8864 17.3507 83.9966 17.4473C84.1068 17.544 84.2538 17.5823 84.4358 17.5606C84.6178 17.539 84.7514 17.4707 84.8366 17.3507C84.9218 17.2324 84.9501 17.0508 84.9234 16.8092L84.2922 11.3361L85.3643 11.2128L85.9855 16.6043C86.0523 17.1758 85.9604 17.6323 85.7116 17.9705C85.4628 18.3087 85.0704 18.5103 84.5293 18.572C83.9899 18.6353 83.5624 18.5286 83.2435 18.2554Z" fill="#2F91C9"/>
<path d="M87.0647 11.0361L88.5744 10.8828L90.4547 17.8421L89.3392 17.9554L88.9919 16.5709L88.9935 16.5909L87.726 16.7208L87.6659 18.127L86.6322 18.232L87.0647 11.0361ZM88.7647 15.6429L87.9097 12.1957L87.8897 12.1974L87.7611 15.7445L88.7647 15.6429Z" fill="#2F91C9"/>
<path d="M90.327 10.7095L91.4426 10.6079L91.9953 16.6809L93.8323 16.5143L93.9241 17.5256L90.9717 17.7922L90.327 10.7095Z" fill="#2F91C9"/>
<path d="M93.8621 10.3963L94.9793 10.3047L95.5672 17.3956L94.4499 17.4873L93.8621 10.3963Z" fill="#2F91C9"/>
<path d="M96.803 11.1811L95.6341 11.2677L95.5589 10.2547L99.0124 9.99817L99.0876 11.0112L97.9186 11.0978L98.3728 17.1791L97.2556 17.2624L96.803 11.1811Z" fill="#2F91C9"/>
<path d="M100.935 13.9668L99.3237 9.9748L100.513 9.89983L101.441 12.459L101.461 12.4573L102.057 9.80153L103.145 9.73322L102.052 13.8968L102.244 16.9191L101.126 16.9908L100.935 13.9668Z" fill="#2F91C9"/>
<path d="M106.287 10.5862L105.117 10.6429L105.066 9.62824L108.527 9.45996L108.577 10.4746L107.406 10.5313L107.702 16.6225L106.583 16.6775L106.287 10.5862Z" fill="#2F91C9"/>
<path d="M109.117 9.435L112.172 9.31671L112.212 10.333L110.278 10.408L110.352 12.2874L111.888 12.2274L111.928 13.2437L110.392 13.3037L110.477 15.488L112.411 15.413L112.451 16.4293L109.396 16.5476L109.117 9.435Z" fill="#2F91C9"/>
<path d="M112.873 9.29337L114.278 9.25338L115.487 13.4803H115.507L115.386 9.22339L116.385 9.19507L116.585 16.306L115.435 16.3377L113.944 11.1844H113.923L114.07 16.376L113.072 16.4043L112.873 9.29337Z" fill="#2F91C9"/>
<path d="M118.167 10.1781L116.997 10.1981L116.978 9.18176L120.442 9.12012L120.46 10.1364L119.289 10.1564L119.398 16.2527L118.277 16.2727L118.167 10.1781Z" fill="#2F91C9"/>
<path d="M121.317 15.8661C121.037 15.5596 120.893 15.1197 120.888 14.5432L120.885 14.1367L121.943 14.1284L121.947 14.6166C121.95 15.0781 122.145 15.3063 122.533 15.303C122.723 15.3013 122.867 15.2447 122.964 15.1314C123.061 15.0181 123.109 14.8365 123.107 14.5866C123.106 14.2883 123.035 14.0268 122.897 13.8002C122.76 13.5736 122.506 13.3037 122.137 12.9888C121.671 12.5856 121.347 12.2207 121.16 11.8941C120.975 11.5676 120.88 11.196 120.876 10.7829C120.871 10.2197 121.01 9.78485 121.294 9.47329C121.576 9.1634 121.99 9.00512 122.533 9.00012C123.069 8.99512 123.476 9.14674 123.754 9.4533C124.031 9.75986 124.173 10.1997 124.178 10.7762L124.179 11.0711L123.121 11.0794L123.117 10.7129C123.116 10.4696 123.066 10.2914 122.97 10.1797C122.873 10.0681 122.735 10.0131 122.551 10.0148C122.177 10.0181 121.993 10.2464 121.997 10.6995C121.998 10.9578 122.07 11.1977 122.212 11.4193C122.352 11.6426 122.608 11.9108 122.977 12.2257C123.45 12.6289 123.775 12.9954 123.954 13.3253C124.133 13.6552 124.224 14.0451 124.228 14.4916C124.233 15.0747 124.093 15.5229 123.805 15.8361C123.52 16.151 123.101 16.3093 122.551 16.3143C122.01 16.3226 121.598 16.171 121.317 15.8661Z" fill="#2F91C9"/>
<path d="M126.525 9.08673L129.489 9.10173L129.484 10.118L127.641 10.1081L127.63 12.0907L129.077 12.0974L129.072 13.1137L127.625 13.107L127.61 16.206L126.49 16.201L126.525 9.08673Z" fill="#2F91C9"/>
<path d="M130.34 15.8611C130.052 15.5445 129.912 15.103 129.92 14.5332L129.976 10.7928C129.984 10.223 130.136 9.7848 130.433 9.47824C130.73 9.17167 131.153 9.02172 131.702 9.03005C132.252 9.03838 132.671 9.2 132.958 9.51656C133.245 9.83312 133.386 10.2746 133.377 10.8444L133.322 14.5848C133.314 15.1547 133.162 15.5928 132.865 15.8994C132.567 16.206 132.145 16.3559 131.595 16.3476C131.046 16.3393 130.627 16.176 130.34 15.8611ZM132.202 14.6382L132.258 10.7561C132.265 10.288 132.075 10.0514 131.687 10.0464C131.3 10.0414 131.103 10.2713 131.096 10.7395L131.039 14.6215C131.033 15.0897 131.223 15.3263 131.61 15.3313C131.998 15.3363 132.195 15.1047 132.202 14.6382Z" fill="#2F91C9"/>
<path d="M134.214 9.1734L135.874 9.21505C136.45 9.23005 136.869 9.37333 137.126 9.64824C137.383 9.92315 137.507 10.338 137.492 10.8928L137.48 11.3293C137.462 12.0674 137.205 12.5289 136.712 12.7122V12.7322C136.981 12.8205 137.17 12.9904 137.275 13.2437C137.38 13.4969 137.429 13.8335 137.417 14.2534L137.385 15.5029C137.38 15.7062 137.382 15.8711 137.393 15.9961C137.404 16.1211 137.435 16.246 137.485 16.3693L136.345 16.341C136.306 16.2244 136.283 16.1161 136.271 16.0144C136.26 15.9128 136.258 15.7295 136.265 15.4646L136.298 14.1634C136.306 13.8385 136.26 13.6102 136.158 13.4786C136.056 13.347 135.876 13.2787 135.618 13.272L135.231 13.262L135.154 16.3093L134.034 16.281L134.214 9.1734ZM135.665 12.259C135.889 12.264 136.059 12.2107 136.173 12.0991C136.288 11.9875 136.348 11.7958 136.355 11.5243L136.368 10.9761C136.375 10.7195 136.333 10.5313 136.245 10.4146C136.156 10.298 136.012 10.2364 135.815 10.2314L135.306 10.218L135.254 12.2507L135.665 12.259Z" fill="#2F91C9"/>
<path d="M140.89 13.4619L139.7 9.32501L140.89 9.37333L141.548 12.0141H141.568L142.437 9.43498L143.526 9.47829L142.008 13.5069L141.886 16.5326L140.767 16.4876L140.89 13.4619Z" fill="#2F91C9"/>
<path d="M143.924 16.2544C143.649 15.9278 143.525 15.4813 143.553 14.9131L143.742 11.1777C143.77 10.6096 143.939 10.1764 144.246 9.87984C144.554 9.58328 144.983 9.44832 145.532 9.47665C146.082 9.50497 146.494 9.68158 146.77 10.0065C147.045 10.333 147.169 10.7795 147.141 11.3477L146.952 15.0831C146.923 15.6512 146.755 16.0844 146.447 16.381C146.14 16.6776 145.711 16.8125 145.162 16.7842C144.612 16.7575 144.2 16.5809 143.924 16.2544ZM145.828 15.0981L146.023 11.2211C146.047 10.7546 145.865 10.5113 145.479 10.4913C145.093 10.4713 144.888 10.6962 144.864 11.1627L144.669 15.0398C144.646 15.5063 144.828 15.7495 145.213 15.7695C145.599 15.7895 145.805 15.5646 145.828 15.0981Z" fill="#2F91C9"/>
<path d="M148.01 16.4726C147.744 16.1477 147.629 15.6979 147.664 15.123L147.998 9.70654L149.117 9.77485L148.778 15.273C148.763 15.5162 148.801 15.6962 148.893 15.8095C148.985 15.9244 149.122 15.9861 149.306 15.9978C149.489 16.0094 149.633 15.9628 149.738 15.8611C149.843 15.7595 149.903 15.5862 149.918 15.343L150.257 9.84483L151.335 9.91147L151.001 15.328C150.965 15.9028 150.795 16.336 150.491 16.6259C150.187 16.9158 149.765 17.0441 149.222 17.0107C148.679 16.9774 148.275 16.7991 148.01 16.4726Z" fill="#2F91C9"/>
<path d="M152.187 9.96814L153.844 10.0881C154.42 10.1298 154.829 10.2947 155.075 10.5796C155.319 10.8662 155.422 11.286 155.38 11.8392L155.349 12.2757C155.295 13.0121 155.016 13.4603 154.515 13.6219L154.514 13.6419C154.779 13.7419 154.958 13.9218 155.051 14.1801C155.145 14.4383 155.177 14.7765 155.145 15.1964L155.053 16.4426C155.038 16.6459 155.033 16.8092 155.038 16.9358C155.043 17.0624 155.066 17.1874 155.113 17.314L153.976 17.2307C153.944 17.1124 153.924 17.0024 153.919 16.9008C153.912 16.7992 153.919 16.6159 153.939 16.3527L154.034 15.0548C154.058 14.7299 154.023 14.4999 153.926 14.365C153.831 14.2284 153.654 14.1517 153.396 14.1334L153.011 14.1051L152.789 17.1457L151.671 17.0641L152.187 9.96814ZM153.488 13.1204C153.712 13.1371 153.884 13.0921 154.004 12.9855C154.125 12.8788 154.195 12.6906 154.215 12.4206L154.255 11.8725C154.273 11.6159 154.241 11.426 154.158 11.3044C154.074 11.1827 153.936 11.1144 153.739 11.1011L153.231 11.0644L153.083 13.0921L153.488 13.1204Z" fill="#2F91C9"/>
<path d="M157.991 10.413L161.035 10.6829L160.945 11.6959L159.018 11.5243L158.851 13.397L160.382 13.5336L160.292 14.5466L158.76 14.4099L158.567 16.5859L160.494 16.7575L160.404 17.7705L157.359 17.5006L157.991 10.413Z" fill="#2F91C9"/>
<path d="M161.439 10.7195L162.564 10.8328L162.741 16.3976L162.761 16.3993L164.044 10.9811L165.067 11.0844L163.281 18.0554L161.801 17.9071L161.439 10.7195Z" fill="#2F91C9"/>
<path d="M165.667 11.1494L168.705 11.4893L168.591 12.499L166.667 12.284L166.457 14.1517L167.985 14.3233L167.871 15.333L166.343 15.1614L166.1 17.3323L168.023 17.5473L167.91 18.5569L164.872 18.217L165.667 11.1494Z" fill="#2F91C9"/>
<path d="M169.41 11.5726L170.804 11.7475L171.353 16.1077L171.373 16.111L171.905 11.8858L172.895 12.0091L172.006 19.0684L170.864 18.9251L170.178 13.6052L170.158 13.6019L169.51 18.7551L168.52 18.6319L169.41 11.5726Z" fill="#2F91C9"/>
<path d="M174.526 13.257L173.365 13.0954L173.506 12.0891L176.936 12.5656L176.795 13.5719L175.635 13.4103L174.791 19.4499L173.681 19.295L174.526 13.257Z" fill="#2F91C9"/>
<path d="M176.741 19.3666C176.512 19.0201 176.442 18.5619 176.529 17.9921L176.59 17.5906L177.637 17.7505L177.564 18.232C177.494 18.6869 177.651 18.9451 178.033 19.0034C178.22 19.0317 178.372 18.9984 178.486 18.9035C178.599 18.8085 178.676 18.6369 178.715 18.3886C178.76 18.0937 178.733 17.8238 178.633 17.5789C178.533 17.334 178.325 17.0274 178.011 16.6559C177.616 16.1844 177.354 15.7728 177.222 15.4196C177.09 15.0664 177.056 14.6865 177.118 14.2783C177.203 13.7219 177.41 13.3137 177.739 13.0521C178.068 12.7905 178.501 12.7005 179.039 12.7822C179.57 12.8638 179.947 13.0771 180.172 13.4236C180.398 13.7702 180.466 14.2284 180.379 14.7965L180.334 15.0881L179.287 14.9281L179.342 14.5666C179.379 14.325 179.359 14.1417 179.282 14.0184C179.205 13.8935 179.077 13.8168 178.895 13.7902C178.526 13.7335 178.307 13.9301 178.239 14.3783C178.2 14.6332 178.232 14.8815 178.335 15.1231C178.439 15.3646 178.648 15.6712 178.962 16.0411C179.362 16.5143 179.626 16.9274 179.75 17.2823C179.873 17.6372 179.902 18.0354 179.835 18.4769C179.747 19.0534 179.536 19.4733 179.204 19.7382C178.872 20.0031 178.432 20.0931 177.89 20.0097C177.352 19.9281 176.968 19.7132 176.741 19.3666Z" fill="#2F91C9"/>
</g>
<defs>
<clipPath id="clip0">
<rect width="254" height="109" fill="white"/>
</clipPath>
</defs>
</svg>
