<svg width="147" height="112" viewBox="0 0 147 112" fill="none" xmlns="http://www.w3.org/2000/svg">
<g clip-path="url(#clip0)">
<path d="M28.8428 91.0766C29.8476 91.0766 30.8295 91.0671 31.8107 91.082C32.139 91.0867 32.1885 91.3973 32.2812 91.6294C32.8303 93.0009 33.3731 94.3756 33.9183 95.7487C35.2765 99.1709 36.6348 102.593 37.9938 106.014C38.1124 106.312 38.2397 106.607 38.4392 106.89C38.5892 105.853 38.3284 104.84 38.3269 103.817C38.3253 102.763 38.2554 101.71 38.2389 100.656C38.2224 99.6233 38.235 98.5906 38.235 97.557C38.235 96.5007 38.235 95.4444 38.235 94.3882C38.235 93.3334 38.235 92.2787 38.235 91.126C39.1258 90.9981 39.9789 91.0781 40.8124 91.0781C40.9883 91.6286 41.0583 110.117 40.8996 111.53C40.7213 111.555 40.5225 111.606 40.3238 111.608C39.6419 111.618 38.9585 111.583 38.2782 111.622C37.7903 111.65 37.5688 111.439 37.4007 111.01C36.3653 108.369 35.3088 105.734 34.2592 103.099C33.3653 100.855 32.4713 98.6102 31.5734 96.3674C31.4823 96.1408 31.3645 95.9252 31.2584 95.704C31.2129 95.7173 31.1681 95.7299 31.1225 95.7432C31.1225 95.9401 31.0982 96.1408 31.1264 96.3329C31.3535 97.8683 31.4132 99.4108 31.4069 100.961C31.3935 104.177 31.4037 107.394 31.4006 110.61C31.4006 110.908 31.3692 111.206 31.3495 111.555C30.4823 111.555 29.6747 111.555 28.8805 111.555C28.7093 111.003 28.6637 92.0513 28.8428 91.0766Z" fill="#2F91C9"/>
<path d="M26.4476 77.6583C26.3644 75.9182 26.2481 74.1797 26.2065 72.4388C26.1648 70.6798 26.197 68.9186 26.197 67.1588C26.197 65.4062 26.197 63.6535 26.197 61.8515C27.1098 61.8515 27.919 61.8515 28.7202 61.8515C28.8994 62.4004 28.9308 81.58 28.7509 82.3517C28.5867 82.3697 28.406 82.4026 28.2253 82.4066C27.7791 82.4152 27.3322 82.4168 26.8852 82.4081C25.3361 82.3783 25.7084 82.6638 25.1114 81.1777C23.2402 76.522 21.3933 71.8569 19.5347 67.1965C19.4404 66.9605 19.3257 66.7338 19.1506 66.3496C19.0924 66.617 19.0343 66.733 19.0484 66.8405C19.3179 68.9366 19.3917 71.0414 19.3713 73.154C19.3446 75.9464 19.365 78.7397 19.365 81.5322C19.365 81.7855 19.365 82.0396 19.365 82.3556C18.4883 82.4481 17.6816 82.4113 16.8913 82.3862C16.7035 81.8004 16.6753 62.6129 16.8685 61.8005C17.4687 61.8005 18.0948 61.7911 18.7209 61.8021C20.2103 61.8295 19.8741 61.559 20.4185 62.9274C22.3007 67.6545 24.1664 72.387 26.0423 77.1164C26.1224 77.3188 26.2426 77.5062 26.3439 77.7007C26.3801 77.6865 26.4138 77.6724 26.4476 77.6583Z" fill="#2F91C9"/>
<path d="M0.674105 11.7086C0.674105 10.7268 0.650538 9.84223 0.697671 8.9616C0.705527 8.81417 1.0009 8.62754 1.19886 8.55461C2.43297 8.10057 3.67729 7.67711 4.91691 7.23797C10.0073 5.43592 15.0962 3.63151 20.1866 1.82946C21.8245 1.24995 23.4647 0.678284 25.0995 0.0909316C25.4263 -0.0266957 25.7216 -0.0329691 26.0516 0.0846582C30.2315 1.57225 34.4154 3.04965 38.5985 4.5294C42.2286 5.81389 45.8571 7.10073 49.4887 8.37895C50.5524 8.75379 50.5563 8.74281 50.5563 9.88772C50.5563 10.4649 50.5563 11.0428 50.5563 11.7188C50.1117 11.5863 49.7778 11.5016 49.4549 11.3879C44.2977 9.56542 39.1413 7.73906 33.9849 5.91348C31.4177 5.00462 28.8489 4.09967 26.2865 3.17904C25.8018 3.00495 25.3783 2.99946 24.8693 3.18139C19.1002 5.24379 13.3185 7.27169 7.54067 9.31213C5.5485 10.0155 3.55868 10.726 1.5665 11.431C1.30726 11.522 1.04253 11.5941 0.674105 11.7086Z" fill="#2F91C9"/>
<path d="M0.700745 49.9297C0.700745 49.0184 0.700745 48.1394 0.700745 47.2736C1.24357 47.1254 49.4556 47.076 50.4258 47.2101C50.5861 47.6916 50.6136 49.1564 50.4761 49.8983C49.9773 50.0316 1.71097 50.0771 0.700745 49.9297Z" fill="#2F91C9"/>
<path d="M75.8919 73.4967C77.3389 76.4554 78.7568 79.3553 80.2062 82.3188C79.9933 82.3564 79.8433 82.4035 79.6932 82.4058C79.0121 82.4144 78.3287 82.3792 77.6492 82.4199C77.1763 82.4482 76.9226 82.2835 76.7332 81.8514C76.1983 80.6281 75.624 79.422 75.0655 78.2089C74.4865 76.9526 73.8989 75.7003 73.3365 74.4369C73.1809 74.0872 72.9736 73.9296 72.5855 73.9515C72.1236 73.9774 71.6585 73.9578 71.1385 73.9578C71.1086 74.3405 71.0654 74.6377 71.0647 74.9357C71.0592 77.1173 71.0631 79.2989 71.0599 81.4805C71.0592 81.7557 71.0356 82.031 71.0199 82.3564C70.1071 82.3564 69.2508 82.3564 68.4008 82.3564C68.2233 81.8412 68.1746 62.744 68.3568 61.8524C68.5407 61.8359 68.7433 61.8037 68.9468 61.803C70.4511 61.7982 71.957 61.7528 73.4582 61.8194C74.3169 61.8571 75.1912 61.9982 76.016 62.2382C77.6178 62.704 78.6736 63.7862 79.141 65.3953C79.5526 66.8147 79.6021 68.2521 79.2753 69.7013C78.9092 71.3206 77.9854 72.4835 76.4826 73.1917C76.313 73.2701 76.1519 73.361 75.8919 73.4967ZM71.0639 67.8639C71.0639 68.8951 71.0537 69.9271 71.0678 70.9583C71.0757 71.5292 71.1542 71.6178 71.7332 71.6092C72.5289 71.5974 73.3326 71.5935 74.1173 71.4782C75.2855 71.3057 76.0773 70.654 76.3648 69.455C76.6209 68.3877 76.6476 67.3362 76.3609 66.2657C76.0922 65.2636 75.4897 64.5805 74.4834 64.3923C73.5918 64.2261 72.6719 64.1892 71.7622 64.1492C71.1526 64.1226 71.0741 64.2261 71.0662 64.8393C71.0537 65.8478 71.0631 66.8555 71.0639 67.8639Z" fill="#2F91C9"/>
<path d="M9.13668 102.284C8.1838 102.284 7.24977 102.284 6.25918 102.284C6.07771 101.519 6.16884 100.806 6.18534 100.111C6.7313 99.8914 11.2168 99.8569 11.9828 100.063C11.9969 100.251 12.0244 100.456 12.0252 100.661C12.0283 103.899 12.0244 107.137 12.0307 110.374C12.0315 110.745 12.0205 111.051 11.5727 111.195C9.28122 111.935 6.9599 112.254 4.57023 111.766C2.63932 111.372 1.42721 110.19 0.797975 108.357C0.414623 107.241 0.218233 106.083 0.143605 104.916C0.0477671 103.42 -0.0197909 101.919 0.00534696 100.422C0.0328415 98.8077 0.138892 97.1875 0.566236 95.6192C0.743772 94.9675 0.988866 94.3268 1.27402 93.7136C1.92525 92.3123 3.04153 91.4042 4.51995 91.009C6.50977 90.4773 8.51294 90.4914 10.4933 91.1046C11.3221 91.3618 11.3197 91.372 11.3205 92.2166C11.3213 92.771 11.3205 93.3246 11.3205 93.9316C10.6237 93.7207 10.0283 93.5254 9.42498 93.3599C8.36447 93.069 7.2914 93.0643 6.21519 93.2643C5.10284 93.4705 4.28586 94.0579 3.78938 95.0938C3.26149 96.1963 3.08945 97.3789 3.01325 98.5716C2.9292 99.8797 2.87264 101.195 2.91113 102.504C2.95512 104.022 3.00382 105.547 3.41388 107.031C3.88993 108.754 4.88445 109.555 6.6661 109.547C7.34325 109.544 8.02354 109.469 8.69598 109.378C9.16967 109.313 9.2498 109.207 9.25216 108.723C9.26315 106.752 9.25765 104.781 9.25058 102.81C9.25137 102.655 9.18538 102.499 9.13668 102.284Z" fill="#2F91C9"/>
<path d="M9.96746 61.8461C10.9471 61.8461 11.8033 61.8461 12.7224 61.8461C12.7421 62.137 12.7727 62.3872 12.7727 62.6373C12.7758 67.1895 12.7876 71.7417 12.7625 76.2931C12.7578 77.1306 12.6792 77.9845 12.4954 78.8001C11.973 81.1213 10.6815 82.3328 8.32407 82.6551C7.09546 82.8229 5.84249 82.8284 4.60602 82.5775C2.25406 82.1015 1.24619 80.6421 0.854195 78.6276C0.708081 77.874 0.66409 77.0914 0.660948 76.3213C0.643666 71.8162 0.652307 67.311 0.652307 62.8059C0.652307 62.5071 0.652307 62.2084 0.652307 61.8547C1.60205 61.8547 2.45752 61.8547 3.39312 61.8547C3.41512 62.1519 3.45596 62.4452 3.45675 62.7385C3.46068 67.3377 3.45989 71.9361 3.45911 76.5354C3.45911 77.2913 3.55416 78.0284 3.83539 78.7366C4.17632 79.5976 4.81262 80.0979 5.71602 80.2453C6.13001 80.3128 6.55656 80.3551 6.97527 80.3418C8.64772 80.2877 9.58254 79.4666 9.84256 77.8199C9.92268 77.3133 9.96117 76.7949 9.96196 76.2813C9.9706 71.7997 9.96746 67.3181 9.96746 62.8365C9.96746 62.5361 9.96746 62.2342 9.96746 61.8461Z" fill="#2F91C9"/>
<path d="M47.5563 41.4338C47.5563 42.3066 47.5563 43.1433 47.5563 44.0365C47.367 44.0694 47.1918 44.1133 47.0142 44.1282C46.8273 44.1439 46.638 44.1337 46.4502 44.1337C32.5537 44.1337 18.6571 44.1345 4.76061 44.1322C4.41575 44.1322 4.07011 44.1039 3.6734 44.0867C3.6734 43.1661 3.6734 42.3136 3.6734 41.4738C4.23586 41.3013 46.6741 41.2597 47.5563 41.4338Z" fill="#2F91C9"/>
<path d="M3.69434 13.5036C18.3277 13.5036 32.8016 13.5036 47.369 13.5036C47.2253 13.6887 47.1334 13.8361 47.014 13.9569C46.4036 14.5748 45.7681 15.17 45.1773 15.8067C44.816 16.1965 44.4295 16.3517 43.8867 16.351C37.046 16.3329 30.2046 16.3392 23.3639 16.3392C18.0041 16.3392 12.6442 16.3321 7.28434 16.3502C6.74466 16.3517 6.35974 16.2004 5.99367 15.8075C5.29138 15.0539 4.54038 14.3458 3.69434 13.5036Z" fill="#2F91C9"/>
<path d="M49.402 61.839C50.3926 61.839 51.2756 61.839 52.2732 61.839C50.534 68.7249 48.7971 75.5434 47.0516 82.3744C46.043 82.3744 45.1081 82.3744 44.0712 82.3744C42.3123 75.5787 40.6029 68.7492 38.8284 61.8076C39.8582 61.7975 40.7797 61.7873 41.7931 61.8218C43.0798 67.424 44.7154 72.9242 45.5818 78.6245C46.5151 72.9556 48.1726 67.4734 49.402 61.839Z" fill="#2F91C9"/>
<path d="M25.1451 91.158C25.1451 91.8826 25.1451 92.5759 25.1451 93.3498C24.8756 93.3663 24.6274 93.3945 24.3791 93.3953C22.7106 93.3992 21.0413 93.3961 19.3728 93.3992C19.1214 93.4 18.87 93.4243 18.5707 93.44C18.5707 95.5722 18.5707 97.6448 18.5707 99.7856C20.3265 99.9079 22.057 99.7762 23.8418 99.8664C23.9887 100.606 23.922 101.317 23.8858 102.103C23.5999 102.129 23.3524 102.169 23.1042 102.17C21.8819 102.177 20.6595 102.17 19.438 102.177C19.163 102.178 18.8881 102.22 18.5684 102.247C18.5684 104.565 18.5684 106.828 18.5684 109.15C19.6642 109.313 20.742 109.21 21.8143 109.228C22.8913 109.246 23.9691 109.232 25.1026 109.232C25.2456 110.037 25.2166 110.766 25.1411 111.48C24.4907 111.653 16.3869 111.661 15.705 111.493C15.705 104.738 15.705 97.9702 15.705 91.209C16.2117 91.0294 24.1411 90.9753 25.1451 91.158Z" fill="#2F91C9"/>
<path d="M55.2325 61.8359C58.3622 61.8359 61.4573 61.8359 64.6207 61.8359C64.7888 62.555 64.6993 63.2678 64.6789 64.0614C64.378 64.0888 64.1085 64.1335 63.8383 64.1343C62.2633 64.1414 60.689 64.1375 59.114 64.1382C58.9262 64.1382 58.7377 64.132 58.55 64.1437C58.0464 64.1751 57.9506 64.2394 57.9474 64.717C57.9333 66.5002 57.9333 68.2834 57.9482 70.0659C57.9521 70.5474 58.0574 70.6219 58.634 70.6273C59.9035 70.6391 61.1721 70.632 62.4416 70.6328C62.7197 70.6328 62.997 70.6328 63.3379 70.6328C63.4471 71.4209 63.385 72.1345 63.3921 72.9485C61.5885 73.005 59.8367 72.9391 58.0276 72.9877C57.9938 73.2598 57.9427 73.4849 57.9419 73.71C57.9356 75.5638 57.9333 77.4168 57.9404 79.2706C57.9435 80.0116 57.9985 80.065 58.7526 80.0681C60.4211 80.0752 62.0905 80.0689 63.759 80.0728C64.0347 80.0736 64.3112 80.0995 64.6364 80.1159C64.7613 80.8797 64.7213 81.5894 64.6702 82.2858C64.1109 82.4324 56.1194 82.4693 55.275 82.3438C55.2577 82.3281 55.238 82.314 55.2231 82.296C55.209 82.2787 55.1941 82.2583 55.1878 82.2372C55.1689 82.1697 55.1406 82.1015 55.1406 82.0333C55.1351 75.534 55.132 69.0354 55.1296 62.5362C55.1296 62.3958 55.1351 62.2546 55.1493 62.115C55.1563 62.0476 55.1878 61.9825 55.2325 61.8359Z" fill="#2F91C9"/>
<path d="M116.629 61.8328C119.76 61.8328 122.855 61.8328 126.022 61.8328C126.173 62.5613 126.081 63.2741 126.084 64.0622C125.762 64.0904 125.491 64.1328 125.221 64.1343C123.646 64.1406 122.072 64.1375 120.497 64.1375C120.333 64.1375 120.168 64.1328 120.003 64.1406C119.421 64.1673 119.347 64.2269 119.334 64.7954C119.318 65.5459 119.328 66.2971 119.328 67.0476C119.328 68.0098 119.319 68.972 119.333 69.9334C119.341 70.5442 119.417 70.6211 120.033 70.6266C121.326 70.6383 122.618 70.6313 123.911 70.6321C124.165 70.6321 124.417 70.6321 124.736 70.6321C124.828 71.4272 124.783 72.1401 124.776 72.9227C122.974 73.0387 121.219 72.9109 119.414 72.9987C119.383 73.2654 119.333 73.4912 119.332 73.7178C119.325 75.5716 119.323 77.4247 119.33 79.2785C119.333 80.0101 119.391 80.065 120.15 80.0674C121.819 80.0736 123.488 80.0674 125.157 80.0721C125.432 80.0728 125.708 80.1011 126.04 80.1191C126.04 80.886 126.04 81.5949 126.04 82.3564C122.884 82.3564 119.772 82.3564 116.666 82.3564C116.488 81.8349 116.443 62.7103 116.629 61.8328Z" fill="#2F91C9"/>
<path d="M82.9445 79.5898C83.2414 79.7089 83.4315 79.7842 83.6216 79.8619C84.7528 80.323 85.9288 80.5065 87.1393 80.341C89.1315 80.0697 90.1056 78.6307 89.6712 76.6601C89.4481 75.6485 88.833 74.8925 88.0836 74.2299C87.2226 73.4684 86.3412 72.7305 85.4755 71.9738C85.1582 71.6962 84.8557 71.4005 84.5549 71.1041C82.657 69.2331 82.5423 66.2414 83.4142 64.2967C84.0309 62.9212 85.166 62.097 86.5942 61.7324C88.2603 61.3074 89.9414 61.3183 91.5895 61.8837C92.1842 62.0876 92.1834 62.097 92.1873 62.7353C92.1913 63.3196 92.1881 63.9038 92.1881 64.5672C91.9587 64.4841 91.7891 64.4331 91.6288 64.3617C90.4348 63.8324 89.2054 63.667 87.9186 63.9524C86.5659 64.252 85.8141 65.1255 85.7426 66.5112C85.6719 67.8858 86.2862 68.9547 87.2721 69.8408C88.0569 70.5466 88.8786 71.2116 89.657 71.9244C90.2611 72.4772 90.9014 73.016 91.39 73.6637C92.8849 75.6438 93.0145 77.8348 92.0004 80.0328C91.2549 81.6482 89.7827 82.4332 88.0663 82.6559C86.7167 82.8308 85.3467 82.8339 84.0081 82.4787C83.7591 82.4128 83.5014 82.3477 83.2791 82.2254C83.1369 82.147 82.9649 81.9674 82.9586 81.8262C82.9272 81.1095 82.9445 80.392 82.9445 79.5898Z" fill="#2F91C9"/>
<path d="M135.234 64.1022C135.234 63.3196 135.234 62.6256 135.234 61.9363C135.725 61.7716 145.718 61.7089 146.91 61.8681C147.063 62.5597 146.981 63.2718 146.956 64.063C146.676 64.0897 146.429 64.132 146.181 64.1336C145.241 64.1414 144.301 64.1336 143.361 64.1383C142.517 64.143 142.478 64.1783 142.475 65.0048C142.471 67.2805 142.474 69.5562 142.473 71.8319C142.473 75.0227 142.473 78.2136 142.473 81.4044C142.473 81.7032 142.473 82.002 142.473 82.3533C141.521 82.3533 140.665 82.3533 139.731 82.3533C139.709 82.0529 139.669 81.7597 139.668 81.4656C139.665 76.257 139.672 71.0485 139.662 65.8399C139.658 63.9085 139.903 64.1563 137.993 64.1367C137.335 64.1296 136.676 64.1383 136.019 64.1344C135.786 64.1344 135.554 64.1163 135.234 64.1022Z" fill="#2F91C9"/>
<path d="M101.922 64.081C101.922 63.3031 101.922 62.6091 101.922 61.9261C102.462 61.7716 112.78 61.7394 113.618 61.8908C113.734 62.5856 113.693 63.2953 113.633 64.074C113.341 64.0975 113.092 64.1328 112.842 64.1343C111.855 64.1414 110.867 64.1296 109.879 64.1422C109.257 64.15 109.193 64.2229 109.17 64.8299C109.161 65.0408 109.167 65.2526 109.167 65.4635C109.167 70.7693 109.167 76.0751 109.167 81.3817C109.167 81.6828 109.167 81.9839 109.167 82.347C108.234 82.347 107.38 82.347 106.448 82.347C106.35 80.8547 106.416 79.3608 106.405 77.8701C106.393 76.3441 106.402 74.818 106.402 73.292C106.402 71.7895 106.402 70.287 106.402 68.7845C106.402 67.286 106.402 65.7874 106.402 64.2355C104.895 64.0089 103.437 64.2441 101.922 64.081Z" fill="#2F91C9"/>
<path d="M55.4701 91.151C55.4944 91.3635 55.5314 91.5447 55.5337 91.7266C55.5424 92.2395 55.5369 92.7523 55.5369 93.3593C54.053 93.4502 52.6279 93.3522 51.2124 93.4165C50.9437 93.7459 51.0262 94.1105 51.0254 94.4485C51.0199 99.7958 51.0215 105.143 51.0215 110.49C51.0215 110.815 51.0215 111.139 51.0215 111.555C50.0733 111.646 49.2029 111.638 48.2665 111.554C48.2477 111.184 48.2163 110.863 48.2163 110.542C48.2131 105.195 48.2155 99.8476 48.2115 94.5003C48.2115 94.1568 48.1731 93.8133 48.1487 93.404C46.6695 93.404 45.2673 93.404 43.7999 93.404C43.6836 92.6269 43.7629 91.914 43.7464 91.224C44.2979 91.0295 54.4402 90.9722 55.4701 91.151Z" fill="#2F91C9"/>
<path d="M35.9315 82.3618C35.0124 82.3618 34.131 82.3618 33.2033 82.3618C33.2033 75.523 33.2033 68.732 33.2033 61.9418C33.6707 61.77 35.0494 61.734 35.8985 61.8696C36.047 62.3558 36.0886 81.4663 35.9315 82.3618Z" fill="#2F91C9"/>
<path d="M132.32 82.3602C131.4 82.3602 130.519 82.3602 129.593 82.3602C129.593 75.5198 129.593 68.7281 129.593 61.9387C130.068 61.7701 131.481 61.7363 132.292 61.872C132.438 62.366 132.475 81.5133 132.32 82.3602Z" fill="#2F91C9"/>
<path d="M96.3299 61.8328C97.183 61.8328 98.022 61.8328 98.8232 61.8328C98.8774 61.8814 98.8971 61.8955 98.912 61.9135C98.9261 61.9308 98.9418 61.9512 98.9466 61.9724C98.9662 62.0633 98.9968 62.1551 98.9968 62.2468C99.0008 68.7493 99.0023 75.2509 99.0031 81.7533C99.0031 81.8937 98.9874 82.0341 98.9701 82.1729C98.9646 82.216 98.9316 82.256 98.8837 82.3525C98.0557 82.3525 97.1995 82.3525 96.3542 82.3525C96.3251 82.3258 96.3055 82.3125 96.2906 82.2944C96.2765 82.2772 96.2607 82.2568 96.256 82.2356C96.2364 82.1447 96.2058 82.0529 96.2058 81.9612C96.2018 75.4587 96.2002 68.9571 96.1995 62.4546C96.1995 62.3143 96.2152 62.1739 96.2325 62.0351C96.238 61.992 96.271 61.952 96.3299 61.8328Z" fill="#2F91C9"/>
<path d="M12.4865 19.4022C13.4001 19.4022 14.2807 19.4022 15.1488 19.4022C15.298 19.9441 15.3428 37.1459 15.1951 38.1756C14.3176 38.2532 13.4205 38.2218 12.5407 38.192C12.3852 37.6274 12.3396 20.4248 12.4865 19.4022Z" fill="#2F91C9"/>
<path d="M44.5506 38.1693C43.637 38.1693 42.7564 38.1693 41.8891 38.1693C41.7407 37.6274 41.6959 20.4178 41.8436 19.396C42.721 19.3191 43.6182 19.3497 44.498 19.3795C44.652 19.9441 44.6967 37.1546 44.5506 38.1693Z" fill="#2F91C9"/>
<path d="M9.29482 38.163C8.40871 38.163 7.55481 38.163 6.71662 38.163C6.55479 37.5835 6.51394 20.3385 6.6742 19.4085C7.52417 19.3144 8.39457 19.334 9.25005 19.403C9.41423 19.988 9.45508 37.2338 9.29482 38.163Z" fill="#2F91C9"/>
<path d="M18.3908 19.4101C19.2769 19.4101 20.1308 19.4101 20.969 19.4101C21.1292 19.999 21.1646 37.2761 21.0043 38.1677C20.1552 38.2516 19.2848 38.2414 18.4293 38.1662C18.2675 37.5725 18.2321 20.2954 18.3908 19.4101Z" fill="#2F91C9"/>
<path d="M26.9272 38.1599C26.0403 38.1599 25.1888 38.1599 24.3529 38.1599C24.1911 37.5568 24.1644 20.2225 24.3294 19.3975C25.1581 19.3183 26.0113 19.3536 26.8471 19.3779C27.0168 19.9363 27.0835 36.7146 26.9272 38.1599Z" fill="#2F91C9"/>
<path d="M32.7244 38.1645C31.8572 38.1645 31.0221 38.1645 30.1038 38.1645C29.9883 36.5915 30.0685 35.0294 30.0535 33.4712C30.0386 31.9233 30.0504 30.3745 30.0504 28.8257C30.0504 27.2535 30.0504 25.682 30.0504 24.1097C30.0504 22.5672 30.0504 21.0239 30.0504 19.5073C30.6796 19.3175 32.0151 19.3019 32.6851 19.454C32.8423 19.9598 32.8941 37.1459 32.7244 38.1645Z" fill="#2F91C9"/>
<path d="M38.6317 38.1645C37.7636 38.1645 36.9286 38.1645 36.0087 38.1645C35.9836 37.9081 35.938 37.6626 35.938 37.4164C35.9341 31.6684 35.9341 25.9203 35.9364 20.1722C35.9364 19.9433 35.9639 19.7135 35.9828 19.4116C36.8799 19.3104 37.7322 19.3543 38.5673 19.3779C38.7252 19.9409 38.7786 36.9937 38.6317 38.1645Z" fill="#2F91C9"/>
</g>
<defs>
<clipPath id="clip0">
<rect width="147" height="112" fill="white"/>
</clipPath>
</defs>
</svg>
