<svg width="256" height="73" viewBox="0 0 256 73" fill="none" xmlns="http://www.w3.org/2000/svg">
<g clip-path="url(#clip0)">
<path d="M142.391 14.5583C142.8 14.2909 143.213 14.0254 143.619 13.7524C147.627 11.0614 153.171 11.8105 156.22 15.4572C156.383 15.6506 156.515 15.8687 156.676 16.0621C156.98 16.43 157.242 16.466 157.59 16.0507C160.885 12.1215 165.086 11.4881 169.769 12.8895C173.41 13.9799 175.922 17.5773 175.977 21.6696C176.017 24.6374 175.987 27.6071 175.987 30.5749C175.987 36.0383 175.967 41.5017 176.008 46.965C176.013 47.8791 175.751 48.1616 174.823 48.1332C172.723 48.0687 170.618 48.1123 168.516 48.1123C167.293 48.1123 167.272 48.0934 167.27 46.91C167.27 40.3411 167.307 33.7721 167.24 27.2032C167.228 25.98 167.033 24.6583 166.521 23.566C165.769 21.9655 163.976 21.4022 162.095 21.8043C160.523 22.1418 159.274 23.5224 159.063 25.1911C159.008 25.6273 159.013 26.073 159.013 26.5148C159.012 33.3056 159.012 40.0946 159.012 46.8854C159.012 48.1123 159.01 48.1104 157.741 48.1104C155.639 48.1104 153.534 48.0744 151.434 48.1294C150.575 48.1522 150.343 47.8431 150.347 47.0333C150.372 40.0851 150.364 33.1369 150.361 26.1905C150.359 23.8903 149.155 22.2272 147.206 21.8024C144.468 21.205 142.121 23.0293 142.113 25.8151C142.096 32.7633 142.107 39.7115 142.107 46.6578C142.107 48.1142 142.109 48.1123 140.663 48.1123C138.402 48.1123 136.139 48.0877 133.877 48.1256C133.045 48.1389 132.689 47.9303 132.691 47.0143C132.716 35.7709 132.712 24.5293 132.691 13.2859C132.689 12.5975 132.967 12.3965 133.59 12.3984C136.139 12.4079 138.689 12.4135 141.237 12.3927C141.897 12.387 142.176 12.6335 142.115 13.2916C142.081 13.6575 142.109 14.0292 142.109 14.3971C142.205 14.454 142.297 14.5071 142.391 14.5583Z" fill="#2F91C9"/>
<path d="M203.516 14.1316C203.552 14.014 203.623 13.8718 203.638 13.7258C203.774 12.4666 203.77 12.4666 205.09 12.4666C207.51 12.4666 209.932 12.4837 212.353 12.4552C213.11 12.4457 213.401 12.6467 213.399 13.4754C213.372 24.6544 213.376 35.8315 213.399 47.0105C213.401 47.8108 213.21 48.1483 212.343 48.1331C209.795 48.0914 207.246 48.1085 204.698 48.1237C204.027 48.1275 203.596 48.0042 203.64 47.1888C203.673 46.5724 203.25 46.5554 202.791 46.7621C200.491 47.7975 198.083 48.2659 195.557 48.1768C189.497 47.9625 184.821 45.2412 181.553 40.2785C178.332 35.3859 177.729 30.0173 179.602 24.5008C182.294 16.5665 190.287 11.452 198.534 12.8762C200.178 13.1607 201.777 13.6878 203.516 14.1316ZM204.509 30.3833C204.515 25.741 200.698 21.9275 196.047 21.9294C191.412 21.9313 187.519 25.7922 187.534 30.3719C187.549 34.9004 191.44 38.7197 196.039 38.7197C200.675 38.7178 204.503 34.9497 204.509 30.3833Z" fill="#2F91C9"/>
<path d="M49.4018 37.9308C52.7172 38.532 55.9408 38.3234 58.996 36.7153C61.9767 35.147 64.3202 32.8903 66.1797 29.7822C66.3003 30.2449 66.3634 30.3777 66.3634 30.5104C66.3615 34.0471 66.3844 37.5838 66.3175 41.1186C66.306 41.678 66.0343 42.3797 65.6364 42.7646C60.3352 47.8734 54.0679 49.4227 47.1099 47.0124C41.2329 44.9758 37.422 40.7697 35.9278 34.6994C33.8559 26.2721 38.105 17.9888 45.9774 14.5962C54.2362 11.0349 63.8725 14.088 68.441 22.0451C68.8122 22.6899 68.7012 23.0938 68.089 23.547C62.1469 27.9352 56.224 32.3518 50.301 36.7627C49.9394 37.0319 49.6065 37.3392 49.2603 37.6293C49.3081 37.7279 49.3559 37.8284 49.4018 37.9308ZM44.5904 31.4415C48.4644 28.5875 52.1127 25.9004 55.9408 23.0786C52.7804 21.9996 49.993 21.9901 47.4906 23.968C45.172 25.8018 44.3838 28.2936 44.5904 31.4415Z" fill="#2F91C9"/>
<path d="M110.547 37.9061C113.874 38.5642 117.109 38.329 120.174 36.7C123.143 35.1223 125.534 32.9206 127.405 30.0154C127.442 30.3018 127.509 30.5862 127.509 30.8726C127.51 34.3144 127.528 37.7563 127.472 41.1963C127.465 41.7026 127.233 42.3379 126.879 42.6887C122.508 47.0105 117.268 48.8518 111.142 47.7558C104.597 46.5838 100.056 42.8006 97.6852 36.7095C94.4004 28.2689 98.2668 18.9047 106.43 14.9337C110.75 12.8326 115.257 12.5747 119.795 14.0406C124.176 15.4571 127.472 18.2732 129.72 22.2802C129.997 22.777 129.906 23.0596 129.466 23.3858C123.455 27.8403 117.451 32.3062 111.448 36.7721C111.104 37.0281 110.775 37.3031 110.438 37.5686C110.474 37.6805 110.511 37.7923 110.547 37.9061ZM105.678 31.0356C105.77 31.1191 105.862 31.2025 105.952 31.286C109.619 28.5894 113.285 25.8927 117.136 23.0615C114.159 22.0944 111.515 21.9768 109.051 23.6607C106.438 25.4452 105.667 28.0792 105.678 31.0356Z" fill="#2F91C9"/>
<path d="M226.896 15.3415C228.289 14.5336 229.418 13.7789 230.631 13.191C234.514 11.3079 239.988 12.7264 242.245 16.1493C243.326 17.7897 243.735 19.6367 243.741 21.5501C243.772 30.0742 243.747 38.6002 243.772 47.1243C243.774 47.953 243.423 48.1388 242.679 48.1275C240.481 48.0971 238.283 48.0819 236.087 48.1331C235.22 48.154 235.017 47.8354 235.019 47.0295C235.046 39.8309 235.031 32.6324 235.038 25.4338C235.04 23.5868 234.187 22.2366 232.505 21.5691C230.921 20.9395 229.374 21.2562 228.046 22.3807C227.124 23.1639 226.881 24.1917 226.885 25.3542C226.902 32.4579 226.894 39.5616 226.894 46.6654C226.894 48.1142 226.896 48.1142 225.427 48.1142C223.103 48.1142 220.776 48.0819 218.452 48.1331C217.664 48.1502 217.482 47.8715 217.484 47.1508C217.501 35.8789 217.501 24.607 217.484 13.3351C217.482 12.6733 217.692 12.4476 218.358 12.4533C220.874 12.4799 223.391 12.4875 225.907 12.4514C226.726 12.44 226.977 12.7624 226.904 13.5248C226.854 14.0766 226.896 14.636 226.896 15.3415Z" fill="#2F91C9"/>
<path d="M0 12.5084C0.501233 12.4647 0.836026 12.4097 1.17082 12.4097C3.97543 12.4022 6.77813 12.423 9.58274 12.3927C10.3097 12.3851 10.7268 12.6392 11.0998 13.2707C14.8935 19.686 18.7216 26.0824 22.5421 32.4826C22.5861 32.5566 22.6741 32.6021 22.9018 32.8031C22.9572 32.3954 23.028 32.1204 23.028 31.8454C23.0299 25.7183 23.0376 19.5912 22.9993 13.4641C22.9936 12.6259 23.2442 12.3718 24.0802 12.387C26.5654 12.4325 29.0505 12.4287 31.5356 12.3889C32.4137 12.3756 32.7581 12.5956 32.7542 13.5589C32.7198 24.645 32.7332 35.7292 32.7332 46.8152C32.7332 48.118 32.7313 48.1161 31.3979 48.1161C28.2431 48.1161 25.0884 48.099 21.9356 48.1294C21.2087 48.137 20.7935 47.8923 20.4224 47.2552C13.9408 36.1539 7.43623 25.066 0.933595 13.978C0.681065 13.5476 0.399839 13.1341 0 12.5084Z" fill="#2F91C9"/>
<path d="M71.5406 0.0493164C74.6513 0.0493164 77.7008 0.0493164 80.8325 0.0493164C80.8574 0.354629 80.8976 0.629599 80.8976 0.902674C80.8995 16.2233 80.8995 31.542 80.8976 46.8626C80.8976 48.1104 80.8957 48.1142 79.6101 48.1142C77.2206 48.1161 74.8292 48.0877 72.4398 48.1313C71.6764 48.1445 71.4507 47.8923 71.4526 47.1547C71.4679 31.7089 71.4622 16.2612 71.4641 0.815442C71.4641 0.572709 71.5119 0.32808 71.5406 0.0493164Z" fill="#2F91C9"/>
<path d="M94.0441 0.00758236C94.0652 0.409609 94.092 0.686476 94.092 0.965239C94.0939 16.2479 94.092 31.5325 94.092 46.8152C94.092 48.1199 94.092 48.118 92.7872 48.1161C90.4609 48.1142 88.1365 48.0895 85.8101 48.1313C84.9512 48.1464 84.6508 47.8828 84.6527 46.9972C84.6757 31.6197 84.668 16.2422 84.6623 0.862836C84.6623 0.381163 84.6585 -0.00379574 85.3319 0.00189331C88.1958 0.0189605 91.0597 0.00758236 94.0441 0.00758236Z" fill="#2F91C9"/>
<path d="M188.523 72.8843C188.523 72.1201 188.458 71.3312 188.565 70.567C188.594 70.3565 189.141 70.0758 189.453 70.072C192.416 70.036 195.38 70.0208 198.343 70.072C199.256 70.0872 199.56 69.8331 199.533 68.9001C199.472 66.6681 199.571 67.0777 197.691 67.0644C194.951 67.0473 192.21 67.0397 189.47 67.0739C188.716 67.0834 188.475 66.8349 188.489 66.0878C188.529 63.687 188.531 61.2862 188.487 58.8873C188.471 58.0719 188.785 57.8766 189.554 57.8766C207.208 57.8937 224.861 57.888 242.515 57.8899C243.685 57.8899 243.762 57.9676 243.758 59.1282C243.752 61.1042 243.955 60.9885 241.923 60.9885C225.641 60.9866 209.357 60.9847 193.074 61.0018C192.606 61.0018 191.768 61.1402 191.733 61.3298C191.586 62.1149 191.643 62.9493 191.729 63.7534C191.741 63.8672 192.336 63.9847 192.663 63.9866C195.594 64.0056 198.527 64.0283 201.458 63.9809C202.378 63.9658 202.663 64.2445 202.638 65.1662C202.575 67.5025 202.609 69.8407 202.63 72.177C202.634 72.706 202.531 72.9905 201.903 72.9886C197.57 72.9677 193.237 72.9753 188.902 72.9696C188.81 72.9696 188.718 72.9298 188.523 72.8843Z" fill="#2F91C9"/>
<path d="M65.2463 72.9336C64.1443 72.9336 63.1973 72.9336 62.149 72.9336C62.1279 72.6131 62.0935 72.3097 62.0935 72.0063C62.0897 68.754 62.0916 65.5018 62.0935 62.2496C62.0935 60.9923 62.0935 60.9885 60.8366 60.9885C47.9346 60.9885 35.0346 60.9885 22.1326 60.9885C20.8183 60.9885 20.8183 60.9904 20.8164 59.6611C20.8125 57.888 20.8125 57.888 22.5649 57.888C35.4019 57.8899 48.2407 57.8823 61.0776 57.9088C61.927 57.9107 62.1183 57.5789 62.103 56.8469C62.0763 55.4265 62.1203 54.0042 62.082 52.5839C62.0629 51.8803 62.3364 51.6395 63.0309 51.6452C65.6117 51.6679 68.1905 51.6679 70.7713 51.6433C71.4026 51.6376 71.6207 51.8803 71.6188 52.4777C71.6073 55.4474 71.8312 54.8557 69.2982 54.9012C68.3111 54.9183 67.322 54.9354 66.3367 54.8936C65.4988 54.8595 65.0473 55.1307 65.1621 56.0295C65.1851 56.2154 65.164 56.4088 65.1659 56.5966C65.1736 57.8083 65.2424 57.8766 66.4649 57.8861C67.7161 57.8956 67.7544 57.9354 67.7563 59.168C67.7563 59.3899 67.7314 59.6136 67.7601 59.8298C67.8864 60.7685 67.4444 61.0359 66.5491 60.9999C65.2463 60.9468 65.2463 60.9923 65.2463 62.3121C65.2482 65.5321 65.2482 68.754 65.2482 71.974C65.2463 72.2585 65.2463 72.5373 65.2463 72.9336Z" fill="#2F91C9"/>
<path d="M121.375 72.9355C120.397 72.9355 119.45 72.9355 118.419 72.9355C118.398 72.6264 118.362 72.3533 118.362 72.0803C118.36 68.7332 118.342 65.3861 118.383 62.0391C118.392 61.254 118.149 60.962 117.355 60.979C114.444 61.0416 115.018 60.6225 114.987 63.3077C114.952 66.2129 114.981 69.1182 114.979 72.0234C114.979 72.3002 114.951 72.579 114.93 72.9734C114.03 72.9734 113.177 73.0227 112.337 72.9355C112.152 72.9165 111.878 72.4178 111.876 72.139C111.848 68.792 111.83 65.4449 111.886 62.0979C111.901 61.1838 111.561 60.9582 110.723 60.9771C108.017 61.0397 108.505 60.6737 108.482 63.1541C108.456 66.1219 108.479 69.0897 108.477 72.0594C108.477 72.3344 108.442 72.6093 108.417 72.9753C107.53 72.9753 106.709 72.9715 105.89 72.9772C105.224 72.981 105.343 72.505 105.343 72.1106C105.341 69.3002 105.345 66.4898 105.345 63.6794C105.345 62.0694 105.362 60.4575 105.335 58.8475C105.324 58.1629 105.582 57.8785 106.286 57.8804C111.096 57.8956 115.907 57.8918 120.717 57.8842C121.216 57.8842 121.514 58.0283 121.513 58.5688C121.503 63.2736 121.495 67.9766 121.484 72.6814C121.484 72.7383 121.438 72.7952 121.375 72.9355Z" fill="#2F91C9"/>
<path d="M172.82 72.9374C167.879 72.9374 163.081 72.9374 158.212 72.9374C158.181 72.6662 158.133 72.4254 158.133 72.1846C158.131 67.7964 158.158 63.4101 158.118 59.0239C158.11 58.125 158.435 57.8747 159.279 57.8804C163.419 57.905 167.557 57.9069 171.697 57.8785C172.579 57.8728 172.855 58.2047 172.837 59.0599C172.79 61.364 172.786 63.6681 172.839 65.9721C172.858 66.8198 172.55 67.0815 171.735 67.0739C168.648 67.0473 165.558 67.0872 162.47 67.0454C161.63 67.0341 161.351 67.3185 161.347 68.1321C161.34 70.055 161.311 70.055 163.216 70.055C166.05 70.0531 168.885 70.072 171.718 70.036C172.548 70.0246 172.889 70.3167 172.83 71.1378C172.788 71.6953 172.82 72.2604 172.82 72.9374ZM165.432 63.998C166.163 63.998 166.891 64.0037 167.622 63.998C170.044 63.9791 169.593 64.2464 169.667 61.9139C169.69 61.199 169.405 60.9714 168.72 60.9809C166.976 61.0056 165.229 60.979 163.482 60.9904C160.991 61.0075 161.414 60.6832 161.345 63.1826C161.328 63.8217 161.602 64.0132 162.193 64.0018C163.274 63.9828 164.353 63.9961 165.432 63.998Z" fill="#2F91C9"/>
<path d="M138.464 72.9222C138.229 72.945 138.045 72.9772 137.862 72.9772C133.496 72.981 129.13 72.9697 124.765 72.9905C124.156 72.9924 123.921 72.8331 123.931 72.1922C123.963 69.761 123.971 67.328 123.932 64.895C123.921 64.1535 124.223 63.9847 124.895 63.9885C128.049 64.0094 131.204 63.9696 134.359 64.0151C135.243 64.0284 135.52 63.7667 135.48 62.8811C135.384 60.8178 135.826 60.9923 133.508 60.9885C130.64 60.9828 127.77 60.9714 124.902 61.0018C124.206 61.0094 123.927 60.7989 123.94 60.0877C123.984 57.5334 123.678 57.9031 126.1 57.8937C129.861 57.8785 133.62 57.9107 137.382 57.8728C138.233 57.8633 138.564 58.07 138.556 58.9765C138.516 63.3665 138.541 67.7585 138.537 72.1485C138.535 72.3932 138.491 72.6378 138.464 72.9222ZM131.241 70.11C131.971 70.11 132.702 70.1137 133.435 70.11C135.736 70.0967 135.426 70.366 135.467 67.9841C135.478 67.2882 135.199 67.0398 134.504 67.0511C132.725 67.0815 130.944 67.0606 129.163 67.0606C126.869 67.0606 126.882 67.0606 127.005 69.3287C127.036 69.8843 127.234 70.1251 127.807 70.1156C128.952 70.0948 130.097 70.1081 131.241 70.11Z" fill="#2F91C9"/>
<path d="M156.136 72.945C155.089 72.945 154.142 72.945 153.021 72.945C153.021 72.397 153.033 71.8793 153.019 71.3597C152.985 69.9488 152.941 68.5398 152.901 67.1289C151.481 67.0758 150.064 67.0057 148.644 66.9772C147.372 66.9507 146.096 67 144.824 66.9602C144.074 66.9355 143.816 67.2048 143.842 67.9519C143.896 69.3704 143.842 70.7927 143.875 72.213C143.888 72.7876 143.684 73.0095 143.104 72.9849C142.346 72.9526 141.585 72.9773 140.751 72.9773C140.722 72.617 140.68 72.3439 140.68 72.0708C140.676 65.7275 140.678 59.3823 140.68 53.0391C140.68 51.6604 140.682 51.6642 142.044 51.6623C143.98 51.6585 143.861 51.5068 143.861 53.443C143.86 56.5682 143.883 59.6933 143.844 62.8166C143.833 63.6927 144.139 63.9886 145.017 63.9431C146.287 63.8786 147.567 63.8691 148.836 63.9469C149.798 64.0056 150.043 63.6264 150.003 62.7465C149.943 61.4228 150.004 60.0954 149.976 58.7698C149.962 58.1213 150.203 57.8672 150.869 57.8804C153.421 57.9259 153.041 57.6074 153.063 60.0347C153.073 61.0132 153.088 61.9917 153.056 62.9702C153.035 63.6396 153.259 63.926 153.982 63.9412C156.197 63.9886 156.195 64.0151 156.197 66.2357C156.199 68.225 156.207 70.2124 156.207 72.2017C156.207 72.414 156.168 72.6283 156.136 72.945Z" fill="#2F91C9"/>
<path d="M84.6109 72.9317C80.0348 72.9317 75.5581 72.9317 71.0221 72.9317C70.9973 72.6473 70.959 72.4026 70.959 72.1599C70.9571 67.7755 70.98 63.3912 70.9437 59.0068C70.936 58.1269 71.223 57.8633 72.0992 57.8728C75.8852 57.9126 79.6732 57.9088 83.4592 57.8766C84.3392 57.869 84.7027 58.1004 84.6932 59.0523C84.6511 63.4367 84.6798 67.8211 84.6779 72.2054C84.6779 72.4197 84.6396 72.634 84.6109 72.9317ZM81.5538 65.5644C81.5538 64.3356 81.527 63.1067 81.5652 61.8798C81.5863 61.235 81.3778 60.9695 80.7024 60.979C78.7645 61.0075 76.8246 61.0056 74.8866 60.9809C74.2189 60.9714 74.0085 61.2256 74.018 61.876C74.0487 64.3014 74.0448 66.7269 74.02 69.1523C74.0142 69.7857 74.2017 70.072 74.8828 70.0625C76.8207 70.036 78.7606 70.036 80.6986 70.0644C81.3778 70.0739 81.5825 69.7933 81.5652 69.1561C81.5308 67.9595 81.5538 66.761 81.5538 65.5644Z" fill="#2F91C9"/>
<path d="M175.602 72.9791C175.577 72.6226 175.544 72.378 175.544 72.1315C175.542 67.7736 175.569 63.4139 175.525 59.0561C175.516 58.1231 175.831 57.8614 176.734 57.8728C179.728 57.9145 182.724 57.8861 185.72 57.8899C186.943 57.8918 186.966 57.9126 186.958 59.0978C186.943 61.2047 187.205 60.9771 185.087 60.9847C183.271 60.9923 181.454 61.0037 179.638 60.979C178.902 60.9676 178.644 61.2369 178.651 61.9841C178.688 65.3311 178.647 68.6801 178.688 72.0272C178.697 72.78 178.477 73.0531 177.718 72.9886C177.054 72.9355 176.382 72.9791 175.602 72.9791Z" fill="#2F91C9"/>
<path d="M91.0215 72.9393C89.9827 72.9393 89.0682 72.9393 88.0638 72.9393C88.037 72.6397 87.993 72.3704 87.993 72.1011C87.9892 67.7452 88.0102 63.3893 87.9758 59.0353C87.9701 58.1952 88.171 57.8557 89.0912 57.8709C92.0832 57.9221 95.0772 57.8861 98.0693 57.8918C99.2249 57.8937 99.309 57.9809 99.3033 59.1415C99.2956 61.0625 99.5348 60.9999 97.4591 60.9904C95.7392 60.9828 94.0193 61.034 92.3013 60.9714C91.3658 60.9373 91.0253 61.1857 91.0463 62.1794C91.1114 65.4601 91.0731 68.7446 91.0712 72.0253C91.0712 72.304 91.0425 72.5809 91.0215 72.9393Z" fill="#2F91C9"/>
<path d="M251.792 15.8687C253.905 15.8687 255.618 14.1706 255.618 12.076C255.618 9.98131 253.905 8.28326 251.792 8.28326C249.678 8.28326 247.965 9.98131 247.965 12.076C247.965 14.1706 249.678 15.8687 251.792 15.8687Z" stroke="#2F91C9" stroke-miterlimit="10"/>
<path d="M250.902 10.2441C251.131 10.1966 251.46 10.172 251.774 10.172C252.26 10.172 252.574 10.2592 252.792 10.4564C252.97 10.612 253.069 10.8509 253.069 11.1183C253.069 11.5791 252.776 11.8844 252.405 12.0096V12.0247C252.677 12.1177 252.84 12.3661 252.922 12.7283C253.037 13.2156 253.121 13.5513 253.193 13.6859H252.723C252.665 13.5873 252.587 13.2877 252.488 12.8515C252.382 12.3699 252.195 12.1897 251.782 12.1726H251.353V13.684H250.898V10.2441H250.902ZM251.355 11.8332H251.82C252.306 11.8332 252.614 11.5696 252.614 11.1714C252.614 10.72 252.285 10.5247 251.805 10.519C251.585 10.519 251.428 10.5399 251.355 10.5607V11.8332V11.8332Z" fill="#2F91C9"/>
</g>
<defs>
<clipPath id="clip0">
<rect width="256" height="73" fill="white"/>
</clipPath>
</defs>
</svg>
