<svg width="39" height="39" viewBox="0 0 39 39" fill="none" xmlns="http://www.w3.org/2000/svg">
<path d="M7.80068 4.2183L19.5007 15.9183L31.2007 4.25376C31.431 4.01937 31.7075 3.83532 32.0127 3.71327C32.3178 3.59122 32.6449 3.5338 32.9734 3.54467C33.6179 3.58638 34.2252 3.86124 34.6819 4.31795C35.1387 4.77465 35.4135 5.38196 35.4552 6.02649C35.4584 6.34338 35.3972 6.65763 35.2753 6.95017C35.1535 7.24271 34.9734 7.50744 34.7461 7.7283L23.0107 19.4992L34.7461 31.2701C35.207 31.7168 35.4623 32.3338 35.4552 32.9719C35.4135 33.6165 35.1387 34.2238 34.6819 34.6805C34.2252 35.1372 33.6179 35.412 32.9734 35.4538C32.6449 35.4646 32.3178 35.4072 32.0127 35.2851C31.7075 35.1631 31.431 34.9791 31.2007 34.7447L19.5007 23.0801L7.83614 34.7447C7.60578 34.9791 7.32929 35.1631 7.02415 35.2851C6.71901 35.4072 6.39187 35.4646 6.06341 35.4538C5.40686 35.4196 4.78625 35.1434 4.32137 34.6785C3.85649 34.2136 3.58031 33.593 3.54614 32.9365C3.54293 32.6196 3.60413 32.3053 3.72602 32.0128C3.84791 31.7203 4.02795 31.4555 4.25523 31.2347L15.9907 19.4992L4.21977 7.7283C3.9989 7.50446 3.8254 7.23839 3.70966 6.94599C3.59392 6.65359 3.5383 6.34086 3.54614 6.02649C3.58785 5.38196 3.86271 4.77465 4.31941 4.31795C4.77612 3.86124 5.38343 3.58638 6.02795 3.54467C6.35386 3.52919 6.67946 3.58101 6.98446 3.69691C7.28945 3.81281 7.5673 3.9903 7.80068 4.2183Z" fill="#FFFCF5"/>
</svg>
