<svg width="52" height="52" viewBox="0 0 52 52" fill="none" xmlns="http://www.w3.org/2000/svg">
<path fill-rule="evenodd" clip-rule="evenodd" d="M7.80005 13C7.80005 12.3104 8.07398 11.6491 8.56157 11.1615C9.04917 10.6739 9.71049 10.4 10.4 10.4H41.6C42.2896 10.4 42.9509 10.6739 43.4385 11.1615C43.9261 11.6491 44.2 12.3104 44.2 13C44.2 13.6896 43.9261 14.3509 43.4385 14.8385C42.9509 15.3261 42.2896 15.6 41.6 15.6H10.4C9.71049 15.6 9.04917 15.3261 8.56157 14.8385C8.07398 14.3509 7.80005 13.6896 7.80005 13Z" fill="#2F91C9"/>
<path fill-rule="evenodd" clip-rule="evenodd" d="M7.80005 26C7.80005 25.3104 8.07398 24.6491 8.56157 24.1615C9.04917 23.6739 9.71049 23.4 10.4 23.4H41.6C42.2896 23.4 42.9509 23.6739 43.4385 24.1615C43.9261 24.6491 44.2 25.3104 44.2 26C44.2 26.6896 43.9261 27.3509 43.4385 27.8385C42.9509 28.3261 42.2896 28.6 41.6 28.6H10.4C9.71049 28.6 9.04917 28.3261 8.56157 27.8385C8.07398 27.3509 7.80005 26.6896 7.80005 26Z" fill="#2F91C9"/>
<path fill-rule="evenodd" clip-rule="evenodd" d="M7.80005 39C7.80005 38.3104 8.07398 37.6491 8.56157 37.1615C9.04917 36.6739 9.71049 36.4 10.4 36.4H41.6C42.2896 36.4 42.9509 36.6739 43.4385 37.1615C43.9261 37.6491 44.2 38.3104 44.2 39C44.2 39.6896 43.9261 40.3509 43.4385 40.8385C42.9509 41.3261 42.2896 41.6 41.6 41.6H10.4C9.71049 41.6 9.04917 41.3261 8.56157 40.8385C8.07398 40.3509 7.80005 39.6896 7.80005 39Z" fill="#2F91C9"/>
</svg>
