<svg width="50" height="50" viewBox="0 0 50 50" fill="none" xmlns="http://www.w3.org/2000/svg">
<path d="M41.5936 17.7521C41.6415 17.3896 41.6665 17.0271 41.6665 16.6667C41.6665 11.7104 37.2019 7.73332 32.2478 8.40624C30.804 5.83749 28.054 4.16666 24.9998 4.16666C21.9457 4.16666 19.1957 5.83749 17.7519 8.40624C12.7873 7.73332 8.33317 11.7104 8.33317 16.6667C8.33317 17.0271 8.35817 17.3896 8.40609 17.7521C5.83734 19.1979 4.1665 21.9479 4.1665 25C4.1665 28.0521 5.83734 30.8021 8.40609 32.2479C8.35802 32.6077 8.33367 32.9703 8.33317 33.3333C8.33317 38.2896 12.7873 42.2562 17.7519 41.5937C19.1957 44.1625 21.9457 45.8333 24.9998 45.8333C28.054 45.8333 30.804 44.1625 32.2478 41.5937C37.2019 42.2562 41.6665 38.2896 41.6665 33.3333C41.6665 32.9729 41.6415 32.6104 41.5936 32.2479C44.1623 30.8021 45.8332 28.0521 45.8332 25C45.8332 21.9479 44.1623 19.1979 41.5936 17.7521Z" fill="#FF546B"/>
<path d="M22.8 22.248H26.416V31H22.8V22.248ZM24.608 21.544C23.9573 21.544 23.4293 21.3733 23.024 21.032C22.6293 20.68 22.432 20.2373 22.432 19.704C22.432 19.1707 22.6293 18.7333 23.024 18.392C23.4293 18.04 23.9573 17.864 24.608 17.864C25.2693 17.864 25.7973 18.0293 26.192 18.36C26.5867 18.6907 26.784 19.1173 26.784 19.64C26.784 20.1947 26.5867 20.6533 26.192 21.016C25.7973 21.368 25.2693 21.544 24.608 21.544Z" fill="white"/>
</svg>
