<svg width="348" height="432" viewBox="0 0 348 432" fill="none" xmlns="http://www.w3.org/2000/svg">
<g clip-path="url(#clip0)">
<path d="M174 432C150.513 432 127.727 427.387 106.269 418.286C85.549 409.5 66.9397 396.92 50.9625 380.905C34.9853 364.886 22.441 346.231 13.6782 325.454C4.60126 303.943 0 281.094 0 257.546C0 233.998 4.60126 211.152 13.6782 189.638C22.441 168.864 34.9884 150.207 50.9625 134.188C66.9397 118.169 85.5458 105.592 106.269 96.8062C127.727 87.7056 150.516 83.0923 174 83.0923C197.484 83.0923 220.273 87.7056 241.731 96.8062C262.451 105.592 281.06 118.172 297.037 134.188C313.015 150.207 325.559 168.861 334.322 189.638C343.399 211.152 348 234.001 348 257.546C348 281.091 343.399 303.94 334.322 325.454C325.559 346.228 313.012 364.886 297.037 380.905C281.063 396.923 262.454 409.5 241.731 418.286C220.273 427.387 197.487 432 174 432ZM174 102.616C153.136 102.616 132.9 106.71 113.854 114.787C95.455 122.59 78.9282 133.763 64.7318 147.993C50.5354 162.223 39.395 178.793 31.6121 197.243C23.556 216.339 19.4729 236.627 19.4729 257.546C19.4729 278.465 23.556 298.754 31.6121 317.849C39.395 336.296 50.5385 352.866 64.7318 367.099C78.925 381.333 95.4519 392.502 113.854 400.305C132.9 408.383 153.136 412.476 174 412.476C194.864 412.476 215.1 408.383 234.146 400.305C252.545 392.502 269.072 381.33 283.268 367.099C297.465 352.869 308.605 336.299 316.388 317.849C324.444 298.757 328.527 278.468 328.527 257.546C328.527 236.624 324.444 216.339 316.388 197.243C308.605 178.796 297.461 162.226 283.268 147.993C269.075 133.76 252.548 122.59 234.146 114.787C215.1 106.713 194.864 102.616 174 102.616Z" fill="#2F91C9"/>
<path d="M337.151 273.162H10.845V280.405H337.151V273.162Z" fill="#2F91C9"/>
<path d="M325.072 325.435H23.87V332.678H325.072V325.435Z" fill="#2F91C9"/>
<path d="M60.303 69.4509C62.3885 75.012 64.4708 80.5763 66.7447 86.6349C74.5119 72.8613 82.0278 59.5285 89.7636 45.8052C97.4648 59.4655 104.996 72.8203 112.783 86.6349C115.06 80.5605 117.161 74.9522 119.413 68.9502C119.878 70.0839 120.201 70.805 120.477 71.5481C121.611 74.5869 122.607 77.6855 123.891 80.6613C125.506 84.3992 126.175 88.2031 126.071 92.2905C125.933 97.8327 126.269 103.384 126.297 108.933C126.313 111.795 126.106 114.658 126.005 117.52C125.983 118.128 126.002 118.739 126.002 119.526C126.633 119.394 127.039 119.331 127.434 119.224C133.245 117.615 139.043 115.939 144.878 114.425C146.172 114.091 146.603 113.612 146.552 112.305C146.402 108.256 146.464 104.2 146.254 100.154C145.77 90.8451 147.256 81.7446 148.924 72.6566C149.282 70.6948 149.593 68.7235 150.35 66.6483C152.228 73.2517 154.109 79.8552 155.987 86.4586C156.138 86.4491 156.292 86.4365 156.443 86.4271C157.215 83.571 157.997 80.718 158.754 77.8587C163.362 60.4889 168.145 43.1663 172.442 25.7209C173.507 21.3974 173.014 16.6834 173.186 12.1488C173.199 11.8024 172.888 11.2734 172.58 11.1096C170.278 9.89729 169.144 7.92917 168.833 5.30607C167.611 5.24623 166.449 5.1864 165.297 5.12972C165.146 1.37613 168.912 -1.0108 172.464 0.431435C173.324 0.780972 174.317 0.916378 175.253 0.928974C176.892 0.951017 178.111 1.60601 179.261 3.45446C178.284 3.93626 177.316 4.4149 176.349 4.8904C176.355 4.99746 176.362 5.10768 176.368 5.21474C178.039 5.21474 179.713 5.21474 181.337 5.21474C181.77 7.76227 180.46 10.0579 177.866 11.0845C176.641 11.5694 176.453 12.2307 176.33 13.421C175.495 21.558 178.234 29.0746 180.237 36.7109C184.421 52.6416 188.667 68.5566 192.895 84.4747C193.083 85.1833 193.319 85.8792 193.875 86.5877C195.775 79.893 197.678 73.2014 199.578 66.5066C199.691 66.5035 199.804 66.5003 199.918 66.4972C200.379 69.2368 200.744 71.9953 201.325 74.7097C203.41 84.4747 203.969 94.3499 203.633 104.298C203.539 107.097 203.372 109.896 203.376 112.696C203.376 113.25 203.913 114.16 204.384 114.299C210.879 116.229 217.402 118.052 223.923 119.895C224.033 119.926 224.164 119.872 224.588 119.828C224.588 117.719 224.588 115.571 224.588 113.42C224.595 106.691 224.601 99.9614 224.607 93.2289C224.61 90.9805 224.702 88.729 224.592 86.4869C224.284 80.2047 225.041 74.0705 226.517 67.9551C228.401 60.1331 229.984 52.2354 231.702 44.3724C231.834 43.7741 232.01 43.1884 232.299 42.0736C232.676 43.0467 232.915 43.5662 233.084 44.111C235.211 50.9632 237.365 57.8091 239.41 64.6834C239.824 66.0784 240.465 66.4846 241.885 66.4751C252.407 66.4153 262.931 66.4121 273.453 66.4751C274.891 66.4846 275.498 66.0469 275.909 64.655C277.913 57.8973 280.033 51.171 282.118 44.4385C282.335 43.7394 282.593 43.053 283.026 41.8028C284.135 46.8412 285.127 51.3159 286.107 55.7938C287.47 62.0099 288.855 68.2228 290.159 74.4515C290.476 75.963 290.655 77.5344 290.661 79.0805C290.705 88.8833 290.646 98.6861 290.693 108.489C290.765 123.84 290.913 139.192 290.988 154.546C291.001 156.848 290.79 159.15 290.696 161.449C290.671 162.053 290.693 162.658 290.693 163.338C291.739 163.401 292.533 163.448 293.494 163.505C293.494 165.026 293.494 166.534 293.494 168.068C293.284 168.131 293.114 168.184 292.942 168.231C292.213 168.42 291.484 168.609 290.756 168.798C291.06 169.645 291.195 170.612 291.698 171.317C305.973 191.304 314.663 213.495 317.81 237.856C318.947 246.666 319.13 255.528 318.69 264.405C318.633 265.545 318.36 266.058 317.088 266.061C312.738 266.067 308.385 266.266 304.035 266.266C214.997 266.278 125.958 266.278 36.9198 266.263C34.9473 266.263 32.9749 266.061 30.4686 265.926C30.4686 262.481 30.456 259.13 30.4717 255.78C30.5785 227.996 37.9813 202.332 52.6426 178.755C53.1325 177.965 53.4121 176.907 53.4152 175.972C53.4309 171.481 53.2519 166.991 53.2613 162.497C53.3116 137.652 53.3964 112.803 53.4749 87.9575C53.478 87.4001 53.4278 86.7955 53.6131 86.2917C55.664 80.6708 57.7589 75.0656 59.8413 69.4541C59.9952 69.4572 60.1491 69.4541 60.303 69.4509ZM279.841 245.863C279.345 244.919 279.072 244.371 278.773 243.832C274.505 236.146 270.253 228.446 265.934 220.788C265.309 219.68 265.299 218.848 265.934 217.724C270.202 210.179 274.392 202.59 278.604 195.01C278.987 194.324 279.333 193.615 279.876 192.573C261.264 192.573 243.016 192.573 224.523 192.573C224.523 184.37 224.523 176.419 224.523 168.395C223.144 168.304 222.004 168.228 220.942 168.159C220.942 166.462 220.942 165.004 220.942 163.502C222.201 163.442 223.294 163.391 224.466 163.335C224.513 162.9 224.573 162.601 224.573 162.302C224.579 150.937 224.56 139.576 224.61 128.211C224.617 126.964 223.967 126.596 223.015 126.312C217.01 124.52 211.008 122.719 204.996 120.937C204.55 120.805 204.063 120.801 203.291 120.698C203.291 127.981 203.291 135.054 203.291 142.189C201.994 142.271 200.976 142.334 199.789 142.41C199.789 159.191 199.789 175.773 199.789 192.438C183.161 192.438 166.716 192.438 150.098 192.438C150.098 175.695 150.098 159.109 150.098 142.466C149.577 142.391 149.203 142.243 148.864 142.306C146.734 142.687 146.455 141.575 146.486 139.765C146.584 134.273 146.521 128.775 146.521 123.283C146.521 122.426 146.521 121.57 146.521 120.572C145.711 120.685 145.145 120.698 144.621 120.846C139.134 122.423 133.666 124.07 128.163 125.594C126.385 126.085 125.977 127.077 125.983 128.825C126.043 149.18 126.021 169.535 126.015 189.89C126.015 190.737 125.942 191.588 125.892 192.642C106.645 192.642 87.5808 192.642 68.2586 192.642C68.6449 193.464 68.8773 194.028 69.1663 194.56C73.488 202.505 77.794 210.459 82.166 218.373C82.7502 219.428 82.7816 220.202 82.1692 221.26C77.8631 228.711 73.6231 236.202 69.3673 243.681C69.0124 244.308 68.6983 244.96 68.2241 245.87C87.6467 245.87 106.733 245.87 126.074 245.87C126.074 247.142 126.077 248.247 126.074 249.349C126.059 252.722 126.068 256.091 126.002 259.464C125.98 260.626 126.294 261.139 127.573 261.13C134.608 261.082 141.643 261.089 148.679 261.127C149.822 261.133 150.199 260.733 150.177 259.602C150.111 256.17 150.133 252.735 150.12 249.302C150.117 248.206 150.12 247.11 150.12 245.989C166.826 245.989 183.231 245.989 199.886 245.989C199.886 251.053 199.886 255.997 199.886 261.101C207.911 261.101 215.681 261.092 223.455 261.111C224.573 261.114 224.582 260.418 224.579 259.618C224.57 256.683 224.576 253.749 224.576 250.814C224.576 249.22 224.576 247.627 224.576 245.86C243.06 245.863 261.276 245.863 279.841 245.863ZM312.524 261.111C313.416 232.301 306.268 206.051 291.038 181.98C290.768 182.556 290.712 183.095 290.712 183.63C290.705 189.314 290.702 194.995 290.709 200.679C290.712 203.214 290.721 203.21 293.243 203.484C293.344 203.494 293.432 203.617 293.513 203.676C293.513 205.15 293.513 206.602 293.513 208.072C292.521 208.18 291.685 208.271 290.709 208.375C290.709 213.218 290.709 217.891 290.709 222.564C290.709 234.741 290.734 246.918 290.683 259.092C290.677 260.588 291.016 261.243 292.637 261.139C294.685 261.01 296.745 261.108 298.799 261.108C303.269 261.111 307.744 261.111 312.524 261.111ZM53.3304 190.832C41.4551 212.717 35.9335 236.026 36.8978 260.991C42.4664 260.991 47.8372 260.991 53.3304 260.991C53.3304 237.519 53.3304 214.175 53.3304 190.832ZM265.626 145.319C265.626 144.409 265.626 143.679 265.626 142.945C265.626 129.65 265.551 116.355 265.661 103.06C265.708 97.3383 262.856 93.4053 258.594 90.1933C258.214 89.9067 257.24 89.9099 256.857 90.1996C252.783 93.2636 250.155 97.1022 250.18 102.49C250.242 116.097 250.199 129.704 250.205 143.31C250.205 143.962 250.286 144.617 250.334 145.319C255.466 145.319 260.368 145.319 265.626 145.319ZM102.986 166.333C103.062 165.829 103.143 165.533 103.143 165.237C103.147 146.261 103.209 127.288 103.093 108.313C103.068 104.398 100.646 101.438 98.0082 98.535C95.0967 102.056 93.0457 105.573 93.0646 110.155C93.1431 128.006 93.096 145.858 93.0991 163.71C93.0991 164.27 93.0018 164.865 93.1557 165.382C93.2656 165.75 93.7147 166.282 94.0225 166.292C96.9906 166.361 99.9586 166.333 102.986 166.333ZM84.6755 166.336C84.7509 165.832 84.8326 165.533 84.8326 165.237C84.8357 146.258 84.8985 127.279 84.776 108.303C84.7509 104.398 82.3105 101.445 79.7005 98.5224C76.723 102.115 74.7067 105.696 74.7318 110.353C74.8323 128.145 74.7726 145.937 74.7726 163.728C74.7726 164.289 74.6752 164.887 74.8291 165.401C74.9391 165.769 75.3976 166.289 75.7117 166.295C78.6798 166.364 81.6478 166.336 84.6755 166.336ZM186.528 117.423C186.503 110.995 181.211 105.727 174.863 105.806C168.547 105.885 163.371 111.093 163.334 117.404C163.296 123.809 168.525 129.068 174.942 129.074C181.384 129.08 186.55 123.881 186.528 117.423Z" fill="#FF546B"/>
<path d="M285.935 347.777C230.666 417.389 120.764 419.042 63.3938 347.818C66.12 347.818 68.6358 347.73 71.1359 347.884C71.72 347.922 72.3042 348.738 72.8005 349.279C86.6577 364.404 103.006 375.967 121.916 383.874C122.654 384.183 123.408 384.447 124.338 384.803C124.338 383.424 124.338 382.227 124.338 380.766C122.403 380.766 120.512 380.766 118.669 380.766C116.621 367.09 125.544 353.678 141.603 356.195C141.603 364.259 141.603 372.343 141.603 380.681C140.042 380.681 138.525 380.681 136.854 380.681C136.854 382.826 136.854 384.727 136.854 386.762C137.341 386.913 137.903 387.086 138.434 387.25C138.908 389.914 140.306 390.729 144.291 390.72C142.963 385.389 143.808 379.96 143.638 374.578C143.625 374.159 144.329 373.347 144.712 373.341C149.062 373.253 153.412 373.284 157.897 373.284C158.475 376.899 159.669 380.139 162.131 382.775C166.66 387.625 172.229 389.404 178.589 387.7C185.027 385.974 189.019 381.572 190.458 375.035C190.766 373.634 191.237 373.218 192.619 373.246C196.708 373.331 200.804 373.278 205.176 373.278C204.805 379.305 205.879 385.143 204.39 390.896C208.819 390.774 210.066 390.052 210.455 387.24C212.035 387.237 212.384 386.283 212.252 384.838C212.139 383.603 212.227 382.353 212.227 380.861C211.36 380.82 210.587 380.769 209.811 380.75C209.073 380.731 208.332 380.747 207.431 380.747C207.431 372.472 207.431 364.338 207.431 356.21C222.846 353.625 232.353 366.495 230.302 380.747C228.465 380.747 226.571 380.747 224.573 380.747C224.573 382.243 224.573 383.462 224.573 384.932C225.314 384.671 225.946 384.479 226.555 384.23C245.758 376.351 262.379 364.75 276.371 349.393C277.492 348.161 278.62 347.639 280.244 347.749C282.04 347.869 283.849 347.777 285.935 347.777Z" fill="#FF546B"/>
<path d="M205.128 371.3C200.241 371.3 195.652 371.3 190.912 371.3C190.448 365.95 188.299 361.538 183.949 358.377C180.871 356.138 177.382 355.067 173.597 355.269C166.848 355.628 158.92 360.254 157.815 371.253C153.195 371.253 148.556 371.253 143.728 371.253C143.681 370.724 143.593 370.195 143.593 369.663C143.581 365.541 143.559 361.422 143.596 357.3C143.64 352.082 146.656 349.021 151.866 349.008C166.87 348.974 181.876 348.974 196.88 349.008C202.194 349.021 205.131 352.095 205.131 357.46C205.128 362.008 205.128 366.551 205.128 371.3Z" fill="#FF546B"/>
<path d="M199.465 346.801C182.596 346.801 165.959 346.801 149.137 346.801C148.829 337.984 152.557 331.113 159.414 326.32C168.425 320.019 178.359 319.751 187.794 325.108C195.8 329.652 199.811 337.086 199.465 346.801ZM160.573 343.665C163.619 343.665 166.013 341.262 166.016 338.204C166.019 335.14 163.616 332.712 160.592 332.716C157.623 332.719 155.098 335.232 155.089 338.192C155.076 341.149 157.598 343.665 160.573 343.665ZM193.667 338.27C193.708 335.229 191.315 332.747 188.3 332.712C185.325 332.678 182.784 335.144 182.725 338.119C182.668 341.064 185.178 343.636 188.139 343.665C191.18 343.696 193.626 341.309 193.667 338.27Z" fill="#FF546B"/>
<path d="M87.0314 316.952C85.1972 316.952 83.3661 317.456 82.1789 316.798C81.177 316.24 80.7938 314.373 80.3541 313.016C78.9281 308.632 77.6027 304.217 76.2365 299.812C76.1108 299.412 75.9632 299.018 75.5141 298.647C75.5141 304.693 75.5141 310.739 75.5141 316.876C73.6485 316.876 72.0058 316.876 70.2501 316.876C70.2501 307.439 70.2501 298.115 70.2501 288.551C72.678 288.551 75.0273 288.466 77.3609 288.62C77.8414 288.652 78.4916 289.505 78.6737 290.1C80.2693 295.281 81.7706 300.489 83.3158 305.685C83.6488 306.8 84.0571 307.892 84.8423 308.985C86.7487 302.23 88.652 295.476 90.5805 288.642C93.2973 288.642 95.9481 288.642 98.7466 288.642C98.7466 298.023 98.7466 307.351 98.7466 316.832C96.9092 316.832 95.0907 316.832 93.0335 316.832C93.0335 310.874 93.0335 304.935 93.0335 298.999C92.9267 298.99 92.823 298.984 92.7162 298.974C90.8318 304.938 88.9473 310.899 87.0314 316.952Z" fill="#FF546B"/>
<path d="M124.604 288.639C126.548 288.639 128.395 288.639 130.518 288.639C130.518 293.59 130.518 298.54 130.518 303.49C130.707 303.575 130.892 303.657 131.081 303.742C132.076 302.545 133.072 301.352 134.064 300.155C137.274 296.276 137.617 296.146 143.129 296.883C141.429 298.889 139.978 300.886 138.232 302.57C136.935 303.821 137.12 304.778 137.899 306.132C139.875 309.577 141.737 313.088 143.854 316.952C141.709 316.952 139.89 317.002 138.085 316.905C137.752 316.886 137.375 316.3 137.152 315.903C135.851 313.579 134.592 311.233 133.329 308.909C129.648 310.644 130.911 313.982 130.506 316.845C128.543 316.845 126.652 316.845 124.614 316.845C124.604 307.53 124.604 298.203 124.604 288.639Z" fill="#FF546B"/>
<path d="M185.219 382.029C183.909 382.029 182.697 382.029 181.283 382.029C181.283 377.425 181.283 372.903 181.283 368.381C181.139 368.346 180.997 368.312 180.853 368.274C180.617 368.866 180.354 369.452 180.146 370.053C178.984 373.413 177.8 376.764 176.701 380.142C176.283 381.424 175.865 382.246 174.198 382.224C172.596 382.205 172.25 381.396 171.851 380.193C170.689 376.704 169.446 373.24 168.224 369.773C168.07 369.335 167.856 368.916 167.319 368.557C167.319 373.007 167.319 377.453 167.319 382.022C165.897 382.022 164.687 382.022 163.331 382.022C163.331 375.208 163.331 368.438 163.331 361.349C165.152 361.349 166.993 361.274 168.817 361.409C169.213 361.438 169.706 362.184 169.888 362.694C171.16 366.278 172.36 369.886 173.588 373.486C173.783 374.059 173.997 374.626 174.396 375.731C174.813 374.506 175.071 373.772 175.309 373.035C176.418 369.593 177.543 366.155 178.604 362.697C178.899 361.734 179.305 361.223 180.413 361.293C181.952 361.39 183.504 361.318 185.212 361.318C185.219 368.299 185.219 375.11 185.219 382.029Z" fill="#FF546B"/>
<path d="M196.331 316.914C194.135 316.914 192.286 316.914 190.247 316.914C190.2 316.256 190.125 315.661 190.125 315.062C190.115 306.894 190.15 298.726 190.09 290.557C190.081 289.08 190.388 288.476 192.025 288.504C197.424 288.605 202.826 288.542 208.407 288.542C208.407 290.236 208.407 291.801 208.407 293.618C205.125 293.618 201.903 293.725 198.69 293.577C196.83 293.492 196.227 293.993 196.281 295.939C196.416 300.794 196.315 300.798 201.202 300.798C205.584 300.798 205.584 300.798 204.852 305.584C202.748 305.584 200.583 305.675 198.432 305.556C196.83 305.468 196.218 305.93 196.29 307.631C196.425 310.67 196.331 313.718 196.331 316.914Z" fill="#FF546B"/>
<path d="M120.955 316.983C119.626 316.983 118.028 317.229 116.564 316.883C115.807 316.703 115.295 315.475 114.821 314.902C113.043 315.617 111.13 316.7 109.08 317.141C105.958 317.812 103.382 316.231 102.493 313.582C101.582 310.874 102.757 307.518 105.524 306.286C107.924 305.219 110.584 304.728 113.137 304.016C113.718 303.852 114.337 303.827 114.909 303.745C115.069 301.522 114.526 300.766 112.553 300.763C111.331 300.76 110.066 300.964 108.904 301.336C107.804 301.689 106.812 302.382 105.816 302.901C105.631 302.829 105.483 302.816 105.411 302.737C102.751 299.683 102.889 299.078 106.627 297.469C109.381 296.285 112.271 295.973 115.213 296.364C118.527 296.802 120.371 298.549 120.713 301.944C120.999 304.784 120.905 307.662 120.945 310.528C120.977 312.575 120.955 314.622 120.955 316.983ZM114.799 306.894C113.056 307.401 111.203 307.697 109.613 308.509C108.86 308.897 108.153 310.317 108.235 311.189C108.363 312.512 109.689 312.858 110.98 312.757C114.67 312.477 115.839 310.827 114.799 306.894Z" fill="#FF546B"/>
<path d="M210.69 299.884C214.038 296.392 221.068 295.114 225.116 297.142C227.07 298.118 228.04 299.843 228.197 301.944C228.36 304.117 228.32 306.305 228.335 308.487C228.354 311.224 228.338 313.963 228.338 316.968C226.938 316.968 225.245 317.169 223.652 316.864C223.059 316.75 222.688 315.447 222.139 314.559C221.404 315.044 220.48 315.733 219.488 316.303C217.047 317.701 213.479 317.582 211.708 316.098C208.542 313.444 208.982 308.213 212.795 306.393C215.267 305.212 218.096 304.794 220.744 303.965C221.388 303.764 221.947 303.288 222.547 302.939C221.95 302.237 221.353 300.946 220.757 300.942C218.951 300.939 217.123 301.358 215.345 301.78C214.594 301.956 213.941 302.548 213.018 303.081C212.242 302.013 211.494 300.986 210.69 299.884ZM222.186 306.727C220.245 307.454 218.247 308.037 216.441 308.985C215.892 309.271 215.571 310.635 215.716 311.394C215.819 311.939 216.821 312.565 217.512 312.698C221.218 313.412 223.392 310.868 222.186 306.727Z" fill="#FF546B"/>
<path d="M164.662 308.352C160.18 308.352 155.855 308.352 151.398 308.352C151.455 310.292 151.907 311.74 153.54 312.587C156.7 314.225 159.285 312.597 162.146 310.962C162.714 311.866 163.377 312.748 163.823 313.727C163.974 314.058 163.723 314.842 163.405 315.075C159.137 318.215 150.839 318.416 147.362 313.904C144.799 310.578 144.564 303.906 147.146 300.284C149.699 296.704 154.919 295.202 159.212 296.88C162.963 298.348 164.071 301.629 164.643 305.193C164.791 306.151 164.662 307.149 164.662 308.352ZM151.546 304.668C154.181 304.668 156.675 304.668 159.178 304.668C159.018 301.959 157.83 300.605 155.676 300.505C153.232 300.391 151.929 301.663 151.546 304.668Z" fill="#FF546B"/>
<path d="M276.625 308.377C272.137 308.377 267.859 308.377 263.465 308.377C263.352 310.153 263.783 311.504 265.18 312.373C268.462 314.42 271.229 312.603 274.138 310.984C274.851 312.106 275.535 313.182 276.195 314.218C273.051 318.004 262.828 319.036 259.071 313.538C256.813 310.232 256.666 303.761 259.1 300.398C261.732 296.761 266.572 295.265 270.918 296.779C272.885 297.463 274.323 298.751 275.281 300.627C276.49 302.983 276.757 305.471 276.625 308.377ZM271.085 304.702C271.148 302.082 269.882 300.59 267.617 300.505C265.18 300.413 263.817 301.783 263.575 304.702C266.085 304.702 268.585 304.702 271.085 304.702Z" fill="#FF546B"/>
<path d="M173.67 296.852C173.77 297.689 173.861 298.464 173.984 299.525C175.956 297.589 177.853 296.024 180.872 296.383C180.872 297.661 181.01 298.905 180.806 300.089C180.724 300.571 179.961 301.075 179.399 301.305C178.265 301.767 177.018 301.947 175.893 302.426C174.38 303.071 173.729 304.261 173.777 305.993C173.877 309.583 173.808 313.179 173.808 316.879C171.729 316.879 169.888 316.879 167.869 316.879C167.869 310.273 167.869 303.65 167.869 296.852C169.75 296.852 171.682 296.852 173.67 296.852Z" fill="#FF546B"/>
<path d="M248.763 316.873C246.715 316.873 244.884 316.873 242.896 316.873C242.896 310.213 242.896 303.591 242.896 296.82C244.815 296.82 246.693 296.82 248.653 296.82C248.725 297.708 248.791 298.489 248.886 299.654C250.842 297.573 252.805 296.027 255.842 296.361C255.842 297.201 255.783 297.938 255.855 298.663C256.037 300.486 255.663 301.408 253.437 301.503C250.198 301.641 248.763 303.528 248.763 306.718C248.763 310.065 248.763 313.412 248.763 316.873Z" fill="#FF546B"/>
<path d="M238.402 316.879C236.439 316.879 234.658 316.879 232.758 316.879C232.758 310.188 232.758 303.606 232.758 296.849C234.595 296.849 236.42 296.849 238.402 296.849C238.402 303.48 238.402 310.112 238.402 316.879Z" fill="#FF546B"/>
<path d="M235.607 293.618C232.591 293.618 231.747 292.503 232.569 289.587C232.632 289.364 232.783 288.983 232.896 288.979C234.677 288.951 236.53 288.705 238.188 289.165C238.609 289.282 238.496 291.672 238.408 293.001C238.392 293.243 237.321 293.454 236.718 293.602C236.37 293.687 235.977 293.618 235.607 293.618Z" fill="#FF546B"/>
<path d="M145.039 229.911C143.324 230.808 141.533 231.457 139.671 231.854C137.808 232.253 135.905 232.452 133.967 232.452C131.904 232.452 130.004 232.128 128.264 231.479C126.524 230.83 125.019 229.904 123.753 228.695C122.484 227.486 121.498 226.022 120.788 224.302C120.079 222.583 119.727 220.665 119.727 218.546C119.727 216.43 120.082 214.509 120.788 212.79C121.498 211.07 122.484 209.606 123.753 208.397C125.022 207.188 126.524 206.262 128.264 205.613C130.004 204.964 131.904 204.64 133.967 204.64C136.078 204.64 138.025 204.895 139.803 205.405C141.581 205.915 143.138 206.794 144.483 208.041L140.381 212.525C139.586 211.703 138.691 211.08 137.695 210.658C136.7 210.236 135.459 210.022 133.967 210.022C132.723 210.022 131.599 210.233 130.594 210.658C129.589 211.083 128.725 211.672 128.003 212.434C127.28 213.193 126.728 214.096 126.345 215.142C125.958 216.187 125.767 217.321 125.767 218.543C125.767 219.79 125.958 220.93 126.345 221.963C126.731 222.995 127.284 223.893 128.003 224.655C128.722 225.414 129.586 226.006 130.594 226.431C131.599 226.856 132.723 227.067 133.967 227.067C135.236 227.067 136.329 226.925 137.246 226.636C138.166 226.349 138.898 226.056 139.445 225.757V221.459H134.712V216.077H145.039V229.911V229.911Z" fill="#2F91C9"/>
<path d="M150.369 205.317H168.3V210.699H156.186V215.633H167.631V221.015H156.186V226.396H168.972V231.778H150.369V205.317Z" fill="#2F91C9"/>
<path d="M173.632 205.317H181.535L192.757 223.704H192.832V205.317H198.649V231.778H191.045L179.528 212.941H179.452V231.778H173.636V205.317H173.632Z" fill="#2F91C9"/>
<path d="M209.12 210.475H201.589V205.317H222.466V210.475H214.934V231.778H209.117V210.475H209.12Z" fill="#2F91C9"/>
</g>
<defs>
<clipPath id="clip0">
<rect width="348" height="432" fill="white"/>
</clipPath>
</defs>
</svg>
