<svg width="24" height="28" viewBox="0 0 24 28" fill="none" xmlns="http://www.w3.org/2000/svg">
<g clip-path="url(#clip0)">
<path d="M23.1429 1.74983H16.7143L16.2107 0.727171C16.104 0.508538 15.9397 0.324628 15.7362 0.196132C15.5328 0.0676359 15.2982 -0.000348697 15.0589 -0.000173517H8.93571C8.69699 -0.00111034 8.46283 0.0666207 8.26007 0.19526C8.05732 0.323899 7.89415 0.508243 7.78929 0.727171L7.28571 1.74983H0.857143C0.629814 1.74983 0.411797 1.84201 0.251051 2.00611C0.0903059 2.1702 0 2.39276 0 2.62483L0 4.37483C0 4.60689 0.0903059 4.82945 0.251051 4.99355C0.411797 5.15764 0.629814 5.24983 0.857143 5.24983H23.1429C23.3702 5.24983 23.5882 5.15764 23.7489 4.99355C23.9097 4.82945 24 4.60689 24 4.37483V2.62483C24 2.39276 23.9097 2.1702 23.7489 2.00611C23.5882 1.84201 23.3702 1.74983 23.1429 1.74983V1.74983ZM2.85 25.5389C2.89088 26.2053 3.17901 26.8308 3.65574 27.288C4.13247 27.7452 4.76196 27.9998 5.41607 27.9998H18.5839C19.238 27.9998 19.8675 27.7452 20.3443 27.288C20.821 26.8308 21.1091 26.2053 21.15 25.5389L22.2857 6.99983H1.71429L2.85 25.5389Z" fill="#FF546B"/>
</g>
<defs>
<clipPath id="clip0">
<rect width="24" height="28" fill="white"/>
</clipPath>
</defs>
</svg>
