<svg width="40" height="40" viewBox="0 0 40 40" fill="none" xmlns="http://www.w3.org/2000/svg">
<path d="M20.4001 6.56C27.4601 6.56 33.2601 11.78 34.2401 18.56H38.4001L31.4001 26.56L24.4001 18.56H29.0401C28.5927 16.6022 27.4947 14.854 25.9254 13.6007C24.3562 12.3475 22.4084 11.6634 20.4001 11.66C17.5001 11.66 14.9401 13.08 13.3201 15.22L9.9001 11.32C11.2091 9.82312 12.8235 8.62384 14.6346 7.80281C16.4457 6.98177 18.4116 6.55801 20.4001 6.56V6.56ZM19.6001 33.44C12.5601 33.44 6.7401 28.22 5.7601 21.44H1.6001L8.6001 13.44C10.9401 16.1 13.2601 18.78 15.6001 21.44H10.9601C11.4075 23.3978 12.5055 25.146 14.0748 26.3993C15.644 27.6525 17.5918 28.3366 19.6001 28.34C22.5001 28.34 25.0601 26.92 26.6801 24.78L30.1001 28.68C28.7923 30.1784 27.1782 31.3787 25.3668 32.1999C23.5555 33.0211 21.5889 33.444 19.6001 33.44V33.44Z" fill="#2F91C9"/>
</svg>
